<svg width="80" height="80" viewBox="0 0 80 80" fill="none" xmlns="http://www.w3.org/2000/svg">
<rect width="80" height="80" rx="20" fill="#00A64F" fill-opacity="0.08"/>
<path d="M26.155 37.3184C25.51 37.3184 25 36.8084 25 36.1634V32.6984C25 28.6334 28.315 25.3184 32.38 25.3184H35.845C36.49 25.3184 37 25.8284 37 26.4734C37 27.1184 36.49 27.6284 35.845 27.6284H32.38C29.575 27.6284 27.31 29.9084 27.31 32.6984V36.1634C27.31 36.8084 26.785 37.3184 26.155 37.3184Z" fill="#00A64F"/>
<path d="M53.845 37.3184C53.215 37.3184 52.69 36.8084 52.69 36.1634V32.6984C52.69 29.8934 50.41 27.6284 47.62 27.6284H44.155C43.51 27.6284 43 27.1034 43 26.4734C43 25.8434 43.51 25.3184 44.155 25.3184H47.62C51.685 25.3184 55 28.6334 55 32.6984V36.1634C55 36.8084 54.49 37.3184 53.845 37.3184Z" fill="#00A64F"/>
<path d="M47.62 55.3184H45.535C44.905 55.3184 44.38 54.8084 44.38 54.1634C44.38 53.5334 44.89 53.0084 45.535 53.0084H47.62C50.425 53.0084 52.69 50.7284 52.69 47.9384V45.8684C52.69 45.2384 53.2 44.7134 53.845 44.7134C54.475 44.7134 55 45.2234 55 45.8684V47.9384C55 52.0034 51.685 55.3184 47.62 55.3184Z" fill="#00A64F"/>
<path d="M35.845 55.3184H32.38C28.315 55.3184 25 52.0034 25 47.9384V44.4734C25 43.8284 25.51 43.3184 26.155 43.3184C26.8 43.3184 27.31 43.8284 27.31 44.4734V47.9384C27.31 50.7434 29.59 53.0084 32.38 53.0084H35.845C36.475 53.0084 37 53.5184 37 54.1634C37 54.8084 36.49 55.3184 35.845 55.3184Z" fill="#00A64F"/>
<path d="M49.69 39.1633H47.65H32.35H30.31C29.665 39.1633 29.155 39.6883 29.155 40.3183C29.155 40.9483 29.665 41.4733 30.31 41.4733H32.35H47.65H49.69C50.335 41.4733 50.845 40.9483 50.845 40.3183C50.845 39.6883 50.335 39.1633 49.69 39.1633Z" fill="#00A64F"/>
<path d="M32.35 43.2283V43.7233C32.35 46.2133 34.36 48.2233 36.85 48.2233H43.15C45.64 48.2233 47.65 46.2133 47.65 43.7233V43.2283C47.65 43.0483 47.515 42.9133 47.335 42.9133H32.665C32.485 42.9133 32.35 43.0483 32.35 43.2283Z" fill="#00A64F"/>
<path d="M32.35 37.4083V36.9133C32.35 34.4233 34.36 32.4133 36.85 32.4133H43.15C45.64 32.4133 47.65 34.4233 47.65 36.9133V37.4083C47.65 37.5883 47.515 37.7233 47.335 37.7233H32.665C32.485 37.7233 32.35 37.5883 32.35 37.4083Z" fill="#00A64F"/>
</svg>
