<svg width="81" height="80" viewBox="0 0 81 80" fill="none" xmlns="http://www.w3.org/2000/svg">
<rect x="0.333313" width="80" height="80" rx="20" fill="#00A64F" fill-opacity="0.08"/>
<path d="M51.5833 33.5683L49.3483 35.8033L44.8483 31.3033L47.0833 29.0683C47.7133 28.4383 48.5233 28.1383 49.3333 28.1383C50.1433 28.1383 50.9533 28.4383 51.5833 29.0683C52.8283 30.3133 52.8283 32.3233 51.5833 33.5683Z" fill="#DE6262"/>
<path d="M48.2983 36.8684L32.0833 53.0684C30.8383 54.3134 28.8283 54.3134 27.5833 53.0684C26.3383 51.8234 26.3383 49.8134 27.5833 48.5684L43.7983 32.3684L48.2983 36.8684Z" fill="#DE6262"/>
<path d="M37.2583 27.5684L37.8733 25.4834C37.9333 25.2884 37.8733 25.0784 37.7383 24.9284C37.6033 24.7784 37.3633 24.7184 37.1683 24.7784L35.0833 25.3934L32.9983 24.7784C32.8033 24.7184 32.5933 24.7784 32.4433 24.9134C32.2933 25.0634 32.2483 25.2734 32.3083 25.4684L32.9083 27.5684L32.2933 29.6534C32.2333 29.8484 32.2933 30.0584 32.4283 30.2084C32.5783 30.3584 32.7883 30.4034 32.9833 30.3434L35.0833 29.7434L37.1683 30.3584C37.2283 30.3734 37.2733 30.3884 37.3333 30.3884C37.4833 30.3884 37.6183 30.3284 37.7383 30.2234C37.8883 30.0734 37.9333 29.8634 37.8733 29.6684L37.2583 27.5684Z" fill="#DE6262"/>
<path d="M31.2583 36.5684L31.8733 34.4834C31.9333 34.2884 31.8733 34.0784 31.7383 33.9284C31.5883 33.7784 31.3783 33.7334 31.1833 33.7934L29.0833 34.3934L26.9983 33.7784C26.8033 33.7184 26.5933 33.7784 26.4433 33.9134C26.2933 34.0634 26.2483 34.2734 26.3083 34.4684L26.9083 36.5684L26.2933 38.6534C26.2333 38.8484 26.2933 39.0584 26.4283 39.2084C26.5783 39.3584 26.7883 39.4034 26.9833 39.3434L29.0683 38.7284L31.1533 39.3434C31.1983 39.3584 31.2583 39.3584 31.3183 39.3584C31.4683 39.3584 31.6033 39.2984 31.7233 39.1934C31.8733 39.0434 31.9183 38.8334 31.8583 38.6384L31.2583 36.5684Z" fill="#DE6262"/>
<path d="M53.7583 44.0684L54.3733 41.9834C54.4333 41.7884 54.3733 41.5784 54.2383 41.4284C54.0883 41.2784 53.8783 41.2334 53.6833 41.2934L51.5983 41.9084L49.5133 41.2934C49.3183 41.2334 49.1083 41.2934 48.9583 41.4284C48.8083 41.5784 48.7633 41.7884 48.8233 41.9834L49.4383 44.0684L48.8233 46.1534C48.7633 46.3484 48.8233 46.5584 48.9583 46.7084C49.1083 46.8584 49.3183 46.9034 49.5133 46.8434L51.5983 46.2284L53.6833 46.8434C53.7283 46.8584 53.7883 46.8584 53.8483 46.8584C53.9983 46.8584 54.1333 46.7984 54.2533 46.6934C54.4033 46.5434 54.4483 46.3334 54.3883 46.1384L53.7583 44.0684Z" fill="#DE6262"/>
</svg>
