<svg width="81" height="80" viewBox="0 0 81 80" fill="none" xmlns="http://www.w3.org/2000/svg">
<rect x="0.666626" width="80" height="80" rx="20" fill="#00A64F" fill-opacity="0.08"/>
<path d="M46.3666 25.6333C45.7516 25.0183 44.6866 25.4383 44.6866 26.2933V31.5283C44.6866 33.7183 46.5466 35.5333 48.8116 35.5333C50.2366 35.5483 52.2166 35.5483 53.9116 35.5483C54.7666 35.5483 55.2166 34.5433 54.6166 33.9433C52.4566 31.7683 48.5866 27.8533 46.3666 25.6333Z" fill="#4F99F4"/>
<path d="M44.8066 51.2083C41.2816 51.4633 41.2816 56.5633 44.8066 56.8183H53.1466C54.1516 56.8183 55.1416 56.4433 55.8766 55.7683C58.3516 53.6083 57.0316 49.2883 53.7766 48.8833C52.6066 41.8483 42.4366 44.5183 44.8366 51.2233" fill="#4F99F4"/>
<path d="M54.9166 39.1034V43.9784C54.9166 44.4284 54.2566 44.6384 53.9266 44.3234C53.2066 43.6184 52.3216 43.0784 51.3016 42.7634C48.7816 41.9834 45.8566 42.7484 44.0416 44.6684C42.8266 45.9284 42.2116 47.5334 42.2266 49.2734C42.2266 49.5584 42.0916 49.8134 41.8666 49.9784C40.6666 50.8934 39.9166 52.3334 39.9166 53.9984C39.9166 54.1184 39.9166 54.2384 39.9316 54.3584C39.9616 54.8384 39.6166 55.3034 39.1216 55.3034H34.7716C30.1516 55.3034 26.4166 52.3034 26.4166 46.9484V33.6734C26.4166 28.3184 30.1516 25.3184 34.7716 25.3184H41.1316C41.9566 25.3184 42.6316 25.9934 42.6316 26.8184V31.1534C42.6316 34.7234 45.5116 37.6034 49.0816 37.6034H53.4166C54.2416 37.6034 54.9166 38.2784 54.9166 39.1034Z" fill="#4F99F4"/>
</svg>
