<svg width="104" height="32" viewBox="0 0 104 32" fill="none" xmlns="http://www.w3.org/2000/svg">
<path d="M38.3145 31.0188C37.1011 30.3658 36.1646 29.4508 35.5051 28.273C34.8455 27.0951 34.5153 25.7395 34.5153 24.2071C34.5153 22.6747 34.8521 21.3162 35.5266 20.1309C36.2002 18.9465 37.1404 18.0306 38.3473 17.385C39.5532 16.7395 40.9303 16.4167 42.4768 16.4167C44.6763 16.4167 46.5642 17.1904 48.1388 18.7369L45.9889 20.8868C45.0383 19.9784 43.8951 19.5246 42.5619 19.5246C41.6675 19.5246 40.877 19.7202 40.1884 20.1103C39.4999 20.5004 38.9675 21.0505 38.5924 21.7597C38.2163 22.4698 38.0283 23.2856 38.0283 24.208C38.0283 25.1305 38.2163 25.9463 38.5924 26.6564C38.9685 27.3664 39.5008 27.9156 40.1884 28.3057C40.877 28.6968 41.6675 28.8914 42.5619 28.8914C43.2711 28.8914 43.9522 28.7642 44.6052 28.5087C45.2582 28.2533 45.8251 27.8847 46.3079 27.402L48.3511 29.6801C46.7476 31.2265 44.8101 32.0002 42.5395 32.0002C40.9359 32.0002 39.527 31.6737 38.3145 31.0207V31.0188Z" fill="#0FB2B2"/>
<path d="M55.8094 26.8553H53.6951V31.9971H50.0446V16.4155H57.6356C58.763 16.4155 59.75 16.6344 60.5957 17.0723C61.4414 17.5101 62.0945 18.1295 62.5547 18.9312C63.015 19.733 63.2452 20.6526 63.2452 21.6911C63.2452 22.8783 62.9374 23.8953 62.3218 24.741C61.7062 25.5867 60.8343 26.1874 59.706 26.5438L64.1134 31.9971H59.7724L55.8104 26.8553H55.8094ZM59.0034 20.111C58.5805 19.7255 57.9827 19.5318 57.2118 19.5318H53.6726V23.9168H57.2118C57.9986 23.9168 58.5992 23.7278 59.0146 23.3489C59.43 22.9709 59.6377 22.433 59.6377 21.7351C59.6377 21.0371 59.4263 20.4964 59.0034 20.11V20.111Z" fill="#0FB2B2"/>
<path d="M79.7183 16.4155H82.9909V31.9971H79.3628V22.2478L74.7777 27.8573H74.0657L69.4357 22.2253V31.9971H65.8076V16.4155H69.0802L74.4007 23.0486L79.7211 16.4155H79.7183Z" fill="#0FB2B2"/>
<path d="M89.0427 9.56399C88.8082 9.56399 88.5736 9.54673 88.3414 9.513L90.9544 3.91048C91.5985 2.52986 92.9987 1.63794 94.5229 1.63794C94.9402 1.63794 95.3489 1.70305 95.7427 1.83327L93.4474 6.75724C92.6527 8.46263 90.9238 9.56478 89.0435 9.56478L89.0427 9.56399Z" fill="#0E7C79"/>
<path d="M89.0435 9.56393C88.6199 9.56393 88.1956 9.50824 87.7837 9.39763L82.5358 7.99112C83.1288 6.51714 84.5683 5.52246 86.185 5.52246C86.5278 5.52246 86.8706 5.56796 87.2048 5.65739L91.735 6.87171C91.7813 6.88583 91.826 6.8976 91.8738 6.90858C92.0919 6.96035 92.3162 6.98702 92.5406 6.98702C92.8363 6.98702 93.1258 6.94074 93.4011 6.85524C92.9124 7.84442 92.0982 8.64221 91.0972 9.10895C90.4571 9.40704 89.7472 9.56472 89.0451 9.56472L89.0435 9.56393Z" fill="#0FB2B2"/>
<path d="M87.8779 4.41252C87.0236 4.41252 86.2384 3.91204 85.8768 3.13857C85.6281 2.60436 85.6014 2.00583 85.803 1.45201C86.0046 0.898192 86.4094 0.456548 86.9436 0.207094C87.2386 0.0698158 87.5516 0 87.8747 0C88.729 0 89.5142 0.500477 89.8759 1.27394C90.1245 1.80815 90.1512 2.40668 89.9496 2.9605C89.748 3.51432 89.3432 3.95597 88.809 4.20542C88.5141 4.3427 88.2011 4.41252 87.8779 4.41252Z" fill="#0FB2B2"/>
<path d="M86.0343 15.0706C84.1752 15.0706 82.5694 13.7324 82.1906 11.947L87.6017 11.4732C87.7437 11.4606 87.888 11.4543 88.0292 11.4543C90.0311 11.4543 91.8134 12.6883 92.5413 14.516L86.3826 15.055C86.2673 15.0652 86.1497 15.0706 86.0343 15.0706Z" fill="#0E7C79"/>
<path d="M93.5682 20.3462C91.793 20.3462 90.2311 19.1468 89.7699 17.4297L88.5563 12.8995C88.5454 12.8524 88.5328 12.8077 88.5195 12.7606C88.3681 12.2531 88.0818 11.8099 87.7068 11.4655C87.8135 11.4585 87.9209 11.4553 88.0276 11.4553C89.0286 11.4553 89.9911 11.7589 90.8132 12.3347C91.7475 12.9897 92.4245 13.9577 92.7194 15.0591L94.1251 20.307C93.94 20.3337 93.7541 20.347 93.5682 20.347V20.3462Z" fill="#0FB2B2"/>
<path d="M86.4429 20.779C85.9895 20.779 85.5526 20.6409 85.1792 20.3797C84.1829 19.6815 83.9398 18.3033 84.6379 17.307C85.0505 16.7179 85.7267 16.3665 86.4468 16.3665C86.9003 16.3665 87.3372 16.5045 87.7106 16.7657C88.7068 17.4631 88.95 18.8414 88.2526 19.8376C87.84 20.4268 87.1638 20.7782 86.4437 20.7782L86.4429 20.779Z" fill="#0FB2B2"/>
<path d="M94.6091 14.1781C93.3634 12.3998 93.4552 10.0449 94.7746 8.37793L98.3203 13.4423C98.9228 14.3029 99.155 15.347 98.9722 16.3824C98.8177 17.2602 98.38 18.0431 97.7257 18.6283L94.6091 14.1789V14.1781Z" fill="#0E7C79"/>
<path d="M94.548 14.09C93.9353 13.1722 93.6514 12.0669 93.7471 10.9656C93.8475 9.82892 94.3464 8.75893 95.1528 7.95252L98.995 4.11108C100.205 5.65331 100.101 7.89996 98.6812 9.32138L95.3654 12.6372C95.3301 12.6702 95.2971 12.7039 95.2634 12.7392C94.8986 13.1252 94.6586 13.5943 94.548 14.09Z" fill="#0FB2B2"/>
<path d="M101.337 13.8354C101.272 13.8354 101.206 13.8322 101.142 13.8267C100.555 13.7757 100.023 13.4988 99.6451 13.047C99.2663 12.5959 99.0858 12.0241 99.1376 11.4365C99.2365 10.3069 100.201 9.42285 101.332 9.42285C101.398 9.42285 101.463 9.42599 101.528 9.43148C102.739 9.53738 103.639 10.6097 103.533 11.8217C103.434 12.9513 102.47 13.8354 101.338 13.8354H101.337Z" fill="#0FB2B2"/>
<path d="M28.4235 30.0956C29.0129 30.0956 29.5042 30.0201 29.8972 29.8689C30.3053 29.7026 30.7133 29.423 31.1214 29.03L32.5951 30.3904C32.1417 30.9194 31.5749 31.3199 30.8947 31.592C30.2146 31.864 29.3757 32.0001 28.3781 32.0001C26.7457 32.0001 25.5366 31.6676 24.7506 31.0025C23.9646 30.3223 23.5717 29.287 23.5717 27.8964V24.5863C23.5717 23.4225 23.9798 22.508 24.7959 21.843C25.6273 21.1628 26.7609 20.8228 28.1968 20.8228C29.6629 20.8228 30.804 21.1855 31.6202 21.911C32.4364 22.6214 32.8445 23.6492 32.8445 24.9944C32.8445 25.6141 32.7841 26.0978 32.6631 26.4454C32.5422 26.7931 32.3231 27.05 32.0057 27.2163C31.6882 27.3674 31.2197 27.443 30.6 27.443H26.0202V27.8964C26.0202 29.3626 26.8213 30.0956 28.4235 30.0956ZM28.1741 22.7045C27.509 22.7045 26.98 22.8935 26.587 23.2713C26.2092 23.6492 26.0202 24.148 26.0202 24.7677V25.7426H29.2623C29.6856 25.7426 29.9803 25.6746 30.1465 25.5385C30.3128 25.3874 30.3959 25.1304 30.3959 24.7677C30.3959 24.1026 30.1995 23.5963 29.8065 23.2487C29.4286 22.8859 28.8845 22.7045 28.1741 22.7045Z" fill="#363F3E"/>
<path d="M17.7065 31.9998C16.1648 31.9998 14.9783 31.6446 14.147 30.9342C13.3157 30.2238 12.9 29.2036 12.9 27.8735V24.9261C12.9 23.6111 13.3157 22.5985 14.147 21.8881C14.9934 21.1626 16.1799 20.7998 17.7065 20.7998C19.5958 20.7998 20.9788 21.3968 21.8555 22.5909L20.1551 23.9739C19.7772 23.5205 19.4069 23.203 19.0441 23.0217C18.6965 22.8252 18.2506 22.7269 17.7065 22.7269C16.9659 22.7269 16.3915 22.9234 15.9834 23.3164C15.5753 23.6943 15.3713 24.2308 15.3713 24.9261V27.8735C15.3713 28.5839 15.5678 29.128 15.9608 29.5059C16.3688 29.8837 16.9508 30.0727 17.7065 30.0727C18.2657 30.0727 18.7267 29.982 19.0895 29.8006C19.4674 29.6041 19.8301 29.2867 20.1778 28.8484L21.8782 30.2314C21.4398 30.8209 20.8881 31.2667 20.2231 31.569C19.558 31.8562 18.7192 31.9998 17.7065 31.9998Z" fill="#363F3E"/>
<path d="M10.2621 28.8937C10.2621 29.2565 10.3302 29.5512 10.4662 29.7779C10.6022 30.0047 10.8516 30.2616 11.2144 30.5488L9.5593 31.9998C8.71288 31.5766 8.17631 31.0173 7.94959 30.3221C7.60195 30.8057 7.12584 31.2063 6.52125 31.5237C5.91666 31.8411 5.19871 31.9998 4.36741 31.9998C3.27915 31.9998 2.41761 31.7277 1.78279 31.1836C1.14798 30.6244 0.830566 29.8384 0.830566 28.8257C0.830566 27.6619 1.23111 26.8381 2.03218 26.3545C2.83326 25.8708 3.85351 25.5609 5.09291 25.4249L6.40789 25.2889C6.89156 25.2435 7.23164 25.1604 7.42813 25.0395C7.63974 24.9034 7.76066 24.707 7.79089 24.45C7.7002 23.1804 6.9369 22.5456 5.50101 22.5456C4.94176 22.5456 4.45809 22.6438 4.05 22.8403C3.65702 23.0217 3.27915 23.3315 2.91639 23.7698L1.21599 22.5682C1.62409 22.009 2.16822 21.5782 2.84838 21.2759C3.52854 20.9585 4.41275 20.7998 5.50101 20.7998C7.08805 20.7998 8.27456 21.1323 9.06052 21.7974C9.8616 22.4473 10.2621 23.3995 10.2621 24.6541V28.8937ZM4.97955 30.186C5.8562 30.186 6.54392 29.9669 7.04271 29.5285C7.54149 29.0902 7.79089 28.5385 7.79089 27.8735V26.6492C7.50371 26.7701 7.00492 26.8684 6.29453 26.9439L5.27429 27.0573C3.88374 27.2084 3.18846 27.7601 3.18846 28.7124C3.18846 29.196 3.33961 29.5663 3.6419 29.8233C3.95931 30.0651 4.40519 30.186 4.97955 30.186Z" fill="#363F3E"/>
</svg>
