<svg width="85" height="32" viewBox="0 0 85 32" fill="none" xmlns="http://www.w3.org/2000/svg">
<path d="M28.1909 8.05496V23.1255C28.1909 23.6052 27.811 24.005 27.3111 24.005H9.07401C8.59408 24.005 8.19415 23.6252 8.19415 23.1255V20.867C8.19415 20.3873 8.57409 19.9875 9.07401 19.9875H24.1916V9.71393L18.4725 3.9975H1.07529C0.575373 3.9975 0.195435 3.61774 0.195435 3.11805V0.87945C0.195435 0.379763 0.575373 0 1.07529 0H20.1322L24.1316 3.9975L24.1916 4.05746L28.1909 8.05496Z" fill="#1E88E5"/>
<path d="M28.1909 28.8621V31.1207C28.1909 31.6004 27.811 32.0001 27.3111 32.0001H1.07529C0.59537 32.0001 0.195435 31.6203 0.195435 31.1207V8.87457C0.195435 8.37488 0.575373 7.99512 1.07529 7.99512H3.33493C3.81485 7.99512 4.21479 8.37488 4.21479 8.87457V27.9826H27.3311C27.811 27.9826 28.1909 28.3624 28.1909 28.8621Z" fill="#1E88E5"/>
<path d="M28.1909 8.05496V23.1255C28.1909 23.6052 27.811 24.005 27.3111 24.005H9.07401C8.59408 24.005 8.19415 23.6252 8.19415 23.1255V20.867C8.19415 20.3873 8.57409 19.9875 9.07401 19.9875H24.1916V9.71393L18.4725 3.9975H1.07529C0.575373 3.9975 0.195435 3.61774 0.195435 3.11805V0.87945C0.195435 0.379763 0.575373 0 1.07529 0H20.1322L24.1316 3.9975L24.1916 4.05746L28.1909 8.05496Z" fill="url(#paint0_linear_2717_15142)"/>
<path d="M28.1909 28.8621V31.1207C28.1909 31.6004 27.811 32.0001 27.3111 32.0001H1.07529C0.59537 32.0001 0.195435 31.6203 0.195435 31.1207V8.87457C0.195435 8.37488 0.575373 7.99512 1.07529 7.99512H3.33493C3.81485 7.99512 4.21479 8.37488 4.21479 8.87457V27.9826H27.3311C27.811 27.9826 28.1909 28.3624 28.1909 28.8621Z" fill="url(#paint1_linear_2717_15142)"/>
<path d="M19.3324 15.9899H9.05401C8.57409 15.9899 8.19415 15.6102 8.19415 15.1305V12.8519C8.19415 12.3722 8.57409 11.9924 9.05401 11.9924H19.3124C19.7923 11.9924 20.1722 12.3722 20.1722 12.8519V15.1105C20.1922 15.6102 19.8123 15.9899 19.3324 15.9899Z" fill="#FF8F00"/>
<path d="M62.0855 8.39592C63.121 8.20483 64.5548 8.06152 66.4983 8.06152C68.6171 8.06152 70.1624 8.50738 71.1661 9.35132C72.106 10.1316 72.7114 11.3736 72.7114 12.8386C72.7114 14.3354 72.2494 15.5774 71.3572 16.4213C70.2102 17.5678 68.3941 18.1092 66.355 18.1092C65.8133 18.1092 65.3195 18.0933 64.9531 18.0137V23.985H62.0855V8.39592ZM64.9371 15.7525C65.2876 15.8481 65.7655 15.864 66.339 15.864C68.4897 15.864 69.812 14.8131 69.812 12.95C69.812 11.1984 68.5853 10.259 66.5939 10.259C65.7974 10.259 65.2398 10.3227 64.9212 10.4023V15.7525H64.9371Z" fill="#1565C0"/>
<path d="M75.1966 8.1731H78.0801V21.5647H84.5799V23.9851H75.1966V8.1731Z" fill="#1565C0"/>
<path d="M62.0855 8.39592C63.121 8.20483 64.5548 8.06152 66.4983 8.06152C68.6171 8.06152 70.1624 8.50738 71.1661 9.35132C72.106 10.1316 72.7114 11.3736 72.7114 12.8386C72.7114 14.3354 72.2494 15.5774 71.3572 16.4213C70.2102 17.5678 68.3941 18.1092 66.355 18.1092C65.8133 18.1092 65.3195 18.0933 64.9531 18.0137V23.985H62.0855V8.39592ZM64.9371 15.7525C65.2876 15.8481 65.7655 15.864 66.339 15.864C68.4897 15.864 69.812 14.8131 69.812 12.95C69.812 11.1984 68.5853 10.259 66.5939 10.259C65.7974 10.259 65.2398 10.3227 64.9212 10.4023V15.7525H64.9371Z" fill="url(#paint2_linear_2717_15142)"/>
<path d="M75.1966 8.1731H78.0801V21.5647H84.5799V23.9851H75.1966V8.1731Z" fill="url(#paint3_linear_2717_15142)"/>
<path d="M33.1901 18.9081C33.3301 18.2086 33.5501 17.569 33.83 16.9693C34.11 16.3697 34.4699 15.85 34.9099 15.4103C35.3498 14.9706 35.8697 14.6108 36.4696 14.371C37.0695 14.1111 37.7694 13.9912 38.5693 13.9912C39.2092 13.9912 39.7891 14.1111 40.329 14.371C40.8489 14.6308 41.2888 14.9706 41.6288 15.3903C41.9687 15.8101 42.2087 16.3098 42.3287 16.8894C42.4486 17.469 42.4486 18.0687 42.3287 18.6883L42.1687 19.5277C42.1287 19.6677 42.0487 19.7876 41.9287 19.8875C41.8088 19.9875 41.6888 20.0274 41.5488 20.0274H35.3698C35.3098 20.3073 35.3098 20.5671 35.3898 20.767C35.4698 20.9868 35.5898 21.1667 35.7497 21.3066C35.9097 21.4466 36.1297 21.5665 36.3696 21.6464C36.6096 21.7264 36.8695 21.7664 37.1295 21.7664C37.5294 21.7664 37.8494 21.7264 38.1293 21.6464C38.3893 21.5665 38.6293 21.4665 38.8092 21.3466C38.9492 21.2467 39.0892 21.1867 39.1892 21.1467C39.2892 21.1068 39.4091 21.0868 39.5691 21.0868H41.0489C41.1889 21.0868 41.2888 21.1267 41.3688 21.2267C41.4488 21.3266 41.4688 21.4466 41.4288 21.5865C41.3888 21.7664 41.2488 21.9862 41.0489 22.2461C40.8489 22.5259 40.549 22.7857 40.169 23.0456C39.7891 23.3054 39.3292 23.5253 38.7892 23.7051C38.2493 23.885 37.5894 23.985 36.8496 23.985C36.2496 23.985 35.6897 23.865 35.1698 23.6052C34.6499 23.3454 34.23 23.0056 33.89 22.5659C33.5501 22.1261 33.3101 21.5865 33.1701 20.9669C33.0102 20.3273 33.0302 19.6477 33.1901 18.9081ZM38.2893 16.2098C37.9294 16.2098 37.6094 16.2698 37.3295 16.3697C37.0495 16.4697 36.8096 16.6096 36.5896 16.7695C36.3896 16.9294 36.2097 17.1292 36.0697 17.3291C35.9297 17.529 35.8297 17.7289 35.7697 17.9088H39.989C40.009 17.7289 39.989 17.529 39.969 17.3291C39.949 17.1292 39.8691 16.9494 39.7491 16.7695C39.6291 16.6096 39.4491 16.4697 39.2292 16.3697C39.0092 16.2698 38.6893 16.2098 38.2893 16.2098Z" fill="#FF8F00"/>
<path d="M47.1479 15.1305C47.4679 14.7907 47.8078 14.5109 48.2077 14.311C48.5877 14.1111 49.0676 13.9912 49.6475 13.9912C50.3474 13.9912 50.9673 14.1511 51.4872 14.4709C52.0071 14.7907 52.3871 15.1705 52.627 15.6102C53.0869 15.0905 53.5669 14.6908 54.0868 14.4309C54.6067 14.1511 55.1866 14.0112 55.8265 14.0112C56.4864 14.0112 57.0463 14.1311 57.4862 14.371C57.9262 14.6108 58.2661 14.9306 58.5061 15.3304C58.746 15.7301 58.886 16.2098 58.926 16.7295C58.966 17.2692 58.926 17.8288 58.806 18.4084L57.7262 23.4853C57.7062 23.6252 57.6262 23.7451 57.5062 23.8451C57.3863 23.945 57.2663 24.005 57.1263 24.005H55.6865C55.5465 24.005 55.4466 23.945 55.3466 23.8451C55.2666 23.7451 55.2266 23.6252 55.2666 23.4853L56.3264 18.5084C56.5064 17.6489 56.4664 17.0493 56.2064 16.7095C55.9465 16.3697 55.5265 16.2098 54.9466 16.2098C54.4467 16.2098 53.9868 16.3697 53.5469 16.7095C53.1269 17.0293 52.807 17.6089 52.607 18.4284L51.5272 23.5053C51.5072 23.6452 51.4272 23.7651 51.3072 23.865C51.1873 23.965 51.0673 24.0249 50.9273 24.0249H49.4875C49.3475 24.0249 49.2476 23.965 49.1476 23.865C49.0676 23.7651 49.0276 23.6452 49.0676 23.5053L50.1274 18.5284C50.3074 17.6689 50.2674 17.0693 50.0074 16.7295C49.7475 16.3897 49.3276 16.2298 48.7476 16.2298C48.2277 16.2298 47.7478 16.4097 47.3079 16.7495C46.868 17.0893 46.568 17.6889 46.388 18.5284L45.3282 23.5053C45.3082 23.6452 45.2282 23.7651 45.1082 23.865C44.9883 23.965 44.8683 24.0249 44.7283 24.0249H43.2885C43.1486 24.0249 43.0486 23.965 42.9486 23.865C42.8686 23.7651 42.8286 23.6452 42.8686 23.5053L44.7283 14.7108C44.7483 14.5708 44.8283 14.4509 44.9483 14.351C45.0682 14.251 45.2082 14.1911 45.3482 14.1911H46.788C46.9279 14.1911 47.0279 14.251 47.1079 14.351C47.1879 14.4509 47.2079 14.5708 47.1879 14.7108L47.1479 15.1305Z" fill="#FF8F00"/>
<defs>
<linearGradient id="paint0_linear_2717_15142" x1="0.195435" y1="15.99" x2="28.1909" y2="15.99" gradientUnits="userSpaceOnUse">
<stop stop-color="#2BBAF7"/>
<stop offset="1" stop-color="#2B5BF7"/>
</linearGradient>
<linearGradient id="paint1_linear_2717_15142" x1="0.195435" y1="15.9901" x2="28.1909" y2="15.9901" gradientUnits="userSpaceOnUse">
<stop stop-color="#2BBAF7"/>
<stop offset="1" stop-color="#2B5BF7"/>
</linearGradient>
<linearGradient id="paint2_linear_2717_15142" x1="62.0815" y1="16.0232" x2="84.5809" y2="16.0232" gradientUnits="userSpaceOnUse">
<stop stop-color="#2BBAF7"/>
<stop offset="1" stop-color="#2B5BF7"/>
</linearGradient>
<linearGradient id="paint3_linear_2717_15142" x1="62.0815" y1="16.0233" x2="84.581" y2="16.0233" gradientUnits="userSpaceOnUse">
<stop stop-color="#2BBAF7"/>
<stop offset="1" stop-color="#2B5BF7"/>
</linearGradient>
</defs>
</svg>
