<svg width="144" height="32" viewBox="0 0 144 32" fill="none" xmlns="http://www.w3.org/2000/svg">
<path d="M80.7405 11.4212H76.6055V9.6001H86.8903V11.4212H82.7728V22.1925H80.7405V11.4212Z" fill="#3871DF"/>
<path d="M87.8249 18.1655C87.9849 19.5129 89.1051 20.3946 90.7197 20.3946C91.6175 20.3946 92.7505 20.0522 93.2898 19.4345L94.4947 20.6042C93.5778 21.6108 92.0496 22.1149 90.6829 22.1149C87.7705 22.1149 85.8998 20.2618 85.8998 17.4213C85.8998 14.7249 87.7881 12.7998 90.5565 12.7998C93.4162 12.7998 95.3573 14.5441 95.0164 18.1591L87.8249 18.1655ZM93.2385 16.6004C93.1297 15.1986 92.1056 14.4609 90.6125 14.4609C89.2635 14.4609 88.1497 15.1986 87.8617 16.6004H93.2385Z" fill="#3871DF"/>
<path d="M98.8282 9.6001V22.1685H96.9751V9.6001H98.8282Z" fill="#3871DF"/>
<path d="M103.341 9.6001V22.1685H101.488V9.6001H103.341Z" fill="#3871DF"/>
<path d="M107.321 18.1655C107.481 19.5129 108.601 20.3946 110.216 20.3946C111.113 20.3946 112.246 20.0522 112.786 19.4345L113.991 20.6042C113.074 21.6108 111.545 22.1149 110.179 22.1149C107.266 22.1149 105.396 20.2618 105.396 17.4213C105.396 14.7249 107.284 12.7998 110.052 12.7998C112.912 12.7998 114.853 14.5441 114.512 18.1591L107.321 18.1655ZM112.733 16.6004C112.624 15.1986 111.6 14.4609 110.107 14.4609C108.758 14.4609 107.644 15.1986 107.356 16.6004H112.733Z" fill="#3871DF"/>
<path d="M118.119 13.637L118.246 14.8068C118.886 13.6738 119.899 13.4402 120.852 13.4402C121.715 13.4402 122.542 13.7458 123.046 14.1955L122.203 15.8134C121.768 15.4427 121.209 15.25 120.638 15.2741C119.358 15.2741 118.247 16.0646 118.247 17.7017V22.5024H116.392V13.637H118.119Z" fill="#3871DF"/>
<path d="M125.404 20.9797C125.404 22.5079 123.122 22.5079 123.122 20.9797C123.122 19.4514 125.404 19.469 125.404 20.9797Z" fill="#3871DF"/>
<path d="M136.746 19.5425H129.932L128.745 22.1861H126.605L132.251 9.6001H134.445L140.09 22.1861H137.951L136.746 19.5425ZM133.349 11.7204L130.684 17.7086H136.007L133.349 11.7204Z" fill="#3871DF"/>
<path d="M141.835 22.1861V9.6001H143.83V22.1861H141.835Z" fill="#3871DF"/>
<path d="M52.5715 18.1655C52.7315 19.5129 53.8517 20.3946 55.4663 20.3946C56.3657 20.3946 57.4986 20.0522 58.0379 19.4345L59.2429 20.6042C58.326 21.6108 56.7977 22.1149 55.4311 22.1149C52.5186 22.1149 50.6479 20.2618 50.6479 17.4213C50.6479 14.7249 52.5362 12.7998 55.3047 12.7998C58.1643 12.7998 60.1054 14.5441 59.7646 18.1591L52.5715 18.1655ZM57.9835 16.6004C57.8763 15.1986 56.8521 14.4609 55.3591 14.4609C54.0101 14.4609 52.8963 15.1986 52.6083 16.6004H57.9835Z" fill="#FF960F"/>
<path d="M67.7112 22.4672V17.5944C67.7112 16.2822 66.9558 15.1845 65.6436 15.1845C64.3314 15.1845 63.5025 16.2822 63.5025 17.5944V22.4672H61.651V13.5842H63.3777L63.5025 14.7716C64.0066 13.8002 65.0499 13.4402 65.9845 13.4402C67.1175 13.4402 68.2681 13.9075 68.7721 15.2213C69.4906 13.9075 70.606 13.461 71.8126 13.461C74.2578 13.461 75.57 15.0084 75.57 17.5608V22.4704H73.6977V17.5576C73.6977 16.2454 73.0576 15.2021 71.739 15.2021C70.4204 15.2021 69.5803 16.2822 69.5803 17.6024V22.4752L67.7112 22.4672Z" fill="#FF960F"/>
<path opacity="0.2" d="M18.2141 31.9999C28.2735 31.9999 36.4282 30.5483 36.4282 28.7577C36.4282 26.9672 28.2735 25.5156 18.2141 25.5156C8.15472 25.5156 0 26.9672 0 28.7577C0 30.5483 8.15472 31.9999 18.2141 31.9999Z" fill="#3871DF"/>
<path d="M9.57906 0.987061L1.20333 8.93872C0.761711 9.35763 0.425607 9.87519 0.222556 10.449C0.0195048 11.0229 -0.0447206 11.6366 0.0351435 12.24L1.48658 23.237C1.58217 23.964 1.82996 24.6627 2.21378 25.2876C2.5976 25.9124 3.10884 26.4493 3.71413 26.8632L6.42176 28.7179C7.19068 29.2414 8.09992 29.5204 9.03017 29.518H34.8711C35.3025 29.5188 35.7284 29.4214 36.1166 29.2331C36.5047 29.0449 36.845 28.7707 37.1114 28.4314L41.2721 23.333L9.57906 0.987061Z" fill="#3871DF"/>
<path d="M10.922 18.8011L8.45445 4.7189C7.97438 2.02087 9.77146 -0.0898674 12.4551 0.00294733L33.9497 0.753467C36.6237 0.843081 39.1841 3.10584 39.6642 5.80387L42.1334 19.8861C42.6135 22.5841 40.8148 24.6949 38.1328 24.6021L16.6398 23.8515C13.9513 23.7603 11.3957 21.4976 10.922 18.8011Z" fill="#3871DF"/>
<path d="M37.2219 21.7423L16.5386 21.019C15.1976 20.9726 13.919 19.8412 13.6822 18.4922L11.357 5.21491C11.1201 3.86589 12.0147 2.81452 13.3557 2.85773L34.0406 3.57945C35.3816 3.62585 36.6586 4.75723 36.8954 6.10625L39.2222 19.3788C39.4574 20.7374 38.5629 21.7887 37.2219 21.7423Z" fill="white"/>
<path d="M31.8159 13.6254C33.319 13.3552 34.2636 11.6123 33.9258 9.73256C33.5879 7.85281 32.0955 6.54798 30.5924 6.81817C29.0892 7.08835 28.1446 8.83122 28.4825 10.711C28.8204 12.5907 30.3128 13.8956 31.8159 13.6254Z" fill="#FF960F"/>
<path d="M22.3401 13.6249C23.8432 13.3547 24.7878 11.6118 24.4499 9.73208C24.112 7.85232 22.6196 6.5475 21.1165 6.81768C19.6134 7.08786 18.6688 8.83073 19.0067 10.7105C19.3446 12.5902 20.837 13.8951 22.3401 13.6249Z" fill="#FF960F"/>
<path d="M14.1304 16.3724L14.5544 20.109C16.8396 22.6021 20.5506 24.6089 24.5208 24.6585C22.6538 23.5993 21.0453 22.1389 19.8113 20.3826C18.8994 19.0813 18.204 17.6412 17.7517 16.1179L14.1304 16.3724Z" fill="white"/>
<path d="M27.5486 17.2168C26.5884 17.2632 25.481 16.9352 24.3929 15.8598C24.3266 15.7983 24.2734 15.724 24.2363 15.6415C24.1993 15.559 24.1792 15.4699 24.1773 15.3795C24.1753 15.289 24.1916 15.1991 24.2251 15.1151C24.2585 15.0311 24.3085 14.9546 24.3721 14.8903C24.4357 14.826 24.5116 14.7751 24.5952 14.7406C24.6788 14.7062 24.7685 14.6889 24.8589 14.6897C24.9494 14.6906 25.0387 14.7096 25.1217 14.7457C25.2046 14.7818 25.2795 14.8341 25.3418 14.8997C27.2525 16.7896 28.9072 15.3605 29.0912 15.1909C29.2228 15.077 29.3933 15.0182 29.5671 15.0269C29.741 15.0357 29.9047 15.1112 30.0242 15.2377C30.1438 15.3642 30.2098 15.532 30.2086 15.7061C30.2074 15.8801 30.139 16.047 30.0178 16.1719C29.3394 16.7938 28.4673 17.1629 27.5486 17.2168Z" fill="#FF960F"/>
<path d="M6.6331 18.5597C7.84921 18.5597 8.83505 17.0809 8.83505 15.2568C8.83505 13.4326 7.84921 11.9539 6.6331 11.9539C5.417 11.9539 4.43115 13.4326 4.43115 15.2568C4.43115 17.0809 5.417 18.5597 6.6331 18.5597Z" fill="white"/>
<path d="M10.7937 15.9897C10.8241 17.2011 10.5248 18.5501 9.55667 19.3694C8.4637 20.3104 6.95466 19.7615 6.23615 18.6397C5.09037 16.913 5.08877 14.159 6.75143 12.7492C7.93082 11.8018 9.46386 12.3779 10.144 13.6117C10.55 14.34 10.7729 15.1561 10.7937 15.9897ZM10.7489 15.9897C10.6657 13.5029 7.97883 11.1969 6.31936 13.9782C5.42322 15.6424 5.67126 18.1596 7.28752 19.3054C9.40145 20.5632 10.9441 17.8732 10.7489 15.9897Z" fill="#3871DF"/>
</svg>
