<svg width="97" height="32" viewBox="0 0 97 32" fill="none" xmlns="http://www.w3.org/2000/svg">
<path d="M36.0222 15.9396C36.0222 14.3615 36.0172 13.9401 36.0061 13.552H37.6324C37.6596 13.7362 37.6868 14.0785 37.6868 14.4072C37.9278 13.9364 38.4357 13.4087 39.4527 13.4087C40.7219 13.4087 41.472 14.1984 41.472 15.8049V21.23H39.7827V16.1744C39.7827 15.3699 39.5973 14.8546 38.8286 14.8546C38.06 14.8546 37.7127 15.3032 37.7127 16.5562V21.23H36.0234V15.9384L36.0222 15.9396Z" fill="#3163D4"/>
<path d="M44.2351 18.9228C44.2599 19.5098 44.5725 20.0782 45.3288 20.0782C45.9739 20.0782 46.2828 19.7384 46.2828 19.2033C46.2828 18.6237 45.9924 18.3259 45.0384 17.9811C43.2391 17.3348 42.7856 16.7008 42.7856 15.5973C42.7856 14.5629 43.4368 13.4087 45.2744 13.4087C47.2443 13.4087 47.7707 14.7223 47.7843 15.7604H46.163C46.1494 15.4552 46.0888 14.6952 45.2275 14.6952C44.7047 14.6952 44.4316 15.0127 44.4316 15.47C44.4316 15.9705 44.7109 16.204 45.6761 16.5501C47.3271 17.1383 47.9511 17.7599 47.9511 19.0105C47.9511 20.5095 46.9786 21.3647 45.2621 21.3647C43.5456 21.3647 42.6113 20.3229 42.5829 18.9228H44.2351Z" fill="#3163D4"/>
<path d="M48.3936 13.552H49.423V11.5933H51.1049V13.552H52.337V14.9336H51.1049V19.2477C51.1049 19.7173 51.1963 19.9793 51.7623 19.9793C51.9415 19.9793 52.0676 19.9756 52.2196 19.946V21.183C51.8983 21.3152 51.4237 21.3337 51.1506 21.3337C49.9494 21.3337 49.423 20.8802 49.423 19.5233V14.9348H48.3936V13.5532V13.552Z" fill="#3163D4"/>
<path d="M58.4344 19.5754C58.4344 19.9844 58.4678 20.8804 58.4999 21.2301H56.9725C56.9367 21.0657 56.8946 20.7024 56.8934 20.4639C56.5993 20.9903 56.0592 21.3648 55.1003 21.3648C53.5778 21.3648 53.0056 20.1896 53.0056 19.0897C53.0056 17.5672 54.0474 16.5773 56.0877 16.5773C56.3633 16.5773 56.5758 16.5773 56.7772 16.5934V15.7555C56.7772 15.2637 56.6969 14.7039 55.8652 14.7039C55.0335 14.7039 54.9483 15.234 54.9001 15.7518H53.2936C53.3294 14.6161 53.8818 13.4211 55.9245 13.4211C57.5644 13.4211 58.4369 14.1515 58.4369 15.6554V19.5766L58.4344 19.5754ZM56.8168 17.8094C56.624 17.7822 56.4411 17.7798 56.1705 17.7798C55.0583 17.7798 54.6739 18.2901 54.6739 18.9414C54.6739 19.4543 54.9334 19.9968 55.6304 19.9968C56.6067 19.9968 56.8168 19.285 56.8168 18.0702V17.8094Z" fill="#3163D4"/>
<path d="M60.0941 15.9396C60.0941 14.3615 60.0891 13.9401 60.078 13.552H61.7043C61.7315 13.7362 61.7599 14.0785 61.7587 14.4072C61.9997 13.9364 62.5076 13.4087 63.5246 13.4087C64.7938 13.4087 65.5439 14.1984 65.5439 15.8049V21.23H63.8546V16.1744C63.8546 15.3699 63.6692 14.8546 62.9005 14.8546C62.1319 14.8546 61.7846 15.3032 61.7846 16.5562V21.23H60.0953V15.9384L60.0941 15.9396Z" fill="#3163D4"/>
<path d="M66.3311 13.552H67.3605V11.5933H69.0424V13.552H70.2745V14.9336H69.0424V19.2477C69.0424 19.7173 69.1338 19.9793 69.6998 19.9793C69.879 19.9793 70.005 19.9756 70.157 19.946V21.183C69.8357 21.3152 69.3612 21.3337 69.0881 21.3337C67.8869 21.3337 67.3605 20.8802 67.3605 19.5233V14.9348H66.3311V13.5532V13.552Z" fill="#3163D4"/>
<path d="M73.0995 13.552C73.6346 15.8394 74.1907 18.2517 74.365 19.4764H74.3798C74.5194 18.3506 75.2523 15.6899 75.7317 13.552H77.4173L75.2078 21.2312H73.3949L71.2977 13.552H73.0983H73.0995Z" fill="#4C4C4C"/>
<path d="M78.2811 13.5521H79.9667V21.2313H78.2811V13.5521ZM78.291 10.6245H79.9766V12.3583H78.291V10.6245Z" fill="#4C4C4C"/>
<path d="M32.7386 13.5521H34.4243V21.2313H32.7386V13.5521ZM32.7485 10.6245H34.4341V12.3583H32.7485V10.6245Z" fill="#3163D4"/>
<path d="M82.9475 17.8095C82.9475 18.8698 83.1193 19.982 84.1586 19.982C85.099 19.982 85.2387 19.1874 85.2819 18.9217H86.9045C86.8415 19.2652 86.5857 21.3747 84.1314 21.3747C81.6771 21.3747 81.2681 19.3282 81.2681 17.3547C81.2681 14.9795 82.1813 13.4187 84.1759 13.4187C86.4077 13.4187 86.9688 15.1056 86.9688 17.0902C86.9688 17.3213 86.9564 17.6723 86.9428 17.8095H82.9487H82.9475ZM85.3041 16.5922C85.3004 15.7383 85.1521 14.7954 84.1685 14.7954C83.0735 14.7954 82.9846 16.0237 82.9747 16.5922H85.3041Z" fill="#4C4C4C"/>
<path d="M89.3352 13.552C89.9346 16.9319 90.1879 18.4185 90.3066 19.4195H90.3337C90.4684 18.4086 90.807 17.1852 91.5436 13.552H93.0722C93.7136 16.5673 94.1338 18.5063 94.2302 19.3948H94.245C94.3562 18.5866 94.5441 17.4398 95.2744 13.552H96.9576L95.0334 21.2312H93.3268C92.8387 18.8622 92.4136 16.9554 92.2554 15.8345H92.2406C92.0972 16.9356 91.6029 18.8993 91.0653 21.2312H89.3204L87.5433 13.552H89.3365H89.3352Z" fill="#4C4C4C"/>
<path d="M29.1029 8.64485V22.9565C29.1029 23.6312 28.7433 24.2528 28.16 24.589L22.8449 27.6574C22.8844 27.4684 22.9054 27.2743 22.9054 27.0791V12.7674C22.9054 11.759 22.3629 10.8198 21.4917 10.3181L14.8221 6.46739V0.943419C14.8221 0.225426 15.5933 -0.226872 16.2186 0.117913C16.2248 0.120385 16.2309 0.124094 16.2359 0.127802L28.16 7.01238C28.7433 7.34851 29.1029 7.97134 29.1029 8.64485Z" fill="#4C4C4C"/>
<path d="M21.9625 12.7674V27.079C21.9625 27.7538 21.6029 28.3754 21.0196 28.7115L15.765 31.7454V16.8887C15.765 16.0781 15.4141 15.3119 14.8221 14.7817C14.6788 14.652 14.5206 14.537 14.3513 14.4394L13.8805 14.1663L7.68298 10.5887V5.06597C7.68298 4.34056 8.46894 3.88702 9.09672 4.24911L13.8805 7.0111L14.8234 7.55484L21.0208 11.1324C21.6041 11.4686 21.9637 12.0914 21.9637 12.7649L21.9625 12.7674Z" fill="#F99E21"/>
<path d="M14.8221 16.8899V31.9999C14.5008 31.9999 14.1783 31.9171 13.8891 31.7515L13.8792 31.7453L7.68176 28.1677L6.73885 27.624L1.48429 24.5901C0.900995 24.254 0.541382 23.6312 0.541382 22.9577V9.18975C0.541382 8.46434 1.32734 8.0108 1.95512 8.37289L6.73885 11.1349L7.68176 11.6786L13.8792 15.2562C14.4625 15.5924 14.8221 16.2152 14.8221 16.8887V16.8899Z" fill="#3163D4"/>
</svg>
