<svg width="99" height="32" viewBox="0 0 99 32" fill="none" xmlns="http://www.w3.org/2000/svg">
<g clipPath="url(#clip0_2717_15184)">
<path d="M9.57011 10.6676H9.56914L6.49036 5.3343L9.56914 0H9.57011L12.6489 5.3343L9.57011 10.6676Z" fill="#006CD8"/>
<path opacity="0.6" d="M6.49033 5.3343H0.330811L3.41057 0H9.56911L6.49033 5.3343Z" fill="#006CD8"/>
<path opacity="0.3" d="M9.56911 10.6676H3.41057L0.330811 5.33423H6.49033L9.56911 10.6676Z" fill="#006CD8"/>
<path d="M9.57011 21.3324H9.56914L6.49036 15.9981L9.56914 10.6638H9.57011L12.6489 15.9981L9.57011 21.3324Z" fill="#006CD8"/>
<path opacity="0.6" d="M6.49033 15.9981H0.330811L3.41057 10.6638H9.56911L6.49033 15.9981Z" fill="#006CD8"/>
<path opacity="0.3" d="M9.56911 21.3324H3.41057L0.330811 15.998H6.49033L9.56911 21.3324Z" fill="#006CD8"/>
<path d="M9.57011 31.9999H9.56914L6.49036 26.6656L9.56914 21.3323H9.57011L12.6489 26.6656L9.57011 31.9999Z" fill="#006CD8"/>
<path opacity="0.6" d="M6.49033 26.6656H0.330811L3.41057 21.3323H9.56911L6.49033 26.6656Z" fill="#006CD8"/>
<path opacity="0.3" d="M9.56911 31.9998H3.41057L0.330811 26.6655H6.49033L9.56911 31.9998Z" fill="#006CD8"/>
<path d="M18.789 16.0019H18.788L15.7092 10.6676L18.788 5.33423H18.789L21.8678 10.6676L18.789 16.0019Z" fill="#006CD8"/>
<path opacity="0.6" d="M15.7092 10.6676H9.54968L12.6294 5.33423H18.788L15.7092 10.6676Z" fill="#006CD8"/>
<path opacity="0.3" d="M18.788 16.0018H12.6294L9.54968 10.6675H15.7092L18.788 16.0018Z" fill="#006CD8"/>
<path d="M18.789 26.6657H18.788L15.7092 21.3324L18.788 15.998H18.789L21.8678 21.3324L18.789 26.6657Z" fill="#006CD8"/>
<path opacity="0.6" d="M15.7092 21.3324H9.54968L12.6294 15.998H18.788L15.7092 21.3324Z" fill="#006CD8"/>
<path opacity="0.3" d="M18.788 26.6656H12.6294L9.54968 21.3323H15.7092L18.788 26.6656Z" fill="#006CD8"/>
<path d="M21.8687 21.3363H21.8677L18.788 16.002L21.8677 10.6677H21.8687L24.9475 16.002L21.8687 21.3363Z" fill="#006CD8"/>
<path d="M35.1807 13.3886C35.1807 12.5023 34.6483 12.0019 33.4556 12.0019C32.3919 12.0019 31.7625 12.4858 31.7625 13.5011C31.7625 14.6133 32.6168 14.5968 33.762 14.6938C35.1972 14.8227 36.9058 15.0322 36.9058 17.3217C36.9058 19.2882 35.5191 20.2395 33.5691 20.2395C31.4086 20.2395 30.2323 19.2397 30.1519 17.2412H31.6995C31.78 18.4339 32.5858 18.8373 33.5691 18.8373C34.7298 18.8373 35.3746 18.2409 35.3746 17.3381C35.3746 16.2259 34.2789 16.1289 33.1182 16.0484C31.9739 15.968 30.2323 15.6295 30.2323 13.5011C30.2323 11.8409 31.2961 10.6152 33.5051 10.6152C35.714 10.6152 36.6963 11.647 36.6488 13.3876H35.1817L35.1807 13.3886Z" fill="#022644"/>
<path d="M38.5979 10.7287H39.8876L40.0001 11.7605C40.5964 10.8897 41.4837 10.6162 42.4185 10.6162C43.6432 10.6162 44.546 10.9866 44.9979 11.7769C45.6107 11.0196 46.5455 10.6162 47.8837 10.6162C49.9472 10.6162 51.076 11.4065 51.076 14.0664V20.16H49.5283V14.0344C49.5283 12.6477 48.803 12.0843 47.6907 12.0843C46.3206 12.0843 45.6117 12.8097 45.6117 14.4863V20.1609H44.0641V14.0034C44.0641 12.3103 43.3387 12.0523 42.1945 12.0523C41.0503 12.0523 40.1475 12.5847 40.1475 14.0189V20.1609H38.5998V10.7287H38.5979Z" fill="#022644"/>
<path d="M60.0544 17.4186C60.0544 19.2407 59.0547 20.2559 56.6052 20.2559C54.1558 20.2559 53.123 19.3367 53.123 16.8058V14.0489C53.123 11.583 54.4612 10.6802 56.6052 10.6802C58.7492 10.6802 60.0874 11.5994 60.0874 14.0489V16.0639H54.6387V16.7728C54.6387 18.4494 55.2515 18.8363 56.6052 18.8363C57.9589 18.8363 58.5718 18.3854 58.5718 17.4176H60.0544V17.4186ZM54.6377 14.7267H58.6193V14.0499C58.6193 12.3898 57.8135 12.0348 56.6043 12.0348C55.395 12.0348 54.6377 12.3733 54.6377 14.0499V14.7267Z" fill="#022644"/>
<path d="M67.4697 20.1591L66.8413 17.8541H63.1177L62.4893 20.1591H60.8932L64.1979 7.76245H65.7611L69.0493 20.1591H67.4697ZM64.9708 9.76197L64.1329 13.8085L63.5046 16.4034H66.4379L65.7931 13.76L64.9708 9.76197Z" fill="#022644"/>
<path d="M76.6906 16.9667C76.6586 19.4492 75.6908 20.32 73.2414 20.32C70.7919 20.32 69.7107 19.2882 69.7107 16.7253V14.0489C69.7107 11.55 71.0644 10.6152 73.2414 10.6152C75.4183 10.6152 76.5946 11.3571 76.6906 13.7745L75.2399 13.791C75.1749 12.3083 74.4661 12.0339 73.2414 12.0339C71.9517 12.0339 71.2418 12.3403 71.2418 14.0489V16.7253C71.2418 18.4339 71.9352 18.8528 73.2414 18.8528C74.5475 18.8528 75.2079 18.5784 75.2399 16.9667H76.6906Z" fill="#022644"/>
<path d="M85.2025 16.9667C85.1705 19.4492 84.2028 20.32 81.7533 20.32C79.3039 20.32 78.2227 19.2882 78.2227 16.7253V14.0489C78.2227 11.55 79.5764 10.6152 81.7533 10.6152C83.9303 10.6152 85.1065 11.3571 85.2025 13.7745L83.7519 13.791C83.6869 12.3083 82.978 12.0339 81.7533 12.0339C80.4636 12.0339 79.7538 12.3403 79.7538 14.0489V16.7253C79.7538 18.4339 80.4471 18.8528 81.7533 18.8528C83.0595 18.8528 83.7199 18.5784 83.7519 16.9667H85.2025Z" fill="#022644"/>
<path d="M93.7136 17.4186C93.7136 19.2407 92.7138 20.2559 90.2643 20.2559C87.8149 20.2559 86.7822 19.3367 86.7822 16.8058V14.0489C86.7822 11.583 88.1203 10.6802 90.2643 10.6802C92.4083 10.6802 93.7465 11.5994 93.7465 14.0489V16.0639H88.2978V16.7728C88.2978 18.4494 88.9106 18.8363 90.2643 18.8363C91.618 18.8363 92.2309 18.3854 92.2309 17.4176H93.7136V17.4186ZM88.2968 14.7267H92.2784V14.0499C92.2784 12.3898 91.4726 12.0348 90.2634 12.0348C89.0542 12.0348 88.2968 12.3733 88.2968 14.0499V14.7267Z" fill="#022644"/>
<path d="M95.7296 7.71387H97.2287V17.692C97.2287 18.4494 97.5186 18.6433 98.1965 18.6433V20.159C96.3589 20.159 95.7305 19.6916 95.7305 17.7085V7.71387H95.7296Z" fill="#022644"/>
</g>
<defs>
<clipPath id="clip0_2717_15184">
<rect width="97.8647" height="32" fill="white" transform="translate(0.330811)"/>
</clipPath>
</defs>
</svg>
