<svg width="101" height="60" viewBox="0 0 101 60" fill="none" xmlns="http://www.w3.org/2000/svg">
<g clipPath="url(#clip0_2644_1666)">
<path d="M14.3094 39.7785C12.1491 41.9455 9.59806 43.029 6.6544 43.029C3.91519 43.029 1.99738 42.1188 0.90278 40.2968C-0.0687902 38.6553 -0.255143 36.584 0.338292 34.0866C0.964294 31.5061 2.2561 29.4149 4.21191 27.815C6.26179 26.1175 8.72781 25.2688 11.6081 25.2688C14.3474 25.2688 16.1078 26.215 16.8912 28.1039C17.0015 27.8005 17.1264 27.3527 17.2675 26.7586C17.7361 24.7993 17.5877 23.4251 16.8206 22.6395C16.0535 21.8522 14.5428 21.4585 12.2884 21.4585C10.0033 21.4585 7.60788 21.8107 5.10387 22.5149L5.40963 22.1014C5.97412 21.287 6.459 20.6315 6.86427 20.1349C7.6314 19.1832 8.24112 18.6378 8.69524 18.4988C9.38457 18.2785 10.3344 18.1015 11.5484 17.9715C12.7606 17.8415 14.0886 17.7747 15.5288 17.7747C21.6187 17.7747 24.8826 19.3818 25.3205 22.598C25.4616 23.5497 25.2734 25.0954 24.756 27.2353L22.7839 35.4121C22.5017 36.5714 22.4239 37.31 22.5487 37.6278C22.7206 38.1388 23.3864 38.4079 24.5443 38.435C23.6831 40.2011 22.7278 41.3875 21.6803 41.9961C20.9439 42.424 19.871 42.6371 18.4634 42.6371C18.2915 42.6371 18.0165 42.6371 17.6402 42.6371C17.2657 42.6245 16.9834 42.6173 16.7953 42.6173C15.4799 42.6173 14.3057 42.7274 13.2727 42.9477C13.6996 41.9094 14.0434 40.8548 14.3094 39.7785ZM8.60478 33.962C8.30806 35.1484 8.30806 36.1705 8.60478 37.0264C8.96482 38.1172 9.75546 38.6625 10.9767 38.6625C13.2455 38.6625 14.7581 37.124 15.5089 34.0469C16.2597 30.9138 15.5469 29.3481 13.3722 29.3481C12.0894 29.3481 11.0002 29.8592 10.1083 30.8795C9.40266 31.7047 8.90149 32.7322 8.60478 33.962Z" fill="#08A64E"/>
<path d="M49.711 20.2161C49.93 19.5263 50.4076 19.0297 51.1422 18.7263C51.8315 18.45 54.0623 18.3128 57.8346 18.3128C56.1447 19.8441 54.9778 21.928 54.3355 24.5645L50.3913 41.001C49.4831 44.7264 47.9723 47.4315 45.8591 49.1163C43.6356 50.8824 40.435 51.7655 36.2556 51.7655C31.794 51.7655 28.0217 50.8608 24.9387 49.0531C26.3952 47.4117 27.6942 46.59 28.8359 46.59C29.5089 46.59 30.5221 46.7832 31.8772 47.1697C33.2305 47.5561 34.2908 47.7493 35.0597 47.7493C38.7687 47.7493 41.0302 46.079 41.8444 42.74L42.0796 41.7251C40.6865 42.5396 38.8627 42.9459 36.6084 42.9459C32.9935 42.9459 30.504 41.6692 29.1416 39.1157C27.9511 36.909 27.7557 34.1335 28.5536 30.7946C29.4293 27.2064 31.0504 24.2394 33.4133 21.8937C36.1525 19.1759 39.4634 17.8162 43.3461 17.8162C46.259 17.8144 48.3812 18.6161 49.711 20.2161ZM45.7669 26.4263C46.1269 24.978 46.2517 23.9361 46.1432 23.3004C45.9713 22.2097 45.2187 21.6644 43.8889 21.6644C40.8529 21.6644 38.6456 24.5356 37.267 30.2763C35.9209 35.8653 36.8291 38.6607 39.9899 38.6607C40.9922 38.6607 42.0181 38.323 43.0656 37.6458L45.7669 26.4263Z" fill="#08A64E"/>
<path d="M70.2678 18.0221C69.4844 20.3408 68.8982 22.3073 68.5074 23.9217C69.5875 22.087 70.5337 20.7543 71.3479 19.9272C72.7266 18.5476 74.2282 17.8578 75.8566 17.8578C76.1062 17.8578 76.4699 17.865 76.9475 17.8776C77.4252 17.8921 77.7888 17.8993 78.0385 17.8993C78.6953 17.8993 79.3213 17.8451 79.9165 17.7332C79.3991 18.9611 78.992 19.8785 78.6953 20.487C78.0856 21.6879 77.5283 22.4951 77.029 22.9086C76.4645 23.3637 75.4875 23.7032 74.0943 23.9235C72.5909 24.1727 71.5343 24.4616 70.9245 24.7939C69.8589 25.4151 69.1388 26.5058 68.7643 28.0642L66.9785 35.4121C66.7904 36.2265 66.7198 36.7917 66.7669 37.1095C66.8302 37.6748 67.1902 38.0486 67.847 38.2273C68.1763 38.3249 68.6304 38.3863 69.2094 38.4133C68.0514 40.3727 67.1667 41.5699 66.557 42.0051C65.9455 42.4403 65.0155 42.657 63.7617 42.657H55.6852C57.0475 40.8638 57.9069 39.1935 58.2688 37.6477L61.2975 25.1442C61.5164 24.2052 61.5399 23.5912 61.3681 23.3023C61.1328 22.9429 60.4924 22.7497 59.443 22.7226C60.6317 20.6116 61.5363 19.3421 62.1551 18.9142C62.7738 18.4862 63.7563 18.2731 65.1023 18.2731C65.3683 18.2731 65.7591 18.2803 66.2766 18.2948C66.794 18.3092 67.1758 18.3164 67.4272 18.3164C68.4278 18.311 69.3758 18.2153 70.2678 18.0221Z" fill="#08A64E"/>
<path d="M86.3611 18.311H93.7573C92.5669 20.0916 91.7853 21.7619 91.4089 23.3204L88.4743 35.4085C88.2391 36.4161 88.2084 37.1132 88.3802 37.4996C88.5992 38.0251 89.2559 38.3285 90.3523 38.4098C89.2252 40.342 88.3477 41.532 87.7235 41.9798C87.0975 42.4277 86.1422 42.6534 84.8594 42.6534H77.5084C78.7134 40.7067 79.4805 39.0382 79.8098 37.6441L82.7209 25.5758C82.9868 24.514 83.0339 23.7953 82.862 23.4233C82.6431 22.9123 82.0008 22.6089 80.937 22.5132C82.0641 20.5809 82.929 19.3981 83.5314 18.9629C84.1339 18.5295 85.0765 18.311 86.3611 18.311Z" fill="#08A64E"/>
<path d="M86.2997 7.83904C86.4788 7.63498 86.676 7.44899 86.8786 7.2684C86.4408 5.76235 85.936 4.3466 85.4963 3.23421C84.9228 1.76789 84.4723 0.81984 84.4723 0.81984C84.4723 0.81984 84.9608 1.74983 85.594 3.19449C86.0663 4.26353 86.6127 5.61608 87.1048 7.07157C87.9207 6.41064 88.8996 5.91224 89.9489 5.53843C87.7652 2.41076 84.0598 0 84.0598 0C84.0598 0 84.1557 1.2099 83.83 3.1042C83.2655 6.3962 81.791 11.1509 84.8884 13.2547C84.5718 11.0841 85.0422 9.26383 86.2997 7.83904Z" fill="#08A64E"/>
<path d="M85.8438 14.1215C85.8003 14.1702 85.7551 14.219 85.7135 14.266C85.5579 14.4339 85.4168 14.6036 85.2883 14.7698C85.158 14.9341 85.0296 15.0876 84.9265 15.2447C84.8197 15.4 84.7202 15.5445 84.6261 15.6781C84.5429 15.819 84.4651 15.9472 84.3945 16.0645C84.248 16.2921 84.1702 16.4979 84.0996 16.6262C84.0345 16.758 84.0001 16.8284 84.0001 16.8284L84.7112 17.1264C84.7112 17.1264 84.7401 17.0614 84.7944 16.9404C84.8541 16.8212 84.9138 16.637 85.0423 16.4203C85.102 16.3101 85.1689 16.1891 85.2395 16.0573C85.3209 15.9291 85.4095 15.7901 85.5018 15.642C85.5923 15.4921 85.7081 15.3422 85.8238 15.1815C85.9378 15.019 86.0663 14.8547 86.2074 14.6885C86.3449 14.5188 86.4897 14.3436 86.6525 14.1702C86.8099 13.9933 86.9745 13.8127 87.1555 13.6357C87.331 13.4533 87.5155 13.2728 87.7109 13.0922C87.9027 12.908 88.1053 12.7274 88.3134 12.545C89.1456 11.8173 90.0883 11.0931 91.0671 10.4196C93.0247 9.07063 95.1089 7.90227 96.7011 7.08784C98.2932 6.27161 99.3933 5.8021 99.3933 5.8021C99.3933 5.8021 98.3095 6.30412 96.7427 7.1691C95.1759 8.03048 93.1278 9.26204 91.2118 10.6688C90.2547 11.3712 89.3356 12.1243 88.5251 12.8773C88.3206 13.0651 88.1234 13.2511 87.9389 13.4425C87.7489 13.6285 87.5698 13.8163 87.3997 14.0023C87.226 14.1847 87.065 14.3707 86.913 14.5513C86.7828 14.6994 86.6652 14.8474 86.553 14.9955C93.1658 19.3981 95.9358 12.3392 98.2914 8.26523C99.386 6.37455 100.349 5.38677 100.349 5.38677C100.349 5.38677 83.1805 3.39134 85.8438 14.1215Z" fill="#08A64E"/>
<path d="M32.9213 5.51127H30.3901C30.372 5.42098 30.3539 5.32346 30.3449 5.21511C30.3358 5.10676 30.3268 5.00022 30.3268 4.9009C30.3268 4.80158 30.3268 4.70407 30.3449 4.59572C30.3539 4.48737 30.372 4.39888 30.3901 4.30859H36.8455C36.8636 4.39888 36.8817 4.4964 36.8908 4.59572C36.8998 4.69504 36.9089 4.79255 36.9089 4.89187C36.9089 4.99119 36.8998 5.09773 36.8908 5.20608C36.8817 5.32346 36.8636 5.42098 36.8455 5.51127H34.3035V14.0311C34.0973 14.0582 33.8729 14.0762 33.6305 14.0762C33.379 14.0762 33.1456 14.0582 32.9213 14.0311V5.51127Z" fill="#414142"/>
<path d="M38.0215 4.45306C38.2187 4.435 38.3979 4.41694 38.5516 4.39888C38.7127 4.38083 38.8665 4.36277 39.0275 4.35374C39.1795 4.34471 39.3423 4.32665 39.5124 4.31762C39.6824 4.30859 39.8706 4.30859 40.0696 4.30859C40.5183 4.30859 40.967 4.35374 41.4157 4.44222C41.8644 4.53251 42.2588 4.6842 42.6008 4.90812C42.9518 5.13205 43.2286 5.4282 43.4439 5.80381C43.6592 6.17942 43.7677 6.65435 43.7677 7.23763C43.7677 7.58795 43.7135 7.90036 43.5977 8.17845C43.4819 8.46558 43.3371 8.71659 43.158 8.94051C42.9789 9.16443 42.7817 9.35223 42.5483 9.52379C42.3239 9.6845 42.0996 9.81994 41.8843 9.92648L41.7233 10.0077L44.5059 14.0401C44.2635 14.0672 43.9939 14.0762 43.6881 14.0762C43.4457 14.0762 43.2123 14.0672 42.9699 14.0401L39.8995 9.60505V9.55087L40.0081 9.52379C40.2505 9.46058 40.502 9.38113 40.7716 9.27278C41.0412 9.16443 41.2836 9.0308 41.508 8.85202C41.7323 8.68228 41.9205 8.46738 42.0743 8.22541C42.2262 7.98343 42.2986 7.68727 42.2986 7.33875C42.2986 6.7031 42.1105 6.22817 41.7323 5.91396C41.356 5.59975 40.844 5.44806 40.2053 5.44806C40.0533 5.44806 39.9176 5.45709 39.7838 5.45709C39.6589 5.46612 39.5142 5.47515 39.3531 5.49321V14.0239L39.0293 14.051C38.9117 14.06 38.7959 14.06 38.6873 14.06C38.5788 14.06 38.463 14.06 38.3363 14.051C38.2115 14.0419 38.0939 14.0329 37.9854 14.0148V4.45306H38.0215Z" fill="#414142"/>
<path d="M50.3208 4.3646C50.196 4.34655 50.0693 4.32849 49.9354 4.32849C49.8016 4.31946 49.6749 4.31946 49.5501 4.31946C49.4071 4.31946 49.2715 4.32849 49.1376 4.32849C49.0037 4.33752 48.877 4.34655 48.7612 4.3646L45.5914 14.0239C45.6909 14.042 45.7977 14.06 45.9243 14.06C46.0401 14.0691 46.1668 14.0691 46.2916 14.0691C46.4074 14.0691 46.525 14.06 46.6426 14.06C46.6517 14.06 46.6517 14.06 46.6607 14.06C46.867 14.042 47.028 13.8993 47.0913 13.7097L47.5038 12.321L47.6558 11.7919L48.1769 10.0529L49.4777 5.66298L50.7967 10.0529L50.8238 10.1522L51.3177 11.7919L51.5783 12.6605L51.8931 13.7187C51.9564 13.9156 52.1265 14.06 52.3237 14.0691C52.4485 14.0781 52.5661 14.0781 52.6819 14.0781C52.8067 14.0781 52.9334 14.0691 53.0673 14.0691C53.2012 14.06 53.3188 14.051 53.4255 14.0329L50.3208 4.3646Z" fill="#414142"/>
<path d="M59.1175 8.96042L56.8107 14.033C56.6406 14.051 56.4687 14.06 56.3168 14.0691L58.6417 8.96223L56.6931 4.31226C56.8632 4.32128 57.026 4.33031 57.187 4.34837L59.1175 8.96042Z" fill="#414142"/>
<path d="M59.1174 8.96039L61.0479 4.34654C61.1474 4.33751 61.2451 4.32848 61.3356 4.31945C61.426 4.31042 61.5237 4.30139 61.6233 4.30139H61.9905C62.09 4.30139 62.1787 4.30139 62.2511 4.31042C62.3234 4.31945 62.4121 4.32848 62.5116 4.34654L60.4834 8.91525L62.9078 14.0311C62.6382 14.0582 62.3868 14.0763 62.1624 14.0763C61.9652 14.0763 61.7228 14.0582 61.4441 14.0311L59.1174 8.96039Z" fill="#414142"/>
<path d="M58.2925 8.96039L55.9857 14.0311C55.8771 14.0401 55.7704 14.0492 55.6709 14.0582C55.5895 14.0672 55.5189 14.0672 55.4375 14.0672H55.4284C55.3741 14.0672 55.3126 14.0672 55.2584 14.0672C55.034 14.0672 54.7825 14.0582 54.5129 14.0311L56.9193 8.96039L54.9001 4.34654C55.034 4.32848 55.1607 4.31945 55.2764 4.31042C55.3922 4.30139 55.5189 4.30139 55.6437 4.30139C55.698 4.30139 55.7523 4.30139 55.8048 4.30139H55.8228C55.8862 4.30139 55.9477 4.31042 56.011 4.31042C56.1286 4.31945 56.2354 4.32848 56.353 4.33751L58.2925 8.96039Z" fill="#08A64E"/>
<path d="M63.8849 4.31042H69.262C69.2891 4.4892 69.3072 4.68603 69.3072 4.90996C69.3072 5.00928 69.3072 5.11582 69.2982 5.22417C69.2891 5.33252 69.2801 5.43003 69.262 5.52032H65.2762V8.31572H68.4641C68.4822 8.40601 68.5003 8.50353 68.5093 8.61188C68.5184 8.72022 68.5274 8.81774 68.5274 8.91706C68.5274 9.01638 68.5184 9.12292 68.5093 9.23127C68.5003 9.33962 68.4822 9.43713 68.4641 9.52742H65.2762V12.87H69.3705C69.3977 13.0488 69.4158 13.2456 69.4158 13.4695C69.4158 13.5688 69.4158 13.6754 69.4067 13.7837C69.3977 13.8921 69.3886 13.9896 69.3705 14.0799H63.8849V4.31042Z" fill="#414142"/>
<path d="M70.8432 4.3646C70.9499 4.34655 71.0766 4.33752 71.2105 4.32849C71.3443 4.31946 71.48 4.31946 71.6049 4.31946C71.7297 4.31946 71.8654 4.32849 72.0174 4.32849C72.1603 4.33752 72.287 4.35557 72.3847 4.3646L74.8905 10.4123L77.4035 4.3646C77.494 4.34655 77.6007 4.33752 77.7364 4.32849C77.8703 4.31946 77.997 4.31946 78.1218 4.31946C78.2376 4.31946 78.3643 4.32849 78.5072 4.32849C78.6501 4.33752 78.7677 4.35557 78.8672 4.3646L79.325 14.0239C79.2164 14.042 79.1097 14.051 78.9921 14.06C78.8745 14.0691 78.7677 14.0691 78.6501 14.0691C78.5325 14.0691 78.4167 14.06 78.3082 14.06C78.1924 14.051 78.0929 14.0329 77.9934 14.0239L77.7057 6.51533L75.3356 12.0267C75.1564 12.0538 74.9755 12.0628 74.7874 12.0628C74.6173 12.0628 74.4454 12.0538 74.2753 12.0267L71.9866 6.48102L71.6718 14.0347C71.5723 14.0528 71.4746 14.0618 71.3661 14.0709C71.2575 14.0799 71.1598 14.0799 71.0603 14.0799C70.9427 14.0799 70.836 14.0709 70.7274 14.0709C70.6188 14.0618 70.5211 14.0438 70.4216 14.0347L70.8432 4.3646Z" fill="#414142"/>
<path d="M3.22766 52.6377H7.24602V53.2282H5.55074V58.2177H4.93922V53.2282H3.22766V52.6377Z" fill="#414142"/>
<path d="M8.71692 54.2069H9.32121V54.736C9.44424 54.6475 9.57812 54.5626 9.72467 54.485C9.84951 54.4164 9.99787 54.3496 10.1679 54.2827C10.338 54.2159 10.5207 54.1654 10.718 54.1274V54.7504C10.5298 54.7866 10.3507 54.8371 10.1824 54.8985C10.0142 54.9617 9.8658 55.0231 9.73734 55.0827C9.58898 55.1531 9.44967 55.2272 9.32121 55.3066V58.2158H8.71692V54.2069Z" fill="#414142"/>
<path d="M15.1633 57.4737C15.176 57.5856 15.2249 57.6687 15.3081 57.7211C15.3913 57.7734 15.4999 57.8077 15.6301 57.8276L15.6102 58.2971C15.3986 58.2971 15.2158 58.2736 15.0656 58.2285C14.9137 58.1834 14.778 58.1003 14.6568 57.9793C14.512 58.0389 14.3618 58.0931 14.2008 58.14C14.0651 58.1797 13.9113 58.2159 13.7377 58.2484C13.5658 58.2809 13.3885 58.2971 13.2075 58.2971C12.8366 58.2971 12.5544 58.1942 12.3626 57.9901C12.1708 57.7861 12.075 57.4791 12.075 57.071C12.075 56.8814 12.1003 56.7152 12.1509 56.5744C12.2016 56.4335 12.2776 56.3161 12.3807 56.2204C12.482 56.1247 12.6105 56.0507 12.7661 55.9965C12.9199 55.9423 13.1008 55.9062 13.3071 55.8845L14.5663 55.7636V55.4349C14.5663 55.1658 14.5048 54.9726 14.3836 54.8534C14.2623 54.7342 14.0796 54.6746 13.8354 54.6746C13.7648 54.6746 13.6888 54.6765 13.6074 54.6783C13.526 54.6801 13.4446 54.6855 13.3595 54.6909C13.2763 54.6963 13.1913 54.7017 13.108 54.709C13.0248 54.7162 12.9452 54.7216 12.8692 54.727C12.6883 54.7433 12.5074 54.7595 12.3228 54.7776L12.3029 54.3135C12.4838 54.2828 12.6666 54.2521 12.8529 54.2232C12.9307 54.2124 13.014 54.2015 13.1026 54.1907C13.1895 54.1781 13.2799 54.169 13.3686 54.16C13.4572 54.151 13.5477 54.1437 13.6381 54.1383C13.7286 54.1329 13.8118 54.1311 13.8933 54.1311C14.322 54.1311 14.6405 54.2376 14.8503 54.4489C15.0602 54.6602 15.1652 54.9889 15.1652 55.4349V57.4737H15.1633ZM13.3776 56.3342C13.1316 56.3577 12.9542 56.4281 12.8475 56.5455C12.7408 56.6629 12.6865 56.8326 12.6865 57.0547C12.6865 57.2895 12.7389 57.4719 12.8421 57.5983C12.9452 57.7265 13.1008 57.7897 13.3071 57.7897C13.4464 57.7897 13.5875 57.777 13.734 57.7518C13.8806 57.7265 14.0163 57.6994 14.1429 57.6669C14.2877 57.6308 14.4288 57.5892 14.5663 57.5423V56.2186L13.3776 56.3342Z" fill="#414142"/>
<path d="M17.3796 58.2176V54.2069H17.9839V54.4958C18.1088 54.4272 18.2408 54.3658 18.3802 54.3116C18.4978 54.2665 18.6298 54.225 18.7782 54.187C18.9266 54.1473 19.0749 54.1274 19.2269 54.1274C19.5019 54.1274 19.7262 54.1636 19.9017 54.2358C20.0772 54.308 20.2147 54.4236 20.3161 54.5825C20.4174 54.7414 20.4861 54.9491 20.5223 55.2037C20.5585 55.4583 20.5766 55.7689 20.5766 56.1337V58.2176H19.985V56.1229C19.985 55.8556 19.9741 55.6299 19.9542 55.4457C19.9325 55.2597 19.8927 55.1098 19.8312 54.996C19.7697 54.8805 19.6828 54.7974 19.5688 54.745C19.4549 54.6927 19.3047 54.6674 19.1201 54.6674C18.9736 54.6674 18.8325 54.6836 18.6986 54.7161C18.5647 54.7486 18.4435 54.783 18.3349 54.8191C18.2101 54.866 18.0925 54.9166 17.9857 54.9726V58.2194H17.3796V58.2176Z" fill="#414142"/>
<path d="M25.3766 54.8028C25.2047 54.7793 25.0347 54.7577 24.8664 54.7396C24.7217 54.7234 24.5697 54.7089 24.4068 54.6945C24.244 54.68 24.0975 54.6728 23.9672 54.6728C23.8424 54.6728 23.7266 54.6818 23.6198 54.6999C23.5131 54.7179 23.4226 54.7504 23.3448 54.7956C23.267 54.8407 23.2073 54.9021 23.1639 54.9798C23.1205 55.0574 23.0988 55.1531 23.0988 55.2723C23.0988 55.3662 23.1132 55.4457 23.1404 55.5107C23.1675 55.5757 23.2182 55.6317 23.2905 55.675C23.3629 55.7202 23.4642 55.7563 23.5909 55.7888C23.7175 55.8195 23.8804 55.852 24.0794 55.8827C24.3435 55.9242 24.5679 55.973 24.7524 56.0254C24.937 56.0795 25.0871 56.1482 25.2011 56.2348C25.3169 56.3215 25.4001 56.4281 25.4508 56.5581C25.5014 56.6863 25.5268 56.8506 25.5268 57.0456C25.5268 57.2804 25.4906 57.4772 25.4182 57.6361C25.3458 57.7951 25.2427 57.9233 25.107 58.0226C24.9713 58.1201 24.8067 58.1905 24.6131 58.2321C24.4195 58.2736 24.2006 58.2953 23.9582 58.2953C23.8279 58.2953 23.6813 58.288 23.5203 58.2736C23.3593 58.2591 23.2055 58.2411 23.059 58.2212C22.8889 58.1996 22.717 58.1761 22.5451 58.1472L22.5759 57.6217C22.7514 57.647 22.9214 57.6723 23.0861 57.6921C23.1567 57.6993 23.229 57.7084 23.3032 57.7174C23.3774 57.7264 23.4516 57.7337 23.5221 57.7391C23.5945 57.7445 23.6614 57.7481 23.7266 57.7535C23.7899 57.7571 23.8496 57.7589 23.9021 57.7589C24.0667 57.7589 24.2114 57.7481 24.3381 57.7282C24.4629 57.7066 24.5697 57.6705 24.6565 57.6181C24.7434 57.5657 24.8085 57.4953 24.8501 57.4068C24.8935 57.3183 24.9152 57.2064 24.9152 57.0691C24.9152 56.9644 24.9008 56.8795 24.87 56.8109C24.8393 56.7423 24.7868 56.6863 24.7108 56.6411C24.6348 56.596 24.5317 56.5563 24.4014 56.5238C24.2712 56.4913 24.1047 56.4588 23.9039 56.4281C23.6578 56.3883 23.4461 56.345 23.2688 56.2962C23.0915 56.2475 22.945 56.1825 22.8292 56.1012C22.7134 56.0181 22.6283 55.9134 22.5741 55.7852C22.5198 55.657 22.4908 55.4963 22.4908 55.2994C22.4908 55.0773 22.5325 54.8931 22.6139 54.7432C22.6971 54.5951 22.8038 54.4742 22.9395 54.3821C23.0734 54.2918 23.2272 54.225 23.4009 54.187C23.5728 54.1473 23.7519 54.1274 23.9346 54.1274C24.0866 54.1274 24.2458 54.1347 24.4159 54.1509C24.5842 54.1672 24.7416 54.1834 24.8881 54.2015C25.0564 54.225 25.2228 54.2502 25.3911 54.2755L25.3766 54.8028Z" fill="#414142"/>
<path d="M27.4789 54.2069H28.0832V54.4886C28.2008 54.42 28.3256 54.3604 28.4559 54.308C28.5681 54.2629 28.6965 54.2232 28.8413 54.1853C28.986 54.1473 29.1307 54.1293 29.2809 54.1293C29.5342 54.1293 29.7531 54.1672 29.9359 54.2448C30.1186 54.3225 30.2706 54.4417 30.3882 54.6078C30.5076 54.7721 30.5944 54.9834 30.6505 55.2398C30.7066 55.4963 30.7355 55.8051 30.7355 56.1662C30.7355 56.5581 30.703 56.8904 30.6378 57.1612C30.5727 57.4321 30.4696 57.6524 30.3285 57.8204C30.1873 57.9883 30.0046 58.1093 29.7839 58.1851C29.5613 58.2592 29.2954 58.2971 28.9842 58.2971C28.8901 58.2971 28.796 58.2935 28.7001 58.2881C28.6042 58.2808 28.5156 58.2736 28.436 58.2646C28.3546 58.2556 28.2822 58.2465 28.2207 58.2357C28.1574 58.2249 28.1139 58.2176 28.0868 58.2122V60.0018H27.4825V54.2069H27.4789ZM29.1977 54.6819C29.0638 54.6819 28.9317 54.6981 28.7996 54.7306C28.6676 54.7631 28.5481 54.7992 28.4414 54.839C28.3166 54.8859 28.1972 54.9383 28.085 54.9961V57.6741C28.1103 57.6795 28.1537 57.6867 28.2152 57.6976C28.275 57.7084 28.3455 57.7174 28.4269 57.7265C28.5083 57.7355 28.5952 57.7427 28.6857 57.7499C28.7779 57.7572 28.8666 57.759 28.9516 57.759C29.1705 57.759 29.3569 57.7301 29.5071 57.6723C29.6572 57.6145 29.7784 57.5224 29.8707 57.3942C29.963 57.266 30.0281 57.0998 30.0661 56.8958C30.1059 56.6899 30.124 56.4425 30.124 56.15C30.124 55.8791 30.1023 55.6498 30.0607 55.462C30.0191 55.276 29.9576 55.1243 29.878 55.0069C29.7983 54.8913 29.7006 54.8065 29.5849 54.7559C29.4709 54.7071 29.3406 54.6819 29.1977 54.6819Z" fill="#414142"/>
<path d="M35.4197 57.4737C35.4324 57.5857 35.4812 57.6687 35.5644 57.7211C35.6477 57.7735 35.7562 57.8078 35.8865 57.8276L35.8666 58.2971C35.6549 58.2971 35.4722 58.2737 35.322 58.2285C35.17 58.1834 35.0343 58.1003 34.9131 57.9793C34.7684 58.0389 34.6182 58.0931 34.4572 58.14C34.3215 58.1798 34.1677 58.2159 33.994 58.2484C33.8221 58.2809 33.6448 58.2971 33.4639 58.2971C33.093 58.2971 32.8108 58.1942 32.619 57.9902C32.4272 57.7861 32.3313 57.4791 32.3313 57.071C32.3313 56.8814 32.3566 56.7153 32.4073 56.5744C32.4579 56.4335 32.5339 56.3162 32.6371 56.2205C32.7384 56.1247 32.8668 56.0507 33.0224 55.9965C33.178 55.9424 33.3571 55.9062 33.5634 55.8846L34.8226 55.7636V55.4349C34.8226 55.1659 34.7611 54.9726 34.6399 54.8535C34.5187 54.7343 34.336 54.6747 34.0917 54.6747C34.0211 54.6747 33.9452 54.6765 33.8637 54.6783C33.7823 54.6801 33.7009 54.6855 33.6159 54.6909C33.5326 54.6963 33.4476 54.7018 33.3644 54.709C33.2812 54.7162 33.2016 54.7216 33.1256 54.727C32.9446 54.7433 32.7637 54.7596 32.5792 54.7776L32.5556 54.3153C32.7366 54.2846 32.9193 54.2539 33.1057 54.225C33.1835 54.2142 33.2667 54.2034 33.3553 54.1925C33.4422 54.1799 33.5326 54.1709 33.6213 54.1618C33.71 54.1528 33.8004 54.1456 33.8909 54.1402C33.9813 54.1347 34.0646 54.1329 34.146 54.1329C34.5748 54.1329 34.8932 54.2395 35.1031 54.4508C35.313 54.662 35.4179 54.9907 35.4179 55.4367V57.4737H35.4197ZM33.634 56.3342C33.3879 56.3577 33.2106 56.4281 33.1039 56.5455C32.9971 56.6629 32.9428 56.8326 32.9428 57.0547C32.9428 57.2895 32.9953 57.4719 33.0984 57.5983C33.2016 57.7265 33.3571 57.7897 33.5634 57.7897C33.7027 57.7897 33.8438 57.7771 33.9904 57.7518C34.1369 57.7265 34.2726 57.6994 34.3993 57.6669C34.544 57.6308 34.6851 57.5893 34.8226 57.5423V56.2187L33.634 56.3342Z" fill="#414142"/>
<path d="M37.6361 54.2069H38.2404V54.736C38.3634 54.6475 38.4973 54.5626 38.6439 54.485C38.7687 54.4164 38.9171 54.3496 39.0871 54.2827C39.2572 54.2159 39.4399 54.1654 39.6371 54.1274V54.7504C39.449 54.7866 39.2699 54.8371 39.1016 54.8985C38.9333 54.9617 38.785 55.0231 38.6565 55.0827C38.5082 55.1531 38.3689 55.2272 38.2404 55.3066V58.2158H37.6361V54.2069Z" fill="#414142"/>
<path d="M42.673 57.7517C42.8249 57.7517 42.986 57.7481 43.156 57.7427C43.3261 57.7355 43.4853 57.7282 43.6355 57.7174C43.8056 57.7066 43.9756 57.6957 44.1457 57.6813L44.162 58.1707C43.9865 58.1941 43.8092 58.2158 43.6283 58.2339C43.4709 58.2501 43.3026 58.2646 43.1217 58.2772C42.9407 58.2898 42.7689 58.2971 42.6042 58.2971C42.3039 58.2971 42.0506 58.2537 41.8461 58.167C41.6417 58.0804 41.4771 57.9522 41.3522 57.7788C41.2274 57.6072 41.1369 57.3924 41.0826 57.1341C41.0284 56.8777 41.0012 56.5779 41.0012 56.2348C41.0012 55.8538 41.041 55.5306 41.1206 55.2633C41.2002 54.9978 41.3142 54.7793 41.4626 54.6114C41.6109 54.4435 41.7882 54.3207 41.9945 54.243C42.2008 54.1654 42.4323 54.1274 42.6893 54.1274C42.957 54.1274 43.1904 54.1636 43.3912 54.2358C43.5921 54.308 43.7603 54.42 43.896 54.5735C44.0299 54.727 44.133 54.9202 44.2018 55.1568C44.2705 55.3933 44.3049 55.675 44.3049 56.0055L44.2742 56.4714H41.6146C41.6164 56.6827 41.6363 56.8687 41.6706 57.0276C41.7068 57.1865 41.7647 57.3201 41.848 57.4267C41.9312 57.5332 42.0397 57.6145 42.1736 57.6686C42.3075 57.7246 42.474 57.7517 42.673 57.7517ZM43.7061 55.982C43.7061 55.7418 43.6862 55.5378 43.6445 55.3716C43.6047 55.2055 43.5432 55.0683 43.46 54.9635C43.3768 54.8588 43.2718 54.783 43.1434 54.736C43.0149 54.689 42.8629 54.6656 42.6874 54.6656C42.5156 54.6656 42.3618 54.6909 42.2279 54.7396C42.094 54.7902 41.9818 54.866 41.8914 54.9726C41.7991 55.0791 41.7304 55.2145 41.6833 55.3807C41.6363 55.5468 41.6127 55.7473 41.6127 55.982H43.7061Z" fill="#414142"/>
<path d="M46.1776 58.2176V54.2069H46.7819V54.4958C46.9067 54.4272 47.0388 54.3658 47.1781 54.3116C47.2957 54.2665 47.4278 54.225 47.5762 54.187C47.7245 54.1491 47.8729 54.1274 48.0249 54.1274C48.2999 54.1274 48.5242 54.1636 48.6997 54.2358C48.8752 54.308 49.0127 54.4236 49.114 54.5825C49.2154 54.7414 49.2841 54.9491 49.3203 55.2037C49.3565 55.4583 49.3746 55.7689 49.3746 56.1337V58.2176H48.7829V56.1229C48.7829 55.8556 48.7721 55.6299 48.7522 55.4457C48.7305 55.2597 48.6889 55.1098 48.6292 54.996C48.5676 54.8805 48.479 54.7974 48.3668 54.745C48.2528 54.6927 48.1027 54.6674 47.9181 54.6674C47.7716 54.6674 47.6304 54.6836 47.4966 54.7161C47.3609 54.7486 47.2415 54.783 47.1329 54.8191C47.0063 54.866 46.8905 54.9166 46.7837 54.9726V58.2194H46.1776V58.2176Z" fill="#414142"/>
<path d="M52.2349 54.7522V56.6213C52.2349 56.8398 52.2403 57.0222 52.2512 57.1648C52.2621 57.3093 52.2874 57.423 52.3254 57.5079C52.3652 57.5928 52.4231 57.6524 52.5009 57.6867C52.5787 57.721 52.6836 57.7373 52.8175 57.7373C52.8718 57.7373 52.9405 57.7355 53.0219 57.7318C53.1034 57.7282 53.1812 57.7228 53.2571 57.7174C53.344 57.712 53.4345 57.7048 53.5322 57.6975L53.5629 58.2176C53.4616 58.2357 53.3603 58.2519 53.2608 58.2646C53.1775 58.2772 53.0889 58.288 52.9966 58.2953C52.9043 58.3025 52.8211 58.3079 52.7506 58.3079C52.5443 58.3079 52.3688 58.2862 52.2277 58.2411C52.0848 58.1959 51.9708 58.1183 51.8821 58.0063C51.7953 57.8944 51.7319 57.7445 51.694 57.5567C51.656 57.3689 51.6379 57.1305 51.6379 56.8398V54.7522H51.0643V54.2087H51.6379V52.9825H52.2385V54.2087H53.5104V54.7522H52.2349Z" fill="#414142"/>
<path d="M58.5981 56.3505V58.2195H57.9775V52.6395H60.0093C60.6154 52.6395 61.0641 52.7858 61.3536 53.0783C61.6431 53.3709 61.7878 53.8205 61.7878 54.4255C61.7878 54.7289 61.7516 54.9997 61.6811 55.2381C61.6105 55.4765 61.502 55.6787 61.3554 55.843C61.2089 56.0074 61.0243 56.1338 60.8 56.2205C60.5756 56.3071 60.3133 56.3523 60.0093 56.3523H58.5981V56.3505ZM60.0021 55.7546C60.2065 55.7546 60.3802 55.7239 60.5268 55.6625C60.6715 55.6011 60.7909 55.5126 60.8832 55.3988C60.9755 55.2832 61.0442 55.1442 61.0876 54.9799C61.1311 54.8155 61.1528 54.6295 61.1528 54.4237C61.1528 54.0138 61.0623 53.7122 60.8814 53.519C60.7005 53.3257 60.4074 53.23 60.0021 53.23H58.5981V55.7564H60.0021V55.7546Z" fill="#414142"/>
<path d="M63.6278 54.2069H64.2321V54.736C64.3551 54.6475 64.489 54.5626 64.6356 54.485C64.7604 54.4164 64.9088 54.3496 65.0788 54.2827C65.2489 54.2159 65.4316 54.1654 65.6288 54.1274V54.7504C65.4407 54.7866 65.2616 54.8371 65.0933 54.8985C64.925 54.9617 64.7767 55.0231 64.6482 55.0827C64.4999 55.1531 64.3606 55.2272 64.2321 55.3066V58.2158H63.6278V54.2069Z" fill="#414142"/>
<path d="M68.7245 54.1293C69.0285 54.1293 69.2872 54.1726 69.5043 54.2575C69.7196 54.3424 69.8969 54.4688 70.0363 54.6385C70.1756 54.8083 70.2769 55.0213 70.3402 55.2778C70.4035 55.5342 70.4361 55.8322 70.4361 56.1753C70.4361 56.522 70.4108 56.8272 70.3601 57.0926C70.3095 57.3563 70.219 57.5766 70.0887 57.7572C69.9585 57.9359 69.7848 58.0714 69.5659 58.1617C69.3469 58.2537 69.0665 58.2989 68.7264 58.2989C68.3862 58.2989 68.1058 58.2556 67.8832 58.1707C67.6607 58.0858 67.4834 57.9558 67.3513 57.7788C67.2192 57.6019 67.127 57.3797 67.0745 57.1107C67.022 56.8416 66.9967 56.5238 66.9967 56.159C66.9967 55.8141 67.0275 55.5143 67.089 55.2597C67.1505 55.0051 67.2482 54.7938 67.3857 54.6277C67.5214 54.4597 67.7005 54.3351 67.9194 54.2539C68.1347 54.1708 68.4043 54.1293 68.7245 54.1293ZM68.7245 57.759C68.9598 57.759 69.1497 57.7265 69.2927 57.6596C69.4374 57.5928 69.5478 57.4935 69.6237 57.3617C69.7015 57.2299 69.7522 57.0655 69.7757 56.8669C69.8011 56.6682 69.8137 56.4371 69.8137 56.1735C69.8137 55.908 69.792 55.6787 69.7504 55.4872C69.7088 55.2976 69.6437 55.1405 69.5568 55.0213C69.47 54.9022 69.356 54.8137 69.2167 54.7577C69.0774 54.7017 68.9127 54.6728 68.7227 54.6728C68.5111 54.6728 68.3337 54.6981 68.1908 54.7487C68.0479 54.7992 67.9339 54.8841 67.8471 55.0015C67.7602 55.1189 67.7005 55.2724 67.6643 55.462C67.6281 55.6516 67.6119 55.8827 67.6119 56.1572C67.6119 56.4371 67.6245 56.6773 67.6517 56.8795C67.677 57.0818 67.7313 57.2479 67.8109 57.3797C67.8905 57.5098 68.0027 57.6055 68.1492 57.6669C68.2939 57.7283 68.4857 57.759 68.7245 57.759Z" fill="#414142"/>
<path d="M75.3029 58.2176H74.6986V57.9522C74.5756 58.0172 74.4472 58.075 74.3133 58.1237C74.1957 58.1689 74.0654 58.2086 73.9207 58.2429C73.7759 58.279 73.6294 58.2953 73.4774 58.2953C73.282 58.2953 73.0956 58.2682 72.922 58.214C72.7483 58.1599 72.5963 58.0587 72.4642 57.9088C72.3339 57.759 72.229 57.5495 72.153 57.2804C72.0752 57.0114 72.0372 56.661 72.0372 56.2276C72.0372 55.8773 72.068 55.5721 72.1277 55.3085C72.1874 55.0466 72.2851 54.8281 72.4172 54.653C72.5511 54.4778 72.7229 54.346 72.9364 54.2593C73.1499 54.1726 73.4086 54.1275 73.7144 54.1275C73.8013 54.1275 73.8953 54.1311 73.9967 54.1401C74.098 54.1473 74.1975 54.1582 74.2916 54.169C74.3856 54.1798 74.4689 54.1925 74.543 54.2051C74.6154 54.2178 74.6679 54.225 74.695 54.2304V52.6016H75.2993V58.2176H75.3029ZM73.557 57.7445C73.6927 57.7445 73.8284 57.7283 73.9623 57.6976C74.098 57.6669 74.2192 57.6326 74.3296 57.5964C74.4544 57.5513 74.5774 57.5025 74.6986 57.4466V54.7595C74.6697 54.7577 74.619 54.7505 74.5485 54.7396C74.4761 54.7288 74.3947 54.7198 74.3024 54.7108C74.2101 54.7017 74.1161 54.6927 74.0202 54.6855C73.9225 54.6782 73.8338 54.6728 73.7542 54.6728C73.5425 54.6728 73.3652 54.7053 73.2241 54.7703C73.083 54.8354 72.969 54.9329 72.8821 55.0647C72.7953 55.1947 72.7338 55.359 72.6976 55.5559C72.6614 55.7527 72.6433 55.982 72.6433 56.2439C72.6433 56.5653 72.6687 56.8236 72.7193 57.0186C72.77 57.2136 72.8387 57.3653 72.9238 57.4736C73.0088 57.5802 73.1065 57.6524 73.2169 57.6867C73.3254 57.7229 73.4394 57.7409 73.557 57.7445Z" fill="#414142"/>
<path d="M80.5914 54.2069V58.2176H79.9943V57.9594C79.8713 58.0244 79.7428 58.0804 79.6089 58.1273C79.4931 58.1725 79.3665 58.2104 79.2254 58.2447C79.0861 58.279 78.9449 58.2952 78.8038 58.2952C78.5216 58.2952 78.2918 58.2609 78.1145 58.1905C77.9372 58.1219 77.7997 58.0081 77.7002 57.851C77.6007 57.6939 77.5337 57.4899 77.4975 57.2352C77.4614 56.9824 77.4451 56.67 77.4451 56.2998V54.2051H78.0367V56.289C78.0367 56.5653 78.0457 56.7982 78.0638 56.986C78.0819 57.1738 78.1199 57.3255 78.1796 57.4393C78.2393 57.5531 78.3244 57.6343 78.4365 57.6849C78.5487 57.7354 78.6989 57.7589 78.887 57.7589C79.0209 57.7589 79.153 57.7427 79.2833 57.712C79.4135 57.6813 79.5311 57.647 79.6361 57.6108C79.7591 57.5657 79.8767 57.5169 79.9889 57.4628V54.2087H80.5914V54.2069Z" fill="#414142"/>
<path d="M84.1665 54.1293C84.2135 54.1293 84.2642 54.1311 84.3184 54.1347C84.3727 54.1383 84.4306 54.1437 84.4921 54.1491C84.5518 54.1546 84.6134 54.16 84.6749 54.1672C84.7364 54.1744 84.7961 54.1816 84.854 54.1889C84.9879 54.2069 85.1236 54.2268 85.2611 54.2485L85.2448 54.7685C85.1218 54.7559 85.0023 54.7432 84.8829 54.7324C84.7834 54.7252 84.6803 54.7162 84.5717 54.7089C84.4632 54.7017 84.3709 54.6963 84.2949 54.6963C84.0651 54.6963 83.8734 54.7216 83.7214 54.7721C83.5694 54.8227 83.45 54.9058 83.3595 55.0213C83.2709 55.1369 83.2094 55.285 83.1732 55.4674C83.137 55.6498 83.1207 55.8755 83.1207 56.141C83.1207 56.4335 83.1352 56.6809 83.166 56.8831C83.1967 57.0854 83.2528 57.2497 83.336 57.3761C83.4192 57.5025 83.5387 57.5946 83.6906 57.6506C83.8426 57.7066 84.0434 57.7355 84.2931 57.7355C84.3691 57.7355 84.4614 57.7319 84.5717 57.7265C84.6821 57.7192 84.787 57.712 84.8865 57.7012C85.0041 57.6903 85.1254 57.6795 85.252 57.6651L85.2755 58.1869C85.1308 58.2086 84.9897 58.2267 84.8522 58.2411C84.7346 58.2537 84.6115 58.2664 84.4849 58.279C84.3582 58.2917 84.2497 58.2971 84.1574 58.2971C83.8354 58.2971 83.5694 58.2592 83.3577 58.1815C83.146 58.1039 82.976 57.9811 82.8493 57.8095C82.7227 57.638 82.6322 57.4159 82.5797 57.1414C82.5273 56.8669 82.502 56.5346 82.502 56.1428C82.502 55.7798 82.5327 55.471 82.5942 55.2146C82.6557 54.9581 82.7534 54.7505 82.8873 54.5898C83.0212 54.429 83.1931 54.3117 83.403 54.2394C83.6128 54.1654 83.8679 54.1293 84.1665 54.1293Z" fill="#414142"/>
<path d="M87.8067 54.7522V56.6213C87.8067 56.8398 87.8121 57.0222 87.823 57.1648C87.8338 57.3093 87.8592 57.423 87.8972 57.5079C87.937 57.5928 87.9949 57.6524 88.0727 57.6867C88.1505 57.721 88.2554 57.7373 88.3893 57.7373C88.4436 57.7373 88.5123 57.7355 88.5937 57.7318C88.6751 57.7282 88.7529 57.7228 88.8289 57.7174C88.9158 57.712 89.0062 57.7048 89.1039 57.6975L89.1347 58.2176C89.0334 58.2357 88.9321 58.2519 88.8325 58.2646C88.7493 58.2772 88.6607 58.288 88.5684 58.2953C88.4761 58.3025 88.3929 58.3079 88.3223 58.3079C88.1161 58.3079 87.9406 58.2862 87.7995 58.2411C87.6565 58.1959 87.5425 58.1183 87.4539 58.0063C87.367 57.8944 87.3037 57.7445 87.2657 57.5567C87.2277 57.3689 87.2096 57.1305 87.2096 56.8398V54.7522H86.6361V54.2087H87.206V52.9825H87.8067V54.2087H89.0786V54.7522H87.8067Z" fill="#414142"/>
</g>
<defs>
<clipPath id="clip0_2644_1666">
<rect width="100.352" height="60" fill="white"/>
</clipPath>
</defs>
</svg>
