<svg width="174" height="60" viewBox="0 0 174 60" fill="none" xmlns="http://www.w3.org/2000/svg">
<path d="M10.304 0H6.91761H3.56016H0.173767V3.3864V6.77279V10.1302V13.5166H3.56016V10.1302V6.77279V3.3864H6.91761H10.304H13.6904V0H10.304Z" fill="#00A64F"/>
<path d="M10.304 47.5253H6.91761H3.56016H0.173767V44.1389V40.7525V37.3951V34.0087H3.56016V37.3951V40.7525V44.1389H6.91761H10.304H13.6904V47.5253H10.304Z" fill="#00A64F"/>
<path d="M163.676 0H167.062H170.449H173.835V3.3864V6.77279V10.1302V13.5166H170.449V10.1302V6.77279V3.3864H167.062H163.676H160.289V0H163.676Z" fill="#00A64F"/>
<path d="M163.676 47.5253H167.062H170.449H173.835V44.1389V40.7525V37.3951V34.0087H170.449V37.3951V40.7525V44.1389H167.062H163.676H160.289V47.5253H163.676Z" fill="#00A64F"/>
<path d="M16.2372 11.8668H8.07516C8.01728 11.5774 7.95939 11.259 7.93045 10.9117C7.9015 10.5644 7.87256 10.2171 7.87256 9.89868C7.87256 9.5803 7.87256 9.26192 7.93045 8.9146C7.95939 8.56727 8.01728 8.27784 8.07516 7.9884H28.8856C28.9435 8.27784 29.0014 8.59622 29.0303 8.9146C29.0592 9.23298 29.0882 9.55135 29.0882 9.86973C29.0882 10.1881 29.0592 10.5354 29.0303 10.8828C29.0014 11.259 28.9435 11.5774 28.8856 11.8668H20.6946V39.3922C20.0289 39.479 19.3053 39.5369 18.5238 39.5369C17.7134 39.5369 16.9608 39.479 16.2372 39.3922V11.8668Z" fill="#404041"/>
<path d="M32.6774 8.4515C33.3141 8.39361 33.893 8.33573 34.385 8.27784C34.906 8.21995 35.3981 8.16206 35.919 8.13312C36.4111 8.10418 36.9321 8.04629 37.482 8.01735C38.0319 7.9884 38.6397 7.9884 39.2765 7.9884C40.7237 7.9884 42.1708 8.13312 43.618 8.42256C45.0652 8.71199 46.3387 9.20403 47.4386 9.92762C48.5674 10.6512 49.4646 11.6063 50.1593 12.822C50.8539 14.0376 51.2012 15.5716 51.2012 17.4529C51.2012 18.5817 51.0276 19.5948 50.6513 20.492C50.275 21.4182 49.8119 22.2286 49.2331 22.9522C48.6542 23.6758 48.0174 24.2836 47.2649 24.8335C46.5413 25.3545 45.8177 25.7887 45.1231 26.136L44.6021 26.3965L53.5746 39.4211C52.7931 39.5079 51.9248 39.5369 50.9407 39.5369C50.1593 39.5369 49.4067 39.5079 48.6253 39.4211L38.7266 25.094V24.9204L39.0739 24.8335C39.8554 24.6309 40.6658 24.3705 41.5341 24.0231C42.4024 23.6758 43.1839 23.2417 43.9075 22.6628C44.631 22.1129 45.2389 21.4182 45.7309 20.6367C46.2229 19.8553 46.4545 18.9001 46.4545 17.7713C46.4545 15.7163 45.8467 14.1823 44.631 13.1693C43.4154 12.1563 41.7656 11.6642 39.7106 11.6642C39.2186 11.6642 38.7844 11.6932 38.3503 11.6932C37.9451 11.7221 37.482 11.7511 36.961 11.809V39.3632L35.919 39.45C35.5428 39.479 35.1665 39.479 34.8192 39.479C34.4719 39.479 34.0956 39.479 33.6904 39.45C33.2852 39.4211 32.9089 39.3922 32.5616 39.3343V8.4515H32.6774Z" fill="#404041"/>
<path d="M72.3298 8.16205C71.9246 8.10416 71.5194 8.04628 71.0852 8.04628C70.6511 8.01733 70.2459 8.01733 69.8406 8.01733C69.3776 8.01733 68.9434 8.04628 68.5092 8.04628C68.0751 8.07522 67.6699 8.10416 67.2936 8.16205L57.0765 39.3632C57.3949 39.4211 57.7422 39.479 58.1474 39.479C58.5237 39.5079 58.9289 39.5079 59.3341 39.5079C59.7104 39.5079 60.0867 39.479 60.4629 39.479C60.4919 39.479 60.4919 39.479 60.5208 39.479C61.1865 39.4211 61.7075 38.958 61.9101 38.3502L63.2415 33.8639L63.7336 32.1563L65.4123 26.5412L69.6091 12.3589L73.8638 26.5412L73.9506 26.8596L75.5425 32.1563L76.3819 34.9638L77.3949 38.3791C77.5975 39.0159 78.1474 39.479 78.7842 39.5079C79.1894 39.5369 79.5657 39.5369 79.9419 39.5369C80.3472 39.5369 80.7524 39.5079 81.1865 39.5079C81.6207 39.479 81.9969 39.45 82.3443 39.3922L72.3298 8.16205Z" fill="#404041"/>
<path d="M100.695 23.0101L93.2563 39.3922C92.7063 39.4501 92.1564 39.479 91.6644 39.5079L99.1607 23.0101L92.88 7.9884C93.4299 8.01735 93.9509 8.04629 94.4719 8.10418L100.695 23.0101Z" fill="#404041"/>
<path d="M100.694 23.0101L106.917 8.10419C107.236 8.07525 107.554 8.0463 107.844 8.01736C108.133 7.98842 108.451 7.95947 108.77 7.95947H109.956C110.275 7.95947 110.564 7.95947 110.796 7.98842C111.027 8.01736 111.317 8.0463 111.635 8.10419L105.094 22.8654L112.909 39.3922C112.04 39.479 111.23 39.5369 110.506 39.5369C109.87 39.5369 109.088 39.479 108.191 39.3922L100.694 23.0101Z" fill="#404041"/>
<path d="M98.0317 23.0101L90.5932 39.3922C90.2459 39.4211 89.8985 39.4501 89.5802 39.479C89.3197 39.5079 89.0881 39.5079 88.8276 39.5079H88.7987C88.625 39.5079 88.4224 39.5079 88.2487 39.5079C87.5252 39.5079 86.7147 39.479 85.8464 39.3922L93.6033 23.0101L87.091 8.10419C87.5252 8.0463 87.9304 8.01736 88.3066 7.98842C88.6829 7.95947 89.0881 7.95947 89.4933 7.95947C89.667 7.95947 89.8406 7.95947 90.0143 7.95947H90.0722C90.2748 7.95947 90.4774 7.98842 90.68 7.98842C91.0563 8.01736 91.4036 8.0463 91.7799 8.07525L98.0317 23.0101Z" fill="#00A64F"/>
<path d="M116.064 7.9884H133.401C133.488 8.56727 133.546 9.20403 133.546 9.92762C133.546 10.246 133.546 10.5933 133.517 10.9406C133.488 11.288 133.459 11.6063 133.401 11.8958H120.55V20.9262H130.825C130.883 21.2156 130.941 21.534 130.97 21.8813C130.998 22.2286 131.027 22.547 131.027 22.8654C131.027 23.1838 130.998 23.5311 130.97 23.8784C130.941 24.2257 130.883 24.5441 130.825 24.8335H120.55V35.6295H133.748C133.835 36.2084 133.893 36.8451 133.893 37.5687C133.893 37.8871 133.893 38.2344 133.864 38.5817C133.835 38.9291 133.806 39.2474 133.748 39.5369H116.064V7.9884Z" fill="#404041"/>
<path d="M138.495 8.16205C138.842 8.10416 139.247 8.07522 139.681 8.04628C140.116 8.01733 140.55 8.01733 140.955 8.01733C141.36 8.01733 141.794 8.04628 142.286 8.04628C142.749 8.07522 143.155 8.13311 143.473 8.16205L151.548 27.699L159.653 8.16205C159.942 8.10416 160.289 8.07522 160.723 8.04628C161.158 8.01733 161.563 8.01733 161.968 8.01733C162.344 8.01733 162.749 8.04628 163.213 8.04628C163.676 8.07522 164.052 8.13311 164.37 8.16205L165.846 39.3632C165.499 39.4211 165.152 39.45 164.776 39.479C164.399 39.5079 164.052 39.5079 163.676 39.5079C163.299 39.5079 162.923 39.479 162.576 39.479C162.2 39.45 161.881 39.3922 161.563 39.3632L160.637 15.1085L152.996 32.9088C152.417 32.9956 151.838 33.0246 151.23 33.0246C150.68 33.0246 150.13 32.9956 149.58 32.9088L142.2 14.9927L141.187 39.3922C140.868 39.45 140.55 39.479 140.202 39.5079C139.855 39.5369 139.537 39.5369 139.218 39.5369C138.842 39.5369 138.495 39.5079 138.147 39.5079C137.8 39.479 137.482 39.4211 137.163 39.3922L138.495 8.16205Z" fill="#404041"/>
<path d="M-6.10352e-05 55.7742L0.839302 55.6874C0.868246 56.0347 0.955076 56.2952 1.12874 56.4978C1.27346 56.7004 1.505 56.903 1.82338 57.0477L2.05493 57.1346L2.31542 57.1924L2.57592 57.2214H2.86535C3.21267 57.2214 3.53105 57.1635 3.7626 57.0767C4.02309 56.9898 4.19675 56.8451 4.34147 56.6715C4.48619 56.4978 4.54408 56.2952 4.54408 56.0636C4.54408 55.8321 4.48619 55.6584 4.37042 55.5137C4.25464 55.369 4.05204 55.2243 3.7626 55.1085L2.57592 54.7901L2.31542 54.7612L2.14176 54.7033L1.73655 54.5875C1.53395 54.5296 1.36029 54.4428 1.21557 54.3849C0.897189 54.2113 0.665641 54.0087 0.491979 53.7482C0.405149 53.6324 0.347262 53.4877 0.318318 53.343L0.289375 53.1403L0.260431 52.9088C0.260431 52.5615 0.347262 52.2431 0.549866 51.9537C0.723528 51.6642 1.01296 51.4327 1.41817 51.288C1.79444 51.1143 2.22859 51.0275 2.69169 51.0275C3.18373 51.0275 3.64683 51.1143 4.02309 51.259C4.39936 51.4327 4.71774 51.6642 4.92034 51.9826L5.03612 52.2141L5.18083 52.5036L5.20978 52.5904L5.23872 52.7641L5.26767 52.9377V53.0535L4.39936 53.1114C4.34147 52.7062 4.19675 52.3589 3.90732 52.1563C3.64683 51.9247 3.24162 51.8089 2.72063 51.8089C2.17071 51.8089 1.79444 51.8958 1.53395 52.0984C1.27346 52.301 1.15768 52.5325 1.15768 52.822C1.15768 53.0535 1.24451 53.2561 1.41817 53.4298C1.59183 53.6034 2.05493 53.7482 2.77852 53.9218C3.50211 54.0955 4.02309 54.2402 4.28359 54.356C4.68879 54.5296 4.97823 54.7612 5.15189 55.0506C5.23872 55.1953 5.32555 55.3401 5.3545 55.5137L5.41238 55.7742L5.44133 56.0347C5.44133 56.382 5.3545 56.7293 5.15189 57.0477C4.94929 57.3661 4.65985 57.6266 4.25464 57.8003C3.84943 57.9739 3.41528 58.0897 2.92324 58.0897C2.34437 58.0897 1.82338 58.0029 1.38923 57.8292C0.955076 57.6555 0.636697 57.395 0.376205 57.0188C0.260431 56.8451 0.1736 56.6425 0.0867696 56.4399L0.0288825 56.1215C-6.10352e-05 55.9768 -6.10352e-05 55.861 -6.10352e-05 55.7742Z" fill="#00A64F"/>
<path d="M12.4747 57.9449V57.2214C12.0984 57.7713 11.5775 58.0607 10.9118 58.0607C10.6513 58.0607 10.3908 58.0028 10.1303 57.8871C9.86979 57.7713 9.66719 57.6266 9.52247 57.4819C9.40669 57.3082 9.31986 57.1056 9.26198 56.8451L9.23303 56.5267V56.0636V52.9956H10.0724V55.7452C10.0724 56.2373 10.1013 56.5267 10.1303 56.6425C10.1882 56.874 10.275 57.0188 10.4487 57.1635C10.6223 57.2792 10.8249 57.3661 11.0854 57.3661C11.3459 57.3661 11.5775 57.3082 11.7801 57.1635C11.9827 57.0477 12.1274 56.8451 12.2432 56.6425C12.33 56.4109 12.3879 56.0926 12.3879 55.6874V53.0245H13.2272V57.9739H12.4747V57.9449Z" fill="#404041"/>
<path d="M17.1924 59.8553V53.0246H17.945V53.6614C18.1186 53.4009 18.3212 53.2272 18.5528 53.0825C18.7843 52.9667 19.0448 52.8799 19.3922 52.8799C19.7974 52.8799 20.1736 52.9957 20.492 53.1983C20.8104 53.4009 21.0419 53.7192 21.2445 54.1245C21.4182 54.5297 21.505 54.9638 21.505 55.4269C21.505 55.9479 21.4182 56.3821 21.2445 56.7873C21.0709 57.1925 20.8104 57.4819 20.4631 57.7135C20.1157 57.945 19.7395 58.0318 19.3632 58.0318C19.2185 58.0318 19.0738 58.0029 18.958 57.9739C18.8422 57.945 18.7265 57.8871 18.6107 57.8292C18.437 57.7424 18.2634 57.5687 18.0608 57.3951V59.7974H17.1924V59.8553ZM17.9739 55.5137C17.9739 56.1505 18.0897 56.6136 18.3502 56.932C18.6107 57.2504 18.9291 57.3951 19.2764 57.3951C19.6526 57.3951 19.9421 57.2504 20.2315 56.932C20.492 56.6136 20.6367 56.1216 20.6367 55.4559C20.6367 54.8191 20.521 54.356 20.2605 54.0376C20 53.7192 19.6816 53.5745 19.3343 53.5745C18.9869 53.5745 18.6686 53.7482 18.4081 54.0666C18.1186 54.3849 17.9739 54.877 17.9739 55.5137Z" fill="#404041"/>
<path d="M25.181 59.8553V53.0246H25.9336V53.6614C26.1072 53.4009 26.3098 53.2272 26.5414 53.0825C26.7729 52.9667 27.0334 52.8799 27.3807 52.8799C27.7859 52.8799 28.1622 52.9957 28.4806 53.1983C28.799 53.4009 29.0305 53.7192 29.2331 54.1245C29.4068 54.5297 29.4936 54.9638 29.4936 55.4269C29.4936 55.9479 29.4068 56.3821 29.2331 56.7873C29.0595 57.1925 28.799 57.4819 28.4517 57.7135C28.1043 57.945 27.7281 58.0318 27.3518 58.0318C27.2071 58.0318 27.0624 58.0029 26.9466 57.9739C26.8308 57.945 26.715 57.8871 26.5993 57.8292C26.4256 57.7424 26.2519 57.5687 26.0493 57.3951V59.7974H25.181V59.8553ZM25.9336 55.5137C25.9336 56.1505 26.0493 56.6136 26.3098 56.932C26.5703 57.2504 26.8887 57.3951 27.236 57.3951C27.6123 57.3951 27.9017 57.2504 28.1912 56.932C28.4517 56.6136 28.5964 56.1216 28.5964 55.4559C28.5964 54.8191 28.4806 54.356 28.2201 54.0376C27.9596 53.7192 27.6412 53.5745 27.2939 53.5745C26.9466 53.5745 26.6282 53.7482 26.3677 54.0666C26.0783 54.3849 25.9336 54.877 25.9336 55.5137Z" fill="#404041"/>
<path d="M33.1403 57.9451V51.1144H33.9796V57.9451H33.1403Z" fill="#404041"/>
<path d="M37.9161 59.8553L37.8293 59.0739C38.0898 59.1317 38.2635 59.1607 38.3214 59.1607C38.524 59.1607 38.6687 59.1317 38.7555 59.0739C38.8713 59.016 38.9581 58.9291 39.016 58.8134C39.0739 58.7555 39.1607 58.5529 39.2765 58.1766L39.3633 57.974L37.482 53.0247H38.3792L39.4212 55.8901L39.5949 56.44L39.7685 57.0189L39.8264 56.7294L39.8554 56.6137C39.8554 56.5558 39.8843 56.4979 39.9133 56.4689C39.9422 56.3242 40.029 56.1506 40.1159 55.919L41.1868 53.0247H42.0261L40.1448 58.0608L40.0001 58.4371L39.9422 58.5818L39.8554 58.7555L39.7685 58.9581L39.6528 59.1896C39.508 59.4791 39.3344 59.6817 39.1318 59.7974C38.9292 59.9132 38.6976 60.0001 38.4371 60.0001C38.2924 59.9711 38.1188 59.9422 37.9161 59.8553Z" fill="#404041"/>
<path d="M45.0649 55.9188V55.0795H47.6409V55.9188H45.0649Z" fill="#404041"/>
<path d="M88.4999 55.9188V55.0795H91.0759V55.9188H88.4999Z" fill="#404041"/>
<path d="M56.2083 55.5716L57.1056 55.8032C56.9319 56.5267 56.5846 57.1056 56.0926 57.4819C55.6005 57.8871 54.9927 58.0897 54.2981 58.0897C53.5745 58.0897 52.9667 57.945 52.5325 57.6555C52.0984 57.3661 51.7221 56.9319 51.4616 56.3531C51.3458 56.0636 51.259 55.7742 51.1722 55.4848C51.1432 55.3401 51.1143 55.1664 51.1143 55.0217C51.0853 54.877 51.0853 54.7033 51.0853 54.5296C51.0853 53.835 51.23 53.1982 51.4905 52.6772C51.751 52.1563 52.1273 51.7511 52.6483 51.4616C53.1693 51.1722 53.7192 51.0275 54.327 51.0275C54.9927 51.0275 55.5716 51.2011 56.0347 51.5485C56.4978 51.8958 56.8162 52.3878 57.0188 53.0246L56.1215 53.2272C55.9768 52.7351 55.7452 52.3878 55.4269 52.1563C55.1374 51.9247 54.7612 51.8089 54.2981 51.8089C54.0376 51.8089 53.806 51.8379 53.6034 51.8958C53.4008 51.9537 53.1982 52.0405 53.0245 52.1852C52.6772 52.4168 52.4167 52.7641 52.2431 53.1982C52.2141 53.2851 52.1852 53.4008 52.1562 53.5745C52.1273 53.7482 52.0984 53.835 52.0984 53.8639C52.0405 54.1244 52.0405 54.327 52.0405 54.5007C52.0405 55.0506 52.1273 55.5427 52.301 55.9768C52.4746 56.411 52.7351 56.7293 53.0824 56.9609C53.4298 57.1924 53.835 57.3082 54.2402 57.3082C54.7322 57.3082 55.1664 57.1635 55.5137 56.8741C55.8321 56.5846 56.0636 56.1505 56.2083 55.5716Z" fill="#00A64F"/>
<path d="M60.7815 57.9451V51.1144H61.6209V53.5746C62.0261 53.1115 62.5181 52.9089 63.097 52.9089C63.4732 52.9089 63.7627 52.9668 64.0521 53.1115C64.3126 53.2562 64.5152 53.4588 64.631 53.7193C64.6599 53.8351 64.7178 53.9798 64.7757 54.1824L64.8046 54.4718V54.8191V57.9451H63.9653V54.8191C63.9653 54.4139 63.8785 54.0956 63.7048 53.893C63.5311 53.6904 63.2706 53.6035 62.9233 53.6035C62.6918 53.6035 62.4602 53.6614 62.2287 53.7772C62.0261 53.893 61.8524 54.0666 61.7656 54.2982C61.7077 54.4139 61.6787 54.5587 61.6498 54.7034C61.6498 54.7902 61.6209 54.877 61.6209 54.9349C61.6209 55.0218 61.6209 55.1086 61.6209 55.1954V57.8872H60.7815V57.9451Z" fill="#404041"/>
<path d="M71.9825 57.3372C71.6641 57.5977 71.3746 57.7713 71.0852 57.8871C70.7958 58.0029 70.4774 58.0608 70.159 58.0608C69.6091 58.0608 69.2039 57.916 68.9144 57.6556C68.625 57.3951 68.4803 57.0477 68.4803 56.6425C68.4803 56.411 68.5382 56.1794 68.6539 55.9768C68.7697 55.7742 68.9144 55.6295 69.0881 55.5137C69.2328 55.4269 69.4354 55.3401 69.6959 55.2243L70.0722 55.1664L70.4484 55.1085L70.9115 55.0506C71.0852 55.0217 71.2299 55.0217 71.3168 54.9638C71.5772 54.9059 71.7799 54.877 71.9246 54.8191V54.5875C71.9246 54.2692 71.8377 54.0376 71.693 53.864C71.4615 53.6613 71.1431 53.5745 70.7379 53.5745C70.3327 53.5745 70.0722 53.6324 69.8696 53.7771C69.6959 53.9218 69.5512 54.1534 69.4354 54.5296L68.625 54.4139C68.7118 54.0666 68.8276 53.8061 68.9723 53.5745C69.146 53.3719 69.3775 53.1982 69.7249 53.0825C69.8985 53.0246 70.0722 52.9667 70.2458 52.9378L70.5353 52.9088H70.8537C71.2878 52.9088 71.6351 52.9667 71.8667 53.0535C72.1272 53.1404 72.3008 53.2851 72.4456 53.4298C72.5324 53.5456 72.6192 53.7482 72.706 54.0087C72.735 54.1534 72.735 54.4139 72.735 54.7901V55.9189C72.735 56.7872 72.7639 57.3082 72.7929 57.4529C72.8218 57.6266 72.9087 57.8003 72.9955 57.9739H72.1272C72.0693 57.7713 72.0114 57.5687 71.9825 57.3372ZM71.9246 55.4848C71.7799 55.5427 71.6062 55.6006 71.3746 55.6584L70.9984 55.7453L70.5353 55.8321C70.188 55.89 69.9564 55.9189 69.8406 56.0058C69.6959 56.0637 69.5801 56.1505 69.4933 56.2952C69.4065 56.4399 69.3775 56.5846 69.3775 56.7004C69.3775 56.932 69.4644 57.1056 69.638 57.2503C69.8117 57.3951 70.0432 57.4819 70.3906 57.4819C70.7089 57.4819 70.9984 57.424 71.2299 57.2793C71.4904 57.1346 71.6641 56.932 71.7799 56.7004C71.8667 56.4978 71.9246 56.2373 71.9246 55.8611V55.4848Z" fill="#404041"/>
<path d="M76.7582 52.0984V51.1433H77.5975V52.0984H76.7582ZM76.7582 57.945V52.9957H77.5975V57.945H76.7582Z" fill="#404041"/>
<path d="M81.5341 57.945V52.9957H82.2866V53.6903C82.6628 53.1404 83.1838 52.8799 83.8495 52.8799C84.139 52.8799 84.4284 52.9378 84.66 53.0246C84.8915 53.1404 85.0941 53.2851 85.2388 53.4588C85.3257 53.5745 85.4125 53.7771 85.4993 54.0666L85.5283 54.3849V54.877V57.9161H84.6889V54.9059C84.6889 54.5586 84.66 54.3271 84.6021 54.1534C84.5442 54.0087 84.4284 53.864 84.2548 53.7482C84.0811 53.6324 83.8785 53.5745 83.6469 53.5745C83.2996 53.5745 82.9812 53.6903 82.7207 53.9219C82.4602 54.1534 82.3155 54.5876 82.3155 55.2243V57.9161H81.5341V57.945Z" fill="#404041"/>
<path d="M94.906 57.9451V51.1144H96.2664L97.8872 55.948L98.2056 56.961C98.2345 56.7873 98.3792 56.411 98.5818 55.8611L100.203 51.1144H101.418V57.9451H100.55V52.2432L98.5529 57.9451H97.7425L95.7743 52.1274V57.9451H94.906Z" fill="#00A64F"/>
<path d="M108.654 57.3372C108.336 57.5977 108.046 57.7713 107.757 57.8871C107.467 58.0029 107.149 58.0608 106.831 58.0608C106.281 58.0608 105.876 57.916 105.586 57.6556C105.297 57.3951 105.152 57.0477 105.152 56.6425C105.152 56.411 105.21 56.1794 105.326 55.9768C105.441 55.7742 105.586 55.6295 105.76 55.5137C105.905 55.4269 106.107 55.3401 106.368 55.2243L106.744 55.1664L107.12 55.1085L107.583 55.0506C107.757 55.0217 107.902 55.0217 107.988 54.9638C108.249 54.9059 108.452 54.877 108.596 54.8191V54.5875C108.596 54.2692 108.509 54.0376 108.365 53.864C108.133 53.6613 107.815 53.5745 107.41 53.5745C107.004 53.5745 106.744 53.6324 106.541 53.7771C106.368 53.9218 106.223 54.1534 106.107 54.5296L105.297 54.4139C105.384 54.0666 105.499 53.8061 105.644 53.5745C105.818 53.3719 106.049 53.1982 106.397 53.0825C106.57 53.0246 106.744 52.9667 106.918 52.9378L107.207 52.9088H107.525C107.96 52.9088 108.307 52.9667 108.538 53.0535C108.799 53.1404 108.973 53.2851 109.117 53.4298C109.204 53.5456 109.291 53.7482 109.378 54.0087C109.407 54.1534 109.407 54.4139 109.407 54.7901V55.9189C109.407 56.7872 109.436 57.3082 109.465 57.4529C109.494 57.6266 109.58 57.8003 109.667 57.9739H108.799C108.741 57.7713 108.683 57.5687 108.654 57.3372ZM108.596 55.4848C108.452 55.5427 108.278 55.6006 108.046 55.6584L107.67 55.7453L107.207 55.8321C106.86 55.89 106.628 55.9189 106.512 56.0058C106.368 56.0637 106.252 56.1505 106.165 56.2952C106.078 56.4399 106.049 56.5846 106.049 56.7004C106.049 56.932 106.136 57.1056 106.31 57.2503C106.483 57.3951 106.715 57.4819 107.062 57.4819C107.381 57.4819 107.67 57.424 107.902 57.2793C108.162 57.1346 108.336 56.932 108.452 56.7004C108.538 56.4978 108.596 56.2373 108.596 55.8611V55.4848Z" fill="#404041"/>
<path d="M113.401 57.945V52.9957H114.153V53.6903C114.529 53.1404 115.05 52.8799 115.716 52.8799C116.006 52.8799 116.295 52.9378 116.527 53.0246C116.758 53.1404 116.961 53.2851 117.105 53.4588C117.192 53.5745 117.279 53.7771 117.366 54.0666L117.395 54.3849V54.877V57.9161H116.556V54.9059C116.556 54.5586 116.527 54.3271 116.469 54.1534C116.411 54.0087 116.295 53.864 116.121 53.7482C115.948 53.6324 115.745 53.5745 115.514 53.5745C115.166 53.5745 114.848 53.6903 114.587 53.9219C114.327 54.1534 114.182 54.5876 114.182 55.2243V57.9161H113.401V57.945Z" fill="#404041"/>
<path d="M124.602 57.3372C124.284 57.5977 123.994 57.7713 123.705 57.8871C123.415 58.0029 123.097 58.0608 122.778 58.0608C122.229 58.0608 121.823 57.916 121.534 57.6556C121.244 57.3951 121.1 57.0477 121.1 56.6425C121.1 56.411 121.158 56.1794 121.273 55.9768C121.389 55.7742 121.534 55.6295 121.708 55.5137C121.852 55.4269 122.055 55.3401 122.315 55.2243L122.692 55.1664L123.068 55.1085L123.531 55.0506C123.705 55.0217 123.849 55.0217 123.936 54.9638C124.197 54.9059 124.399 54.877 124.544 54.8191V54.5875C124.544 54.2692 124.457 54.0376 124.312 53.864C124.081 53.6613 123.763 53.5745 123.357 53.5745C122.952 53.5745 122.692 53.6324 122.489 53.7771C122.315 53.9218 122.171 54.1534 122.055 54.5296L121.244 54.4139C121.331 54.0666 121.447 53.8061 121.592 53.5745C121.765 53.3719 121.997 53.1982 122.344 53.0825C122.518 53.0246 122.692 52.9667 122.865 52.9378L123.155 52.9088H123.473C123.907 52.9088 124.255 52.9667 124.486 53.0535C124.747 53.1404 124.92 53.2851 125.065 53.4298C125.152 53.5456 125.239 53.7482 125.325 54.0087C125.354 54.1534 125.354 54.4139 125.354 54.7901V55.9189C125.354 56.7872 125.383 57.3082 125.412 57.4529C125.441 57.6266 125.528 57.8003 125.615 57.9739H124.747C124.689 57.7713 124.631 57.5687 124.602 57.3372ZM124.544 55.4848C124.399 55.5427 124.226 55.6006 123.994 55.6584L123.618 55.7453L123.155 55.8321C122.807 55.89 122.576 55.9189 122.46 56.0058C122.315 56.0637 122.2 56.1505 122.113 56.2952C122.026 56.4399 121.997 56.5846 121.997 56.7004C121.997 56.932 122.084 57.1056 122.257 57.2503C122.431 57.3951 122.663 57.4819 123.01 57.4819C123.328 57.4819 123.618 57.424 123.849 57.2793C124.11 57.1346 124.284 56.932 124.399 56.7004C124.486 56.4978 124.544 56.2373 124.544 55.8611V55.4848Z" fill="#404041"/>
<path d="M129.204 58.3791L130.014 58.4949C130.043 58.7554 130.13 58.9291 130.304 59.0448C130.506 59.1896 130.796 59.2764 131.143 59.2764C131.548 59.2764 131.838 59.1896 132.04 59.0448C132.243 58.9001 132.388 58.6686 132.475 58.3791C132.504 58.1476 132.532 57.7713 132.532 57.3082C132.156 57.7424 131.722 57.945 131.172 57.945C130.478 57.945 129.957 57.7134 129.58 57.2214C129.204 56.7294 129.03 56.1505 129.03 55.4558C129.03 54.9927 129.117 54.5586 129.291 54.1534C129.464 53.7482 129.696 53.4298 130.043 53.2272C130.362 52.9956 130.767 52.9088 131.201 52.9088C131.78 52.9088 132.272 53.1404 132.648 53.6035V52.9956H133.43V57.2793C133.43 58.0318 133.343 58.5817 133.198 58.9001C133.053 59.2185 132.793 59.479 132.446 59.6527C132.098 59.8553 131.664 59.9421 131.172 59.9421C130.912 59.9421 130.651 59.9132 130.391 59.8553C130.13 59.7974 129.928 59.6816 129.754 59.5658C129.58 59.4211 129.436 59.2764 129.349 59.0738C129.262 58.8712 129.204 58.6396 129.204 58.3791ZM129.899 55.398C129.899 56.0347 130.014 56.5268 130.275 56.8162C130.535 57.1056 130.854 57.2503 131.23 57.2503C131.577 57.2503 131.896 57.1056 132.185 56.8162C132.446 56.5268 132.59 56.0637 132.59 55.4269C132.59 54.8191 132.446 54.356 132.185 54.0666C131.925 53.7482 131.606 53.6035 131.201 53.6035C130.825 53.6035 130.506 53.7482 130.246 54.0666C130.13 54.1823 130.043 54.3849 129.957 54.6165L129.899 54.9638C129.899 55.0506 129.87 55.1085 129.87 55.1664C129.899 55.2532 129.899 55.3111 129.899 55.398Z" fill="#404041"/>
<path d="M140.724 56.3531L141.592 56.4689C141.447 56.9609 141.216 57.3372 140.839 57.6266C140.463 57.9161 140 58.0608 139.421 58.0608C138.698 58.0608 138.119 57.8292 137.713 57.3951C137.279 56.9609 137.077 56.3242 137.077 55.5137C137.077 54.7033 137.279 54.0666 137.713 53.5745C137.945 53.343 138.177 53.1693 138.495 53.0535C138.784 52.9378 139.103 52.8799 139.392 52.8799C140.058 52.8799 140.608 53.1114 141.013 53.5456C141.418 54.0087 141.65 54.6165 141.65 55.4559V55.6874H137.974C137.974 55.9479 138.003 56.1794 138.09 56.3821C138.177 56.5847 138.292 56.7583 138.437 56.932C138.726 57.2214 139.045 57.3661 139.479 57.3661C139.797 57.3661 140.058 57.2793 140.261 57.1346C140.405 56.9899 140.579 56.7294 140.724 56.3531ZM137.974 55.0217H140.724C140.695 54.5876 140.579 54.2981 140.405 54.0955C140.145 53.7771 139.797 53.6035 139.363 53.6035C138.987 53.6035 138.669 53.7192 138.379 53.9797C138.263 54.0955 138.148 54.2402 138.061 54.4428C138.003 54.6165 137.974 54.8191 137.974 55.0217Z" fill="#404041"/>
<path d="M145.326 57.945V52.9957H146.078V53.6903C146.223 53.4588 146.425 53.2561 146.686 53.1114C146.946 52.9667 147.265 52.8799 147.554 52.8799C147.93 52.8799 148.22 52.9667 148.451 53.1114C148.683 53.2561 148.857 53.4877 148.944 53.7482C149.349 53.1693 149.841 52.8799 150.478 52.8799C150.97 52.8799 151.346 53.0246 151.606 53.2851C151.867 53.5456 152.012 53.9797 152.012 54.5297V57.9161H151.172V54.7902C151.172 54.4428 151.143 54.1823 151.085 54.0666C151.027 53.9219 150.941 53.8061 150.796 53.7192C150.738 53.6903 150.68 53.6614 150.593 53.6324C150.506 53.6035 150.391 53.5745 150.304 53.5745C149.957 53.5745 149.667 53.6903 149.436 53.9219C149.204 54.1534 149.088 54.5297 149.088 55.0217V57.8871H148.249V54.6744C148.249 54.2981 148.191 54.0087 148.046 53.835C147.902 53.6614 147.699 53.5456 147.381 53.5456C147.149 53.5456 146.946 53.6035 146.744 53.7192C146.541 53.835 146.396 54.0376 146.31 54.2692C146.223 54.5007 146.165 54.848 146.165 55.3111V57.8871H145.326V57.945Z" fill="#404041"/>
<path d="M159.305 56.3531L160.174 56.4689C160.029 56.9609 159.797 57.3372 159.421 57.6266C159.045 57.9161 158.582 58.0608 158.003 58.0608C157.279 58.0608 156.7 57.8292 156.295 57.3951C155.861 56.9609 155.658 56.3242 155.658 55.5137C155.658 54.7033 155.861 54.0666 156.295 53.5745C156.527 53.343 156.758 53.1693 157.077 53.0535C157.366 52.9378 157.684 52.8799 157.974 52.8799C158.64 52.8799 159.189 53.1114 159.595 53.5456C160 54.0087 160.231 54.6165 160.231 55.4559V55.6874H156.556C156.556 55.9479 156.585 56.1794 156.671 56.3821C156.758 56.5847 156.874 56.7583 157.019 56.932C157.308 57.2214 157.626 57.3661 158.061 57.3661C158.379 57.3661 158.64 57.2793 158.842 57.1346C159.016 56.9899 159.189 56.7294 159.305 56.3531ZM156.556 55.0217H159.305C159.276 54.5876 159.161 54.2981 158.987 54.0955C158.726 53.7771 158.379 53.6035 157.945 53.6035C157.569 53.6035 157.25 53.7192 156.961 53.9797C156.845 54.0955 156.729 54.2402 156.642 54.4428C156.613 54.6165 156.556 54.8191 156.556 55.0217Z" fill="#404041"/>
<path d="M163.907 57.945V52.9957H164.66V53.6903C165.036 53.1404 165.557 52.8799 166.223 52.8799C166.512 52.8799 166.802 52.9378 167.033 53.0246C167.265 53.1404 167.467 53.2851 167.612 53.4588C167.699 53.5745 167.786 53.7771 167.873 54.0666L167.902 54.3849V54.877V57.9161H167.062V54.9059C167.062 54.5586 167.033 54.3271 166.975 54.1534C166.918 54.0087 166.802 53.864 166.628 53.7482C166.454 53.6324 166.252 53.5745 166.02 53.5745C165.673 53.5745 165.355 53.6903 165.094 53.9219C164.834 54.1534 164.689 54.5876 164.689 55.2243V57.9161H163.907V57.945Z" fill="#404041"/>
<path d="M173.719 57.1924L173.835 57.945C173.488 58.0029 173.256 58.0318 173.198 58.0318C172.909 58.0318 172.706 57.9739 172.532 57.8871C172.359 57.8002 172.243 57.6555 172.156 57.5108L172.127 57.3661L172.098 57.0767C172.069 56.903 172.069 56.7293 172.069 56.5267V53.6903H171.462V53.0246H172.069V51.8089L172.909 51.3169V53.0535H173.748V53.7192H172.909V56.6136C172.909 56.8451 172.909 56.9898 172.938 57.0477C172.967 57.1056 173.024 57.1635 173.082 57.2214L173.198 57.2503L173.314 57.2793H173.372H173.517L173.719 57.1924Z" fill="#404041"/>
</svg>
