<svg width="32" height="32" viewBox="0 0 32 32" fill="none" xmlns="http://www.w3.org/2000/svg">
<path d="M21.0667 2.94664C20.52 2.39997 19.5734 2.7733 19.5734 3.5333V8.18664C19.5734 10.1333 21.2267 11.7466 23.24 11.7466C24.5067 11.76 26.2667 11.76 27.7734 11.76C28.5334 11.76 28.9334 10.8666 28.4 10.3333C26.48 8.39997 23.04 4.91997 21.0667 2.94664Z" fill="#00A64F"/>
<path d="M27.3333 13.5867H23.48C20.32 13.5867 17.7466 11.0134 17.7466 7.85335V4.00002C17.7466 3.26669 17.1466 2.66669 16.4133 2.66669H10.76C6.65331 2.66669 3.33331 5.33335 3.33331 10.0934V21.9067C3.33331 26.6667 6.65331 29.3334 10.76 29.3334H21.24C25.3466 29.3334 28.6666 26.6667 28.6666 21.9067V14.92C28.6666 14.1867 28.0666 13.5867 27.3333 13.5867ZM15.3333 23.6667H9.99998C9.45331 23.6667 8.99998 23.2134 8.99998 22.6667C8.99998 22.12 9.45331 21.6667 9.99998 21.6667H15.3333C15.88 21.6667 16.3333 22.12 16.3333 22.6667C16.3333 23.2134 15.88 23.6667 15.3333 23.6667ZM18 18.3334H9.99998C9.45331 18.3334 8.99998 17.88 8.99998 17.3334C8.99998 16.7867 9.45331 16.3334 9.99998 16.3334H18C18.5466 16.3334 19 16.7867 19 17.3334C19 17.88 18.5466 18.3334 18 18.3334Z" fill="#00A64F"/>
</svg>
