<svg width="32" height="32" viewBox="0 0 32 32" fill="none" xmlns="http://www.w3.org/2000/svg">
<path d="M20 29.3334C19.4533 29.3334 19 28.88 19 28.3334V3.66669C19 3.12002 19.4533 2.66669 20 2.66669C20.5467 2.66669 21 3.12002 21 3.66669V28.3334C21 28.88 20.5467 29.3334 20 29.3334Z" fill="#00A64F"/>
<path d="M24 26.6666H20V5.33331H24C26.9467 5.33331 29.3333 7.71998 29.3333 10.6666V21.3333C29.3333 24.28 26.9467 26.6666 24 26.6666Z" fill="#00A64F"/>
<path d="M8.00002 5.33331C5.05335 5.33331 2.66669 7.71998 2.66669 10.6666V21.3333C2.66669 24.28 5.05335 26.6666 8.00002 26.6666H14.6667C15.4 26.6666 16 26.0666 16 25.3333V6.66665C16 5.93331 15.4 5.33331 14.6667 5.33331H8.00002ZM10.3334 20.6666C10.3334 21.2133 9.88002 21.6666 9.33335 21.6666C8.78669 21.6666 8.33335 21.2133 8.33335 20.6666V11.3333C8.33335 10.7866 8.78669 10.3333 9.33335 10.3333C9.88002 10.3333 10.3334 10.7866 10.3334 11.3333V20.6666Z" fill="#00A64F"/>
</svg>
