<svg width="32" height="32" viewBox="0 0 32 32" fill="none" xmlns="http://www.w3.org/2000/svg">
<path d="M3.69335 13.3333C3.12002 13.3333 2.66669 12.88 2.66669 12.3067V9.22666C2.66669 5.61332 5.61335 2.66666 9.22669 2.66666H12.3067C12.88 2.66666 13.3334 3.11999 13.3334 3.69332C13.3334 4.26666 12.88 4.71999 12.3067 4.71999H9.22669C6.73335 4.71999 4.72002 6.74666 4.72002 9.22666V12.3067C4.72002 12.88 4.25335 13.3333 3.69335 13.3333Z" fill="#00A64F"/>
<path d="M28.3067 13.3333C27.7467 13.3333 27.28 12.88 27.28 12.3067V9.22666C27.28 6.73332 25.2534 4.71999 22.7734 4.71999H19.6934C19.12 4.71999 18.6667 4.25332 18.6667 3.69332C18.6667 3.13332 19.12 2.66666 19.6934 2.66666H22.7734C26.3867 2.66666 29.3334 5.61332 29.3334 9.22666V12.3067C29.3334 12.88 28.88 13.3333 28.3067 13.3333Z" fill="#00A64F"/>
<path d="M22.7733 29.3333H20.92C20.36 29.3333 19.8933 28.88 19.8933 28.3067C19.8933 27.7467 20.3466 27.28 20.92 27.28H22.7733C25.2666 27.28 27.28 25.2533 27.28 22.7733V20.9333C27.28 20.3733 27.7333 19.9067 28.3066 19.9067C28.8666 19.9067 29.3333 20.36 29.3333 20.9333V22.7733C29.3333 26.3867 26.3866 29.3333 22.7733 29.3333Z" fill="#00A64F"/>
<path d="M12.3067 29.3333H9.22669C5.61335 29.3333 2.66669 26.3867 2.66669 22.7733V19.6933C2.66669 19.12 3.12002 18.6667 3.69335 18.6667C4.26669 18.6667 4.72002 19.12 4.72002 19.6933V22.7733C4.72002 25.2667 6.74669 27.28 9.22669 27.28H12.3067C12.8667 27.28 13.3334 27.7333 13.3334 28.3067C13.3334 28.88 12.88 29.3333 12.3067 29.3333Z" fill="#00A64F"/>
<path d="M24.6133 14.9733H22.8H9.19999H7.38665C6.81332 14.9733 6.35999 15.44 6.35999 16C6.35999 16.56 6.81332 17.0267 7.38665 17.0267H9.19999H22.8H24.6133C25.1867 17.0267 25.64 16.56 25.64 16C25.64 15.44 25.1867 14.9733 24.6133 14.9733Z" fill="#00A64F"/>
<path d="M9.20001 18.5867V19.0267C9.20001 21.24 10.9867 23.0267 13.2 23.0267H18.8C21.0133 23.0267 22.8 21.24 22.8 19.0267V18.5867C22.8 18.4267 22.68 18.3067 22.52 18.3067H9.48001C9.32001 18.3067 9.20001 18.4267 9.20001 18.5867Z" fill="#00A64F"/>
<path d="M9.20001 13.4133V12.9733C9.20001 10.76 10.9867 8.97333 13.2 8.97333H18.8C21.0133 8.97333 22.8 10.76 22.8 12.9733V13.4133C22.8 13.5733 22.68 13.6933 22.52 13.6933H9.48001C9.32001 13.6933 9.20001 13.5733 9.20001 13.4133Z" fill="#00A64F"/>
</svg>
