<svg width="45" height="50" viewBox="0 0 45 50" fill="none" xmlns="http://www.w3.org/2000/svg">
<path d="M44.6274 13.5076V35.8695C44.6274 36.9238 44.0655 37.8951 43.1541 38.4203L34.8492 43.2148C34.911 42.9193 34.9439 42.6162 34.9439 42.3111V19.9491C34.9439 18.3735 34.0962 16.906 32.7349 16.122L22.3137 10.1053V1.47409C22.3137 0.352228 23.5186 -0.354487 24.4957 0.184239C24.5053 0.188101 24.515 0.193897 24.5227 0.19969L43.1541 10.9568C44.0655 11.482 44.6274 12.4552 44.6274 13.5076Z" fill="#4C4C4C"/>
<path d="M33.4706 19.9491V42.3111C33.4706 43.3654 32.9087 44.3366 31.9973 44.8618L23.787 49.6022V26.3887C23.787 25.1221 23.2386 23.9249 22.3137 23.0965C22.0897 22.8938 21.8426 22.7142 21.578 22.5617L20.8424 22.1349L11.1588 16.5449V7.91565C11.1588 6.78221 12.3869 6.07355 13.3678 6.63931L20.8424 10.9549L22.3157 11.8045L31.9992 17.3945C32.9106 17.9197 33.4725 18.8929 33.4725 19.9453L33.4706 19.9491Z" fill="#F99E21"/>
<path d="M22.3137 26.3906V49.9999C21.8116 49.9999 21.3077 49.8705 20.8558 49.6118L20.8404 49.6021L11.1568 44.0121L9.68355 43.1625L1.47329 38.4221C0.561895 37.8969 0 36.9237 0 35.8714V14.359C0 13.2256 1.22806 12.5169 2.20897 13.0827L9.68355 17.3983L11.1568 18.2479L20.8404 23.8379C21.7518 24.3631 22.3137 25.3363 22.3137 26.3886V26.3906Z" fill="#3163D4"/>
</svg>
