<!-- <svg width="222" height="40" viewBox="0 0 222 40" fill="none" xmlns="http://www.w3.org/2000/svg">
<g clip-path="url(#clip0_2760_9520)">
<path d="M146.67 32.6589V8.01495C146.67 7.54568 146.498 7.17397 146.182 6.93701H150.763V30.0384H160.539C162.486 30.0384 163.522 29.5691 164.34 28.6445C164.186 30.057 163.146 31.7343 161.821 32.6589H146.67Z" fill="#00A64F"/>
<path d="M165.864 32.6587V18.2134C165.864 16.5918 165.613 15.486 165.088 14.8262C165.339 14.7705 165.641 14.738 165.98 14.738C168.261 14.738 169.571 15.7927 169.571 17.6326V31.5761C169.571 32.0454 169.743 32.4171 170.059 32.6541H165.868L165.864 32.6587ZM167.285 12.438C166.166 12.3033 165.246 11.388 165.111 10.2636C164.902 8.51656 166.444 7.06227 168.191 7.47114C169.116 7.68487 169.864 8.43292 170.078 9.35754C170.487 11.1045 169.028 12.6471 167.281 12.438H167.285Z" fill="#00A64F"/>
<path d="M179.677 40C174.599 40 171.569 38.4574 171.569 35.8695C171.569 35.2794 171.737 34.6335 172.076 33.9412C172.136 34.9077 172.643 35.7951 173.59 36.5757C174.575 37.3888 176.392 37.8023 178.985 37.8023C184.365 37.8023 185.169 35.6975 185.169 34.4384C185.169 33.5417 184.802 32.0409 182.349 32.0409H176.322C173.623 32.0409 171.881 30.8003 171.881 28.8768C171.881 27.0647 172.601 25.7591 174.088 24.8717L174.701 24.5046L174.12 24.0911C172.917 23.2315 172.308 21.9445 172.308 20.2579C172.308 16.8521 175.119 14.7381 179.645 14.7381C180.983 14.7381 181.926 14.8449 182.446 15.054L182.902 15.2352L183.06 14.7706C183.719 12.8285 184.509 12.0339 185.787 12.0339C186.925 12.0339 188.082 12.782 188.626 13.7717C188.565 13.7717 188.51 13.7717 188.449 13.7717C187.162 13.7717 186.163 14.5801 185.471 16.1784L185.322 16.5176L185.62 16.736C186.493 17.3818 187.014 18.6596 187.014 20.1464C187.014 23.5568 184.323 25.5129 179.64 25.5129C178.646 25.5129 177.637 25.4106 176.643 25.2108L176.508 25.183L176.383 25.2341C175.054 25.7545 174.775 26.5536 174.775 27.1344C174.775 29.1044 176.666 29.1044 177.289 29.1044H183.701C187.265 29.1044 189.067 30.6749 189.067 33.7786C189.067 37.6118 185.471 39.9954 179.682 39.9954L179.677 40ZM179.64 16.8614C177.479 16.8614 175.969 18.2925 175.969 20.3415C175.969 22.3905 177.447 23.7054 179.64 23.7054C181.833 23.7054 183.236 22.4184 183.236 20.3415C183.236 18.2646 181.791 16.8614 179.64 16.8614Z" fill="#00A64F"/>
<path d="M203.615 32.6588V22.2325C203.615 19.3518 202.012 17.6327 199.326 17.6327C197.626 17.6327 196.209 18.0973 195.126 19.0173L194.963 19.1567V32.6588H191.26V10.0267C191.26 8.40514 191.009 7.29932 190.484 6.63955C190.735 6.58379 191.037 6.55127 191.376 6.55127C193.658 6.55127 194.968 7.60598 194.968 9.44591V17.5816L195.758 16.8103C197.208 15.3978 198.838 14.7381 200.878 14.7381C205.157 14.7381 207.327 17.024 207.327 21.5356V31.5809C207.327 32.0502 207.499 32.4219 207.815 32.6588H203.619H203.615Z" fill="#00A64F"/>
<path d="M218.06 33.0446C213.8 33.0446 211.727 30.8236 211.727 26.247V17.7861H208.521V15.1238H211.727V8.01495C211.727 7.54568 211.555 7.17397 211.239 6.93701H215.43V15.1284H218.948C219.44 15.1284 220.434 15.068 221.117 14.6266C221.155 14.8497 221.187 15.1052 221.187 15.3189C221.187 16.4062 220.481 17.3029 219.25 17.7908H215.43V26.0984C215.43 28.6678 215.974 30.1546 218.753 30.1546C219.473 30.1546 220.188 30.0524 220.936 29.8386L221.722 32.0131C220.843 32.6961 219.612 33.0446 218.06 33.0446Z" fill="#00A64F"/>
<mask id="mask0_2760_9520" style="mask-type:luminance" maskUnits="userSpaceOnUse" x="0" y="0" width="144" height="40">
<path d="M143.18 0H0V39.0475H143.18V0Z" fill="white"/>
</mask>
<g mask="url(#mask0_2760_9520)">
<path d="M8.36334 0H0V11.114H2.78778V2.77849H11.1511V0H8.36334Z" fill="#00A64F"/>
<path d="M8.36334 39.0475H0V27.9336H2.78778V36.2644H11.1511V39.0429H8.36334V39.0475Z" fill="#00A64F"/>
<path d="M134.812 0H143.176V11.114H140.388V2.77849H132.025V0H134.812Z" fill="#00A64F"/>
<path d="M134.812 39.0475H143.176V27.9336H140.388V36.2644H132.025V39.0429H134.812V39.0475Z" fill="#00A64F"/>
<path d="M13.2467 9.7572H6.50951C6.46305 9.52024 6.42588 9.2554 6.40265 8.96733C6.37942 8.67926 6.36548 8.40513 6.36548 8.14029C6.36548 7.87545 6.37942 7.60596 6.40265 7.33183C6.42588 7.0577 6.46305 6.79751 6.50951 6.56055H23.6637C23.7101 6.80215 23.7473 7.04841 23.7705 7.31325C23.7938 7.57809 23.8077 7.83828 23.8077 8.10312C23.8077 8.36796 23.7938 8.64674 23.7705 8.94875C23.7473 9.24611 23.7101 9.51559 23.6637 9.7572H16.9265V32.38C16.3736 32.4497 15.7742 32.4869 15.1238 32.4869C14.4733 32.4869 13.8274 32.4497 13.2513 32.38V9.7572H13.2467Z" fill="#414042"/>
<path d="M26.7998 6.95084C27.3202 6.90437 27.7941 6.85791 28.2169 6.81145C28.6398 6.76498 29.0626 6.72317 29.4761 6.686C29.8896 6.64883 30.3217 6.62095 30.7678 6.59772C31.2185 6.57449 31.711 6.56055 32.2546 6.56055C33.458 6.56055 34.6521 6.68135 35.8322 6.91367C37.0124 7.15063 38.0671 7.5595 38.9871 8.14958C39.907 8.73966 40.6551 9.53418 41.2359 10.5331C41.8167 11.5321 42.1047 12.8005 42.1047 14.3292C42.1047 15.2491 41.9514 16.0855 41.6447 16.8382C41.3381 17.5909 40.9478 18.2646 40.4739 18.85C40 19.4401 39.4656 19.9512 38.8616 20.3879C38.2622 20.8247 37.6722 21.1825 37.1053 21.4659L36.6825 21.6796L44.0887 32.38C43.4522 32.4497 42.7273 32.4869 41.9282 32.4869C41.2916 32.4869 40.6504 32.4497 40.0139 32.38L31.8643 20.6203V20.4809L32.1477 20.4112C32.7843 20.2485 33.458 20.0255 34.1689 19.7421C34.8797 19.4587 35.5349 19.087 36.1342 18.627C36.7336 18.167 37.2401 17.6141 37.6396 16.9683C38.0392 16.3224 38.239 15.5372 38.239 14.6172C38.239 12.9213 37.7372 11.6622 36.7336 10.8398C35.73 10.0174 34.3779 9.60387 32.6727 9.60387C32.2685 9.60387 31.9015 9.61781 31.5576 9.64104C31.2138 9.66428 30.8328 9.70145 30.4054 9.74791V32.394L29.5365 32.459C29.2159 32.4823 28.9139 32.4962 28.6305 32.4962C28.347 32.4962 28.0404 32.4916 27.7105 32.4776C27.3806 32.4637 27.074 32.4358 26.7905 32.3893V6.95084H26.7998Z" fill="#414042"/>
<path d="M59.4866 6.70458C59.1567 6.65812 58.8082 6.62095 58.4504 6.59772C58.0927 6.57449 57.7488 6.56055 57.4143 6.56055C57.0333 6.56055 56.6616 6.57449 56.3038 6.59772C55.9461 6.62095 55.6115 6.65812 55.3002 6.70458L46.9276 32.3429C47.1925 32.3893 47.4852 32.4265 47.8058 32.4497C48.1264 32.473 48.4516 32.4869 48.7908 32.4869C49.0974 32.4869 49.4134 32.473 49.72 32.4497H49.7572C50.2962 32.4079 50.7469 32.0269 50.9002 31.5112L51.9967 27.8174L52.4102 26.4235H52.4195L53.8041 21.8144L57.2749 10.1614L60.7782 21.8144L60.8572 22.0699L62.1768 26.4235L62.8737 28.7234L63.7193 31.5158C63.8727 32.0316 64.3327 32.4079 64.8716 32.4451H64.8809C65.2062 32.4683 65.5221 32.4823 65.8288 32.4823C66.1633 32.4823 66.5071 32.4683 66.8649 32.4451C67.2227 32.4219 67.5433 32.3847 67.8313 32.3382L59.4912 6.69994L59.4866 6.70458Z" fill="#414042"/>
<path d="M82.876 18.915L76.7336 32.38C76.269 32.4265 75.8276 32.459 75.4187 32.4729L81.6076 18.915L76.4316 6.56982C76.873 6.58841 77.3097 6.61629 77.7419 6.6674L82.8807 18.915H82.876Z" fill="#414042"/>
<path d="M82.8761 18.9151L88.0149 6.66741C88.2797 6.64418 88.5307 6.62095 88.7676 6.59772C89.0046 6.57449 89.2601 6.56055 89.5203 6.56055H90.4914C90.7562 6.56055 90.9839 6.56984 91.1744 6.57913C91.3649 6.59307 91.5926 6.62095 91.8574 6.66741L86.4677 18.8082L92.8982 32.38C92.178 32.4497 91.5229 32.4869 90.9235 32.4869C90.3938 32.4869 89.7619 32.4497 89.0185 32.38L82.8715 18.9151H82.8761Z" fill="#414042"/>
<path d="M80.683 18.9151L74.5406 32.38C74.2525 32.4079 73.9784 32.4311 73.7089 32.4497C73.4951 32.4683 73.2953 32.4776 73.0956 32.4823H73.077C72.9283 32.4823 72.7796 32.4915 72.6356 32.4915C72.0362 32.4915 71.3764 32.4544 70.6562 32.3847L77.0542 18.9197L71.6645 6.67205C72.0223 6.62559 72.3568 6.59306 72.6681 6.58377C72.9794 6.56983 73.3046 6.56519 73.6392 6.56519C73.7832 6.56519 73.9272 6.56519 74.0666 6.57448H74.1224C74.2897 6.58377 74.4569 6.58842 74.6242 6.59771H74.6335C74.9401 6.61629 75.2421 6.63953 75.5395 6.6767L80.6783 18.9243L80.683 18.9151Z" fill="#00A64F"/>
<path d="M95.5604 6.56055H109.852C109.922 7.03912 109.959 7.57344 109.959 8.14494C109.959 8.40977 109.95 8.68391 109.941 8.97662C109.927 9.26469 109.899 9.52953 109.848 9.77114H99.245V17.2006H107.711C107.757 17.4422 107.794 17.6977 107.817 17.9765C107.841 18.2506 107.855 18.5248 107.855 18.7896C107.855 19.0544 107.841 19.3286 107.817 19.6213C107.794 19.9094 107.757 20.1742 107.711 20.4158H99.245V29.2856H110.136C110.206 29.7642 110.243 30.2939 110.243 30.87C110.243 31.1348 110.233 31.409 110.224 31.7017C110.21 31.9898 110.182 32.2546 110.131 32.4962H95.5465V6.56055H95.5512H95.5604Z" fill="#414042"/>
<path d="M114.057 6.70458C114.345 6.65812 114.671 6.62095 115.042 6.59772C115.414 6.57449 115.763 6.56055 116.097 6.56055C116.432 6.56055 116.799 6.57449 117.189 6.59772C117.584 6.62095 117.909 6.65812 118.174 6.70458L124.828 22.7529L131.518 6.70458C131.755 6.65812 132.057 6.62095 132.415 6.59772C132.773 6.57449 133.121 6.56055 133.451 6.56055C133.762 6.56055 134.106 6.57449 134.487 6.59772C134.868 6.62095 135.193 6.65812 135.454 6.70458L136.671 32.3429C136.383 32.3893 136.095 32.4265 135.793 32.4497C135.495 32.473 135.189 32.4869 134.882 32.4869C134.575 32.4869 134.269 32.473 133.971 32.4497C133.674 32.4265 133.395 32.3893 133.13 32.3429L132.308 12.4102L126.012 27.0321C125.534 27.1018 125.046 27.139 124.544 27.139C124.089 27.139 123.638 27.1018 123.183 27.0321L117.101 12.3034L116.278 32.3429C116.018 32.3893 115.739 32.4265 115.456 32.4497C115.168 32.473 114.894 32.4869 114.634 32.4869C114.322 32.4869 114.025 32.473 113.737 32.4497C113.449 32.4265 113.175 32.3893 112.914 32.3429L114.062 6.70458H114.057Z" fill="#414042"/>
</g>
</g>
<defs>
<clipPath id="clip0_2760_9520">
<rect width="221.721" height="40" fill="white"/>
</clipPath>
</defs>
</svg> -->

<svg xmlns="http://www.w3.org/2000/svg" width="100" height="100" viewBox="0 0 100 100" fill="none">
<rect width="100" height="100" rx="20" fill="white"/>
<path d="M16.6013 74.0508C13.9269 74.0508 12.2144 72.7559 12.2144 70.4144V46.4609C12.2144 45.7896 11.7968 45.4566 11.004 45.4566H10.5442V44.7854H17.2302V69.7855C17.2302 71.9155 17.6478 73.1734 18.5252 73.591C18.1922 73.8817 17.3148 74.0508 16.6013 74.0508Z" fill="#00A64F"/>
<path d="M22.9173 53.2368C25.5917 53.2368 27.3042 54.5318 27.3042 56.8732V71.9631C27.3042 72.6343 27.7218 72.9673 28.5146 72.9673H28.9744V73.6386H22.2883V57.5022C22.2883 55.3721 21.8708 54.1142 20.9934 53.6967C21.411 53.406 22.0399 53.2368 22.9173 53.2368ZM24.6721 44.3362C26.4691 44.3362 27.9332 45.8002 27.9332 47.5973C27.9332 49.3943 26.4691 50.8161 24.6721 50.8161C22.875 50.8161 21.4532 49.3943 21.4532 47.5973C21.4532 45.8002 22.875 44.3362 24.6721 44.3362Z" fill="#00A64F"/>
<path d="M37.336 68.7811H44.2758C48.4988 68.7811 50.5866 70.8318 50.5866 74.3413C50.5866 78.3107 47.1193 81.5718 39.9259 81.5718C34.0326 81.5718 30.6447 79.6479 30.6447 76.5982C30.6447 75.5517 31.0622 74.4259 31.855 73.2102L32.3148 73.4217C32.2303 73.6331 32.188 73.9238 32.188 74.299C32.188 75.3033 32.6901 76.1807 33.6521 76.9735C34.614 77.7663 36.4533 78.1838 39.17 78.1838C43.8529 78.1838 45.354 76.7198 45.354 75.0496C45.354 73.6701 44.5189 72.9618 42.8064 72.9618H36.2842C32.8962 72.9618 30.9776 71.2494 30.9776 69.0348C30.9776 66.8202 31.855 65.3138 33.6098 64.2673C32.1457 63.2208 31.4375 61.6775 31.4375 59.7113C31.4375 55.8265 34.5294 53.2313 39.8783 53.2313C41.4269 53.2313 42.4681 53.3582 43.0971 53.6066C43.7684 51.6404 44.6827 50.3032 46.5221 50.3032C48.2345 50.3032 49.9893 51.6404 50.3699 53.3106C49.9946 53.2261 49.6986 53.1838 49.4079 53.1838C48.2398 53.1838 47.3202 53.9343 46.6489 55.4829C47.7747 56.318 48.3614 57.9089 48.3614 59.5791C48.3614 63.5485 45.2694 65.8899 39.8783 65.8899C38.7102 65.8899 37.5791 65.7631 36.5326 65.557C35.5707 65.9322 35.1108 66.4766 35.1108 67.1426C35.1108 68.1891 35.6552 68.7705 37.3254 68.7705L37.336 68.7811ZM39.8836 62.9301C41.9343 62.9301 43.2715 61.799 43.2715 59.7958C43.2715 57.7927 41.9343 56.5347 39.8836 56.5347C37.8328 56.5347 36.4163 57.8297 36.4163 59.7958C36.4163 61.762 37.8381 62.9301 39.8836 62.9301Z" fill="#00A64F"/>
<path d="M66.6806 61.8467C66.6806 59.0454 65.1743 57.3752 62.5422 57.3752C60.8297 57.3752 59.4079 57.835 58.3191 58.7547V73.6331H53.3032V48.6384C53.3032 46.5084 52.8857 45.2504 52.0083 44.8329C52.4258 44.5422 53.0548 44.373 53.9322 44.373C56.6066 44.373 58.3191 45.668 58.3191 48.0094V55.6151C59.8677 54.1088 61.7071 53.2314 64.2124 53.2314C69.2705 53.2314 71.6965 56.075 71.6965 61.0908V71.9577C71.6965 72.6289 72.1141 72.9619 72.9069 72.9619H73.3667V73.6331H66.6806V61.8467Z" fill="#00A64F"/>
<path d="M89.334 54.3626C89.334 55.6998 88.4989 56.9102 86.8234 57.5391H83.1025V66.0222C83.1025 68.8658 83.7315 69.907 86.1945 69.907C87.1141 69.907 87.9915 69.7379 88.8689 69.4472L90 72.5814C88.9534 73.5434 87.4101 74.0455 85.4439 74.0455C80.5549 74.0455 78.0866 71.4134 78.0866 66.1861V57.5338H74.6194V53.6491H78.0866V46.4609C78.0866 45.7896 77.6691 45.4566 76.8763 45.4566H76.4164V44.7854H83.1025V53.6543H86.4059C87.5317 53.6543 88.6628 53.3636 88.9535 52.6501C89.1649 52.8615 89.3287 53.8182 89.3287 54.3626H89.334Z" fill="#00A64F"/>
<path d="M14.6625 19H10V25.1959H11.5542V20.549H16.2167V19H14.6625Z" fill="#00A64F"/>
<path d="M14.6625 40.7687H10V34.5728H11.5542V39.2171H16.2167V40.7661H14.6625V40.7687Z" fill="#00A64F"/>
<path d="M85.157 19H89.8195V25.1959H88.2653V20.549H83.6028V19H85.157Z" fill="#00A64F"/>
<path d="M85.157 40.7687H89.8195V34.5728H88.2653V39.2171H83.6028V40.7661H85.157V40.7687Z" fill="#00A64F"/>
<path d="M17.3849 24.4396H13.629C13.6031 24.3075 13.5824 24.1598 13.5694 23.9992C13.5565 23.8386 13.5487 23.6858 13.5487 23.5382C13.5487 23.3905 13.5565 23.2403 13.5694 23.0875C13.5824 22.9346 13.6031 22.7896 13.629 22.6575H23.1923C23.2182 22.7922 23.2389 22.9294 23.2519 23.0771C23.2648 23.2247 23.2726 23.3698 23.2726 23.5174C23.2726 23.6651 23.2648 23.8205 23.2519 23.9889C23.2389 24.1547 23.2182 24.3049 23.1923 24.4396H19.4364V37.0517C19.1282 37.0905 18.794 37.1112 18.4314 37.1112C18.0687 37.1112 17.7087 37.0905 17.3875 37.0517V24.4396H17.3849Z" fill="#414042"/>
<path d="M24.9407 22.8751C25.2308 22.8492 25.495 22.8232 25.7308 22.7973C25.9665 22.7714 26.2022 22.7481 26.4327 22.7274C26.6633 22.7067 26.9042 22.6911 27.1528 22.6782C27.4041 22.6652 27.6787 22.6575 27.9817 22.6575C28.6526 22.6575 29.3183 22.7248 29.9762 22.8543C30.6342 22.9864 31.2222 23.2144 31.735 23.5433C32.2479 23.8723 32.6649 24.3152 32.9887 24.8722C33.3125 25.4291 33.4731 26.1362 33.4731 26.9884C33.4731 27.5013 33.3876 27.9675 33.2167 28.3872C33.0457 28.8068 32.8281 29.1824 32.5639 29.5088C32.2997 29.8377 32.0018 30.1227 31.6651 30.3661C31.3309 30.6096 31.002 30.8091 30.686 30.9671L30.4503 31.0862L34.5792 37.0517C34.2243 37.0905 33.8202 37.1112 33.3747 37.1112C33.0198 37.1112 32.6623 37.0905 32.3075 37.0517L27.7641 30.4957V30.4179L27.9221 30.3791C28.277 30.2884 28.6526 30.1641 29.0489 30.0061C29.4452 29.8481 29.8105 29.6409 30.1446 29.3844C30.4787 29.128 30.7611 28.8197 30.9838 28.4597C31.2066 28.0996 31.318 27.6619 31.318 27.149C31.318 26.2036 31.0382 25.5016 30.4787 25.0431C29.9192 24.5846 29.1655 24.3541 28.2148 24.3541C27.9895 24.3541 27.7849 24.3619 27.5932 24.3748C27.4015 24.3878 27.1891 24.4085 26.9508 24.4344V37.0594L26.4664 37.0957C26.2877 37.1086 26.1193 37.1164 25.9613 37.1164C25.8033 37.1164 25.6323 37.1138 25.4484 37.106C25.2645 37.0983 25.0936 37.0827 24.9355 37.0568V22.8751H24.9407Z" fill="#414042"/>
<path d="M43.1634 22.7378C42.9795 22.7119 42.7852 22.6911 42.5858 22.6782C42.3863 22.6652 42.1946 22.6575 42.0081 22.6575C41.7957 22.6575 41.5885 22.6652 41.389 22.6782C41.1896 22.6911 41.0031 22.7119 40.8295 22.7378L36.1619 37.0309C36.3095 37.0568 36.4727 37.0776 36.6514 37.0905C36.8302 37.1035 37.0115 37.1112 37.2006 37.1112C37.3715 37.1112 37.5477 37.1035 37.7186 37.0905H37.7393C38.0398 37.0672 38.2911 36.8548 38.3766 36.5673L38.9879 34.508L39.2184 33.7309H39.2236L39.9955 31.1614L41.9304 24.6649L43.8835 31.1614L43.9275 31.3038L44.6632 33.7309L45.0517 35.0131L45.5231 36.5699C45.6086 36.8574 45.865 37.0672 46.1655 37.0879H46.1707C46.352 37.1009 46.5282 37.1086 46.6991 37.1086C46.8856 37.1086 47.0773 37.1009 47.2768 37.0879C47.4762 37.075 47.6549 37.0542 47.8155 37.0283L43.166 22.7352L43.1634 22.7378Z" fill="#414042"/>
<path d="M56.2028 29.545L52.7785 37.0516C52.5194 37.0775 52.2734 37.0956 52.0454 37.1034L55.4957 29.545L52.6101 22.6626C52.8562 22.673 53.0997 22.6885 53.3405 22.717L56.2054 29.545H56.2028Z" fill="#414042"/>
<path d="M56.2028 29.545L59.0676 22.717C59.2153 22.7041 59.3552 22.6911 59.4873 22.6782C59.6194 22.6652 59.7618 22.6575 59.9069 22.6575H60.4483C60.5959 22.6575 60.7228 22.6627 60.829 22.6678C60.9352 22.6756 61.0621 22.6911 61.2098 22.717L58.2051 29.4854L61.79 37.0517C61.3885 37.0905 61.0233 37.1112 60.6891 37.1112C60.3939 37.1112 60.0416 37.0905 59.6271 37.0517L56.2002 29.545H56.2028Z" fill="#414042"/>
<path d="M54.9802 29.5451L51.5559 37.0517C51.3953 37.0673 51.2424 37.0802 51.0922 37.0906C50.973 37.101 50.8617 37.1061 50.7503 37.1087H50.7399C50.657 37.1087 50.5741 37.1139 50.4938 37.1139C50.1597 37.1139 49.7919 37.0932 49.3904 37.0543L52.9572 29.5477L49.9525 22.7197C50.1519 22.6938 50.3384 22.6757 50.512 22.6705C50.6855 22.6627 50.8668 22.6602 51.0533 22.6602C51.1336 22.6602 51.2139 22.6602 51.2916 22.6653H51.3227C51.416 22.6705 51.5092 22.6731 51.6025 22.6783H51.6077C51.7786 22.6886 51.947 22.7016 52.1128 22.7223L54.9776 29.5503L54.9802 29.5451Z" fill="#00A64F"/>
<path d="M63.2743 22.6575H71.2419C71.2808 22.9243 71.3015 23.2222 71.3015 23.5408C71.3015 23.6884 71.2963 23.8412 71.2912 24.0044C71.2834 24.165 71.2679 24.3127 71.2394 24.4474H65.3283V28.5892H70.0478C70.0737 28.7239 70.0945 28.8664 70.1074 29.0218C70.1204 29.1746 70.1281 29.3274 70.1281 29.4751C70.1281 29.6227 70.1204 29.7756 70.1074 29.9387C70.0945 30.0993 70.0737 30.247 70.0478 30.3817H65.3283V35.3265H71.4C71.4388 35.5933 71.4595 35.8886 71.4595 36.2098C71.4595 36.3575 71.4544 36.5103 71.4492 36.6735C71.4414 36.8341 71.4259 36.9817 71.3974 37.1164H63.2665V22.6575H63.2691H63.2743Z" fill="#414042"/>
<path d="M73.5862 22.7378C73.7468 22.7119 73.9281 22.6911 74.1353 22.6782C74.3425 22.6652 74.5368 22.6575 74.7233 22.6575C74.9098 22.6575 75.1144 22.6652 75.332 22.6782C75.5522 22.6911 75.7335 22.7119 75.8812 22.7378L79.5904 31.6846L83.3204 22.7378C83.4526 22.7119 83.6209 22.6911 83.8204 22.6782C84.0198 22.6652 84.2141 22.6575 84.398 22.6575C84.5716 22.6575 84.7632 22.6652 84.9756 22.6782C85.188 22.6911 85.3694 22.7119 85.5144 22.7378L86.1931 37.0309C86.0325 37.0568 85.8719 37.0776 85.7035 37.0905C85.5377 37.1035 85.3668 37.1112 85.1958 37.1112C85.0248 37.1112 84.8539 37.1035 84.6881 37.0905C84.5223 37.0776 84.3669 37.0568 84.2193 37.0309L83.7608 25.9186L80.251 34.0702C79.9842 34.1091 79.7122 34.1298 79.4324 34.1298C79.1786 34.1298 78.9273 34.1091 78.6735 34.0702L75.2828 25.8591L74.8243 37.0309C74.6793 37.0568 74.5239 37.0776 74.3659 37.0905C74.2053 37.1035 74.0524 37.1112 73.9074 37.1112C73.7338 37.1112 73.568 37.1035 73.4075 37.0905C73.2469 37.0776 73.094 37.0568 72.949 37.0309L73.5888 22.7378H73.5862Z" fill="#414042"/>
</svg>