<svg width="65" height="64" viewBox="0 0 65 64" fill="none" xmlns="http://www.w3.org/2000/svg">
<rect x="0.25" width="64" height="64" rx="10" fill="#00A64F" fill-opacity="0.1"/>
<path d="M41.85 35.7067C40.7033 36.76 39.1833 37.3467 37.6233 37.3333H24.7433C19.3167 36.9467 19.3033 29.0667 24.7433 28.68H24.7967C21.0767 18.3333 36.7967 14.2133 38.5967 25.0667C43.6233 25.7067 45.6633 32.3867 41.85 35.7067Z" fill="#00A64F"/>
<path d="M41.25 44C41.25 44.5467 40.7967 45 40.25 45H34.9167C34.85 45 34.7967 45 34.73 44.9733C34.3433 45.96 33.37 46.6667 32.25 46.6667C31.13 46.6667 30.1567 45.96 29.77 44.9733C29.7033 45 29.65 45 29.5833 45H24.25C23.7033 45 23.25 44.5467 23.25 44C23.25 43.4533 23.7033 43 24.25 43H29.5833C29.65 43 29.7033 43 29.77 43.0267C30.0367 42.3333 30.5833 41.7867 31.2767 41.52C31.25 41.4533 31.25 41.4 31.25 41.3333V37.3333H33.25V41.3333C33.25 41.4 33.25 41.4533 33.2233 41.52C33.9167 41.7867 34.4633 42.3333 34.73 43.0267C34.7967 43 34.85 43 34.9167 43H40.25C40.7967 43 41.25 43.4533 41.25 44Z" fill="#00A64F"/>
</svg>
