<svg xmlns="http://www.w3.org/2000/svg" width="43" height="42" viewBox="0 0 43 42" fill="none">
<path opacity="0.4" d="M28.8325 3.5H14.1675C7.7975 3.5 4 7.2975 4 13.6675V28.315C4 34.7025 7.7975 38.5 14.1675 38.5H28.815C35.185 38.5 38.9825 34.7025 38.9825 28.3325V13.6675C39 7.2975 35.2025 3.5 28.8325 3.5Z" fill="#185BCC"/>
<path d="M19.015 27.265C18.665 27.265 18.3325 27.125 18.0875 26.88L13.135 21.9275C12.6275 21.42 12.6275 20.58 13.135 20.0725C13.6425 19.565 14.4825 19.565 14.99 20.0725L19.015 24.0975L28.01 15.1025C28.5175 14.595 29.3575 14.595 29.865 15.1025C30.3725 15.61 30.3725 16.45 29.865 16.9575L19.9425 26.88C19.6975 27.125 19.365 27.265 19.015 27.265Z" fill="#185BCC"/>
</svg>