<svg xmlns="http://www.w3.org/2000/svg" width="43" height="43" viewBox="0 0 43 43" fill="none">
  <path opacity="0.4" d="M28.8325 4H14.1675C7.7975 4 4 7.7975 4 14.1675V28.815C4 35.2025 7.7975 39 14.1675 39H28.815C35.185 39 38.9825 35.2025 38.9825 28.8325V14.1675C39 7.7975 35.2025 4 28.8325 4Z" fill="#EF4136"/>
  <path d="M23.355 21.4999L27.38 17.4749C27.8875 16.9674 27.8875 16.1274 27.38 15.6199C26.8725 15.1124 26.0325 15.1124 25.525 15.6199L21.5 19.6449L17.475 15.6199C16.9675 15.1124 16.1275 15.1124 15.62 15.6199C15.1125 16.1274 15.1125 16.9674 15.62 17.4749L19.645 21.4999L15.62 25.5249C15.1125 26.0324 15.1125 26.8724 15.62 27.3799C15.8825 27.6424 16.215 27.7649 16.5475 27.7649C16.88 27.7649 17.2125 27.6424 17.475 27.3799L21.5 23.3549L25.525 27.3799C25.7875 27.6424 26.12 27.7649 26.4525 27.7649C26.785 27.7649 27.1175 27.6424 27.38 27.3799C27.8875 26.8724 27.8875 26.0324 27.38 25.5249L23.355 21.4999Z" fill="#EF4136"/>
</svg>