<svg xmlns="http://www.w3.org/2000/svg" width="251" height="75" viewBox="0 0 251 75" fill="none">
<path opacity="0.4" d="M132.833 20H118.167C111.797 20 108 23.7975 108 30.1675V44.815C108 51.2025 111.797 55 118.167 55H132.815C139.185 55 142.982 51.2025 142.982 44.8325V30.1675C143 23.7975 139.203 20 132.833 20Z" fill="#35353F"/>
<path d="M123.174 40.6445V40.4941C123.174 39.5202 123.263 38.7718 123.442 38.249C123.629 37.7191 123.894 37.3001 124.237 36.9922C124.588 36.6771 125.004 36.3691 125.483 36.0684C125.956 35.7891 126.35 35.4417 126.665 35.0264C126.98 34.6038 127.138 34.099 127.138 33.5117C127.138 33.0534 127.03 32.6559 126.815 32.3193C126.601 31.9827 126.311 31.7214 125.945 31.5352C125.58 31.349 125.175 31.2559 124.731 31.2559C124.338 31.2559 123.958 31.3382 123.593 31.5029C123.228 31.6676 122.923 31.9255 122.68 32.2764C122.436 32.6201 122.3 33.0677 122.271 33.6191H119.908C119.937 32.6882 120.17 31.9004 120.606 31.2559C121.043 30.6042 121.62 30.1136 122.336 29.7842C123.059 29.4476 123.858 29.2793 124.731 29.2793C125.698 29.2793 126.54 29.4583 127.256 29.8164C127.972 30.1745 128.527 30.6722 128.921 31.3096C129.322 31.9469 129.522 32.6882 129.522 33.5332C129.522 34.4141 129.322 35.1624 128.921 35.7783C128.52 36.387 127.972 36.9062 127.277 37.3359C126.833 37.6009 126.472 37.8623 126.192 38.1201C125.913 38.3779 125.709 38.6895 125.58 39.0547C125.458 39.4128 125.397 39.8926 125.397 40.4941V40.6445H123.174ZM124.302 45.6504C123.851 45.6504 123.471 45.5036 123.163 45.21C122.862 44.9092 122.712 44.5404 122.712 44.1035C122.712 43.6595 122.862 43.2907 123.163 42.9971C123.471 42.6963 123.851 42.5459 124.302 42.5459C124.753 42.5459 125.129 42.6963 125.43 42.9971C125.738 43.2907 125.892 43.6595 125.892 44.1035C125.892 44.5404 125.738 44.9092 125.43 45.21C125.129 45.5036 124.753 45.6504 124.302 45.6504Z" fill="#35353F"/>
</svg>