<svg width="440" height="554" viewBox="0 0 440 554" fill="none" xmlns="http://www.w3.org/2000/svg">
<g clipPath="url(#clip0_0_21)">
<path d="M400.067 363.265C398.853 363.265 397.624 362.939 396.551 362.286L375.425 349.627L376.701 347.496L397.826 360.155C399.195 360.979 400.907 360.979 402.275 360.186L436.655 340.078C437.2 339.752 437.527 339.192 437.511 338.554C437.511 337.917 437.153 337.372 436.609 337.061L390.779 312.537L391.946 310.344L437.775 334.868C439.144 335.599 439.969 336.952 440 338.508C440.031 340.063 439.238 341.447 437.915 342.224L403.536 362.332C402.462 362.954 401.264 363.265 400.082 363.265H400.067Z" fill="#CEE4E4"/>
<path d="M314.615 553.459C313.121 553.459 311.628 553.086 310.29 552.339L225.974 505.421C224.729 504.737 223.982 503.461 223.982 502.046C223.982 500.615 224.714 499.356 225.958 498.656L264.118 477.148C264.725 476.806 264.787 476.231 264.787 475.998C264.787 475.764 264.725 475.189 264.118 474.847L221.665 450.478C220.498 449.809 219.782 448.596 219.751 447.259C219.72 445.921 220.389 444.677 221.525 443.962L238.87 432.982L240.208 435.082L222.862 446.061C222.287 446.419 222.24 446.979 222.24 447.212C222.24 447.43 222.318 447.989 222.909 448.332L265.363 472.701C266.561 473.4 267.276 474.629 267.276 476.013C267.276 477.397 266.545 478.641 265.347 479.31L227.187 500.818C226.549 501.175 226.487 501.782 226.487 502.031C226.487 502.279 226.565 502.886 227.203 503.244L311.519 550.162C313.526 551.282 315.984 551.235 317.959 550.038L350.021 530.334C350.27 530.179 350.317 529.945 350.317 529.821C350.317 529.712 350.286 529.463 350.021 529.308L326.826 515.203L328.118 513.072L351.328 527.177C352.261 527.737 352.821 528.732 352.821 529.821C352.821 530.91 352.277 531.889 351.344 532.465L319.282 552.168C317.866 553.024 316.264 553.459 314.661 553.459H314.615Z" fill="#CEE4E4"/>
<path d="M351.032 364.556L310.383 341.089C307.894 339.643 308.205 337.139 311.083 335.475L350.332 312.817C353.21 311.153 357.566 310.966 360.071 312.412L400.72 335.879C403.209 337.326 402.898 339.829 400.02 341.493L360.771 364.152C357.893 365.816 353.537 366.002 351.032 364.556Z" fill="#CEE4E4"/>
<path d="M414.192 318.011V300.453H374.818L361.206 292.569C358.08 290.765 352.619 290.998 349.026 293.066L336.332 300.391H296.911V318.431C296.818 319.644 297.503 320.826 299.011 321.696L349.912 351.073C353.039 352.877 358.5 352.644 362.093 350.575L411.236 322.21C413.321 321.012 414.316 319.457 414.207 318.011H414.192Z" fill="#2DA5A5"/>
<path d="M355.544 291.371C353.257 291.433 350.892 292.009 349.01 293.082L336.316 300.407H296.896V318.446C296.802 319.659 297.487 320.841 298.996 321.712L349.897 351.089C351.39 351.959 353.444 352.348 355.559 352.302V291.371H355.544Z" fill="#2DA5A5"/>
<path d="M301.361 300.391H296.896V318.446C296.802 319.659 297.487 320.841 298.996 321.712L301.361 323.081V300.391Z" fill="#0C9292"/>
<path d="M350.675 351.462C353.366 352.613 357.271 352.55 360.413 351.353V330.856H350.675V351.462Z" fill="#0C9292"/>
<path d="M349.897 333.096L298.996 303.719C295.869 301.915 296.258 298.774 299.867 296.69L349.01 268.324C352.619 266.24 358.079 266.022 361.191 267.826L412.092 297.203C415.218 299.007 414.83 302.148 411.22 304.232L362.077 332.598C358.468 334.682 353.008 334.9 349.897 333.096Z" fill="#D4FFF7"/>
<path d="M350.815 327.808L308.159 303.19C305.545 301.682 305.872 299.038 308.89 297.296L350.068 273.518C353.086 271.776 357.659 271.59 360.289 273.098L402.944 297.716C405.558 299.225 405.231 301.868 402.213 303.61L361.035 327.388C358.017 329.13 353.444 329.317 350.815 327.808Z" fill="#0C9292"/>
<path d="M395.477 322.645C395.477 323.951 394.559 325.553 393.424 326.206C392.288 326.86 391.37 326.331 391.37 325.024C391.37 323.718 392.288 322.116 393.424 321.463C394.559 320.81 395.477 321.339 395.477 322.645Z" fill="#D4FFF7"/>
<path d="M402.089 318.819C402.089 320.126 401.171 321.728 400.035 322.381C398.9 323.034 397.982 322.505 397.982 321.199C397.982 319.892 398.9 318.291 400.035 317.638C401.171 316.984 402.089 317.513 402.089 318.819Z" fill="#D4FFF7"/>
<path d="M408.7 315.009C408.7 316.316 407.782 317.917 406.647 318.571C405.511 319.224 404.593 318.695 404.593 317.389C404.593 316.082 405.511 314.481 406.647 313.827C407.782 313.174 408.7 313.703 408.7 315.009Z" fill="#D4FFF7"/>
<path d="M414.192 289.956V272.398H374.818L361.206 264.514C358.08 262.71 352.619 262.943 349.026 265.012L336.332 272.336H296.911V290.376C296.818 291.589 297.503 292.771 299.011 293.642L349.912 323.018C353.039 324.822 358.5 324.589 362.093 322.521L411.236 294.155C413.321 292.957 414.316 291.402 414.207 289.956H414.192Z" fill="#2DA5A5"/>
<path d="M355.544 263.316C353.257 263.379 350.892 263.954 349.01 265.027L336.316 272.352H296.896V290.391C296.802 291.604 297.487 292.786 298.996 293.657L349.897 323.034C351.39 323.905 353.444 324.294 355.559 324.247V263.316H355.544Z" fill="#2DA5A5"/>
<path d="M301.361 272.336H296.896V290.391C296.802 291.604 297.487 292.786 298.996 293.657L301.361 295.026V272.336Z" fill="#0C9292"/>
<path d="M350.675 323.407C353.366 324.558 357.271 324.496 360.413 323.298V302.801H350.675V323.407Z" fill="#0C9292"/>
<path d="M349.897 305.041L298.996 275.664C295.869 273.86 296.258 270.719 299.867 268.635L349.01 240.269C352.619 238.185 358.079 237.968 361.191 239.772L412.092 269.148C415.218 270.952 414.83 274.094 411.22 276.177L362.077 304.543C358.468 306.627 353.008 306.845 349.897 305.041Z" fill="#D4FFF7"/>
<path d="M350.815 299.753L308.159 275.136C305.545 273.627 305.872 270.983 308.89 269.242L350.068 245.463C353.086 243.722 357.659 243.535 360.289 245.044L402.944 269.661C405.558 271.17 405.231 273.814 402.213 275.555L361.035 299.334C358.017 301.075 353.444 301.262 350.815 299.753Z" fill="#0C9292"/>
<path d="M395.477 294.59C395.477 295.897 394.559 297.498 393.424 298.152C392.288 298.805 391.37 298.276 391.37 296.97C391.37 295.663 392.288 294.062 393.424 293.408C394.559 292.755 395.477 293.284 395.477 294.59Z" fill="#D4FFF7"/>
<path d="M402.089 290.765C402.089 292.071 401.171 293.673 400.035 294.326C398.9 294.979 397.982 294.45 397.982 293.144C397.982 291.838 398.9 290.236 400.035 289.583C401.171 288.93 402.089 289.458 402.089 290.765Z" fill="#D4FFF7"/>
<path d="M408.7 286.955C408.7 288.261 407.782 289.863 406.647 290.516C405.511 291.169 404.593 290.64 404.593 289.334C404.593 288.028 405.511 286.426 406.647 285.773C407.782 285.12 408.7 285.648 408.7 286.955Z" fill="#D4FFF7"/>
<path d="M414.192 261.901V244.344H374.818L361.206 236.459C358.08 234.655 352.619 234.888 349.026 236.957L336.332 244.282H296.911V262.321C296.818 263.534 297.503 264.716 299.011 265.587L349.912 294.964C353.039 296.768 358.5 296.534 362.093 294.466L411.236 266.1C413.321 264.903 414.316 263.348 414.207 261.901H414.192Z" fill="#2DA5A5"/>
<path d="M355.544 235.262C353.257 235.324 350.892 235.899 349.01 236.972L336.316 244.297H296.896V262.337C296.802 263.55 297.487 264.732 298.996 265.603L349.897 294.979C351.39 295.85 353.444 296.239 355.559 296.192V235.262H355.544Z" fill="#2DA5A5"/>
<path d="M301.361 244.282H296.896V262.337C296.802 263.55 297.487 264.732 298.996 265.603L301.361 266.971V244.282Z" fill="#0C9292"/>
<path d="M350.675 295.352C353.366 296.503 357.271 296.441 360.413 295.244V274.747H350.675V295.352Z" fill="#0C9292"/>
<path d="M349.897 276.986L298.996 247.61C295.869 245.806 296.258 242.664 299.867 240.58L349.01 212.215C352.619 210.131 358.079 209.913 361.191 211.717L412.092 241.093C415.218 242.897 414.83 246.039 411.22 248.123L362.078 276.488C358.468 278.572 353.008 278.79 349.897 276.986Z" fill="#D4FFF7"/>
<path d="M411.236 244.655L362.093 273.021C358.484 275.104 353.024 275.322 349.912 273.518L299.011 244.142C298.311 243.737 297.798 243.271 297.456 242.757C296.382 244.484 296.865 246.35 299.011 247.594L349.912 276.971C353.039 278.775 358.5 278.541 362.093 276.473L411.236 248.107C414.036 246.49 414.892 244.235 413.663 242.462C413.181 243.255 412.356 244.002 411.236 244.655Z" fill="white"/>
<path d="M395.477 266.536C395.477 267.842 394.559 269.444 393.424 270.097C392.288 270.75 391.37 270.221 391.37 268.915C391.37 267.609 392.288 266.007 393.424 265.354C394.559 264.701 395.477 265.229 395.477 266.536Z" fill="#D4FFF7"/>
<path d="M402.089 262.71C402.089 264.016 401.171 265.618 400.035 266.271C398.9 266.924 397.982 266.396 397.982 265.089C397.982 263.783 398.9 262.181 400.035 261.528C401.171 260.875 402.089 261.404 402.089 262.71Z" fill="#D4FFF7"/>
<path d="M408.7 258.9C408.7 260.206 407.782 261.808 406.647 262.461C405.511 263.114 404.593 262.586 404.593 261.279C404.593 259.973 405.511 258.371 406.647 257.718C407.782 257.065 408.7 257.594 408.7 258.9Z" fill="#D4FFF7"/>
<path d="M352.899 258.775L329.082 245.028C327.62 244.188 327.806 242.711 329.487 241.731L352.479 228.45C354.159 227.47 356.726 227.377 358.188 228.217L382.005 241.964C383.468 242.804 383.281 244.281 381.601 245.261L358.608 258.542C356.928 259.522 354.361 259.615 352.899 258.775Z" fill="#0C9292"/>
<path d="M355.186 247.252L351.888 245.355C351.686 245.246 351.717 245.028 351.95 244.904L355.139 243.069C355.373 242.929 355.73 242.913 355.933 243.037L359.231 244.935C359.433 245.059 359.402 245.261 359.168 245.386L355.979 247.221C355.746 247.361 355.388 247.376 355.186 247.252Z" fill="#D4FFF7"/>
<path d="M329.082 245.028L329.144 245.059C329.253 244.981 329.362 244.904 329.487 244.826L352.479 231.545C354.159 230.565 356.726 230.472 358.188 231.312L381.943 245.012C383.297 244.048 383.359 242.742 382.005 241.949L358.188 228.201C356.726 227.362 354.175 227.47 352.479 228.435L329.487 241.716C327.791 242.695 327.62 244.157 329.082 245.012V245.028Z" fill="#2DA5A5"/>
<path d="M259.482 448.736L171.635 398.66C168.415 396.81 168.819 393.56 172.537 391.429L223.08 362.255C226.783 360.108 232.399 359.875 235.619 361.741L323.466 411.817C326.686 413.667 326.282 416.918 322.564 419.048L272.021 448.223C268.318 450.369 262.703 450.602 259.482 448.736Z" fill="#CEE4E4"/>
<path d="M331.291 394.944V189.929L249.76 168.593L234.748 159.931C231.294 157.94 225.274 158.189 221.307 160.491L207.29 168.577L163.81 168.546L176.691 366.469C176.597 367.822 177.344 369.113 178.993 370.077L260.354 431.458C263.807 433.449 269.827 433.2 273.794 430.898L328.024 399.609C330.327 398.287 331.431 396.561 331.291 394.975V394.944Z" fill="#2DA5A5"/>
<path d="M228.494 158.593C225.974 158.655 223.36 159.293 221.291 160.491L207.275 168.577L163.794 168.546V374.12C163.701 375.473 164.448 376.764 166.097 377.728L260.338 431.443C261.987 432.391 264.243 432.827 266.576 432.78L267.541 225.915L228.478 158.593H228.494Z" fill="#D4FFF7"/>
<path d="M261.209 431.863C264.18 433.138 268.49 433.06 271.959 431.738V223.474H261.209V431.863Z" fill="#0C9292"/>
<path d="M260.338 225.946L166.097 172.232C162.643 170.241 163.079 166.773 167.061 164.472L221.291 133.182C225.274 130.881 231.294 130.632 234.732 132.622L328.973 186.337C332.427 188.328 331.991 191.796 328.009 194.097L273.779 225.387C269.796 227.688 263.776 227.937 260.338 225.946Z" fill="#D4FFF7"/>
<path d="M328.009 190.271L273.779 221.561C269.796 223.863 263.776 224.111 260.338 222.121L166.097 168.406C165.334 167.955 164.759 167.442 164.37 166.882C163.188 168.779 163.717 170.848 166.097 172.216L260.338 225.931C263.792 227.921 269.812 227.673 273.779 225.371L328.009 194.082C331.105 192.293 332.038 189.805 330.7 187.845C330.156 188.716 329.269 189.556 328.009 190.271Z" fill="#FAFDFF"/>
<path d="M263.014 204.174L200.274 167.815C198.656 166.882 198.859 165.265 200.725 164.176L226.098 149.527C227.965 148.454 230.781 148.329 232.383 149.262L295.122 185.622C296.74 186.555 296.538 188.172 294.671 189.261L269.299 203.91C267.432 204.983 264.616 205.108 263.014 204.174Z" fill="#0C9292"/>
<path d="M229.132 169.448L225.491 167.349C225.274 167.224 225.289 166.991 225.554 166.851L229.069 164.829C229.334 164.674 229.723 164.658 229.941 164.798L233.581 166.898C233.799 167.022 233.783 167.255 233.519 167.395L230.003 169.417C229.738 169.573 229.349 169.588 229.132 169.448Z" fill="#D4FFF7"/>
<path d="M241.281 176.431L237.641 174.331C237.423 174.207 237.439 173.974 237.703 173.834L241.219 171.812C241.484 171.656 241.872 171.641 242.09 171.781L245.73 173.88C245.948 174.005 245.933 174.238 245.668 174.378L242.152 176.4C241.888 176.555 241.499 176.571 241.281 176.431Z" fill="#D4FFF7"/>
<path d="M253.431 183.398L249.791 181.298C249.573 181.174 249.588 180.941 249.853 180.801L253.369 178.779C253.633 178.623 254.022 178.608 254.24 178.748L257.88 180.847C258.098 180.972 258.082 181.205 257.818 181.345L254.302 183.367C254.038 183.522 253.649 183.538 253.431 183.398Z" fill="#D4FFF7"/>
<path d="M265.581 190.38L261.94 188.281C261.723 188.156 261.738 187.923 262.003 187.783L265.518 185.762C265.783 185.606 266.172 185.591 266.389 185.73L270.03 187.83C270.247 187.954 270.232 188.188 269.967 188.328L266.452 190.349C266.187 190.505 265.798 190.52 265.581 190.38Z" fill="#D4FFF7"/>
<path d="M200.259 167.815L200.337 167.862C200.461 167.769 200.57 167.691 200.71 167.598L226.083 152.948C227.949 151.875 230.765 151.751 232.367 152.684L295.045 188.996C296.538 187.939 296.616 186.477 295.122 185.622L232.383 149.262C230.765 148.329 227.949 148.454 226.098 149.527L200.725 164.176C198.859 165.249 198.656 166.882 200.274 167.815H200.259Z" fill="#0C9292"/>
<path d="M284.373 266.567L320.044 246.148C322.051 244.981 323.684 241.887 323.684 239.212V226.46C323.684 223.785 322.051 222.556 320.044 223.707L284.373 244.126C282.366 245.292 280.733 248.387 280.733 251.062V263.814C280.733 266.489 282.366 267.718 284.373 266.567Z" fill="#0C9292"/>
<path d="M321.817 223.318C322.377 223.847 322.735 224.749 322.735 225.978V238.73C322.735 241.405 321.102 244.515 319.095 245.666L283.424 266.085C282.786 266.458 282.179 266.551 281.65 266.473C282.319 267.095 283.284 267.189 284.373 266.567L320.044 246.148C322.051 244.997 323.684 241.887 323.684 239.212V226.46C323.684 224.64 322.922 223.52 321.817 223.334V223.318Z" fill="white"/>
<path d="M295.107 252.71L298.374 250.829C298.809 250.58 299.167 249.896 299.167 249.32V245.821C299.167 245.23 298.809 244.966 298.374 245.215L295.107 247.096C294.671 247.345 294.313 248.029 294.313 248.605V252.104C294.313 252.695 294.671 252.959 295.107 252.71Z" fill="#2DA5A5"/>
<path d="M306.043 246.397L309.31 244.515C309.745 244.266 310.103 243.582 310.103 243.006V239.507C310.103 238.916 309.745 238.652 309.31 238.901L306.043 240.782C305.607 241.031 305.25 241.716 305.25 242.291V245.79C305.25 246.381 305.607 246.645 306.043 246.397Z" fill="white"/>
<path d="M284.373 358.724L320.044 338.305C322.051 337.139 323.684 334.044 323.684 331.369V318.617C323.684 315.942 322.051 314.714 320.044 315.865L284.373 336.284C282.366 337.434 280.733 340.545 280.733 343.22V355.972C280.733 358.647 282.366 359.875 284.373 358.724Z" fill="#0C9292"/>
<path d="M321.817 315.476C322.377 316.005 322.735 316.907 322.735 318.135V330.887C322.735 333.562 321.102 336.672 319.095 337.823L283.424 358.242C282.786 358.615 282.179 358.709 281.65 358.631C282.319 359.253 283.284 359.346 284.373 358.724L320.044 338.305C322.051 337.155 323.684 334.044 323.684 331.369V318.617C323.684 316.798 322.922 315.678 321.817 315.491V315.476Z" fill="white"/>
<path d="M295.107 344.868L298.374 342.986C298.809 342.738 299.167 342.053 299.167 341.478V337.979C299.167 337.388 298.809 337.123 298.374 337.372L295.107 339.254C294.671 339.503 294.313 340.187 294.313 340.762V344.262C294.313 344.852 294.671 345.117 295.107 344.868Z" fill="#2DA5A5"/>
<path d="M306.043 338.554L309.31 336.672C309.745 336.424 310.103 335.739 310.103 335.164V331.665C310.103 331.074 309.745 330.81 309.31 331.074L306.043 332.956C305.607 333.204 305.25 333.889 305.25 334.464V337.963C305.25 338.554 305.607 338.819 306.043 338.57V338.554Z" fill="#2DA5A5"/>
<path d="M284.373 404.803L320.044 384.384C322.051 383.218 323.684 380.123 323.684 377.448V364.696C323.684 362.021 322.051 360.793 320.044 361.943L284.373 382.362C282.366 383.529 280.733 386.624 280.733 389.298V402.051C280.733 404.725 282.366 405.954 284.373 404.803Z" fill="#0C9292"/>
<path d="M321.817 361.555C322.377 362.083 322.735 362.985 322.735 364.214V376.966C322.735 379.641 321.102 382.751 319.095 383.902L283.424 404.321C282.786 404.694 282.179 404.788 281.65 404.71C282.319 405.332 283.284 405.425 284.373 404.803L320.044 384.384C322.051 383.233 323.684 380.123 323.684 377.448V364.696C323.684 362.877 322.922 361.757 321.817 361.57V361.555Z" fill="white"/>
<path d="M295.107 390.947L298.374 389.065C298.809 388.816 299.167 388.132 299.167 387.557V384.058C299.167 383.467 298.809 383.202 298.374 383.451L295.107 385.333C294.671 385.582 294.313 386.266 294.313 386.841V390.34C294.313 390.931 294.671 391.196 295.107 390.947Z" fill="white"/>
<path d="M306.043 384.633L309.31 382.751C309.745 382.502 310.103 381.818 310.103 381.243V377.744C310.103 377.153 309.745 376.888 309.31 377.137L306.043 379.019C305.607 379.268 305.25 379.952 305.25 380.527V384.027C305.25 384.617 305.607 384.882 306.043 384.633Z" fill="#2DA5A5"/>
<path d="M284.373 312.646L320.044 292.227C322.051 291.06 323.684 287.965 323.684 285.291V272.538C323.684 269.864 322.051 268.635 320.044 269.786L284.373 290.205C282.366 291.371 280.733 294.466 280.733 297.141V309.893C280.733 312.568 282.366 313.796 284.373 312.646Z" fill="#0C9292"/>
<path d="M321.817 269.397C322.377 269.926 322.735 270.828 322.735 272.056V284.808C322.735 287.483 321.102 290.594 319.095 291.744L283.424 312.163C282.786 312.537 282.179 312.63 281.65 312.552C282.319 313.174 283.284 313.268 284.373 312.646L320.044 292.227C322.051 291.076 323.684 287.965 323.684 285.291V272.538C323.684 270.719 322.922 269.599 321.817 269.413V269.397Z" fill="white"/>
<path d="M295.107 298.789L298.374 296.907C298.809 296.659 299.167 295.974 299.167 295.399V291.9C299.167 291.309 298.809 291.045 298.374 291.293L295.107 293.175C294.671 293.424 294.313 294.108 294.313 294.684V298.183C294.313 298.774 294.671 299.038 295.107 298.789Z" fill="white"/>
<path d="M306.043 292.475L309.31 290.594C309.745 290.345 310.103 289.661 310.103 289.085V285.586C310.103 284.995 309.745 284.731 309.31 284.98L306.043 286.861C305.607 287.11 305.25 287.794 305.25 288.37V291.869C305.25 292.46 305.607 292.724 306.043 292.475Z" fill="white"/>
<path d="M253.478 253.504L171.168 205.994C169.332 204.936 167.839 202.075 167.839 199.618V183.927C167.839 181.469 169.332 180.35 171.168 181.407L253.478 228.917C255.313 229.974 256.807 232.836 256.807 235.293V250.984C256.807 253.441 255.313 254.561 253.478 253.504Z" fill="#0C9292"/>
<path opacity="0.4" d="M251.113 247.998L173.533 203.226C172.599 202.681 171.837 201.235 171.837 199.991V188.203C171.837 186.959 172.599 186.384 173.533 186.928L251.113 231.7C252.046 232.245 252.809 233.691 252.809 234.935V246.723C252.809 247.967 252.046 248.543 251.113 247.998Z" fill="#D4FFF7"/>
<path d="M189.711 206.6L178.137 199.913C177.235 199.385 176.488 197.985 176.488 196.772C176.488 195.559 177.22 194.999 178.137 195.528L189.711 202.215C190.614 202.744 191.36 204.143 191.36 205.356C191.36 206.569 190.629 207.129 189.711 206.6Z" fill="#D4FFF7"/>
<path d="M199.574 210.1C199.574 211.313 198.719 211.795 197.676 211.188C196.634 210.582 195.779 209.12 195.779 207.907C195.779 206.694 196.634 206.212 197.676 206.818C198.719 207.425 199.574 208.887 199.574 210.1Z" fill="#0C9292"/>
<path d="M206.264 213.956C206.264 215.169 205.408 215.651 204.366 215.045C203.323 214.438 202.468 212.977 202.468 211.764C202.468 210.551 203.323 210.068 204.366 210.675C205.408 211.281 206.264 212.743 206.264 213.956Z" fill="#0C9292"/>
<path d="M212.953 217.829C212.953 219.042 212.097 219.524 211.055 218.917C210.013 218.311 209.157 216.849 209.157 215.636C209.157 214.423 210.013 213.941 211.055 214.547C212.097 215.154 212.953 216.616 212.953 217.829Z" fill="#D4FFF7"/>
<path d="M219.658 221.685C219.658 222.898 218.802 223.38 217.76 222.774C216.718 222.167 215.862 220.706 215.862 219.493C215.862 218.28 216.718 217.797 217.76 218.404C218.802 219.01 219.658 220.472 219.658 221.685Z" fill="#0C9292"/>
<path d="M247.846 241.436L243.941 239.181C243.366 238.839 242.884 237.937 242.884 237.159V233.038C242.884 232.26 243.35 231.903 243.941 232.245L247.846 234.5C248.422 234.842 248.904 235.744 248.904 236.521V240.643C248.904 241.42 248.437 241.778 247.846 241.436Z" fill="#0C9292"/>
<path d="M253.478 281.169L171.168 233.66C169.332 232.602 167.839 229.741 167.839 227.284V211.592C167.839 209.135 169.332 208.016 171.168 209.073L253.478 256.583C255.313 257.64 256.807 260.502 256.807 262.959V278.65C256.807 281.107 255.313 282.227 253.478 281.169Z" fill="#0C9292"/>
<path opacity="0.4" d="M251.113 275.664L173.533 230.892C172.599 230.347 171.837 228.901 171.837 227.657V215.869C171.837 214.625 172.599 214.05 173.533 214.594L251.113 259.366C252.046 259.911 252.809 261.357 252.809 262.601V274.389C252.809 275.633 252.046 276.209 251.113 275.664Z" fill="#D4FFF7"/>
<path d="M189.711 234.266L178.137 227.579C177.235 227.051 176.488 225.651 176.488 224.438C176.488 223.225 177.22 222.665 178.137 223.194L189.711 229.881C190.614 230.41 191.36 231.809 191.36 233.022C191.36 234.235 190.629 234.795 189.711 234.266Z" fill="#D4FFF7"/>
<path d="M199.574 237.765C199.574 238.978 198.719 239.461 197.676 238.854C196.634 238.248 195.779 236.786 195.779 235.573C195.779 234.36 196.634 233.878 197.676 234.484C198.719 235.091 199.574 236.552 199.574 237.765Z" fill="white"/>
<path d="M206.264 241.622C206.264 242.835 205.408 243.317 204.366 242.711C203.323 242.104 202.468 240.643 202.468 239.43C202.468 238.216 203.323 237.734 204.366 238.341C205.408 238.947 206.264 240.409 206.264 241.622Z" fill="#0C9292"/>
<path d="M212.953 245.495C212.953 246.708 212.097 247.19 211.055 246.583C210.013 245.977 209.157 244.515 209.157 243.302C209.157 242.089 210.013 241.607 211.055 242.213C212.097 242.82 212.953 244.282 212.953 245.495Z" fill="#D4FFF7"/>
<path d="M219.658 249.351C219.658 250.564 218.802 251.046 217.76 250.44C216.718 249.833 215.862 248.372 215.862 247.159C215.862 245.946 216.718 245.463 217.76 246.07C218.802 246.676 219.658 248.138 219.658 249.351Z" fill="#0C9292"/>
<path d="M247.846 269.102L243.941 266.847C243.366 266.504 242.884 265.602 242.884 264.825V260.704C242.884 259.926 243.35 259.569 243.941 259.911L247.846 262.166C248.422 262.508 248.904 263.41 248.904 264.187V268.308C248.904 269.086 248.437 269.444 247.846 269.102Z" fill="#0C9292"/>
<path d="M253.478 308.835L171.168 261.326C169.332 260.268 167.839 257.407 167.839 254.95V239.258C167.839 236.801 169.332 235.682 171.168 236.739L253.478 284.249C255.313 285.306 256.807 288.168 256.807 290.625V306.316C256.807 308.773 255.313 309.893 253.478 308.835Z" fill="#0C9292"/>
<path opacity="0.4" d="M251.113 303.33L173.533 258.558C172.599 258.013 171.837 256.567 171.837 255.323V243.535C171.837 242.291 172.599 241.716 173.533 242.26L251.113 287.032C252.046 287.577 252.809 289.023 252.809 290.267V302.055C252.809 303.299 252.046 303.875 251.113 303.33Z" fill="#D4FFF7"/>
<path d="M189.711 261.932L178.137 255.245C177.235 254.717 176.488 253.317 176.488 252.104C176.488 250.891 177.22 250.331 178.137 250.86L189.711 257.547C190.614 258.076 191.36 259.475 191.36 260.688C191.36 261.901 190.629 262.461 189.711 261.932Z" fill="#D4FFF7"/>
<path d="M199.574 265.431C199.574 266.644 198.719 267.127 197.676 266.52C196.634 265.914 195.779 264.452 195.779 263.239C195.779 262.026 196.634 261.544 197.676 262.15C198.719 262.757 199.574 264.218 199.574 265.431Z" fill="white"/>
<path d="M206.264 269.288C206.264 270.501 205.408 270.983 204.366 270.377C203.323 269.77 202.468 268.308 202.468 267.095C202.468 265.882 203.323 265.4 204.366 266.007C205.408 266.613 206.264 268.075 206.264 269.288Z" fill="#0C9292"/>
<path d="M212.953 273.16C212.953 274.374 212.097 274.856 211.055 274.249C210.013 273.643 209.157 272.181 209.157 270.968C209.157 269.755 210.013 269.273 211.055 269.879C212.097 270.486 212.953 271.947 212.953 273.16Z" fill="#D4FFF7"/>
<path d="M219.658 277.017C219.658 278.23 218.802 278.712 217.76 278.106C216.718 277.499 215.862 276.037 215.862 274.824C215.862 273.611 216.718 273.129 217.76 273.736C218.802 274.342 219.658 275.804 219.658 277.017Z" fill="#0C9292"/>
<path d="M247.846 296.768L243.941 294.513C243.366 294.17 242.884 293.268 242.884 292.491V288.37C242.884 287.592 243.35 287.235 243.941 287.577L247.846 289.832C248.422 290.174 248.904 291.076 248.904 291.853V295.974C248.904 296.752 248.437 297.11 247.846 296.768Z" fill="#0C9292"/>
<path d="M253.478 336.501L171.168 288.992C169.332 287.934 167.839 285.073 167.839 282.616V266.924C167.839 264.467 169.332 263.348 171.168 264.405L253.478 311.915C255.313 312.972 256.807 315.834 256.807 318.291V333.982C256.807 336.439 255.313 337.559 253.478 336.501Z" fill="#0C9292"/>
<path opacity="0.4" d="M251.113 330.996L173.533 286.224C172.599 285.679 171.837 284.233 171.837 282.989V271.201C171.837 269.957 172.599 269.382 173.533 269.926L251.113 314.698C252.046 315.243 252.809 316.689 252.809 317.933V329.721C252.809 330.965 252.046 331.54 251.113 330.996Z" fill="#D4FFF7"/>
<path d="M189.711 289.598L178.137 282.911C177.235 282.382 176.488 280.983 176.488 279.77C176.488 278.557 177.22 277.997 178.137 278.526L189.711 285.213C190.614 285.742 191.36 287.141 191.36 288.354C191.36 289.567 190.629 290.127 189.711 289.598Z" fill="#D4FFF7"/>
<path d="M199.574 293.097C199.574 294.31 198.719 294.792 197.676 294.186C196.634 293.579 195.779 292.118 195.779 290.905C195.779 289.692 196.634 289.21 197.676 289.816C198.719 290.423 199.574 291.884 199.574 293.097Z" fill="#0C9292"/>
<path d="M206.264 296.954C206.264 298.167 205.408 298.649 204.366 298.043C203.323 297.436 202.468 295.974 202.468 294.761C202.468 293.548 203.323 293.066 204.366 293.673C205.408 294.279 206.264 295.741 206.264 296.954Z" fill="#0C9292"/>
<path d="M212.953 300.826C212.953 302.039 212.097 302.522 211.055 301.915C210.013 301.309 209.157 299.847 209.157 298.634C209.157 297.421 210.013 296.939 211.055 297.545C212.097 298.152 212.953 299.613 212.953 300.826Z" fill="#D4FFF7"/>
<path d="M219.658 304.683C219.658 305.896 218.802 306.378 217.76 305.772C216.718 305.165 215.862 303.703 215.862 302.49C215.862 301.277 216.718 300.795 217.76 301.402C218.802 302.008 219.658 303.47 219.658 304.683Z" fill="#0C9292"/>
<path d="M247.846 324.433L243.941 322.179C243.366 321.836 242.884 320.934 242.884 320.157V316.036C242.884 315.258 243.35 314.9 243.941 315.243L247.846 317.498C248.422 317.84 248.904 318.742 248.904 319.519V323.64C248.904 324.418 248.437 324.776 247.846 324.433Z" fill="#D4FFF7"/>
<path d="M253.478 364.167L171.168 316.658C169.332 315.6 167.839 312.739 167.839 310.282V294.59C167.839 292.133 169.332 291.014 171.168 292.071L253.478 339.581C255.313 340.638 256.807 343.5 256.807 345.957V361.648C256.807 364.105 255.313 365.225 253.478 364.167Z" fill="#0C9292"/>
<path opacity="0.4" d="M251.113 358.662L173.533 313.89C172.599 313.345 171.837 311.899 171.837 310.655V298.867C171.837 297.623 172.599 297.047 173.533 297.592L251.113 342.364C252.046 342.909 252.809 344.355 252.809 345.599V357.387C252.809 358.631 252.046 359.206 251.113 358.662Z" fill="#D4FFF7"/>
<path d="M189.711 317.264L178.137 310.577C177.235 310.048 176.488 308.649 176.488 307.436C176.488 306.223 177.22 305.663 178.137 306.192L189.711 312.879C190.614 313.408 191.36 314.807 191.36 316.02C191.36 317.233 190.629 317.793 189.711 317.264Z" fill="#D4FFF7"/>
<path d="M199.574 320.763C199.574 321.976 198.719 322.458 197.676 321.852C196.634 321.245 195.779 319.784 195.779 318.571C195.779 317.358 196.634 316.876 197.676 317.482C198.719 318.089 199.574 319.55 199.574 320.763Z" fill="#0C9292"/>
<path d="M206.264 324.62C206.264 325.833 205.408 326.315 204.366 325.709C203.323 325.102 202.468 323.64 202.468 322.427C202.468 321.214 203.323 320.732 204.366 321.339C205.408 321.945 206.264 323.407 206.264 324.62Z" fill="white"/>
<path d="M212.953 328.492C212.953 329.705 212.097 330.188 211.055 329.581C210.013 328.974 209.157 327.513 209.157 326.3C209.157 325.087 210.013 324.605 211.055 325.211C212.097 325.818 212.953 327.279 212.953 328.492Z" fill="#D4FFF7"/>
<path d="M219.658 332.349C219.658 333.562 218.802 334.044 217.76 333.438C216.718 332.831 215.862 331.369 215.862 330.156C215.862 328.943 216.718 328.461 217.76 329.068C218.802 329.674 219.658 331.136 219.658 332.349Z" fill="white"/>
<path d="M247.846 352.099L243.941 349.844C243.366 349.502 242.884 348.6 242.884 347.823V343.702C242.884 342.924 243.35 342.566 243.941 342.909L247.846 345.164C248.422 345.506 248.904 346.408 248.904 347.185V351.306C248.904 352.084 248.437 352.442 247.846 352.099Z" fill="#D4FFF7"/>
<path d="M253.478 391.833L171.168 344.324C169.332 343.266 167.839 340.405 167.839 337.948V322.256C167.839 319.799 169.332 318.679 171.168 319.737L253.478 367.247C255.313 368.304 256.807 371.165 256.807 373.623V389.314C256.807 391.771 255.313 392.891 253.478 391.833Z" fill="#0C9292"/>
<path opacity="0.4" d="M251.113 386.328L173.533 341.556C172.599 341.011 171.837 339.565 171.837 338.321V326.533C171.837 325.289 172.599 324.713 173.533 325.258L251.113 370.03C252.046 370.575 252.809 372.021 252.809 373.265V385.053C252.809 386.297 252.046 386.872 251.113 386.328Z" fill="#D4FFF7"/>
<path d="M189.711 344.93L178.137 338.243C177.235 337.714 176.488 336.315 176.488 335.102C176.488 333.889 177.22 333.329 178.137 333.858L189.711 340.545C190.614 341.073 191.36 342.473 191.36 343.686C191.36 344.899 190.629 345.459 189.711 344.93Z" fill="#D4FFF7"/>
<path d="M199.574 348.429C199.574 349.642 198.719 350.124 197.676 349.518C196.634 348.911 195.779 347.45 195.779 346.237C195.779 345.024 196.634 344.541 197.676 345.148C198.719 345.754 199.574 347.216 199.574 348.429Z" fill="#0C9292"/>
<path d="M206.264 352.286C206.264 353.499 205.408 353.981 204.366 353.375C203.323 352.768 202.468 351.306 202.468 350.093C202.468 348.88 203.323 348.398 204.366 349.005C205.408 349.611 206.264 351.073 206.264 352.286Z" fill="#0C9292"/>
<path d="M212.953 356.158C212.953 357.371 212.097 357.853 211.055 357.247C210.013 356.64 209.157 355.179 209.157 353.966C209.157 352.753 210.013 352.271 211.055 352.877C212.097 353.484 212.953 354.945 212.953 356.158Z" fill="#D4FFF7"/>
<path d="M219.658 360.015C219.658 361.228 218.802 361.71 217.76 361.104C216.718 360.497 215.862 359.035 215.862 357.822C215.862 356.609 216.718 356.127 217.76 356.734C218.802 357.34 219.658 358.802 219.658 360.015Z" fill="#0C9292"/>
<path d="M247.846 379.765L243.941 377.51C243.366 377.168 242.884 376.266 242.884 375.489V371.368C242.884 370.59 243.35 370.232 243.941 370.575L247.846 372.829C248.422 373.172 248.904 374.074 248.904 374.851V378.972C248.904 379.75 248.437 380.108 247.846 379.765Z" fill="#0C9292"/>
<path d="M253.478 419.499L171.168 371.99C169.332 370.932 167.839 368.071 167.839 365.614V349.922C167.839 347.465 169.332 346.345 171.168 347.403L253.478 394.912C255.313 395.97 256.807 398.831 256.807 401.289V416.98C256.807 419.437 255.313 420.557 253.478 419.499Z" fill="#0C9292"/>
<path opacity="0.4" d="M251.113 413.994L173.533 369.222C172.599 368.677 171.837 367.231 171.837 365.987V354.199C171.837 352.955 172.599 352.379 173.533 352.924L251.113 397.696C252.046 398.24 252.809 399.687 252.809 400.931V412.719C252.809 413.963 252.046 414.538 251.113 413.994Z" fill="#D4FFF7"/>
<path d="M189.711 372.596L178.137 365.909C177.235 365.38 176.488 363.981 176.488 362.768C176.488 361.555 177.22 360.995 178.137 361.524L189.711 368.211C190.614 368.739 191.36 370.139 191.36 371.352C191.36 372.565 190.629 373.125 189.711 372.596Z" fill="#D4FFF7"/>
<path d="M199.574 376.095C199.574 377.308 198.719 377.79 197.676 377.184C196.634 376.577 195.779 375.115 195.779 373.902C195.779 372.689 196.634 372.207 197.676 372.814C198.719 373.42 199.574 374.882 199.574 376.095Z" fill="white"/>
<path d="M206.264 379.952C206.264 381.165 205.408 381.647 204.366 381.041C203.323 380.434 202.468 378.972 202.468 377.759C202.468 376.546 203.323 376.064 204.366 376.671C205.408 377.277 206.264 378.739 206.264 379.952Z" fill="#0C9292"/>
<path d="M212.953 383.824C212.953 385.037 212.097 385.519 211.055 384.913C210.013 384.306 209.157 382.845 209.157 381.632C209.157 380.419 210.013 379.936 211.055 380.543C212.097 381.149 212.953 382.611 212.953 383.824Z" fill="#D4FFF7"/>
<path d="M219.658 387.681C219.658 388.894 218.802 389.376 217.76 388.77C216.718 388.163 215.862 386.701 215.862 385.488C215.862 384.275 216.718 383.793 217.76 384.4C218.802 385.006 219.658 386.468 219.658 387.681Z" fill="#0C9292"/>
<path d="M247.846 407.431L243.941 405.176C243.366 404.834 242.884 403.932 242.884 403.155V399.034C242.884 398.256 243.35 397.898 243.941 398.24L247.846 400.495C248.422 400.838 248.904 401.739 248.904 402.517V406.638C248.904 407.416 248.437 407.773 247.846 407.431Z" fill="#D4FFF7"/>
<path d="M229.536 167.489C228.852 167.489 228.292 166.929 228.292 166.245V115.096C228.292 114.412 228.852 113.852 229.536 113.852C230.221 113.852 230.781 114.412 230.781 115.096V166.245C230.781 166.929 230.221 167.489 229.536 167.489Z" fill="#0C9292"/>
<path d="M233.985 111.892H225.102V131.067H233.985V111.892Z" fill="#0C9292"/>
<path d="M232.679 132.871C230.936 133.867 228.136 133.867 226.394 132.871C224.651 131.876 224.651 130.243 226.394 129.248C228.136 128.252 230.936 128.252 232.679 129.248C234.421 130.243 234.421 131.876 232.679 132.871Z" fill="#0C9292"/>
<path d="M236.739 85.1595H222.333V115.236H236.739V85.1595Z" fill="#0C9292"/>
<path d="M225.103 115.049V121.534C227.716 122.732 231.387 122.732 233.985 121.534V115.049C231.372 113.852 227.7 113.852 225.103 115.049Z" fill="#2DA5A5"/>
<path d="M234.639 118.175C231.823 119.792 227.265 119.792 224.449 118.175C221.633 116.558 221.633 113.914 224.449 112.297C227.265 110.679 231.823 110.679 234.639 112.297C237.454 113.914 237.454 116.558 234.639 118.175Z" fill="#0C9292"/>
<path d="M241.686 174.751C241.001 174.751 240.441 174.191 240.441 173.507V122.358C240.441 121.674 241.001 121.114 241.686 121.114C242.37 121.114 242.93 121.674 242.93 122.358V173.507C242.93 174.191 242.37 174.751 241.686 174.751Z" fill="#0C9292"/>
<path d="M246.119 119.139H237.237V138.314H246.119V119.139Z" fill="#0C9292"/>
<path d="M244.828 140.134C243.086 141.129 240.286 141.129 238.543 140.134C236.801 139.138 236.801 137.506 238.543 136.51C240.286 135.515 243.086 135.515 244.828 136.51C246.571 137.506 246.571 139.138 244.828 140.134Z" fill="#0C9292"/>
<path d="M248.888 92.422H234.483V122.498H248.888V92.422Z" fill="#0C9292"/>
<path d="M237.237 122.296V128.781C239.85 129.979 243.521 129.979 246.119 128.781V122.296C243.506 121.099 239.835 121.099 237.237 122.296Z" fill="#2DA5A5"/>
<path d="M246.773 125.422C243.957 127.039 239.399 127.039 236.583 125.422C233.768 123.805 233.768 121.161 236.583 119.544C239.399 117.926 243.957 117.926 246.773 119.544C249.588 121.161 249.588 123.805 246.773 125.422Z" fill="#0C9292"/>
<path d="M253.835 181.998C253.151 181.998 252.591 181.438 252.591 180.754V129.605C252.591 128.921 253.151 128.361 253.835 128.361C254.52 128.361 255.08 128.921 255.08 129.605V180.754C255.08 181.438 254.52 181.998 253.835 181.998Z" fill="#0C9292"/>
<path d="M258.269 126.386H249.386V145.561H258.269V126.386Z" fill="#0C9292"/>
<path d="M256.978 147.381C255.235 148.376 252.435 148.376 250.693 147.381C248.951 146.385 248.951 144.753 250.693 143.757C252.435 142.762 255.235 142.762 256.978 143.757C258.72 144.753 258.72 146.385 256.978 147.381Z" fill="#0C9292"/>
<path d="M261.038 99.669H246.633V129.745H261.038V99.669Z" fill="#0C9292"/>
<path d="M249.386 129.543V136.028C252 137.226 255.671 137.226 258.269 136.028V129.543C255.656 128.346 251.984 128.346 249.386 129.543Z" fill="#2DA5A5"/>
<path d="M258.922 132.685C256.107 134.302 251.549 134.302 248.733 132.685C245.917 131.067 245.917 128.424 248.733 126.806C251.549 125.189 256.107 125.189 258.922 126.806C261.738 128.424 261.738 131.067 258.922 132.685Z" fill="#0C9292"/>
<path d="M265.985 189.245C265.301 189.245 264.74 188.685 264.74 188.001V136.852C264.74 136.168 265.301 135.608 265.985 135.608C266.669 135.608 267.23 136.168 267.23 136.852V188.001C267.23 188.685 266.669 189.245 265.985 189.245Z" fill="#0C9292"/>
<path d="M270.419 133.649H261.536V152.824H270.419V133.649Z" fill="#0C9292"/>
<path d="M269.127 154.628C267.385 155.623 264.585 155.623 262.843 154.628C261.1 153.632 261.1 151.999 262.843 151.004C264.585 150.009 267.385 150.009 269.127 151.004C270.87 151.999 270.87 153.632 269.127 154.628Z" fill="#0C9292"/>
<path d="M273.188 106.916H258.782V136.992H273.188V106.916Z" fill="#0C9292"/>
<path d="M261.536 136.79V143.275C264.149 144.473 267.821 144.473 270.419 143.275V136.79C267.805 135.593 264.134 135.593 261.536 136.79Z" fill="#2DA5A5"/>
<path d="M271.072 139.932C268.256 141.549 263.698 141.549 260.882 139.932C258.067 138.314 258.067 135.67 260.882 134.053C263.698 132.436 268.256 132.436 271.072 134.053C273.888 135.67 273.888 138.314 271.072 139.932Z" fill="#0C9292"/>
<path d="M322.44 161.906L341.745 150.538L323.357 127.584L318.519 135.484L322.44 161.906Z" fill="#0C9292"/>
<path d="M182.213 35.9549L213.031 18.2263C213.031 18.2263 211.864 35.9238 211.864 35.9549C211.864 35.986 194.161 41.4445 194.161 41.4445L182.198 35.9549H182.213Z" fill="#0C9292"/>
<path d="M327.807 104.194C325.458 102.841 323.217 102.048 321.133 101.722C318.021 85.3928 306.665 68.053 293.116 60.2306C289.04 57.8824 285.166 56.6227 281.65 56.3583C279.799 36.5769 266.032 14.074 249.324 4.43216C240.597 -0.606496 232.679 -1.19745 226.829 1.88173L226.549 2.03724C226.394 2.115 226.254 2.20831 226.098 2.28607L207.928 13.0165L213.964 17.7908C208.55 20.1546 205.112 26.2352 205.112 35.2239C205.112 51.7862 216.749 71.9408 231.107 80.2297L327.807 149.262C338.587 155.483 347.314 150.444 347.314 138.003C347.314 125.562 338.572 110.431 327.807 104.21V104.194Z" fill="#0C9292"/>
<path d="M205.999 27.9303L247.706 3.56128C239.601 -0.653156 232.29 -1.01084 226.798 1.88172L226.518 2.03724C226.363 2.11499 226.223 2.2083 226.067 2.28606L207.897 13.0165L213.933 17.7908C210.137 19.4393 207.337 22.9228 205.984 27.9303H205.999Z" fill="#0C9292"/>
<path d="M283.035 99.6068L313.479 81.7538C308.252 72.734 301.065 64.8494 293.116 60.2462C292.058 59.6397 291.015 59.1109 290.004 58.6444L251.284 81.2717L283.05 99.6068H283.035Z" fill="#0C9292"/>
<path d="M216.484 15.0071L230.05 22.8295L254.893 8.21114C253.073 6.79597 251.222 5.5363 249.308 4.43215C246.306 2.69039 243.397 1.49293 240.628 0.793121L216.484 15.0227V15.0071Z" fill="#D4FFF7"/>
<path d="M310.119 76.4974L285.82 90.8047L294.267 100.229L316.326 87.2123C314.584 83.48 312.483 79.872 310.119 76.4974Z" fill="#D4FFF7"/>
<path d="M308.719 115.438C306.37 114.085 304.13 113.292 302.045 112.965C298.934 96.6365 287.577 79.2966 274.028 71.4743C269.952 69.126 266.078 67.8664 262.563 67.602C260.711 47.8206 246.944 25.3177 230.236 15.6758C212.268 5.30305 197.692 13.7164 197.692 34.4619C197.692 35.1618 197.708 35.8771 197.739 36.5925C184.593 30.4963 174.326 37.3701 174.326 52.937C174.326 69.4993 185.962 89.6539 200.321 97.9428L308.719 160.506C319.499 166.727 328.242 161.688 328.242 149.247C328.242 136.806 319.499 121.674 308.719 115.454V115.438Z" fill="#D4FFF7"/>
<path d="M197.739 36.5769C197.708 35.8616 197.692 35.1462 197.692 34.4464C197.692 34.4153 197.692 34.3842 197.692 34.3531C190.427 31.5227 184.189 32.7513 180.269 37.2923C184.516 33.7932 190.707 33.3111 197.739 36.5769Z" fill="white"/>
<path d="M310.305 113.883C307.956 112.53 305.716 111.737 303.632 111.41C300.52 95.0813 289.164 77.7415 275.614 69.9191C271.539 67.5709 267.665 66.3112 264.149 66.0468C262.298 46.2654 248.531 23.7626 231.823 14.1207C220.622 7.65129 210.744 8.49107 204.895 15.0538C210.853 9.9529 220 9.76628 230.236 15.6758C246.944 25.3177 260.711 47.805 262.563 67.602C266.078 67.8664 269.952 69.126 274.028 71.4743C287.577 79.2966 298.949 96.6365 302.045 112.965C304.13 113.292 306.37 114.085 308.719 115.438C319.499 121.659 328.242 136.79 328.242 149.231C328.242 153.726 327.091 157.225 325.131 159.604C328.055 157.349 329.829 153.275 329.829 147.676C329.829 135.235 321.086 120.104 310.305 113.883Z" fill="white"/>
<path d="M195.452 41.5223L203.603 45.3013L203.183 36.3281C203.152 35.7061 203.137 35.0684 203.137 34.4464C203.137 26.4374 205.548 20.6367 209.951 18.1019C214.337 15.567 220.576 16.3757 227.514 20.3879C242.432 29.0034 255.438 49.9511 257.149 68.0996L257.569 72.6718L262.143 73.0294C264.958 73.2472 268.038 74.3047 271.305 76.2019C283.159 83.0445 293.831 98.9381 296.694 113.992L297.409 117.755L301.205 118.346C302.714 118.58 304.332 119.186 305.996 120.15C315.097 125.407 322.782 138.719 322.782 149.216C322.782 153.15 321.693 156.027 319.795 157.131C317.897 158.22 314.848 157.738 311.441 155.763L203.043 93.1996C190.427 85.9216 179.786 67.4776 179.786 52.9215C179.786 47.2141 181.467 42.8597 184.407 40.978C185.62 40.2004 187.082 39.8272 188.731 39.8272C190.738 39.8272 193.025 40.4026 195.467 41.5223H195.452Z" fill="#2DA5A5"/>
<path d="M249.557 109.451L252.404 108.005L249.588 105.874L249.557 109.451Z" fill="#0C9292"/>
<path d="M240.955 70.8211L243.739 69.4215L243.786 70.8833L240.955 70.8211Z" fill="#0C9292"/>
<path d="M257.709 100.415L260.602 98.9536L255.033 93.6661L257.709 100.415Z" fill="#0C9292"/>
<path d="M251.58 107.911L238.046 99.9334C237.361 99.529 236.801 98.5026 236.801 97.6629L236.848 81.987L252.871 91.4268L252.824 107.103C252.824 107.958 252.264 108.316 251.58 107.911Z" fill="#0C9292"/>
<path d="M243.708 69.4371L229.085 78.8457C228.463 79.25 228.961 80.7274 229.909 81.2872L244.844 90.0738L259.778 98.8603C260.727 99.4202 261.225 98.5182 260.618 97.3985L246.104 70.8367C245.482 69.6859 244.346 69.0327 243.724 69.4371H243.708Z" fill="#0C9292"/>
<path d="M248.671 109.373L235.136 101.395C234.452 100.991 233.892 99.9645 233.892 99.1247L233.939 83.4489L249.962 92.8886L249.915 108.564C249.915 109.42 249.355 109.777 248.671 109.373Z" fill="#D4FFF7"/>
<path d="M240.799 70.8989L226.176 80.3075C225.554 80.7118 226.051 82.1892 227 82.7491L241.935 91.5356L256.869 100.322C257.818 100.882 258.316 99.98 257.709 98.8603L243.195 72.2985C242.572 71.1477 241.437 70.4945 240.815 70.8989H240.799Z" fill="#D4FFF7"/>
<path d="M297.58 387.199H295.916V294.559L306.852 288.245V242.649H308.516V289.194L297.58 295.508V387.199Z" fill="white"/>
<path d="M34.5199 407.214C33.5554 407.214 32.5909 406.965 31.7197 406.467L1.47787 389.345C0.560034 388.832 0.0155565 387.883 0 386.826C0 385.768 0.544478 384.82 1.44675 384.306L76.8647 340.685C81.1894 338.181 86.5719 338.181 90.8966 340.685L177.111 390.496L175.866 392.642L89.6677 342.831C86.1052 340.778 81.6872 340.778 78.1247 342.831L2.69127 386.468C2.5046 386.577 2.48904 386.748 2.48904 386.826C2.48904 386.903 2.52015 387.09 2.70683 387.183L32.9487 404.306C33.991 404.896 35.251 404.865 36.2622 404.212L49.0341 395.954L50.3875 398.038L37.6156 406.296C36.6822 406.903 35.6088 407.214 34.5354 407.214H34.5199Z" fill="#CEE4E4"/>
<path d="M73.8934 413.823L33.2442 390.356C30.7552 388.91 31.0663 386.406 33.9443 384.742L73.1933 362.083C76.0713 360.419 80.4271 360.233 82.9317 361.679L123.581 385.146C126.07 386.592 125.759 389.096 122.881 390.76L83.6317 413.419C80.7538 415.083 76.398 415.269 73.8934 413.823Z" fill="#CEE4E4"/>
<path d="M137.053 367.278V349.72H97.6793L84.0673 341.836C80.9405 340.032 75.4801 340.265 71.8866 342.333L59.1925 349.658H19.7568V367.698C19.6634 368.911 20.3479 370.092 21.8569 370.963L72.7577 400.34C75.8846 402.144 81.3449 401.911 84.9385 399.842L134.081 371.477C136.166 370.279 137.162 368.724 137.053 367.278Z" fill="#2DA5A5"/>
<path d="M78.4048 340.638C76.118 340.7 73.7534 341.276 71.871 342.349L59.1769 349.673H19.7568V367.713C19.6634 368.926 20.3479 370.108 21.8569 370.979L72.7577 400.355C74.2512 401.226 76.3046 401.615 78.4203 401.568V340.638H78.4048Z" fill="#2DA5A5"/>
<path d="M24.2215 349.658H19.7568V367.713C19.6634 368.926 20.3479 370.108 21.8569 370.979L24.2215 372.347V349.658Z" fill="#0C9292"/>
<path d="M73.5356 400.744C76.2268 401.895 80.1315 401.833 83.2739 400.635V380.139H73.5356V400.744Z" fill="#0C9292"/>
<path d="M72.7422 382.362L21.8413 352.986C18.7145 351.182 19.1034 348.041 22.7125 345.957L71.8555 317.591C75.4646 315.507 80.9249 315.289 84.0362 317.093L134.937 346.47C138.064 348.274 137.675 351.415 134.066 353.499L84.9229 381.865C81.3138 383.949 75.8535 384.166 72.7422 382.362Z" fill="#D4FFF7"/>
<path d="M73.66 377.075L31.0041 352.457C28.3906 350.949 28.7173 348.305 31.7353 346.563L72.9133 322.785C75.9313 321.043 80.5049 320.857 83.1339 322.365L125.79 346.983C128.403 348.492 128.077 351.135 125.059 352.877L83.8806 376.655C80.8627 378.397 76.2891 378.583 73.66 377.075Z" fill="#0C9292"/>
<path d="M118.323 371.912C118.323 373.218 117.405 374.82 116.269 375.473C115.134 376.126 114.216 375.598 114.216 374.291C114.216 372.985 115.134 371.383 116.269 370.73C117.405 370.077 118.323 370.606 118.323 371.912Z" fill="#D4FFF7"/>
<path d="M124.95 368.102C124.95 369.408 124.032 371.01 122.896 371.663C121.761 372.316 120.843 371.788 120.843 370.481C120.843 369.175 121.761 367.573 122.896 366.92C124.032 366.267 124.95 366.796 124.95 368.102Z" fill="#D4FFF7"/>
<path d="M131.561 364.276C131.561 365.583 130.643 367.184 129.508 367.837C128.372 368.491 127.454 367.962 127.454 366.656C127.454 365.349 128.372 363.747 129.508 363.094C130.643 362.441 131.561 362.97 131.561 364.276Z" fill="#D4FFF7"/>
<path d="M137.053 339.223V321.665H97.6793L84.0673 313.781C80.9405 311.977 75.4801 312.21 71.8866 314.278L59.1925 321.603H19.7568V339.643C19.6634 340.856 20.3479 342.038 21.8569 342.909L72.7577 372.285C75.8846 374.089 81.3449 373.856 84.9385 371.788L134.081 343.422C136.166 342.224 137.162 340.669 137.053 339.223Z" fill="#2DA5A5"/>
<path d="M78.4048 312.583C76.118 312.646 73.7534 313.221 71.871 314.294L59.1769 321.619H19.7568V339.658C19.6634 340.871 20.3479 342.053 21.8569 342.924L72.7577 372.301C74.2512 373.172 76.3046 373.56 78.4203 373.514V312.583H78.4048Z" fill="#2DA5A5"/>
<path d="M24.2215 321.603H19.7568V339.658C19.6634 340.871 20.3479 342.053 21.8569 342.924L24.2215 344.293V321.603Z" fill="#0C9292"/>
<path d="M73.5356 372.689C76.2268 373.84 80.1315 373.778 83.2739 372.581V352.084H73.5356V372.689Z" fill="#0C9292"/>
<path d="M72.7422 354.308L21.8413 324.931C18.7145 323.127 19.1034 319.986 22.7125 317.902L71.8555 289.536C75.4646 287.452 80.9249 287.235 84.0362 289.038L134.937 318.415C138.064 320.219 137.675 323.36 134.066 325.444L84.9229 353.81C81.3138 355.894 75.8535 356.112 72.7422 354.308Z" fill="#D4FFF7"/>
<path d="M73.66 349.02L31.0041 324.402C28.3906 322.894 28.7173 320.25 31.7353 318.508L72.9133 294.73C75.9313 292.989 80.5049 292.802 83.1339 294.31L125.79 318.928C128.403 320.437 128.077 323.081 125.059 324.822L83.8806 348.6C80.8627 350.342 76.2891 350.529 73.66 349.02Z" fill="#0C9292"/>
<path d="M118.323 343.857C118.323 345.164 117.405 346.765 116.269 347.418C115.134 348.072 114.216 347.543 114.216 346.237C114.216 344.93 115.134 343.328 116.269 342.675C117.405 342.022 118.323 342.551 118.323 343.857Z" fill="#D4FFF7"/>
<path d="M124.95 340.032C124.95 341.338 124.032 342.94 122.896 343.593C121.761 344.246 120.843 343.717 120.843 342.411C120.843 341.105 121.761 339.503 122.896 338.85C124.032 338.196 124.95 338.725 124.95 340.032Z" fill="#D4FFF7"/>
<path d="M131.561 336.221C131.561 337.528 130.643 339.13 129.508 339.783C128.372 340.436 127.454 339.907 127.454 338.601C127.454 337.295 128.372 335.693 129.508 335.04C130.643 334.386 131.561 334.915 131.561 336.221Z" fill="#D4FFF7"/>
<path d="M137.053 311.168V293.611H97.6793L84.0673 285.726C80.9405 283.922 75.4801 284.155 71.8866 286.224L59.1925 293.548H19.7568V311.588C19.6634 312.801 20.3479 313.983 21.8569 314.854L72.7577 344.23C75.8846 346.034 81.3449 345.801 84.9385 343.733L134.081 315.367C136.166 314.17 137.162 312.614 137.053 311.168Z" fill="#2DA5A5"/>
<path d="M78.4048 284.529C76.118 284.591 73.7534 285.166 71.871 286.239L59.1769 293.564H19.7568V311.604C19.6634 312.817 20.3479 313.998 21.8569 314.869L72.7577 344.246C74.2512 345.117 76.3046 345.506 78.4203 345.459V284.529H78.4048Z" fill="#2DA5A5"/>
<path d="M24.2215 293.548H19.7568V311.604C19.6634 312.817 20.3479 313.998 21.8569 314.869L24.2215 316.238V293.548Z" fill="#0C9292"/>
<path d="M73.5356 344.619C76.2268 345.77 80.1315 345.708 83.2739 344.51V324.014H73.5356V344.619Z" fill="#0C9292"/>
<path d="M72.7422 326.253L21.8413 296.876C18.7145 295.072 19.1034 291.931 22.7125 289.847L71.8555 261.481C75.4646 259.397 80.9249 259.18 84.0362 260.984L134.937 290.36C138.064 292.164 137.675 295.306 134.066 297.39L84.9229 325.755C81.3138 327.839 75.8535 328.057 72.7422 326.253Z" fill="#D4FFF7"/>
<path d="M134.081 293.922L84.9385 322.287C81.3294 324.371 75.869 324.589 72.7577 322.785L21.8569 293.408C21.1568 293.004 20.6435 292.538 20.3012 292.024C19.2278 293.751 19.7101 295.617 21.8569 296.861L72.7577 326.237C75.8846 328.041 81.3449 327.808 84.9385 325.74L134.081 297.374C136.882 295.757 137.737 293.502 136.508 291.729C136.026 292.522 135.202 293.268 134.081 293.922Z" fill="white"/>
<path d="M118.323 315.802C118.323 317.109 117.405 318.711 116.269 319.364C115.134 320.017 114.216 319.488 114.216 318.182C114.216 316.876 115.134 315.274 116.269 314.621C117.405 313.967 118.323 314.496 118.323 315.802Z" fill="#D4FFF7"/>
<path d="M124.95 311.977C124.95 313.283 124.032 314.885 122.896 315.538C121.761 316.191 120.843 315.662 120.843 314.356C120.843 313.05 121.761 311.448 122.896 310.795C124.032 310.142 124.95 310.67 124.95 311.977Z" fill="#D4FFF7"/>
<path d="M131.561 308.167C131.561 309.473 130.643 311.075 129.508 311.728C128.372 312.381 127.454 311.852 127.454 310.546C127.454 309.24 128.372 307.638 129.508 306.985C130.643 306.332 131.561 306.86 131.561 308.167Z" fill="#D4FFF7"/>
<path d="M75.7601 308.042L51.9431 294.295C50.4808 293.455 50.6674 291.978 52.3475 290.998L75.3401 277.717C77.0202 276.737 79.587 276.644 81.0493 277.484L104.866 291.231C106.329 292.071 106.142 293.548 104.462 294.528L81.4693 307.809C79.7892 308.789 77.2224 308.882 75.7601 308.042Z" fill="#0C9292"/>
<path d="M78.0314 296.534L74.7334 294.637C74.5312 294.513 74.5623 294.31 74.7957 294.186L77.9847 292.351C78.2181 292.211 78.5759 292.195 78.7781 292.32L82.0761 294.217C82.2783 294.342 82.2472 294.544 82.0139 294.668L78.8248 296.503C78.5914 296.643 78.2336 296.659 78.0314 296.534Z" fill="#D4FFF7"/>
<path d="M51.9432 294.295L52.0054 294.326C52.1143 294.248 52.2232 294.17 52.3476 294.093L75.3401 280.812C77.0202 279.832 79.587 279.739 81.0494 280.579L104.804 294.279C106.158 293.315 106.22 292.009 104.866 291.216L81.0494 277.468C79.587 276.628 77.0358 276.737 75.3401 277.702L52.3476 290.982C50.652 291.962 50.4808 293.424 51.9432 294.279V294.295Z" fill="#2DA5A5"/>
<path d="M69.4598 331.385C69.4598 332.271 68.8375 332.629 68.0752 332.178C67.313 331.743 66.6907 330.67 66.6907 329.783C66.6907 328.897 67.313 328.539 68.0752 328.99C68.8375 329.425 69.4598 330.499 69.4598 331.385Z" fill="#D4FFF7"/>
<path d="M65.1817 328.928C65.1817 329.814 64.5595 330.172 63.7972 329.721C63.0349 329.286 62.4127 328.212 62.4127 327.326C62.4127 326.44 63.0349 326.082 63.7972 326.533C64.5595 326.968 65.1817 328.041 65.1817 328.928Z" fill="#D4FFF7"/>
<path d="M69.4598 336.564C69.4598 337.45 68.8375 337.808 68.0752 337.357C67.313 336.921 66.6907 335.848 66.6907 334.962C66.6907 334.075 67.313 333.718 68.0752 334.169C68.8375 334.604 69.4598 335.677 69.4598 336.564Z" fill="#D4FFF7"/>
<path d="M65.1817 334.106C65.1817 334.993 64.5595 335.351 63.7972 334.9C63.0349 334.464 62.4127 333.391 62.4127 332.505C62.4127 331.618 63.0349 331.261 63.7972 331.712C64.5595 332.147 65.1817 333.22 65.1817 334.106Z" fill="#D4FFF7"/>
<path d="M69.4598 359.3C69.4598 360.186 68.8375 360.544 68.0752 360.093C67.313 359.657 66.6907 358.584 66.6907 357.698C66.6907 356.812 67.313 356.454 68.0752 356.905C68.8375 357.34 69.4598 358.413 69.4598 359.3Z" fill="#D4FFF7"/>
<path d="M65.1817 356.843C65.1817 357.729 64.5595 358.087 63.7972 357.636C63.0349 357.2 62.4127 356.127 62.4127 355.241C62.4127 354.354 63.0349 353.997 63.7972 354.448C64.5595 354.883 65.1817 355.956 65.1817 356.843Z" fill="#D4FFF7"/>
<path d="M69.4598 364.478C69.4598 365.365 68.8375 365.722 68.0752 365.271C67.313 364.836 66.6907 363.763 66.6907 362.877C66.6907 361.99 67.313 361.632 68.0752 362.083C68.8375 362.519 69.4598 363.592 69.4598 364.478Z" fill="#D4FFF7"/>
<path d="M65.1817 362.021C65.1817 362.908 64.5595 363.265 63.7972 362.814C63.0349 362.379 62.4127 361.306 62.4127 360.419C62.4127 359.533 63.0349 359.175 63.7972 359.626C64.5595 360.062 65.1817 361.135 65.1817 362.021Z" fill="#D4FFF7"/>
<path d="M69.4598 387.215C69.4598 388.101 68.8375 388.459 68.0752 388.008C67.313 387.572 66.6907 386.499 66.6907 385.613C66.6907 384.726 67.313 384.369 68.0752 384.82C68.8375 385.255 69.4598 386.328 69.4598 387.215Z" fill="#D4FFF7"/>
<path d="M65.1817 384.757C65.1817 385.644 64.5595 386.002 63.7972 385.551C63.0349 385.115 62.4127 384.042 62.4127 383.156C62.4127 382.269 63.0349 381.911 63.7972 382.362C64.5595 382.798 65.1817 383.871 65.1817 384.757Z" fill="#D4FFF7"/>
<path d="M69.4598 392.393C69.4598 393.28 68.8375 393.637 68.0752 393.186C67.313 392.751 66.6907 391.678 66.6907 390.791C66.6907 389.905 67.313 389.547 68.0752 389.998C68.8375 390.434 69.4598 391.507 69.4598 392.393Z" fill="#D4FFF7"/>
<path d="M65.1817 389.936C65.1817 390.822 64.5595 391.18 63.7972 390.729C63.0349 390.294 62.4127 389.221 62.4127 388.334C62.4127 387.448 63.0349 387.09 63.7972 387.541C64.5595 387.977 65.1817 389.05 65.1817 389.936Z" fill="#D4FFF7"/>
<path d="M79.0581 434.693C77.5958 434.693 76.1491 434.32 74.8423 433.558L49.1896 418.675C48.3185 418.162 47.8051 417.26 47.8051 416.265C47.8051 415.269 48.3185 414.352 49.2052 413.854L66.0684 404.072L67.313 406.218L50.4497 416C50.3253 416.078 50.2942 416.187 50.2942 416.265C50.2942 416.342 50.3253 416.451 50.4497 416.529L76.1024 431.412C77.9069 432.454 80.1626 432.469 81.9827 431.427L132.215 402.813C134.797 401.335 138.002 401.351 140.584 402.844L182.664 427.135C184.485 428.192 186.756 428.208 188.591 427.135L208.877 415.409L210.122 417.555L189.836 429.281C187.238 430.79 184.018 430.774 181.42 429.281L139.34 404.99C137.519 403.932 135.264 403.932 133.444 404.959L83.2117 433.573C81.9361 434.304 80.4893 434.662 79.0581 434.662V434.693Z" fill="#CEE4E4"/>
<path d="M301.874 529.37L261.225 505.903C258.736 504.457 259.047 501.953 261.925 500.289L301.174 477.63C304.052 475.966 308.408 475.78 310.912 477.226L351.561 500.693C354.05 502.139 353.739 504.643 350.861 506.307L311.612 528.966C308.734 530.63 304.378 530.816 301.874 529.37Z" fill="#CEE4E4"/>
<path d="M365.033 482.825V465.267H325.66L312.048 457.382C308.921 455.579 303.461 455.812 299.867 457.88L287.173 465.205H247.753V483.244C247.659 484.457 248.344 485.639 249.853 486.51L300.754 515.887C303.881 517.691 309.341 517.458 312.935 515.389L362.078 487.024C364.162 485.826 365.158 484.271 365.049 482.825H365.033Z" fill="#2DA5A5"/>
<path d="M306.385 456.185C304.098 456.247 301.734 456.823 299.852 457.896L287.157 465.22H247.737V483.26C247.644 484.473 248.328 485.655 249.837 486.526L300.738 515.902C302.232 516.773 304.285 517.162 306.401 517.115V456.185H306.385Z" fill="#2DA5A5"/>
<path d="M252.202 465.205H247.737V483.26C247.644 484.473 248.328 485.655 249.837 486.526L252.202 487.894V465.205Z" fill="#0C9292"/>
<path d="M301.516 516.291C304.207 517.442 308.112 517.38 311.254 516.182V495.686H301.516V516.291Z" fill="#0C9292"/>
<path d="M300.738 497.909L249.837 468.533C246.711 466.729 247.099 463.588 250.709 461.504L299.852 433.138C303.461 431.054 308.921 430.836 312.032 432.64L362.933 462.017C366.06 463.821 365.671 466.962 362.062 469.046L312.919 497.412C309.31 499.496 303.85 499.713 300.738 497.909Z" fill="#D4FFF7"/>
<path d="M301.656 492.622L259 468.004C256.387 466.496 256.713 463.852 259.731 462.11L300.909 438.332C303.927 436.59 308.501 436.404 311.13 437.912L353.786 462.53C356.399 464.039 356.073 466.682 353.055 468.424L311.877 492.202C308.859 493.944 304.285 494.13 301.656 492.622Z" fill="#0C9292"/>
<path d="M346.319 487.459C346.319 488.765 345.401 490.367 344.265 491.02C343.13 491.673 342.212 491.145 342.212 489.838C342.212 488.532 343.13 486.93 344.265 486.277C345.401 485.624 346.319 486.153 346.319 487.459Z" fill="#D4FFF7"/>
<path d="M352.93 483.633C352.93 484.94 352.012 486.541 350.877 487.195C349.741 487.848 348.823 487.319 348.823 486.013C348.823 484.706 349.741 483.105 350.877 482.451C352.012 481.798 352.93 482.327 352.93 483.633Z" fill="#D4FFF7"/>
<path d="M359.542 479.823C359.542 481.129 358.624 482.731 357.488 483.384C356.353 484.038 355.435 483.509 355.435 482.203C355.435 480.896 356.353 479.294 357.488 478.641C358.624 477.988 359.542 478.517 359.542 479.823Z" fill="#D4FFF7"/>
<path d="M365.033 454.77V437.212H325.66L312.048 429.328C308.921 427.524 303.461 427.757 299.867 429.825L287.173 437.15H247.753V455.19C247.659 456.403 248.344 457.585 249.853 458.456L300.754 487.832C303.881 489.636 309.341 489.403 312.935 487.334L362.078 458.969C364.162 457.771 365.158 456.216 365.049 454.77H365.033Z" fill="#2DA5A5"/>
<path d="M306.385 428.13C304.098 428.192 301.734 428.768 299.852 429.841L287.157 437.166H247.737V455.205C247.644 456.418 248.328 457.6 249.837 458.471L300.738 487.848C302.232 488.719 304.285 489.107 306.401 489.061V428.13H306.385Z" fill="#2DA5A5"/>
<path d="M252.202 437.15H247.737V455.205C247.644 456.418 248.328 457.6 249.837 458.471L252.202 459.84V437.15Z" fill="#0C9292"/>
<path d="M301.516 488.221C304.207 489.372 308.112 489.31 311.254 488.112V467.615H301.516V488.221Z" fill="#0C9292"/>
<path d="M300.738 469.855L249.837 440.478C246.711 438.674 247.099 435.533 250.709 433.449L299.852 405.083C303.461 402.999 308.921 402.781 312.032 404.585L362.933 433.962C366.06 435.766 365.671 438.907 362.062 440.991L312.919 469.357C309.31 471.441 303.85 471.659 300.738 469.855Z" fill="#D4FFF7"/>
<path d="M301.656 464.567L259 439.949C256.387 438.441 256.713 435.797 259.731 434.055L300.909 410.277C303.927 408.536 308.501 408.349 311.13 409.857L353.786 434.475C356.399 435.984 356.073 438.628 353.055 440.369L311.877 464.147C308.859 465.889 304.285 466.076 301.656 464.567Z" fill="#0C9292"/>
<path d="M346.319 459.404C346.319 460.71 345.401 462.312 344.265 462.965C343.13 463.619 342.212 463.09 342.212 461.784C342.212 460.477 343.13 458.875 344.265 458.222C345.401 457.569 346.319 458.098 346.319 459.404Z" fill="#D4FFF7"/>
<path d="M352.93 455.579C352.93 456.885 352.012 458.487 350.877 459.14C349.741 459.793 348.823 459.264 348.823 457.958C348.823 456.652 349.741 455.05 350.877 454.397C352.012 453.743 352.93 454.272 352.93 455.579Z" fill="#D4FFF7"/>
<path d="M359.542 451.768C359.542 453.075 358.624 454.677 357.488 455.33C356.353 455.983 355.435 455.454 355.435 454.148C355.435 452.841 356.353 451.24 357.488 450.586C358.624 449.933 359.542 450.462 359.542 451.768Z" fill="#D4FFF7"/>
<path d="M365.033 426.715V409.158H325.66L312.048 401.273C308.921 399.469 303.461 399.702 299.867 401.771L287.173 409.095H247.753V427.135C247.659 428.348 248.344 429.53 249.853 430.401L300.754 459.777C303.881 461.581 309.341 461.348 312.935 459.28L362.078 430.914C364.162 429.717 365.158 428.161 365.049 426.715H365.033Z" fill="#2DA5A5"/>
<path d="M306.385 400.076C304.098 400.138 301.734 400.713 299.852 401.786L287.157 409.111H247.737V427.151C247.644 428.364 248.328 429.545 249.837 430.416L300.738 459.793C302.232 460.664 304.285 461.053 306.401 461.006V400.076H306.385Z" fill="#2DA5A5"/>
<path d="M252.202 409.095H247.737V427.151C247.644 428.364 248.328 429.545 249.837 430.416L252.202 431.785V409.095Z" fill="#0C9292"/>
<path d="M301.516 460.166C304.207 461.317 308.112 461.255 311.254 460.057V439.561H301.516V460.166Z" fill="#0C9292"/>
<path d="M300.738 441.8L249.837 412.423C246.711 410.619 247.099 407.478 250.709 405.394L299.852 377.028C303.461 374.944 308.921 374.727 312.032 376.531L362.933 405.907C366.06 407.711 365.671 410.853 362.062 412.937L312.919 441.302C309.31 443.386 303.85 443.604 300.738 441.8Z" fill="#D4FFF7"/>
<path d="M362.062 409.469L312.919 437.834C309.31 439.918 303.85 440.136 300.738 438.332L249.837 408.955C249.137 408.551 248.624 408.084 248.282 407.571C247.208 409.298 247.691 411.164 249.837 412.408L300.738 441.784C303.865 443.588 309.325 443.355 312.919 441.287L362.062 412.921C364.862 411.304 365.718 409.049 364.489 407.276C364.007 408.069 363.182 408.815 362.062 409.469Z" fill="white"/>
<path d="M346.319 431.349C346.319 432.656 345.401 434.258 344.265 434.911C343.13 435.564 342.212 435.035 342.212 433.729C342.212 432.422 343.13 430.821 344.265 430.167C345.401 429.514 346.319 430.043 346.319 431.349Z" fill="#D4FFF7"/>
<path d="M352.93 427.524C352.93 428.83 352.012 430.432 350.877 431.085C349.741 431.738 348.823 431.209 348.823 429.903C348.823 428.597 349.741 426.995 350.877 426.342C352.012 425.689 352.93 426.217 352.93 427.524Z" fill="#D4FFF7"/>
<path d="M359.542 423.714C359.542 425.02 358.624 426.622 357.488 427.275C356.353 427.928 355.435 427.399 355.435 426.093C355.435 424.787 356.353 423.185 357.488 422.532C358.624 421.879 359.542 422.407 359.542 423.714Z" fill="#D4FFF7"/>
<path d="M303.74 423.589L279.923 409.842C278.461 409.002 278.648 407.525 280.328 406.545L303.32 393.264C305 392.284 307.567 392.191 309.03 393.031L332.847 406.778C334.309 407.618 334.122 409.095 332.442 410.075L309.45 423.356C307.77 424.336 305.203 424.429 303.74 423.589Z" fill="#0C9292"/>
<path d="M306.027 412.081L302.729 410.184C302.527 410.06 302.558 409.857 302.792 409.733L305.981 407.898C306.214 407.758 306.572 407.742 306.774 407.867L310.072 409.764C310.274 409.888 310.243 410.091 310.01 410.215L306.821 412.05C306.587 412.19 306.23 412.206 306.027 412.081Z" fill="#D4FFF7"/>
<path d="M279.924 409.842L279.986 409.888C280.095 409.811 280.204 409.733 280.328 409.655L303.321 396.374C305.016 395.394 307.568 395.301 309.03 396.141L332.785 409.842C334.138 408.877 334.2 407.571 332.847 406.778L309.03 393.031C307.568 392.191 305.016 392.3 303.321 393.264L280.328 406.545C278.632 407.524 278.461 408.986 279.924 409.842Z" fill="#2DA5A5"/>
<path d="M228.183 127.739C228.183 128.626 227.56 128.983 226.798 128.532C226.036 128.097 225.414 127.024 225.414 126.137C225.414 125.251 226.036 124.893 226.798 125.344C227.56 125.78 228.183 126.853 228.183 127.739Z" fill="#D4FFF7"/>
<path d="M240.363 135.126C240.363 136.013 239.741 136.37 238.979 135.919C238.217 135.484 237.594 134.411 237.594 133.524C237.594 132.638 238.217 132.28 238.979 132.731C239.741 133.167 240.363 134.24 240.363 135.126Z" fill="#D4FFF7"/>
<path d="M252.544 142.513C252.544 143.4 251.922 143.757 251.16 143.306C250.397 142.871 249.775 141.798 249.775 140.911C249.775 140.025 250.397 139.667 251.16 140.118C251.922 140.554 252.544 141.627 252.544 142.513Z" fill="#D4FFF7"/>
<path d="M264.74 149.9C264.74 150.786 264.118 151.144 263.356 150.693C262.594 150.258 261.971 149.185 261.971 148.298C261.971 147.412 262.594 147.054 263.356 147.505C264.118 147.941 264.74 149.014 264.74 149.9Z" fill="#D4FFF7"/>
</g>
<defs>
<clipPath id="clip0_0_21">
<rect width="440" height="553.459" fill="white"/>
</clipPath>
</defs>
</svg>
