<svg xmlns="http://www.w3.org/2000/svg" width="25" height="18" viewBox="0 0 25 18" fill="none">
<path d="M24.3123 4.20005C24.3123 4.20005 24.078 2.54536 23.3561 1.8188C22.442 0.862549 21.4201 0.857861 20.9514 0.801611C17.5951 0.557861 12.5561 0.557861 12.5561 0.557861H12.5467C12.5467 0.557861 7.50764 0.557861 4.15139 0.801611C3.68264 0.857861 2.66077 0.862549 1.7467 1.8188C1.02483 2.54536 0.795142 4.20005 0.795142 4.20005C0.795142 4.20005 0.551392 6.14536 0.551392 8.08599V9.90474C0.551392 11.8454 0.790454 13.7907 0.790454 13.7907C0.790454 13.7907 1.02483 15.4454 1.74202 16.1719C2.65608 17.1282 3.85608 17.0954 4.39045 17.1985C6.31233 17.3813 12.5514 17.4375 12.5514 17.4375C12.5514 17.4375 17.5951 17.4282 20.9514 17.1891C21.4201 17.1329 22.442 17.1282 23.3561 16.1719C24.078 15.4454 24.3123 13.7907 24.3123 13.7907C24.3123 13.7907 24.5514 11.85 24.5514 9.90474V8.08599C24.5514 6.14536 24.3123 4.20005 24.3123 4.20005ZM10.0717 12.1125V5.36724L16.5545 8.75161L10.0717 12.1125Z" fill="#414042"/>
</svg>