<svg xmlns="http://www.w3.org/2000/svg" width="25" height="24" viewBox="0 0 25 24" fill="none">
<path d="M22.7748 0H2.32327C1.34358 0 0.551392 0.773438 0.551392 1.72969V22.2656C0.551392 23.2219 1.34358 24 2.32327 24H22.7748C23.7545 24 24.5514 23.2219 24.5514 22.2703V1.72969C24.5514 0.773438 23.7545 0 22.7748 0ZM7.6717 20.4516H4.1092V8.99531H7.6717V20.4516ZM5.89045 7.43438C4.7467 7.43438 3.82327 6.51094 3.82327 5.37187C3.82327 4.23281 4.7467 3.30937 5.89045 3.30937C7.02952 3.30937 7.95295 4.23281 7.95295 5.37187C7.95295 6.50625 7.02952 7.43438 5.89045 7.43438ZM21.003 20.4516H17.4451V14.8828C17.4451 13.5562 17.4217 11.8453 15.5936 11.8453C13.742 11.8453 13.4608 13.2937 13.4608 14.7891V20.4516H9.90764V8.99531H13.3201V10.5609H13.367C13.8405 9.66094 15.003 8.70938 16.7326 8.70938C20.3373 8.70938 21.003 11.0813 21.003 14.1656V20.4516Z" fill="#414042"/>
</svg>
