<svg xmlns="http://www.w3.org/2000/svg" width="200" height="100" viewBox="0 0 200 100" fill="none">
<path d="M83.1034 49.9208C83.1034 47.8496 83.0969 47.2965 83.0821 46.7872H85.2411C85.2772 47.0289 85.3133 47.4782 85.3133 47.9096C85.6332 47.2916 86.3075 46.599 87.6577 46.599C89.3426 46.599 90.3385 47.6355 90.3385 49.744V56.8645H88.0958V50.229C88.0958 49.1731 87.8497 48.4968 86.8292 48.4968C85.8088 48.4968 85.3478 49.0855 85.3478 50.7302V56.8645H83.1051V49.9192L83.1034 49.9208Z" fill="#3163D4"/>
<path d="M94.0069 53.8363C94.0397 54.6067 94.4547 55.3528 95.4588 55.3528C96.3152 55.3528 96.7253 54.9068 96.7253 54.2045C96.7253 53.4438 96.3398 53.0529 95.0732 52.6003C92.6845 51.752 92.0824 50.92 92.0824 49.4716C92.0824 48.114 92.947 46.599 95.3866 46.599C98.0017 46.599 98.7006 48.3232 98.7187 49.6857H96.5662C96.5481 49.285 96.4678 48.2875 95.3243 48.2875C94.6303 48.2875 94.2677 48.7044 94.2677 49.3045C94.2677 49.9614 94.6385 50.268 95.9198 50.7221C98.1116 51.4942 98.9401 52.31 98.9401 53.9514C98.9401 55.9189 97.649 57.0413 95.3702 57.0413C93.0914 57.0413 91.8511 55.674 91.8134 53.8363H94.0069Z" fill="#3163D4"/>
<path d="M99.5275 46.7872H100.894V44.2163H103.127V46.7872H104.763V48.6005H103.127V54.2628C103.127 54.8792 103.248 55.223 104 55.223C104.238 55.223 104.405 55.2182 104.607 55.1792V56.8028C104.18 56.9764 103.55 57.0007 103.188 57.0007C101.593 57.0007 100.894 56.4054 100.894 54.6245V48.6021H99.5275V46.7888V46.7872Z" fill="#3163D4"/>
<path d="M112.857 54.6926C112.857 55.2295 112.902 56.4054 112.944 56.8644H110.917C110.869 56.6487 110.813 56.1719 110.812 55.8588C110.421 56.5498 109.704 57.0412 108.431 57.0412C106.41 57.0412 105.65 55.4987 105.65 54.0552C105.65 52.0569 107.033 50.7577 109.742 50.7577C110.108 50.7577 110.39 50.7577 110.657 50.7788V49.6791C110.657 49.0336 110.551 48.2988 109.447 48.2988C108.343 48.2988 108.229 48.9946 108.165 49.6742H106.033C106.08 48.1836 106.813 46.6152 109.525 46.6152C111.702 46.6152 112.861 47.5738 112.861 49.5477V54.6942L112.857 54.6926ZM110.71 52.3748C110.454 52.3391 110.211 52.3359 109.852 52.3359C108.375 52.3359 107.865 53.0058 107.865 53.8605C107.865 54.5337 108.21 55.2457 109.135 55.2457C110.431 55.2457 110.71 54.3115 110.71 52.7171V52.3748Z" fill="#3163D4"/>
<path d="M115.061 49.9208C115.061 47.8496 115.054 47.2965 115.039 46.7872H117.198C117.235 47.0289 117.272 47.4782 117.271 47.9096C117.591 47.2916 118.265 46.599 119.615 46.599C121.3 46.599 122.296 47.6355 122.296 49.744V56.8645H120.053V50.229C120.053 49.1731 119.807 48.4968 118.787 48.4968C117.766 48.4968 117.305 49.0855 117.305 50.7302V56.8645H115.062V49.9192L115.061 49.9208Z" fill="#3163D4"/>
<path d="M123.341 46.7872H124.707V44.2163H126.94V46.7872H128.576V48.6005H126.94V54.2628C126.94 54.8792 127.062 55.223 127.813 55.223C128.051 55.223 128.218 55.2182 128.42 55.1792V56.8028C127.994 56.9764 127.364 57.0007 127.001 57.0007C125.406 57.0007 124.707 56.4054 124.707 54.6245V48.6021H123.341V46.7888V46.7872Z" fill="#3163D4"/>
<path d="M132.326 46.7872C133.037 49.7895 133.775 52.9555 134.006 54.5629H134.026C134.212 53.0853 135.184 49.5932 135.821 46.7872H138.059L135.125 56.8661H132.719L129.934 46.7872H132.325H132.326Z" fill="#4C4C4C"/>
<path d="M139.206 46.7872H141.443V56.8661H139.206V46.7872ZM139.219 42.9447H141.456V45.2203H139.219V42.9447Z" fill="#4C4C4C"/>
<path d="M78.7443 46.7872H80.9821V56.8661H78.7443V46.7872ZM78.7574 42.9447H80.9952V45.2204H78.7574V42.9447Z" fill="#3163D4"/>
<path d="M145.4 52.3749C145.4 53.7665 145.629 55.2263 147.008 55.2263C148.257 55.2263 148.442 54.1834 148.5 53.8347H150.654C150.57 54.2856 150.23 57.0543 146.972 57.0543C143.714 57.0543 143.171 54.3683 143.171 51.778C143.171 48.6606 144.383 46.612 147.031 46.612C149.994 46.612 150.739 48.826 150.739 51.4309C150.739 51.7342 150.723 52.1948 150.705 52.3749H145.402H145.4ZM148.529 50.7772C148.524 49.6565 148.327 48.4189 147.021 48.4189C145.568 48.4189 145.45 50.0311 145.437 50.7772H148.529Z" fill="#4C4C4C"/>
<path d="M153.881 46.7872C154.676 51.2233 155.013 53.1745 155.17 54.4883H155.206C155.385 53.1615 155.835 51.5558 156.812 46.7872H158.842C159.693 50.7448 160.251 53.2897 160.379 54.4559H160.399C160.546 53.3951 160.796 51.8899 161.765 46.7872H164L161.446 56.8661H159.18C158.532 53.7568 157.967 51.2541 157.757 49.783H157.738C157.547 51.2281 156.891 53.8055 156.178 56.8661H153.861L151.502 46.7872H153.882H153.881Z" fill="#4C4C4C"/>
<path d="M73.9177 40.3464V59.1304C73.9177 60.016 73.4403 60.8319 72.6659 61.273L65.6097 65.3004C65.6622 65.0522 65.6901 64.7976 65.6901 64.5413V45.7573C65.6901 44.4337 64.9698 43.201 63.8132 42.5425L54.9589 37.4885V30.2382C54.9589 29.2959 55.9826 28.7022 56.8127 29.1548C56.821 29.158 56.8292 29.1629 56.8357 29.1677L72.6659 38.2037C73.4403 38.6449 73.9177 39.4624 73.9177 40.3464Z" fill="#4C4C4C"/>
<path d="M64.4383 45.7573V64.5413C64.4383 65.4269 63.9609 66.2428 63.1865 66.6839L56.2106 70.6659V51.1665C56.2106 50.1025 55.7447 49.0969 54.9589 48.4011C54.7685 48.2308 54.5585 48.0799 54.3338 47.9518L53.7087 47.5933L45.4811 42.8977V35.6491C45.4811 34.697 46.5245 34.1018 47.3579 34.577L53.7087 38.2021L54.9605 38.9158L63.1881 43.6114C63.9625 44.0526 64.4399 44.8701 64.4399 45.754L64.4383 45.7573Z" fill="#F99E21"/>
<path d="M54.9588 51.1682V71C54.5323 71 54.1041 70.8913 53.7202 70.674L53.7071 70.6659L45.4794 65.9703L44.2276 65.2566L37.2518 61.2747C36.4774 60.8335 36 60.016 36 59.132V41.0617C36 40.1096 37.0434 39.5143 37.8768 39.9895L44.2276 43.6146L45.4794 44.3283L53.7071 49.0239C54.4814 49.4651 54.9588 50.2826 54.9588 51.1665V51.1682Z" fill="#3163D4"/>
</svg>