<svg xmlns="http://www.w3.org/2000/svg" width="200" height="100" viewBox="0 0 200 100" fill="none">
  <path d="M175 62.5548V63.2396H169.212C168.221 62.3646 163.623 51.6362 162.552 50.3046C161.522 51.3698 159.381 53.4242 158.43 54.1471V63.2396H153.276V36.038L156.051 37.4076C156.804 37.7881 157.399 38.3207 157.795 38.9674C158.192 39.6142 158.43 40.3751 158.43 41.174V48.2502C159.896 46.9187 161.482 45.2067 163.028 43.3806L163.068 43.3425C163.068 43.3425 167.904 37.5218 168.737 36H174.445C174.445 36.4185 174.326 36.875 174.049 37.2174C171.472 40.9457 168.301 44.598 166.239 46.8045C167.389 48.2883 173.731 61.4515 175 62.5548Z" fill="#010101"/>
  <path d="M80.692 63.2015V36.0381H86.4004V46.7285H97.6191V36.0381H103.328V63.2015H97.6191V51.3318H86.4004V63.2015H80.692Z" fill="#010101"/>
  <path d="M114.189 48.2503L113.634 48.6307C113.397 48.7829 113.119 48.8589 112.842 48.8589C112.525 48.8589 112.207 48.7448 111.97 48.5166L110.542 47.2231L113.595 48.0981L114.189 48.2503Z" fill="#F78F1E"/>
  <path d="M121.959 60.3483C121.801 59.5874 121.721 58.4081 121.721 56.7722L121.761 51.1036C121.761 50.9895 121.761 50.8754 121.761 50.7612C121.721 48.859 121.523 47.4895 121.087 46.7666C120.81 46.234 120.374 45.7775 119.779 45.397C119.462 45.1688 119.145 44.9785 118.748 44.8264C117.638 44.2938 115.973 44.0655 113.714 44.0655C112.802 44.0655 111.97 44.1416 111.216 44.2557C111.097 44.2938 110.939 44.2938 110.82 44.3318C112.723 44.8264 116.449 45.7775 116.251 48.5927C116.489 48.6688 116.727 48.7449 116.964 48.859C117.48 49.0873 117.916 49.3917 118.273 49.734C118.392 49.8482 118.471 49.9623 118.55 50.0764C118.946 50.6851 119.065 51.3319 119.026 51.9786C118.392 51.5982 117.282 51.408 116.092 51.408C115.735 51.408 115.418 51.408 115.062 51.446C115.022 51.446 114.982 51.446 114.943 51.446H114.903C113.872 51.6362 113.198 51.7504 111.93 52.0167C110.661 52.283 109.551 52.5493 108.719 52.8537C108.402 52.9678 108.124 53.0819 107.886 53.196C106.975 53.6145 106.221 54.2613 105.706 55.0602C105.191 55.8591 104.913 56.8102 104.913 57.8374C104.913 59.3972 105.468 60.6907 106.618 61.7179C107.45 62.4788 108.56 62.9734 109.908 63.1636C110.344 63.2397 110.82 63.2777 111.296 63.2777C112.287 63.2777 113.238 63.1255 114.15 62.7831C114.269 62.7451 114.348 62.7071 114.467 62.669C115.458 62.2505 116.37 61.6418 117.242 60.8429C117.282 60.919 117.321 61.1092 117.4 61.4136C117.599 62.0603 117.757 62.5168 117.876 62.8592H122.871C122.435 61.9081 122.118 61.1092 121.959 60.3483ZM116.687 57.1146C116.687 57.1907 116.647 57.2668 116.647 57.3428C116.449 57.9896 116.053 58.5222 115.458 58.9407C114.626 59.5114 113.753 59.8157 112.842 59.8157C112.009 59.8157 111.335 59.5874 110.82 59.0548C110.305 58.5603 110.027 57.9896 110.027 57.3048C110.027 57.2287 110.027 57.1907 110.027 57.1146C110.067 56.5059 110.423 56.0113 111.018 55.5928C111.216 55.4787 111.454 55.3646 111.811 55.2504C112.287 55.0983 112.961 54.908 113.793 54.7559C115.181 54.4515 116.211 54.2232 116.885 53.995V54.9461C116.885 55.6309 116.845 56.2015 116.806 56.6581C116.727 56.8102 116.687 56.9624 116.687 57.1146Z" fill="#010101"/>
  <path d="M129.214 63.2017L122.871 44.0273H125.131C126.835 44.0273 128.302 45.0926 128.778 46.6904L131.751 56.62L135.2 44.0654H137.34C139.085 44.0654 140.591 45.2067 141.027 46.8046L143.643 56.62L147.449 44.0654C150.026 44.0654 151.849 46.4622 151.056 48.8209L146.22 63.2397H141.146L137.737 50.8753L134.367 63.2017H129.214Z" fill="#010101"/>
  <path d="M25.2728 53.4623C25.5503 52.1307 25.9863 50.9133 26.5809 49.7339C27.1359 48.5926 27.8891 47.6035 28.7612 46.7284C29.6334 45.8915 30.6641 45.2067 31.893 44.7121C33.0822 44.2175 34.5093 43.9893 36.095 43.9893C37.3635 43.9893 38.5528 44.2175 39.5835 44.7121C40.6142 45.2067 41.4863 45.8534 42.1602 46.6524C42.8341 47.4513 43.3098 48.4404 43.5477 49.5437C43.8252 50.647 43.7855 51.7883 43.5477 53.0057L43.2305 54.6036C43.1513 54.8699 42.9927 55.0982 42.7548 55.2884C42.517 55.4786 42.2791 55.5547 42.0016 55.5547H29.5937C29.4748 56.0873 29.4748 56.5819 29.6334 57.0004C29.7919 57.4189 30.0298 57.7613 30.3469 58.0656C30.6641 58.3319 31.1001 58.5602 31.5758 58.7124C32.0515 58.8645 32.5669 58.9406 33.1219 58.9406C33.9147 58.9406 34.5886 58.8645 35.1039 58.7124C35.6193 58.5602 36.095 58.37 36.4518 58.1417C36.7293 57.9515 37.0068 57.8373 37.205 57.7613C37.4032 57.6852 37.641 57.6471 37.9582 57.6471H40.9313C41.2088 57.6471 41.407 57.7232 41.5656 57.9134C41.7241 58.1037 41.7638 58.3319 41.6845 58.5982C41.6052 58.9406 41.3277 59.3591 40.9313 59.8917C40.5349 60.4244 39.9403 60.9189 39.1871 61.4135C38.4339 61.9081 37.5221 62.3266 36.4121 62.707C35.3022 63.0494 34.0336 63.2396 32.5272 63.2396C31.2983 63.2396 30.1884 63.0114 29.1973 62.5168C28.1666 62.0222 27.3341 61.3755 26.6602 60.5004C25.9863 59.6635 25.5106 58.6363 25.2331 57.4189C24.916 56.2014 24.916 54.9079 25.2728 53.4623ZM35.4607 48.2883C34.7472 48.2883 34.1129 48.4024 33.5579 48.5926C33.0029 48.7828 32.5272 49.0491 32.0912 49.3915C31.6551 49.6959 31.338 50.0763 31.0605 50.4568C30.783 50.8372 30.5848 51.2177 30.4658 51.5601H38.8303C38.8699 51.2177 38.8303 50.8372 38.7906 50.4568C38.751 50.0763 38.5924 49.6959 38.3546 49.3915C38.1167 49.0872 37.76 48.8209 37.3239 48.5926C36.8878 48.4024 36.2536 48.2883 35.4607 48.2883Z" fill="#F78F1E"/>
  <path d="M53.1409 46.1959C53.7752 45.5491 54.4887 45.0165 55.2419 44.6361C56.0348 44.2556 56.9862 44.0273 58.0961 44.0273C59.5232 44.0273 60.7521 44.3317 61.7828 44.9404C62.8532 45.5491 63.6063 46.272 64.0424 47.1089C64.9542 46.1198 65.9056 45.3589 66.9759 44.8263C68.0066 44.2937 69.1959 44.0273 70.4644 44.0273C71.8122 44.0273 72.9222 44.2556 73.7943 44.7121C74.7061 45.1687 75.38 45.7774 75.8557 46.5763C76.3314 47.3372 76.6089 48.2502 76.6882 49.2774C76.7674 50.3046 76.6882 51.3699 76.4503 52.5112L74.3097 62.2505C74.27 62.5168 74.1114 62.7451 73.8736 62.9353C73.6357 63.1255 73.3582 63.2397 73.0808 63.2397H70.2265C69.949 63.2397 69.7112 63.1255 69.5526 62.9353C69.3941 62.7451 69.3148 62.5168 69.3941 62.2505L71.4951 52.7014C71.8519 51.0655 71.7726 49.9242 71.2572 49.2774C70.7419 48.6307 69.9094 48.2883 68.7201 48.2883C67.7291 48.2883 66.7777 48.5926 65.9452 49.2394C65.0731 49.8481 64.4785 50.9514 64.0424 52.5492L61.9017 62.2886C61.8621 62.5549 61.7035 62.7831 61.4657 62.9734C61.2278 63.1636 60.9503 63.2777 60.6729 63.2777H57.8979C57.6204 63.2777 57.3826 63.1636 57.224 62.9734C57.0654 62.7831 56.9862 62.5549 57.0654 62.2886L59.1665 52.7395C59.5232 51.1036 59.444 49.9622 58.9286 49.3155C58.4133 48.6687 57.5808 48.3263 56.3915 48.3263C55.3608 48.3263 54.4094 48.6687 53.5373 49.3155C52.6652 49.9622 52.0309 51.1036 51.6741 52.7395L49.5731 62.2886C49.5335 62.5549 49.3749 62.7831 49.1371 62.9734C48.8992 63.1636 48.6217 63.2777 48.3442 63.2777H45.49C45.2125 63.2777 44.9747 63.1636 44.8161 62.9734C44.6575 62.7831 44.5783 62.5549 44.6575 62.2886L48.3839 45.435C48.4235 45.1687 48.5821 44.9404 48.8199 44.7502C49.0578 44.56 49.3353 44.4458 49.6128 44.4458H52.467C52.7445 44.4458 52.9427 44.56 53.1013 44.7502C53.2598 44.9404 53.2995 45.1687 53.2598 45.435L53.1409 46.1959Z" fill="#F78F1E"/>
</svg>