<svg xmlns="http://www.w3.org/2000/svg" width="200" height="100" viewBox="0 0 200 100" fill="none">
  <path d="M33.75 30H30.85H27.925H25V32.8071V35.6143V38.3974V41.2045H27.925V38.3974V35.6143V32.8071H30.85H33.75H36.675V30H33.75Z" fill="#00A64F"/>
  <path d="M33.75 69.3956H30.85H27.925H25V66.5885V63.7814V60.9983V58.1912H27.925V60.9983V63.7814V66.5885H30.85H33.75H36.675V69.3956H33.75Z" fill="#00A64F"/>
  <path d="M166.25 30H169.15H172.075H175V32.8071V35.6143V38.3974V41.2045H172.075V38.3974V35.6143V32.8071H169.15H166.25H163.325V30H166.25Z" fill="#00A64F"/>
  <path d="M166.25 69.3956H169.15H172.075H175V66.5885V63.7814V60.9983V58.1912H172.075V60.9983V63.7814V66.5885H169.15H166.25H163.325V69.3956H166.25Z" fill="#00A64F"/>
  <path d="M38.875 39.8369H31.825C31.775 39.597 31.725 39.3331 31.7 39.0452C31.675 38.7573 31.65 38.4694 31.65 38.2055C31.65 37.9415 31.65 37.6776 31.7 37.3897C31.725 37.1018 31.775 36.8619 31.825 36.6219H49.8C49.85 36.8619 49.9 37.1258 49.925 37.3897C49.95 37.6536 49.975 37.9175 49.975 38.1815C49.975 38.4454 49.95 38.7333 49.925 39.0212C49.9 39.3331 49.85 39.597 49.8 39.8369H42.725V62.6538C42.15 62.7258 41.525 62.7737 40.85 62.7737C40.15 62.7737 39.5 62.7258 38.875 62.6538V39.8369Z" fill="#414042"/>
  <path d="M53.075 37.0058C53.625 36.9578 54.125 36.9099 54.55 36.8619C55 36.8139 55.425 36.7659 55.875 36.7419C56.3 36.7179 56.75 36.6699 57.225 36.6459C57.7 36.6219 58.225 36.6219 58.775 36.6219C60.025 36.6219 61.275 36.7419 62.5251 36.9818C63.7751 37.2218 64.8751 37.6296 65.8251 38.2294C66.8001 38.8293 67.5751 39.621 68.1751 40.6287C68.7751 41.6364 69.0751 42.908 69.0751 44.4675C69.0751 45.4032 68.9251 46.2429 68.6001 46.9867C68.2751 47.7545 67.8751 48.4262 67.3751 49.0261C66.8751 49.6259 66.3251 50.1297 65.6751 50.5856C65.0501 51.0174 64.4251 51.3773 63.8251 51.6652L63.375 51.8812L71.1251 62.6778C70.4501 62.7497 69.7001 62.7737 68.8501 62.7737C68.1751 62.7737 67.5251 62.7497 66.8501 62.6778L58.3 50.8015V50.6575L58.6 50.5856C59.275 50.4176 59.975 50.2017 60.725 49.9138C61.475 49.6259 62.1501 49.266 62.7751 48.7861C63.4001 48.3063 63.925 47.7545 64.35 47.1067C64.7751 46.4589 64.975 45.6671 64.975 44.7314C64.975 43.0279 64.4501 41.7563 63.4001 40.9166C62.35 40.0769 60.925 39.669 59.15 39.669C58.725 39.669 58.35 39.693 57.975 39.693C57.625 39.717 57.225 39.741 56.775 39.789V62.6298L55.875 62.7018C55.55 62.7258 55.225 62.7258 54.925 62.7258C54.625 62.7258 54.3 62.7258 53.95 62.7018C53.6 62.6778 53.275 62.6538 52.975 62.6058V37.0058H53.075Z" fill="#414042"/>
  <path d="M87.325 36.7659C86.975 36.7179 86.625 36.6699 86.25 36.6699C85.875 36.6459 85.525 36.6459 85.175 36.6459C84.775 36.6459 84.4 36.6699 84.025 36.6699C83.65 36.6939 83.3 36.7179 82.975 36.7659L74.175 62.6298C74.45 62.6778 74.75 62.7258 75.1 62.7258C75.425 62.7497 75.775 62.7498 76.125 62.7498C76.45 62.7498 76.775 62.7258 77.1 62.7258C77.125 62.7258 77.125 62.7258 77.15 62.7258C77.725 62.6778 78.175 62.2939 78.35 61.7901L79.5 58.0712L79.925 56.6557L81.375 52.0011L85 40.2448L88.675 52.0011L88.75 52.265L90.125 56.6557L90.85 58.9829L91.725 61.814C91.9 62.3419 92.375 62.7258 92.925 62.7498C93.275 62.7737 93.6 62.7737 93.925 62.7737C94.275 62.7737 94.625 62.7498 95 62.7498C95.375 62.7258 95.7 62.7018 96 62.6538L87.325 36.7659Z" fill="#414042"/>
  <path d="M111.825 49.074L105.4 62.6537C104.925 62.7017 104.45 62.7256 104.025 62.7496L110.5 49.074L105.075 36.6219C105.55 36.6459 106 36.6699 106.45 36.7179L111.825 49.074Z" fill="#414042"/>
  <path d="M111.825 49.074L117.2 36.7179C117.475 36.6939 117.75 36.6699 118 36.6459C118.25 36.622 118.525 36.598 118.8 36.598H119.825C120.1 36.598 120.35 36.598 120.55 36.622C120.75 36.6459 121 36.6699 121.275 36.7179L115.625 48.9541L122.375 62.6538C121.625 62.7258 120.925 62.7737 120.3 62.7737C119.75 62.7737 119.075 62.7258 118.3 62.6538L111.825 49.074Z" fill="#414042"/>
  <path d="M109.525 49.074L103.1 62.6537C102.8 62.6777 102.5 62.7016 102.225 62.7256C102 62.7496 101.8 62.7496 101.575 62.7496H101.55C101.4 62.7496 101.225 62.7496 101.075 62.7496C100.45 62.7496 99.7501 62.7256 99.0001 62.6537L105.7 49.074L100.075 36.7179C100.45 36.6699 100.8 36.6459 101.125 36.622C101.45 36.598 101.8 36.598 102.15 36.598C102.3 36.598 102.45 36.598 102.6 36.598H102.65C102.825 36.598 103 36.622 103.175 36.622C103.5 36.6459 103.8 36.6699 104.125 36.6939L109.525 49.074Z" fill="#00A64F"/>
  <path d="M125.125 36.6219H140.1C140.175 37.1018 140.225 37.6296 140.225 38.2294C140.225 38.4934 140.225 38.7813 140.2 39.0692C140.175 39.3571 140.15 39.621 140.1 39.8609H129V47.3466H137.875C137.925 47.5865 137.975 47.8504 138 48.1383C138.025 48.4262 138.05 48.6902 138.05 48.9541C138.05 49.218 138.025 49.5059 138 49.7938C137.975 50.0817 137.925 50.3456 137.875 50.5856H129V59.5348H140.4C140.475 60.0146 140.525 60.5424 140.525 61.1423C140.525 61.4062 140.525 61.6941 140.5 61.982C140.475 62.2699 140.45 62.5338 140.4 62.7737H125.125V36.6219Z" fill="#414042"/>
  <path d="M144.5 36.7659C144.8 36.7179 145.15 36.6939 145.525 36.6699C145.9 36.6459 146.275 36.6459 146.625 36.6459C146.975 36.6459 147.35 36.6699 147.775 36.6699C148.175 36.6939 148.525 36.7419 148.8 36.7659L155.775 52.9608L162.775 36.7659C163.025 36.7179 163.325 36.6939 163.7 36.6699C164.075 36.6459 164.425 36.6459 164.775 36.6459C165.1 36.6459 165.45 36.6699 165.85 36.6699C166.25 36.6939 166.575 36.7419 166.85 36.7659L168.125 62.6298C167.825 62.6778 167.525 62.7018 167.2 62.7258C166.875 62.7497 166.575 62.7498 166.25 62.7498C165.925 62.7498 165.6 62.7258 165.3 62.7258C164.975 62.7018 164.7 62.6538 164.425 62.6298L163.575 42.5241L156.975 57.2795C156.475 57.3514 155.975 57.3754 155.45 57.3754C154.975 57.3754 154.5 57.3514 154.025 57.2795L147.65 42.4281L146.775 62.6538C146.5 62.7018 146.225 62.7258 145.925 62.7498C145.625 62.7737 145.35 62.7737 145.075 62.7737C144.75 62.7737 144.45 62.7498 144.15 62.7498C143.85 62.7258 143.575 62.6778 143.3 62.6538L144.5 36.7659Z" fill="#414042"/>
</svg>