<svg xmlns="http://www.w3.org/2000/svg" width="200" height="100" viewBox="0 0 200 100" fill="none">
  <path d="M173.178 51.2452H71.7932V50.944H173.178V51.2452Z" fill="#1C4792"/>
  <path d="M173.178 58.2928H71.7932V57.9915H173.178V58.2928Z" fill="#1C4792"/>
  <path fill-rule="evenodd" clip-rule="evenodd" d="M172.211 55.5605L172.125 56.735H168.539V56.5438C168.596 56.5438 168.681 56.5438 168.767 56.5165C168.881 56.5165 168.937 56.4892 168.966 56.4619C169.023 56.4346 169.08 56.4073 169.108 56.3526C169.137 56.298 169.165 56.2434 169.165 56.1887V53.3479C169.165 53.2933 169.165 53.2387 169.137 53.184C169.108 53.1294 169.051 53.1021 168.994 53.0748C168.937 53.0475 168.881 53.0202 168.795 53.0202C168.71 52.9928 168.624 52.9928 168.567 52.9928V52.8016H170.503V52.9928C170.446 52.9928 170.361 52.9928 170.275 53.0202C170.19 53.0475 170.104 53.0475 170.076 53.0748C170.019 53.1021 169.962 53.1294 169.934 53.184C169.905 53.2387 169.905 53.2933 169.905 53.3479V55.9975C169.905 56.1068 169.905 56.2161 169.934 56.2707C169.934 56.3253 169.991 56.3799 170.019 56.4346C170.076 56.4619 170.133 56.4892 170.247 56.4892C170.361 56.4892 170.474 56.5165 170.674 56.5165C170.759 56.5165 170.844 56.5165 170.93 56.5165C171.015 56.5165 171.101 56.5165 171.158 56.4892C171.243 56.4892 171.3 56.4619 171.357 56.4346C171.414 56.4073 171.471 56.3799 171.499 56.3526C171.585 56.2707 171.698 56.1341 171.812 55.9702C171.926 55.8063 172.011 55.6424 172.04 55.5605H172.211Z" fill="#25408F"/>
  <path fill-rule="evenodd" clip-rule="evenodd" d="M155.787 52.9668C155.731 52.9668 155.645 52.9668 155.503 53.0214C155.389 53.0487 155.304 53.076 155.247 53.1034C155.161 53.158 155.133 53.2399 155.076 53.3765C155.047 53.5131 155.047 53.677 155.047 53.8955V56.791H154.763L152.002 53.5677V55.5891C152.002 55.8076 152.002 55.9988 152.059 56.1081C152.087 56.2173 152.144 56.3266 152.201 56.3812C152.258 56.4359 152.372 56.4632 152.514 56.4905C152.685 56.5451 152.77 56.5451 152.827 56.5451V56.7363H150.949V56.5451C151.006 56.5451 151.119 56.5178 151.233 56.4905C151.376 56.4632 151.461 56.4359 151.49 56.4085C151.575 56.3539 151.603 56.272 151.66 56.1627C151.689 56.0534 151.717 55.8895 151.717 55.6164V53.677C151.717 53.595 151.689 53.5131 151.66 53.4311C151.632 53.3492 151.575 53.2672 151.518 53.2399C151.433 53.1853 151.347 53.1307 151.205 53.076C151.063 53.0214 150.977 53.0214 150.892 53.0214V52.8302H152.201L154.791 55.8622V53.9775C154.791 53.7589 154.763 53.5677 154.734 53.4585C154.706 53.3492 154.649 53.2399 154.592 53.2126C154.535 53.1853 154.421 53.158 154.307 53.1034C154.193 53.076 154.08 53.0487 153.994 53.0487V52.8575H155.844V52.9668H155.787Z" fill="#25408F"/>
  <path fill-rule="evenodd" clip-rule="evenodd" d="M138.197 56.735H136.12V56.5438C136.176 56.5438 136.262 56.5438 136.376 56.5165C136.49 56.5165 136.575 56.4892 136.603 56.4892C136.66 56.4619 136.717 56.4346 136.746 56.3799C136.774 56.3253 136.803 56.2707 136.803 56.2161V53.3479C136.803 53.2933 136.803 53.2387 136.774 53.184C136.746 53.1294 136.689 53.1021 136.603 53.0748C136.546 53.0475 136.461 53.0202 136.347 53.0202C136.262 52.9928 136.176 52.9928 136.12 52.9928V52.8016H138.197V52.9928C138.14 52.9928 138.055 52.9928 137.97 53.0202C137.884 53.0202 137.799 53.0475 137.742 53.0748C137.657 53.1021 137.6 53.1294 137.571 53.184C137.543 53.2387 137.514 53.2933 137.514 53.3479V56.1887C137.514 56.2434 137.543 56.298 137.571 56.3526C137.6 56.4073 137.657 56.4346 137.742 56.4619C137.799 56.4892 137.856 56.4892 137.97 56.5165C138.084 56.5165 138.169 56.5438 138.226 56.5438V56.735H138.197Z" fill="#25408F"/>
  <path fill-rule="evenodd" clip-rule="evenodd" d="M131.879 53.8668H131.651C131.651 53.7849 131.594 53.7029 131.537 53.621C131.48 53.539 131.423 53.4571 131.366 53.3478C131.309 53.2659 131.252 53.1839 131.167 53.1293C131.082 53.0746 131.025 53.02 130.939 53.02C130.882 53.02 130.797 53.02 130.683 52.9927C130.569 52.9927 130.484 52.9927 130.399 52.9927H130.228V56.1341C130.228 56.1887 130.228 56.2433 130.285 56.298C130.313 56.3526 130.37 56.3799 130.456 56.4072C130.484 56.4345 130.569 56.4345 130.683 56.4619C130.797 56.4892 130.911 56.4892 130.968 56.5165V56.7077H128.805V56.5165C128.862 56.5165 128.947 56.4892 129.089 56.4892C129.203 56.4619 129.289 56.4619 129.345 56.4345C129.431 56.4072 129.459 56.3799 129.516 56.3253C129.545 56.2706 129.573 56.216 129.573 56.1614V52.9927H129.402C129.345 52.9927 129.26 52.9927 129.146 52.9927C129.061 52.9927 128.975 52.9927 128.862 53.02C128.776 53.02 128.719 53.0746 128.634 53.1293C128.577 53.1839 128.492 53.2659 128.435 53.3478C128.378 53.4298 128.321 53.5117 128.264 53.621C128.207 53.7302 128.178 53.7849 128.15 53.8668H127.922V52.7742H131.907V53.8668H131.879Z" fill="#25408F"/>
  <path fill-rule="evenodd" clip-rule="evenodd" d="M116.139 52.9668C116.082 52.9668 115.968 52.9668 115.854 53.0214C115.74 53.0487 115.655 53.076 115.598 53.1034C115.512 53.158 115.484 53.2399 115.427 53.3765C115.399 53.5131 115.399 53.677 115.399 53.8955V56.791H115.114L112.353 53.5677V55.5891C112.353 55.8076 112.353 55.9988 112.41 56.1081C112.438 56.2173 112.495 56.3266 112.581 56.3812C112.638 56.4359 112.723 56.4632 112.865 56.4905C113.036 56.5451 113.121 56.5451 113.178 56.5451V56.7363H111.3V56.5451C111.357 56.5451 111.442 56.5178 111.584 56.4905C111.727 56.4632 111.812 56.4359 111.841 56.4085C111.898 56.3539 111.955 56.272 111.983 56.1627C112.011 56.0534 112.04 55.8895 112.04 55.6164V53.677C112.04 53.595 112.011 53.5131 111.983 53.4311C111.955 53.3492 111.898 53.2672 111.841 53.2399C111.755 53.1853 111.67 53.1307 111.528 53.076C111.385 53.0214 111.3 53.0214 111.214 53.0214V52.8302H112.524L115.085 55.8622V53.9775C115.085 53.7589 115.057 53.5677 115.028 53.4585C115 53.3492 114.943 53.2399 114.886 53.2126C114.829 53.1853 114.715 53.158 114.602 53.1034C114.459 53.076 114.374 53.0487 114.288 53.0487V52.8575H116.167V52.9668H116.139Z" fill="#25408F"/>
  <path fill-rule="evenodd" clip-rule="evenodd" d="M98.6906 55.5878L98.6052 56.735H94.7911V56.5438C94.8481 56.5438 94.9335 56.5165 95.0473 56.5165C95.1612 56.5165 95.2181 56.4892 95.2465 56.4892C95.3035 56.4619 95.3604 56.4346 95.3889 56.3799C95.4173 56.3253 95.4458 56.2707 95.4458 56.2161V53.3479C95.4458 53.2933 95.4458 53.2387 95.4173 53.184C95.3889 53.1294 95.3319 53.1021 95.275 53.0748C95.2181 53.0475 95.1327 53.0202 95.0473 53.0202C94.9335 52.9928 94.8765 52.9928 94.8196 52.9928V52.8016H98.3775V53.7577H98.1498C98.0928 53.6211 98.0074 53.4572 97.8651 53.2933C97.7228 53.1294 97.5805 53.0475 97.4667 53.0202C97.4097 53.0202 97.3243 53.0202 97.2389 52.9928C97.1536 52.9928 97.0397 52.9928 96.9259 52.9928H96.2143V54.5771H96.7266C96.8974 54.5771 97.0112 54.5771 97.0966 54.5225C97.182 54.4952 97.2389 54.4679 97.2959 54.3859C97.3528 54.3313 97.3813 54.2767 97.4097 54.1674C97.4382 54.0855 97.4667 54.0035 97.4667 53.9216H97.6944V55.4785H97.4667C97.4667 55.3966 97.4382 55.2873 97.4097 55.2054C97.3813 55.0961 97.3243 55.0415 97.2959 54.9869C97.2389 54.9322 97.1536 54.8776 97.0682 54.8503C96.9828 54.823 96.8689 54.823 96.7266 54.823H96.2143V56.0248C96.2143 56.1341 96.2143 56.2434 96.2427 56.298C96.2712 56.3526 96.2997 56.4073 96.3566 56.4619C96.4135 56.4892 96.4989 56.5165 96.5843 56.5165C96.6982 56.5165 96.812 56.5438 97.0112 56.5438C97.0682 56.5438 97.182 56.5438 97.2959 56.5438C97.4097 56.5438 97.5236 56.5438 97.5805 56.5438C97.6659 56.5438 97.7513 56.5165 97.8367 56.4892C97.9221 56.4619 97.979 56.4346 98.0074 56.4073C98.1213 56.3253 98.2067 56.1887 98.3205 55.9975C98.4344 55.8063 98.4913 55.6697 98.5198 55.5878H98.6906Z" fill="#25408F"/>
  <path fill-rule="evenodd" clip-rule="evenodd" d="M90.7495 53.8668H90.5218C90.5218 53.7849 90.4649 53.7029 90.408 53.621C90.3511 53.539 90.2941 53.4571 90.2372 53.3478C90.1803 53.2659 90.1233 53.1839 90.038 53.1293C89.9526 53.0746 89.8956 53.02 89.8103 53.02C89.7533 53.02 89.6679 53.02 89.5541 52.9927C89.4402 52.9927 89.3549 52.9927 89.2695 52.9927H89.0987V56.1341C89.0987 56.1887 89.0987 56.2433 89.1556 56.298C89.1841 56.3526 89.241 56.3799 89.3264 56.4072C89.3548 56.4345 89.4402 56.4345 89.5541 56.4619C89.6679 56.4892 89.7818 56.4892 89.8387 56.5165V56.7077H87.6755V56.5165C87.7325 56.5165 87.8179 56.4892 87.9602 56.4892C88.074 56.4619 88.1594 56.4619 88.2163 56.4345C88.3017 56.4072 88.3302 56.3799 88.3871 56.3253C88.4156 56.2706 88.444 56.216 88.444 56.1614V52.9927H88.2733C88.2163 52.9927 88.1309 52.9927 88.0171 52.9927C87.9317 52.9927 87.8463 52.9927 87.7325 53.02C87.6471 53.02 87.5902 53.0746 87.5048 53.1293C87.4478 53.1839 87.3624 53.2659 87.3055 53.3478C87.2486 53.4298 87.1917 53.5117 87.1347 53.621C87.0778 53.7302 87.0494 53.7849 87.0209 53.8668H86.7647V52.7742H90.7495V53.8668Z" fill="#25408F"/>
  <path fill-rule="evenodd" clip-rule="evenodd" d="M82.8652 52.9668C82.8082 52.9668 82.7229 52.9668 82.5805 53.0214C82.4667 53.0487 82.3813 53.076 82.3244 53.1034C82.239 53.158 82.2105 53.2399 82.1536 53.3765C82.1251 53.5131 82.1251 53.677 82.1251 53.8955V56.791H81.8405L79.0796 53.5404V55.5891C79.0796 55.8076 79.0796 55.9988 79.1365 56.1081C79.165 56.2173 79.2219 56.3266 79.3073 56.3812C79.3642 56.4359 79.4496 56.4632 79.5919 56.4905C79.7627 56.5451 79.8481 56.5451 79.905 56.5451V56.7363H78.0265V56.5451C78.0834 56.5451 78.1688 56.5178 78.3111 56.4905C78.4534 56.4632 78.5388 56.4359 78.5673 56.4085C78.6242 56.3539 78.6811 56.272 78.7096 56.1627C78.7381 56.0534 78.7665 55.8895 78.7665 55.6164V53.677C78.7665 53.595 78.7381 53.5131 78.7096 53.4311C78.6811 53.3492 78.6242 53.2672 78.5673 53.2399C78.4819 53.1853 78.3965 53.1307 78.2542 53.076C78.1119 53.0214 78.0265 53.0214 77.9411 53.0214V52.8302H79.2504L81.812 55.8622V53.9775C81.812 53.7589 81.7836 53.5677 81.7551 53.4585C81.7267 53.3492 81.6697 53.2399 81.6128 53.2126C81.5559 53.1853 81.442 53.158 81.3282 53.1034C81.2143 53.076 81.1005 53.0487 81.0151 53.0487V52.8575H82.8652V52.9668Z" fill="#25408F"/>
  <path fill-rule="evenodd" clip-rule="evenodd" d="M73.6717 56.735H71.5939V56.5438C71.6508 56.5438 71.7362 56.5438 71.85 56.5165C71.9639 56.5165 72.0493 56.4892 72.0777 56.4892C72.1347 56.4619 72.1916 56.4346 72.2201 56.3799C72.2485 56.3253 72.277 56.2707 72.277 56.2161V53.3479C72.277 53.2933 72.277 53.2387 72.2485 53.184C72.2201 53.1294 72.1631 53.1021 72.0777 53.0748C72.0208 53.0475 71.9354 53.0202 71.8216 53.0202C71.7362 52.9928 71.6508 52.9928 71.5939 52.9928V52.8016H73.6717V52.9928C73.6147 52.9928 73.5294 52.9928 73.444 53.0202C73.3586 53.0202 73.2732 53.0475 73.2163 53.0748C73.1309 53.1021 73.0739 53.1294 73.0455 53.184C73.017 53.2387 72.9886 53.2933 72.9886 53.3479V56.1887C72.9886 56.2434 73.017 56.298 73.0455 56.3526C73.0739 56.4073 73.1309 56.4346 73.2163 56.4619C73.2732 56.4892 73.3301 56.4892 73.444 56.5165C73.5578 56.5165 73.6432 56.5438 73.7001 56.5438V56.735H73.6717Z" fill="#25408F"/>
  <path fill-rule="evenodd" clip-rule="evenodd" d="M146.281 53.348C146.48 53.5392 146.651 53.7577 146.765 54.0035C146.878 54.2494 146.935 54.5499 146.935 54.8503C146.935 55.1508 146.878 55.4513 146.765 55.6971C146.651 55.943 146.48 56.1615 146.281 56.3254C146.082 56.4893 145.854 56.6532 145.569 56.7351C145.313 56.8171 145.028 56.8717 144.744 56.8717V56.6805C144.971 56.6805 145.171 56.6259 145.37 56.5439C145.541 56.4346 145.712 56.3254 145.825 56.1342C145.939 55.9703 146.025 55.7791 146.082 55.5605C146.138 55.342 146.167 55.0962 146.167 54.8503C146.167 54.5772 146.138 54.3313 146.082 54.1128C146.025 53.8943 145.939 53.7031 145.825 53.5392C145.712 53.3753 145.569 53.266 145.37 53.1841C145.199 53.1021 145 53.0475 144.772 53.0475V52.8016C145.057 52.8016 145.37 52.8563 145.626 52.9382C145.854 53.0202 146.082 53.1567 146.281 53.348ZM144.744 56.9263C144.431 56.9263 144.118 56.8717 143.861 56.7624C143.577 56.6532 143.349 56.5166 143.15 56.3254C142.951 56.1342 142.808 55.9156 142.694 55.6698C142.581 55.424 142.524 55.1235 142.524 54.8503C142.524 54.5225 142.581 54.2494 142.694 54.0035C142.808 53.7577 142.979 53.5392 143.178 53.348C143.378 53.1841 143.605 53.0202 143.89 52.9382C144.146 52.829 144.431 52.8016 144.715 52.8016V53.0475C144.459 53.0475 144.231 53.1021 144.061 53.1841C143.89 53.2933 143.748 53.4299 143.634 53.5938C143.52 53.7577 143.463 53.9489 143.406 54.1674C143.349 54.386 143.321 54.6318 143.321 54.8503C143.321 55.1235 143.349 55.3693 143.406 55.5879C143.463 55.8064 143.548 55.9976 143.662 56.1615C143.776 56.3254 143.918 56.4346 144.118 56.5439C144.288 56.6259 144.488 56.6805 144.744 56.6805V56.9263Z" fill="#25408F"/>
  <path fill-rule="evenodd" clip-rule="evenodd" d="M107.372 56.735H106.119C105.835 56.3526 105.607 56.0521 105.379 55.7789C105.237 55.615 105.095 55.4238 104.924 55.2599V54.6863C105.095 54.6317 105.237 54.577 105.351 54.4678C105.55 54.3039 105.636 54.0853 105.636 53.7849C105.636 53.5663 105.55 53.3478 105.408 53.2112C105.294 53.102 105.123 53.0473 104.924 52.9927V52.7742H105.009C105.209 52.7742 105.379 52.8015 105.55 52.8288C105.721 52.8561 105.863 52.9108 106.006 52.9927C106.119 53.0473 106.233 53.1566 106.319 53.2659C106.404 53.3751 106.433 53.539 106.433 53.7029C106.433 53.8395 106.404 53.9761 106.347 54.1127C106.29 54.2219 106.205 54.3312 106.119 54.4131C106.034 54.4951 105.92 54.577 105.778 54.6317C105.636 54.6863 105.493 54.7409 105.323 54.7682C105.55 55.0414 105.749 55.2599 105.892 55.4238C106.034 55.5877 106.233 55.8062 106.433 56.0521C106.518 56.1614 106.603 56.2433 106.689 56.2979C106.774 56.3526 106.831 56.3799 106.916 56.4072C106.973 56.4345 107.03 56.4618 107.116 56.4618C107.201 56.4618 107.258 56.4618 107.315 56.4891V56.735H107.372ZM104.924 55.2326C104.839 55.1233 104.753 55.0414 104.668 54.9321H104.184V56.1887C104.184 56.2433 104.184 56.2979 104.212 56.3526C104.241 56.4072 104.298 56.4345 104.383 56.4618C104.412 56.4891 104.497 56.4891 104.582 56.5165C104.696 56.5165 104.753 56.5165 104.839 56.5438V56.735H102.903V56.5438C102.96 56.5438 103.017 56.5438 103.131 56.5165C103.216 56.5165 103.302 56.4891 103.33 56.4618C103.387 56.4345 103.444 56.4072 103.472 56.3526C103.501 56.2979 103.501 56.2433 103.501 56.1887V53.3478C103.501 53.2932 103.501 53.2385 103.472 53.1839C103.444 53.1293 103.387 53.102 103.302 53.0746C103.245 53.0473 103.188 53.0473 103.102 53.02C103.017 53.02 102.932 52.9927 102.875 52.9927V52.8015H104.896V53.02C104.839 53.02 104.782 53.02 104.725 53.02H104.184V54.7409H104.611C104.725 54.7409 104.839 54.7409 104.924 54.7136V55.2326Z" fill="#25408F"/>
  <path fill-rule="evenodd" clip-rule="evenodd" d="M124.677 56.7897H122.77V56.5985C122.941 56.5985 123.083 56.5712 123.197 56.5439C123.311 56.5166 123.368 56.4893 123.368 56.4346C123.368 56.4346 123.368 56.4073 123.368 56.38C123.368 56.3527 123.368 56.3254 123.368 56.3254L122.998 55.4513H122.201V55.2054H122.884L122.201 53.6757V52.9655C122.23 52.9109 122.258 52.8563 122.258 52.8016H122.514L124.023 56.2161C124.051 56.2981 124.08 56.3527 124.137 56.38C124.193 56.4346 124.222 56.4619 124.307 56.5166C124.364 56.5439 124.421 56.5712 124.507 56.5712C124.592 56.5985 124.649 56.5985 124.706 56.5985V56.7897H124.677ZM122.144 55.4239H121.347C121.29 55.5605 121.233 55.6698 121.205 55.7791C121.176 55.8883 121.148 55.9703 121.091 56.0522C121.063 56.1342 121.034 56.1888 121.034 56.2434C121.034 56.2981 121.034 56.3254 121.034 56.3527C121.034 56.4346 121.091 56.4893 121.233 56.5166C121.347 56.5712 121.518 56.5712 121.689 56.5985V56.7897H119.981V56.5985C120.038 56.5985 120.095 56.5712 120.18 56.5712C120.266 56.5439 120.323 56.5166 120.379 56.4893C120.465 56.4346 120.522 56.38 120.579 56.3254C120.636 56.2707 120.664 56.1888 120.721 56.1068C120.949 55.6152 121.205 55.0688 121.489 54.4406C121.717 53.8943 121.945 53.4026 122.144 52.9655V53.6757V53.6484L121.461 55.1781H122.144V55.4239Z" fill="#25408F"/>
  <path fill-rule="evenodd" clip-rule="evenodd" d="M164.412 56.7897H162.505V56.5985C162.676 56.5985 162.818 56.5712 162.932 56.5439C163.046 56.5166 163.102 56.4893 163.102 56.4346C163.102 56.4346 163.102 56.4073 163.102 56.38C163.102 56.3527 163.102 56.3254 163.102 56.3254L162.732 55.4513H161.935V55.2054H162.619L161.935 53.6757V52.9655C161.964 52.9109 161.992 52.8563 161.992 52.8016H162.249L163.786 56.2161C163.814 56.2981 163.843 56.3527 163.899 56.38C163.956 56.4346 164.013 56.4619 164.07 56.5166C164.127 56.5439 164.184 56.5712 164.269 56.5712C164.355 56.5985 164.412 56.5985 164.469 56.5985V56.7897H164.412ZM161.879 55.4239H161.082C161.025 55.5605 160.968 55.6698 160.939 55.7791C160.911 55.8883 160.882 55.9703 160.825 56.0522C160.797 56.1342 160.768 56.1888 160.768 56.2434C160.768 56.2981 160.768 56.3254 160.768 56.3527C160.768 56.4346 160.825 56.4893 160.968 56.5166C161.082 56.5712 161.252 56.5712 161.423 56.5985V56.7897H159.687V56.5985C159.744 56.5985 159.801 56.5712 159.886 56.5712C159.972 56.5439 160.028 56.5166 160.085 56.4893C160.171 56.4346 160.228 56.38 160.285 56.3254C160.342 56.2707 160.37 56.1888 160.427 56.1068C160.655 55.6152 160.911 55.0688 161.195 54.4406C161.423 53.8943 161.651 53.4026 161.85 52.9655V53.6757V53.6484L161.167 55.1781H161.85V55.4239H161.879Z" fill="#25408F"/>
  <path fill-rule="evenodd" clip-rule="evenodd" d="M122.941 48.0485H124.564L124.62 47.5022L124.99 45.153H121.888L121.404 48.0485H122.941ZM125.104 44.5793L125.19 44.115H122.087L122.002 44.5793H125.104ZM125.275 43.5413L125.816 40.2088H128.691L128.15 43.5413H131.252C131.452 42.0663 131.708 40.2088 131.708 40.2088H134.696L135.009 43.5413H137.856L137.742 37.8323L134.583 37.805L132.22 37.8323L132.505 35.1826L129.459 35.1553L129.032 37.8323H126.243C126.727 35.9748 126.869 36.1114 128.577 36.4392L129.004 34.1719C125.275 33.5437 123.852 34.609 123.197 37.8323H121.803L121.404 40.2088H122.742L122.173 43.5413H125.275ZM128.064 44.115L127.979 44.5793H131.11C131.138 44.4428 131.167 44.2789 131.167 44.115H128.064ZM127.894 45.153L127.837 45.6447C127.837 45.6447 127.581 47.6661 129.175 48.0212C130.768 48.3763 133.273 48.0485 133.273 48.0485L133.729 45.7266L131.736 45.8905C131.736 45.8905 130.996 45.8905 131.053 45.153H127.894ZM135.095 44.115L135.152 44.5793H140.104L140.332 44.115H138.083L137.941 44.4701V44.115H135.095ZM135.209 45.153L135.493 48.0485H138.567L139.877 45.153H135.209ZM140.56 43.5413L141.414 41.6292L141.527 43.5413H143.805L143.52 37.8323H140.731L138.311 43.5413H140.56ZM141.613 44.115L141.641 44.5793H146.679L146.879 44.115H144.061L143.89 44.5247L143.861 44.115H141.613ZM141.67 45.153L141.869 48.0485H145.142L146.423 45.153H141.67ZM147.106 43.5413L149.611 37.8323H146.452L144.26 43.5413H147.106Z" fill="#25408F"/>
  <path fill-rule="evenodd" clip-rule="evenodd" d="M150.266 38.1055L149.896 40.7551C150.778 40.2088 154.877 38.9796 154.734 41.5473C153.71 41.52 152.713 41.5473 151.689 41.7658C150.522 42.039 149.469 42.4214 148.928 43.5414H152.713C152.713 43.5414 153.482 43.5414 153.824 43.4321C154.336 43.2682 154.393 43.1043 154.564 43.2409L154.621 43.5414H157.438C157.609 42.5307 157.78 41.6292 157.865 40.6186V40.5912V39.9357C157.524 37.0129 152.713 37.8597 150.266 38.1055ZM148.501 44.115C148.416 44.2516 148.33 44.4155 148.302 44.5794H151.404C151.49 44.4428 151.603 44.2789 151.746 44.115H148.501ZM154.45 44.115C154.45 44.2516 154.45 44.3882 154.393 44.5794H157.239C157.268 44.4155 157.296 44.2789 157.324 44.115H154.45ZM148.188 45.153C148.102 46.0271 148.273 46.9558 148.871 47.5841C149.953 48.6767 151.973 48.9499 153.909 46.9012L153.767 48.0485H156.784C156.869 47.1471 156.983 46.0817 157.125 45.153H154.279C153.966 45.8086 153.397 46.191 152.6 46.191C151.888 46.191 151.347 45.8086 151.319 45.153H148.188Z" fill="#25408F"/>
  <path fill-rule="evenodd" clip-rule="evenodd" d="M159.801 37.8324H162.761L162.647 39.6079C163.729 38.4333 164.81 38.1056 166.262 38.0509L165.721 40.8371C163.956 40.564 162.391 40.3728 162.163 41.6293L161.822 43.5141H158.862L159.801 37.8324ZM161.765 44.115L161.708 44.5794H158.748L158.805 44.115H161.765ZM161.651 45.153L161.252 48.0485H158.207L158.634 45.153H161.651Z" fill="#25408F"/>
  <path fill-rule="evenodd" clip-rule="evenodd" d="M105.949 41.7112L106.347 41.0829H110.161C110.361 41.2742 110.531 41.4927 110.645 41.7112H105.949ZM111.072 43.0224V43.596C110.816 46.7374 106.233 50.1792 100.398 47.1744L102.533 44.9345C107.173 48.0212 109.165 43.2136 106.49 43.077C105.294 42.9677 104.383 42.7219 103.7 42.3122H110.958C110.987 42.5307 111.044 42.7765 111.072 43.0224Z" fill="#25408F"/>
  <path fill-rule="evenodd" clip-rule="evenodd" d="M117.192 37.6412C113.264 37.7231 111.613 40.7552 111.414 43.5414H114.345C114.63 41.8751 115.171 39.9084 116.765 39.8264C118.245 39.7445 118.273 41.4107 117.903 43.5414H121.006C121.063 43.1043 121.12 42.6673 121.148 42.2302V41.3834C121.034 39.2801 120.066 37.5592 117.192 37.6412ZM111.385 44.115C111.385 44.2516 111.357 44.4428 111.357 44.5794H114.26C114.26 44.4428 114.289 44.2516 114.289 44.115H111.385ZM117.789 44.115C117.761 44.2516 117.647 44.4428 117.59 44.5794H120.693C120.75 44.4428 120.807 44.2516 120.835 44.0877L117.789 44.115ZM111.357 45.153C111.784 49.7693 119.013 49.0318 120.465 45.153H117.448C116.907 46.4095 114.63 46.9285 114.26 45.153H111.357Z" fill="#25408F"/>
  <path fill-rule="evenodd" clip-rule="evenodd" d="M170.304 43.5414H174.658C174.858 42.8312 174.943 42.2029 175 41.6566V40.6186C174.772 38.2694 173.008 37.6957 171.214 37.7504C170.901 37.7504 170.588 37.7777 170.304 37.8323V39.8264C171.186 39.5532 172.068 39.8264 172.154 40.8098C172.182 41.0283 172.154 41.3288 172.182 41.6839H170.304V43.5414ZM165.266 43.5414H170.304V41.6566H168.425C168.653 41.1376 168.937 40.6732 169.336 40.3454C169.62 40.0995 169.962 39.9083 170.304 39.7991V37.8323C166.973 38.2694 165.721 40.6186 165.266 43.5414Z" fill="#25408F"/>
  <path fill-rule="evenodd" clip-rule="evenodd" d="M168.283 44.1149V44.5793H165.152V44.1149H168.283Z" fill="#25408F"/>
  <path fill-rule="evenodd" clip-rule="evenodd" d="M168.453 45.153C168.624 46.4915 172.552 46.6281 173.833 45.153H174.146L173.833 47.5022C171.584 48.9226 165.636 49.3323 165.209 45.153H168.453Z" fill="#25408F"/>
  <path fill-rule="evenodd" clip-rule="evenodd" d="M82.239 34.2266H85.2561L84.8576 36.5758H81.8405L82.239 34.2266Z" fill="#F99D1C"/>
  <path fill-rule="evenodd" clip-rule="evenodd" d="M69.7722 34.7729H73.2162L74.2978 43.5414H71.2238L69.7722 34.7729ZM74.4971 43.5414L78.5388 34.7456L81.8121 34.7729L77.5426 43.5414H74.4971ZM77.258 44.115L77.0303 44.5794H71.3946L71.3092 44.115H77.258ZM76.7457 45.153L75.351 48.0212L71.9639 48.0485L71.48 45.153H76.7457Z" fill="#F99D1C"/>
  <path fill-rule="evenodd" clip-rule="evenodd" d="M81.5844 37.7776L80.759 43.5413H83.7192L84.5731 37.8323L81.5844 37.7776ZM80.6736 44.115L80.6167 44.5793H83.5769L83.6338 44.115H80.6736ZM80.5313 45.153L80.1044 48.0758H83.0361L83.463 45.1257H80.5313V45.153Z" fill="#F99D1C"/>
  <path fill-rule="evenodd" clip-rule="evenodd" d="M96.5274 35.1827L95.3604 43.5414H98.1498C98.349 42.039 98.6052 40.2088 98.6052 40.2088H101.053L101.423 37.8051H99.0891L99.3452 35.1827H96.5274ZM95.275 44.115L95.2181 44.5794H98.0359C98.0644 44.4155 98.0929 44.2789 98.0929 44.115H95.275ZM95.1327 45.153L95.0758 45.5354C95.0758 45.5354 94.8481 47.5295 96.3851 47.8573C97.9221 48.2124 99.7722 48.0212 99.7722 48.0212L99.9999 45.8086C99.4591 45.8632 97.8652 46.273 97.9506 45.3442C97.9506 45.2896 97.9506 45.235 97.979 45.153H95.1327Z" fill="#F99D1C"/>
  <path fill-rule="evenodd" clip-rule="evenodd" d="M109.706 37.5319L111.869 35.4832C108.283 34.172 103.985 33.4072 102.22 38.0509C101.992 38.9523 101.992 39.8264 102.22 40.5367H109.421C108.767 40.1542 107.884 39.8538 106.774 39.7445C103.444 39.2255 105.323 35.1827 109.706 37.5319ZM102.448 41.083C102.562 41.3015 102.732 41.52 102.932 41.7112H105.949L106.347 41.083H102.448Z" fill="#F99D1C"/>
  <path fill-rule="evenodd" clip-rule="evenodd" d="M89.7819 43.5414H94.1367C94.3359 42.8312 94.4498 42.2029 94.5067 41.6293V40.5913C94.279 38.2421 92.4858 37.6684 90.7211 37.7231C90.408 37.7231 90.0949 37.7504 89.8103 37.805V39.7991C90.6927 39.5259 91.575 39.7991 91.6604 40.7825C91.6889 41.001 91.6604 41.3015 91.6604 41.6566H89.7819V43.5414ZM84.7439 43.5414H89.7819V41.6566H87.9318C88.1595 41.1376 88.4441 40.6732 88.8426 40.3454C89.1272 40.0996 89.4688 39.9084 89.7819 39.8264V37.8323C86.4801 38.2967 85.1993 40.6186 84.7439 43.5414Z" fill="#F99D1C"/>
  <path d="M87.7893 44.1149H84.6584V44.6067H87.7893V44.1149Z" fill="#F99D1C"/>
  <path fill-rule="evenodd" clip-rule="evenodd" d="M87.9317 45.153C88.1025 46.4915 92.0304 46.6281 93.3112 45.153H93.5958L93.3112 47.5022C91.0626 48.9226 85.1139 49.3323 84.687 45.153H87.9317Z" fill="#F99D1C"/>
  <path fill-rule="evenodd" clip-rule="evenodd" d="M71.4232 64.7932L71.7648 62.9357L70.4839 59.9582H71.0817L71.6794 61.3786C71.7932 61.6245 71.9071 61.9523 72.0779 62.362C72.2202 62.0615 72.391 61.7338 72.6471 61.3786L73.6149 59.9582H74.2695L72.3056 62.963L71.9925 64.7658H71.4232V64.7932ZM73.2733 63.4547C73.2733 62.8264 73.4156 62.3074 73.7287 61.8703C74.0134 61.4333 74.4118 61.2147 74.9242 61.2147C75.2657 61.2147 75.5504 61.3513 75.7781 61.5972C76.0058 61.843 76.1196 62.2254 76.1196 62.6898C76.1196 63.1269 76.0342 63.5093 75.8919 63.8371C75.7496 64.1649 75.5504 64.4381 75.2942 64.6019C75.038 64.7658 74.7819 64.8478 74.5257 64.8478C74.1841 64.8478 73.871 64.7112 73.6433 64.4654C73.3872 64.2468 73.2733 63.8917 73.2733 63.4547ZM73.7857 63.4C73.7857 63.7278 73.8426 63.9737 73.9849 64.1376C74.1272 64.3015 74.298 64.3834 74.4972 64.3834C74.668 64.3834 74.8103 64.3288 74.9811 64.1922C75.1519 64.0556 75.2942 63.8644 75.4081 63.5639C75.5219 63.2635 75.5788 62.963 75.5788 62.6625C75.5788 62.3347 75.5219 62.0889 75.3796 61.8976C75.2373 61.7338 75.0665 61.6245 74.8673 61.6245C74.6965 61.6245 74.5257 61.6791 74.3549 61.8157C74.1841 61.9523 74.0418 62.1435 73.928 62.444C73.8426 62.7718 73.7857 63.0996 73.7857 63.4ZM78.4251 64.1649C78.0551 64.6293 77.7136 64.8751 77.3151 64.8751C77.0874 64.8751 76.9166 64.7932 76.7743 64.6566C76.632 64.52 76.5466 64.3288 76.5466 64.0829C76.5466 63.919 76.575 63.6732 76.632 63.3181L77.002 61.2967H77.5143L77.1158 63.5366C77.0874 63.7278 77.0589 63.8644 77.0589 63.9737C77.0589 64.1103 77.0874 64.2195 77.1728 64.3015C77.2297 64.3834 77.3435 64.4107 77.4858 64.4107C77.6566 64.4107 77.8274 64.3288 78.0266 64.1922C78.1974 64.0556 78.3397 63.8917 78.4251 63.6732C78.5105 63.4547 78.5959 63.1815 78.6528 62.8264L78.9375 61.324H79.4498L78.8236 64.8205H78.3397L78.4251 64.1649ZM79.5921 64.7932L80.2183 61.2967H80.6737L80.5599 62.0069C80.8729 61.4879 81.1576 61.2147 81.4707 61.2147C81.5845 61.2147 81.6984 61.2694 81.8407 61.3513L81.6414 61.8976C81.5561 61.8157 81.4707 61.7884 81.3568 61.7884C81.186 61.7884 80.9868 61.8976 80.816 62.1435C80.6168 62.3893 80.4745 62.7991 80.3606 63.4L80.1044 64.7932H79.5921ZM86.3948 63.0996L86.9356 63.1815C86.7648 63.7551 86.5086 64.1649 86.1671 64.4381C85.8255 64.7112 85.4555 64.8478 85.057 64.8478C84.5731 64.8478 84.1747 64.6839 83.8616 64.3288C83.5485 63.9737 83.4062 63.4547 83.4062 62.7718C83.4062 61.9796 83.6054 61.2967 83.9754 60.7504C84.3739 60.1494 84.9147 59.8489 85.5693 59.8489C85.9963 59.8489 86.3378 59.9855 86.6225 60.2587C86.9071 60.5318 87.0779 60.887 87.1063 61.3786L86.594 61.4333C86.4802 60.7504 86.1671 60.3953 85.5978 60.3953C85.1139 60.3953 84.7155 60.6411 84.4308 61.1055C84.1177 61.5699 83.9754 62.1435 83.9754 62.7991C83.9754 63.2908 84.0893 63.6732 84.2885 63.9464C84.4878 64.1922 84.7724 64.3288 85.0855 64.3288C85.3701 64.3288 85.5978 64.2195 85.8255 64.0283C86.1101 63.8098 86.2809 63.5093 86.3948 63.0996ZM87.3625 63.4547C87.3625 62.8264 87.5048 62.3074 87.8179 61.8703C88.1026 61.4333 88.501 61.2147 89.0134 61.2147C89.3549 61.2147 89.6396 61.3513 89.8673 61.5972C90.095 61.843 90.2088 62.2254 90.2088 62.6898C90.2088 63.1269 90.1234 63.5093 89.9811 63.8371C89.8388 64.1649 89.6396 64.4381 89.3834 64.6019C89.1272 64.7658 88.8711 64.8478 88.6149 64.8478C88.2733 64.8478 87.9602 64.7112 87.7325 64.4654C87.4764 64.2468 87.3625 63.8917 87.3625 63.4547ZM87.8748 63.4C87.8748 63.7278 87.9318 63.9737 88.0741 64.1376C88.2164 64.3015 88.3872 64.3834 88.5864 64.3834C88.7572 64.3834 88.8995 64.3288 89.0703 64.1922C89.2411 64.0556 89.3834 63.8644 89.4972 63.5639C89.6111 63.2635 89.668 62.963 89.668 62.6625C89.668 62.3347 89.6111 62.0889 89.4688 61.8976C89.3265 61.7338 89.1557 61.6245 88.9564 61.6245C88.7857 61.6245 88.6149 61.6791 88.4441 61.8157C88.2733 61.9523 88.131 62.1435 88.0172 62.444C87.9318 62.7718 87.8748 63.0996 87.8748 63.4ZM90.4365 64.7932L91.2904 59.9582H91.8027L90.9489 64.7932H90.4365ZM91.7174 64.7932L92.5712 59.9582H93.0836L92.2297 64.7932H91.7174ZM95.0475 64.3561C94.8483 64.5473 94.6775 64.6839 94.5067 64.7658C94.336 64.8478 94.1652 64.8751 93.9944 64.8751C93.7382 64.8751 93.5105 64.7932 93.3398 64.6019C93.169 64.4107 93.0836 64.1649 93.0836 63.8644C93.0836 63.6459 93.1405 63.4547 93.2259 63.2908C93.3113 63.1269 93.4536 62.9903 93.6528 62.9083C93.7382 62.8537 93.8521 62.8264 93.9944 62.7991C94.1367 62.7718 94.279 62.7444 94.4213 62.7444C94.5637 62.7444 94.6491 62.7444 94.7629 62.7444C94.8483 62.7444 94.9337 62.7171 95.0191 62.7171C95.1329 62.6898 95.2183 62.6625 95.3037 62.6352C95.3322 62.4713 95.3606 62.3347 95.3606 62.2254C95.3606 62.0889 95.3037 61.9796 95.1898 61.8703C95.076 61.7884 94.9052 61.7338 94.706 61.7338C94.279 61.7338 94.0229 61.9523 93.8805 62.362L93.3682 62.3074C93.5959 61.5972 94.0513 61.2421 94.7344 61.2421C95.076 61.2421 95.3606 61.324 95.5599 61.4879C95.7591 61.6518 95.873 61.8703 95.873 62.1435C95.873 62.3347 95.8445 62.5532 95.816 62.7991L95.6453 63.6732C95.5883 63.9464 95.5599 64.1922 95.5599 64.3561C95.5599 64.4107 95.5599 64.4927 95.5599 64.5746C95.5599 64.6566 95.5883 64.7385 95.6168 64.8478H95.1045C95.076 64.7658 95.076 64.7112 95.076 64.6566C95.0475 64.52 95.0475 64.4381 95.0475 64.3561ZM95.2183 63.0176C95.1045 63.0722 94.8768 63.1269 94.5921 63.1542C94.279 63.1815 94.0798 63.2361 93.9659 63.2635C93.8521 63.3181 93.7667 63.4 93.7098 63.482C93.6528 63.5913 93.6244 63.7005 93.6244 63.8098C93.6244 63.9737 93.6813 64.1376 93.7667 64.2195C93.8805 64.3288 93.9944 64.3834 94.1652 64.3834C94.336 64.3834 94.4783 64.3288 94.6206 64.2468C94.7629 64.1649 94.9052 64.001 94.9906 63.8371C95.1045 63.6732 95.1614 63.4 95.2183 63.0176ZM96.2145 64.7932L97.0684 59.9582H97.5807L97.2676 61.6791C97.4384 61.5152 97.5807 61.3786 97.7231 61.324C97.8654 61.2421 97.9792 61.2147 98.1215 61.2147C98.4062 61.2147 98.6339 61.324 98.8331 61.5699C99.0324 61.8157 99.1177 62.1708 99.1177 62.6352C99.1177 62.8537 99.0893 63.0722 99.0608 63.2635C99.0324 63.4547 98.9754 63.6459 98.89 63.8371C98.7477 64.1922 98.5485 64.4381 98.3208 64.6293C98.0931 64.7932 97.8654 64.8751 97.6661 64.8751C97.2676 64.8751 96.983 64.6293 96.8122 64.1376L96.6984 64.7932H96.2145ZM96.983 63.3454V63.482C96.983 63.7825 97.0399 64.001 97.1538 64.1649C97.2676 64.3288 97.4384 64.3834 97.6092 64.3834C97.7515 64.3834 97.8938 64.3288 98.0361 64.2195C98.1785 64.1103 98.2923 63.8917 98.4346 63.5913C98.5485 63.2908 98.6054 62.963 98.6054 62.6625C98.6054 62.362 98.5485 62.1162 98.4346 61.9523C98.3208 61.7884 98.15 61.7064 97.9792 61.7064C97.8084 61.7064 97.6661 61.7884 97.4953 61.9523C97.353 62.1162 97.2107 62.362 97.0969 62.7171C97.0684 62.8537 97.0399 62.963 97.0115 63.0722C96.983 63.1815 96.983 63.2635 96.983 63.3454ZM99.5162 63.4547C99.5162 62.8264 99.6585 62.3074 99.9716 61.8703C100.256 61.4333 100.655 61.2147 101.167 61.2147C101.509 61.2147 101.793 61.3513 102.021 61.5972C102.249 61.843 102.363 62.2254 102.363 62.6898C102.363 63.1269 102.277 63.5093 102.135 63.8371C101.993 64.1649 101.793 64.4381 101.537 64.6019C101.281 64.7658 101.025 64.8478 100.769 64.8478C100.427 64.8478 100.114 64.7112 99.8862 64.4654C99.6301 64.2468 99.5162 63.8917 99.5162 63.4547ZM100.029 63.4C100.029 63.7278 100.085 63.9737 100.228 64.1376C100.37 64.3015 100.541 64.3834 100.74 64.3834C100.911 64.3834 101.053 64.3288 101.224 64.1922C101.395 64.0556 101.537 63.8644 101.651 63.5639C101.765 63.2635 101.822 62.963 101.822 62.6625C101.822 62.3347 101.765 62.0889 101.622 61.8976C101.48 61.7338 101.309 61.6245 101.11 61.6245C100.939 61.6245 100.769 61.6791 100.598 61.8157C100.427 61.9523 100.285 62.1435 100.171 62.444C100.085 62.7718 100.029 63.0996 100.029 63.4ZM102.619 64.7932L103.245 61.2967H103.7L103.586 62.0069C103.9 61.4879 104.184 61.2147 104.497 61.2147C104.611 61.2147 104.725 61.2694 104.867 61.3513L104.668 61.8976C104.583 61.8157 104.497 61.7884 104.383 61.7884C104.213 61.7884 104.013 61.8976 103.843 62.1435C103.643 62.3893 103.501 62.7991 103.387 63.4L103.131 64.7932H102.619ZM106.547 64.3561C106.347 64.5473 106.177 64.6839 106.006 64.7658C105.835 64.8478 105.664 64.8751 105.493 64.8751C105.237 64.8751 105.01 64.7932 104.839 64.6019C104.668 64.4107 104.583 64.1649 104.583 63.8644C104.583 63.6459 104.64 63.4547 104.725 63.2908C104.81 63.1269 104.953 62.9903 105.152 62.9083C105.237 62.8537 105.351 62.8264 105.493 62.7991C105.636 62.7718 105.778 62.7444 105.92 62.7444C106.063 62.7444 106.148 62.7444 106.262 62.7444C106.347 62.7444 106.433 62.7171 106.518 62.7171C106.632 62.6898 106.717 62.6625 106.803 62.6352C106.831 62.4713 106.86 62.3347 106.86 62.2254C106.86 62.0889 106.803 61.9796 106.689 61.8703C106.575 61.7884 106.404 61.7338 106.205 61.7338C105.778 61.7338 105.522 61.9523 105.38 62.362L104.867 62.3074C105.095 61.5972 105.55 61.2421 106.233 61.2421C106.575 61.2421 106.86 61.324 107.059 61.4879C107.258 61.6518 107.372 61.8703 107.372 62.1435C107.372 62.3347 107.344 62.5532 107.315 62.7991L107.144 63.6732C107.087 63.9464 107.059 64.1922 107.059 64.3561C107.059 64.4107 107.059 64.4927 107.059 64.5746C107.059 64.6566 107.087 64.7385 107.116 64.8478H106.604C106.575 64.7658 106.575 64.7112 106.575 64.6566C106.575 64.52 106.547 64.4381 106.547 64.3561ZM106.746 63.0176C106.632 63.0722 106.404 63.1269 106.12 63.1542C105.807 63.1815 105.607 63.2361 105.493 63.2635C105.38 63.3181 105.294 63.4 105.237 63.482C105.18 63.5913 105.152 63.7005 105.152 63.8098C105.152 63.9737 105.209 64.1376 105.294 64.2195C105.408 64.3288 105.522 64.3834 105.693 64.3834C105.863 64.3834 106.006 64.3288 106.148 64.2468C106.29 64.1649 106.433 64.001 106.518 63.8371C106.604 63.6732 106.689 63.4 106.746 63.0176ZM108.937 64.3015L108.852 64.7932C108.738 64.8205 108.624 64.8478 108.511 64.8478C108.311 64.8478 108.169 64.7932 108.055 64.7112C107.941 64.6019 107.884 64.4927 107.884 64.3288C107.884 64.2468 107.913 64.0829 107.97 63.8098L108.34 61.7884H107.941L108.027 61.324H108.425L108.567 60.4772L109.165 60.0675L108.937 61.324H109.421L109.336 61.7884H108.852L108.511 63.7278C108.454 64.001 108.454 64.1376 108.454 64.1649C108.454 64.2468 108.482 64.3015 108.511 64.3288C108.539 64.3561 108.596 64.3834 108.681 64.3834C108.738 64.3561 108.852 64.3288 108.937 64.3015ZM110.076 60.6411L110.19 59.9582H110.702L110.588 60.6411H110.076ZM109.336 64.7932L109.962 61.2967H110.474L109.848 64.7932H109.336ZM111.385 64.7932L110.901 61.2967H111.385L111.641 63.2088C111.67 63.4274 111.698 63.7825 111.755 64.2468C111.812 64.1103 111.869 63.9737 111.926 63.8371C111.983 63.7005 112.068 63.5366 112.125 63.4L113.122 61.2967H113.662L111.955 64.7932H111.385ZM115.683 63.6186L116.167 63.6732C116.082 64.0283 115.882 64.3015 115.598 64.5746C115.342 64.7932 115.085 64.9024 114.772 64.9024C114.573 64.9024 114.374 64.8478 114.175 64.7385C114.004 64.6293 113.862 64.4654 113.748 64.2195C113.634 64.001 113.577 63.7278 113.577 63.4274C113.577 63.2088 113.605 63.0176 113.634 62.8264C113.662 62.6352 113.719 62.444 113.805 62.2801C113.975 61.925 114.175 61.6791 114.402 61.5152C114.63 61.3513 114.886 61.2694 115.171 61.2694C115.512 61.2694 115.797 61.406 116.025 61.6518C116.252 61.8976 116.366 62.2528 116.366 62.7171C116.366 62.9083 116.366 63.0722 116.338 63.2361H114.146V63.4274C114.146 63.7551 114.203 64.001 114.345 64.1649C114.488 64.3288 114.63 64.4107 114.801 64.4107C114.972 64.4107 115.142 64.3561 115.313 64.2195C115.456 64.0556 115.598 63.8644 115.683 63.6186ZM114.232 62.7444H115.911V62.6352C115.911 62.3347 115.854 62.0889 115.712 61.925C115.598 61.7611 115.427 61.6791 115.228 61.6791C115.029 61.6791 114.829 61.7611 114.63 61.9523C114.431 62.1162 114.317 62.3893 114.232 62.7444ZM118.359 64.7932L119.213 59.9582H120.465C120.75 59.9582 120.949 59.9855 121.091 60.0128C121.29 60.0675 121.49 60.1767 121.66 60.3406C121.831 60.5045 121.974 60.7231 122.059 60.9962C122.116 61.1328 122.144 61.2694 122.173 61.4333C122.201 61.5972 122.201 61.7611 122.201 61.925C122.201 62.3893 122.116 62.8264 121.974 63.1815C121.831 63.5639 121.632 63.8644 121.433 64.1103C121.205 64.3561 120.949 64.52 120.664 64.6293C120.437 64.7112 120.18 64.7385 119.867 64.7385H118.359V64.7932ZM119.013 64.2468H119.668C119.981 64.2468 120.237 64.2195 120.437 64.1649C120.636 64.1103 120.835 63.9737 121.006 63.8098C121.177 63.6186 121.319 63.3727 121.433 63.0449C121.547 62.7171 121.632 62.3347 121.632 61.925C121.632 61.5699 121.575 61.2694 121.461 61.0508C121.347 60.8323 121.205 60.6957 121.006 60.6138C120.863 60.5592 120.664 60.5318 120.38 60.5318H119.64L119.013 64.2468ZM124.649 63.6186L125.133 63.6732C125.048 64.0283 124.848 64.3015 124.564 64.5746C124.308 64.7932 124.051 64.9024 123.738 64.9024C123.539 64.9024 123.34 64.8478 123.141 64.7385C122.97 64.6293 122.827 64.4654 122.714 64.2195C122.6 64.001 122.543 63.7278 122.543 63.4274C122.543 63.2088 122.571 63.0176 122.6 62.8264C122.628 62.6352 122.685 62.444 122.771 62.2801C122.941 61.925 123.141 61.6791 123.368 61.5152C123.596 61.3513 123.852 61.2694 124.137 61.2694C124.478 61.2694 124.763 61.406 124.991 61.6518C125.218 61.8976 125.332 62.2528 125.332 62.7171C125.332 62.9083 125.332 63.0722 125.304 63.2361H123.112V63.4274C123.112 63.7551 123.169 64.001 123.311 64.1649C123.454 64.3288 123.596 64.4107 123.767 64.4107C123.937 64.4107 124.108 64.3561 124.279 64.2195C124.421 64.0556 124.564 63.8644 124.649 63.6186ZM123.169 62.7444H124.848V62.6352C124.848 62.3347 124.791 62.0889 124.649 61.925C124.535 61.7611 124.364 61.6791 124.165 61.6791C123.966 61.6791 123.767 61.7611 123.567 61.9523C123.397 62.1162 123.254 62.3893 123.169 62.7444ZM126.414 64.7932L125.93 61.2967H126.414L126.67 63.2088C126.698 63.4274 126.727 63.7825 126.784 64.2468C126.841 64.1103 126.898 63.9737 126.955 63.8371C127.012 63.7005 127.097 63.5366 127.154 63.4L128.15 61.2967H128.691L126.983 64.7932H126.414ZM130.74 63.6186L131.224 63.6732C131.139 64.0283 130.939 64.3015 130.655 64.5746C130.399 64.7932 130.142 64.9024 129.829 64.9024C129.63 64.9024 129.431 64.8478 129.232 64.7385C129.061 64.6293 128.919 64.4654 128.805 64.2195C128.691 64.001 128.634 63.7278 128.634 63.4274C128.634 63.2088 128.662 63.0176 128.691 62.8264C128.719 62.6352 128.776 62.444 128.862 62.2801C129.032 61.925 129.232 61.6791 129.459 61.5152C129.687 61.3513 129.943 61.2694 130.228 61.2694C130.569 61.2694 130.854 61.406 131.082 61.6518C131.309 61.8976 131.423 62.2528 131.423 62.7171C131.423 62.9083 131.423 63.0722 131.395 63.2361H129.175V63.4274C129.175 63.7551 129.232 64.001 129.374 64.1649C129.516 64.3288 129.659 64.4107 129.829 64.4107C130 64.4107 130.171 64.3561 130.342 64.2195C130.512 64.0556 130.626 63.8644 130.74 63.6186ZM129.26 62.7444H130.939V62.6352C130.939 62.3347 130.882 62.0889 130.74 61.925C130.626 61.7611 130.456 61.6791 130.256 61.6791C130.057 61.6791 129.858 61.7611 129.659 61.9523C129.488 62.1162 129.345 62.3893 129.26 62.7444ZM131.708 64.7932L132.562 59.9582H133.074L132.22 64.7932H131.708ZM133.103 63.4547C133.103 62.8264 133.245 62.3074 133.558 61.8703C133.843 61.4333 134.241 61.2147 134.753 61.2147C135.095 61.2147 135.38 61.3513 135.607 61.5972C135.835 61.843 135.949 62.2254 135.949 62.6898C135.949 63.1269 135.864 63.5093 135.721 63.8371C135.579 64.1649 135.38 64.4381 135.123 64.6019C134.867 64.7658 134.611 64.8478 134.355 64.8478C134.013 64.8478 133.7 64.7112 133.473 64.4654C133.216 64.2468 133.103 63.8917 133.103 63.4547ZM133.615 63.4C133.615 63.7278 133.672 63.9737 133.814 64.1376C133.956 64.3015 134.127 64.3834 134.326 64.3834C134.497 64.3834 134.64 64.3288 134.81 64.1922C134.981 64.0556 135.123 63.8644 135.237 63.5639C135.351 63.2635 135.408 62.963 135.408 62.6625C135.408 62.3347 135.351 62.0889 135.209 61.8976C135.067 61.7338 134.896 61.6245 134.697 61.6245C134.526 61.6245 134.355 61.6791 134.184 61.8157C134.013 61.9523 133.871 62.1435 133.757 62.444C133.672 62.7718 133.615 63.0996 133.615 63.4ZM135.977 66.1317L136.831 61.2967H137.315L137.23 61.7884C137.4 61.5699 137.571 61.4333 137.714 61.3513C137.856 61.2694 137.998 61.2421 138.141 61.2421C138.425 61.2421 138.653 61.3513 138.852 61.5972C139.051 61.843 139.137 62.1981 139.137 62.6352C139.137 63.0722 139.051 63.482 138.909 63.8371C138.767 64.1922 138.539 64.4654 138.283 64.6566C138.084 64.8205 137.884 64.8751 137.657 64.8751C137.287 64.8751 137.03 64.6566 136.831 64.2468L136.49 66.1317H135.977ZM136.974 63.482C136.974 63.7825 137.03 64.001 137.173 64.1649C137.287 64.3288 137.457 64.4107 137.628 64.4107C137.771 64.4107 137.913 64.3561 138.027 64.2742C138.169 64.1376 138.311 63.919 138.425 63.5913C138.539 63.2635 138.596 62.963 138.596 62.6352C138.596 62.3347 138.539 62.1162 138.397 61.9523C138.283 61.7884 138.112 61.7064 137.941 61.7064C137.799 61.7064 137.657 61.7611 137.514 61.8976C137.372 62.0069 137.23 62.2254 137.116 62.5532C137.03 62.8264 136.974 63.1542 136.974 63.482ZM139.421 64.7932L140.048 61.2967H140.56L140.446 61.8703C140.645 61.6245 140.816 61.4333 140.958 61.3513C141.101 61.2694 141.271 61.2147 141.442 61.2147C141.613 61.2147 141.784 61.2694 141.898 61.3786C142.012 61.4879 142.097 61.6518 142.154 61.8703C142.296 61.6518 142.467 61.4879 142.638 61.3786C142.808 61.2694 142.979 61.2147 143.178 61.2147C143.406 61.2147 143.605 61.2694 143.719 61.406C143.862 61.5425 143.919 61.7338 143.919 61.9796C143.919 62.0889 143.89 62.2801 143.862 62.5259L143.463 64.7658H142.951L143.349 62.444C143.378 62.2528 143.406 62.1162 143.406 62.0342C143.406 61.925 143.378 61.8157 143.321 61.7611C143.264 61.7064 143.178 61.6791 143.065 61.6791C142.922 61.6791 142.78 61.7338 142.609 61.8157C142.467 61.925 142.325 62.0615 142.239 62.2254C142.154 62.3893 142.068 62.6625 141.983 63.0449L141.67 64.7385H141.158L141.585 62.3893C141.613 62.2254 141.641 62.1162 141.641 62.0342C141.641 61.925 141.613 61.8157 141.556 61.7611C141.499 61.6791 141.414 61.6518 141.328 61.6518C141.101 61.6518 140.901 61.7611 140.702 61.9796C140.503 62.1981 140.361 62.5532 140.247 63.0722L139.962 64.7112H139.421V64.7932ZM146.423 63.6186L146.907 63.6732C146.822 64.0283 146.623 64.3015 146.338 64.5746C146.082 64.7932 145.797 64.9024 145.512 64.9024C145.313 64.9024 145.114 64.8478 144.915 64.7385C144.744 64.6293 144.602 64.4654 144.488 64.2195C144.374 64.001 144.317 63.7278 144.317 63.4274C144.317 63.2088 144.345 63.0176 144.374 62.8264C144.402 62.6352 144.459 62.444 144.545 62.2801C144.715 61.925 144.915 61.6791 145.142 61.5152C145.37 61.3513 145.626 61.2694 145.911 61.2694C146.253 61.2694 146.537 61.406 146.765 61.6518C146.993 61.8976 147.106 62.2528 147.106 62.7171C147.106 62.9083 147.106 63.0722 147.078 63.2361H144.886V63.4274C144.886 63.7551 144.943 64.001 145.086 64.1649C145.228 64.3288 145.37 64.4107 145.541 64.4107C145.712 64.4107 145.882 64.3561 146.053 64.2195C146.196 64.0556 146.309 63.8644 146.423 63.6186ZM144.943 62.7444H146.623V62.6352C146.623 62.3347 146.566 62.0889 146.423 61.925C146.309 61.7611 146.139 61.6791 145.939 61.6791C145.74 61.6791 145.541 61.7611 145.342 61.9523C145.171 62.1162 145.029 62.3893 144.943 62.7444ZM147.419 64.7932L148.046 61.2967H148.501L148.387 61.8976C148.586 61.6518 148.786 61.4606 148.985 61.3513C149.156 61.2421 149.326 61.1874 149.497 61.1874C149.725 61.1874 149.924 61.2694 150.067 61.406C150.209 61.5425 150.294 61.7611 150.294 62.0342C150.294 62.1708 150.266 62.362 150.209 62.6352L149.839 64.7385H149.327L149.725 62.5259C149.753 62.3074 149.782 62.1435 149.782 62.0342C149.782 61.925 149.753 61.8157 149.668 61.7611C149.611 61.6791 149.497 61.6518 149.383 61.6518C149.127 61.6518 148.9 61.7611 148.7 61.9796C148.501 62.1981 148.33 62.5806 148.245 63.0996L147.96 64.7385H147.419V64.7932ZM151.803 64.3015L151.717 64.7932C151.604 64.8205 151.49 64.8478 151.376 64.8478C151.177 64.8478 151.034 64.7932 150.92 64.7112C150.807 64.6019 150.75 64.4927 150.75 64.3288C150.75 64.2468 150.778 64.0829 150.835 63.8098L151.205 61.7884H150.807L150.892 61.324H151.29L151.433 60.4772L152.03 60.0675L151.803 61.324H152.287L152.201 61.7884H151.717L151.376 63.7278C151.319 64.001 151.319 64.1376 151.319 64.1649C151.319 64.2468 151.347 64.3015 151.376 64.3288C151.404 64.3561 151.461 64.3834 151.547 64.3834C151.632 64.3561 151.717 64.3288 151.803 64.3015ZM153.881 64.7932L154.734 59.9582H156.471C156.755 59.9582 156.983 59.9855 157.125 60.0675C157.268 60.1494 157.41 60.286 157.495 60.4772C157.609 60.6684 157.638 60.887 157.638 61.1328C157.638 61.4606 157.552 61.7611 157.382 62.0615C157.211 62.362 157.012 62.5532 156.755 62.6625C156.499 62.7718 156.186 62.8264 155.788 62.8264H154.791L154.45 64.7932H153.881ZM154.877 62.2801H155.788C156.129 62.2801 156.357 62.2528 156.528 62.1708C156.698 62.0889 156.812 61.9523 156.926 61.7884C156.983 61.7064 157.012 61.5972 157.04 61.4879C157.068 61.3786 157.097 61.2694 157.097 61.1601C157.097 60.9962 157.068 60.8596 157.012 60.7504C156.955 60.6411 156.869 60.5865 156.784 60.5318C156.698 60.4772 156.499 60.4772 156.243 60.4772H155.19L154.877 62.2801ZM159.687 64.3561C159.488 64.5473 159.317 64.6839 159.146 64.7658C158.975 64.8478 158.805 64.8751 158.634 64.8751C158.378 64.8751 158.15 64.7932 157.979 64.6019C157.808 64.4107 157.723 64.1649 157.723 63.8644C157.723 63.6459 157.78 63.4547 157.865 63.2908C157.951 63.1269 158.093 62.9903 158.292 62.9083C158.378 62.8537 158.492 62.8264 158.634 62.7991C158.776 62.7718 158.919 62.7444 159.061 62.7444C159.203 62.7444 159.289 62.7444 159.402 62.7444C159.488 62.7444 159.573 62.7171 159.659 62.7171C159.772 62.6898 159.858 62.6625 159.943 62.6352C159.972 62.4713 160 62.3347 160 62.2254C160 62.0889 159.943 61.9796 159.829 61.8703C159.716 61.7884 159.545 61.7338 159.345 61.7338C158.919 61.7338 158.662 61.9523 158.52 62.362L158.008 62.3074C158.235 61.5972 158.691 61.2421 159.374 61.2421C159.716 61.2421 160 61.324 160.199 61.4879C160.399 61.6518 160.512 61.8703 160.512 62.1435C160.512 62.3347 160.484 62.5532 160.456 62.7991L160.285 63.6732C160.228 63.9464 160.199 64.1922 160.199 64.3561C160.199 64.4107 160.199 64.4927 160.199 64.5746C160.199 64.6566 160.228 64.7385 160.256 64.8478H159.744C159.715 64.7658 159.716 64.7112 159.716 64.6566C159.687 64.52 159.687 64.4381 159.687 64.3561ZM159.858 63.0176C159.744 63.0722 159.516 63.1269 159.232 63.1542C158.919 63.1815 158.719 63.2361 158.605 63.2635C158.492 63.3181 158.406 63.4 158.349 63.482C158.292 63.5913 158.264 63.7005 158.264 63.8098C158.264 63.9737 158.321 64.1376 158.406 64.2195C158.52 64.3288 158.634 64.3834 158.805 64.3834C158.975 64.3834 159.118 64.3288 159.26 64.2468C159.402 64.1649 159.545 64.001 159.63 63.8371C159.744 63.6732 159.801 63.4 159.858 63.0176ZM160.854 64.7932L161.48 61.2967H161.936L161.822 62.0069C162.135 61.4879 162.419 61.2147 162.733 61.2147C162.846 61.2147 162.96 61.2694 163.103 61.3513L162.903 61.8976C162.818 61.8157 162.704 61.7884 162.619 61.7884C162.448 61.7884 162.249 61.8976 162.078 62.1435C161.879 62.3893 161.736 62.7991 161.623 63.4L161.366 64.7932H160.854ZM163.985 64.3015L163.9 64.7932C163.786 64.8205 163.672 64.8478 163.558 64.8478C163.359 64.8478 163.216 64.7932 163.103 64.7112C162.989 64.6019 162.932 64.4927 162.932 64.3288C162.932 64.2468 162.96 64.0829 163.017 63.8098L163.387 61.7884H162.989L163.074 61.324H163.473L163.615 60.4772L164.213 60.0675L163.985 61.324H164.469L164.383 61.7884H163.9L163.558 63.7278C163.501 64.001 163.501 64.1376 163.501 64.1649C163.501 64.2468 163.53 64.3015 163.558 64.3288C163.586 64.3561 163.643 64.3834 163.729 64.3834C163.786 64.3561 163.871 64.3288 163.985 64.3015ZM164.383 64.7932L165.01 61.2967H165.465L165.351 61.8976C165.55 61.6518 165.75 61.4606 165.949 61.3513C166.12 61.2421 166.29 61.1874 166.461 61.1874C166.689 61.1874 166.888 61.2694 167.031 61.406C167.173 61.5425 167.258 61.7611 167.258 62.0342C167.258 62.1708 167.23 62.362 167.173 62.6352L166.803 64.7385H166.29L166.689 62.5259C166.717 62.3074 166.746 62.1435 166.746 62.0342C166.746 61.925 166.717 61.8157 166.632 61.7611C166.575 61.6791 166.461 61.6518 166.347 61.6518C166.091 61.6518 165.864 61.7611 165.664 61.9796C165.465 62.1981 165.294 62.5806 165.209 63.0996L164.924 64.7385H164.383V64.7932ZM169.763 63.6186L170.247 63.6732C170.161 64.0283 169.962 64.3015 169.678 64.5746C169.421 64.7932 169.165 64.9024 168.852 64.9024C168.653 64.9024 168.454 64.8478 168.254 64.7385C168.084 64.6293 167.941 64.4654 167.827 64.2195C167.714 64.001 167.657 63.7278 167.657 63.4274C167.657 63.2088 167.685 63.0176 167.714 62.8264C167.742 62.6352 167.799 62.444 167.884 62.2801C168.055 61.925 168.254 61.6791 168.482 61.5152C168.71 61.3513 168.966 61.2694 169.251 61.2694C169.592 61.2694 169.877 61.406 170.105 61.6518C170.332 61.8976 170.446 62.2528 170.446 62.7171C170.446 62.9083 170.446 63.0722 170.418 63.2361H168.226V63.4274C168.226 63.7551 168.283 64.001 168.425 64.1649C168.567 64.3288 168.71 64.4107 168.881 64.4107C169.051 64.4107 169.222 64.3561 169.393 64.2195C169.535 64.0556 169.678 63.8644 169.763 63.6186ZM168.311 62.7444H169.991V62.6352C169.991 62.3347 169.934 62.0889 169.791 61.925C169.678 61.7611 169.507 61.6791 169.308 61.6791C169.108 61.6791 168.909 61.7611 168.71 61.9523C168.511 62.1162 168.397 62.3893 168.311 62.7444ZM170.788 64.7932L171.414 61.2967H171.869L171.755 62.0069C172.068 61.4879 172.353 61.2147 172.666 61.2147C172.78 61.2147 172.894 61.2694 173.036 61.3513L172.837 61.8976C172.752 61.8157 172.666 61.7884 172.552 61.7884C172.382 61.7884 172.182 61.8976 172.012 62.1435C171.812 62.3893 171.67 62.7991 171.556 63.4L171.3 64.7932H170.788Z" fill="#19479A"/>
  <path d="M48.9658 34.3905H41.7362V41.438H48.9658V34.3905Z" fill="#F99D20"/>
  <path d="M57.4761 34.3905H50.2465V41.438H57.4761V34.3905Z" fill="#F99D20"/>
  <path d="M65.7874 34.3905H58.5578V41.438H65.7874V34.3905Z" fill="#21438F"/>
  <path d="M48.9659 55.6696C48.9659 56.7076 48.112 57.527 47.0589 57.527H43.7571C42.704 57.527 41.8501 56.6803 41.8501 55.6696V52.4737C41.8501 51.4357 42.704 50.6162 43.7571 50.6162H47.0589C48.112 50.6162 48.9659 51.463 48.9659 52.4737V55.6696Z" fill="#21438F"/>
  <path d="M57.4762 55.6696C57.4762 56.7076 56.5938 57.527 55.4838 57.527H52.0398C50.9297 57.527 50.0474 56.6803 50.0474 55.6696V52.4737C50.0474 51.4357 50.9297 50.6162 52.0398 50.6162H55.4838C56.5938 50.6162 57.4762 51.463 57.4762 52.4737V55.6696Z" fill="#21438F"/>
  <path d="M65.8729 55.6696C65.8729 56.7076 65.019 57.527 63.9659 57.527H60.6642C59.611 57.527 58.7571 56.6803 58.7571 55.6696V52.4737C58.7571 51.4357 59.611 50.6162 60.6642 50.6162H63.9659C65.019 50.6162 65.8729 51.463 65.8729 52.4737V55.6696Z" fill="#21438F"/>
  <path d="M40.5125 55.6696C40.5125 56.7076 39.6586 57.527 38.6054 57.527H35.3037C34.2506 57.527 33.3967 56.6803 33.3967 55.6696V52.4737C33.3967 51.4357 34.2506 50.6162 35.3037 50.6162H38.6054C39.6586 50.6162 40.5125 51.463 40.5125 52.4737V55.6696Z" fill="#F99D20"/>
  <path d="M32.1727 55.6696C32.1727 56.7076 31.3188 57.527 30.2657 57.527H26.964C25.9108 57.527 25.0569 56.6803 25.0569 55.6696V52.4737C25.0569 51.4357 25.9108 50.6162 26.964 50.6162H30.2657C31.3188 50.6162 32.1727 51.463 32.1727 52.4737V55.6696Z" fill="#F99D20"/>
  <path d="M40.797 48.7586C40.797 49.1683 40.427 49.5234 40 49.5234H34.0797C33.6528 49.5234 33.2828 49.1683 33.2828 48.7586V43.2681C33.2828 42.8584 33.6528 42.5033 34.0797 42.5033H39.9716C40.3985 42.5033 40.7685 42.8584 40.7685 43.2681V48.7586H40.797Z" fill="#F99D20"/>
  <path d="M49.0798 48.7586C49.0798 49.1683 48.7098 49.5234 48.2828 49.5234H42.391C41.964 49.5234 41.594 49.1683 41.594 48.7586V43.2681C41.594 42.8584 41.964 42.5033 42.391 42.5033H48.2828C48.7098 42.5033 49.0798 42.8584 49.0798 43.2681V48.7586Z" fill="#F99D20"/>
  <path d="M57.5334 48.7586C57.5334 49.1683 57.1634 49.5234 56.7364 49.5234H50.8446C50.4176 49.5234 50.0476 49.1683 50.0476 48.7586V43.2681C50.0476 42.8584 50.4176 42.5033 50.8446 42.5033H56.7364C57.1634 42.5033 57.5334 42.8584 57.5334 43.2681V48.7586Z" fill="#21438F"/>
  <path d="M65.9868 48.7586C65.9868 49.1683 65.6168 49.5234 65.1899 49.5234H59.298C58.8711 49.5234 58.501 49.1683 58.501 48.7586V43.2681C58.501 42.8584 58.8711 42.5033 59.298 42.5033H65.1899C65.6168 42.5033 65.9868 42.8584 65.9868 43.2681V48.7586Z" fill="#21438F"/>
  <path d="M40.6262 62.8537C40.6262 64.3834 39.3454 65.6126 37.7515 65.6126H36.1575C34.5636 65.6126 33.2828 64.3834 33.2828 62.8537V61.324C33.2828 59.7943 34.5636 58.5651 36.1575 58.5651H37.7515C39.3454 58.5651 40.6262 59.7943 40.6262 61.324V62.8537Z" fill="#21438F"/>
  <path d="M32.3434 62.8537C32.3434 64.3834 31.0626 65.6126 29.4687 65.6126H27.8748C26.2808 65.6126 25 64.3834 25 62.8537V61.324C25 59.7943 26.2808 58.5651 27.8748 58.5651H29.4687C31.0626 58.5651 32.3434 59.7943 32.3434 61.324V62.8537Z" fill="#F99D20"/>
  <path d="M49.0797 62.8537C49.0797 64.3834 47.7988 65.6126 46.2049 65.6126H44.611C43.017 65.6126 41.7362 64.3834 41.7362 62.8537V61.324C41.7362 59.7943 43.017 58.5651 44.611 58.5651H46.2049C47.7988 58.5651 49.0797 59.7943 49.0797 61.324V62.8537Z" fill="#21438F"/>
  <path d="M57.3908 62.8537C57.3908 64.3834 56.11 65.6126 54.516 65.6126H52.9221C51.3282 65.6126 50.0474 64.3834 50.0474 62.8537V61.324C50.0474 59.7943 51.3282 58.5651 52.9221 58.5651H54.516C56.11 58.5651 57.3908 59.7943 57.3908 61.324V62.8537Z" fill="#21438F"/>
  <path d="M65.9867 62.8537C65.9867 64.3834 64.7059 65.6126 63.1119 65.6126H61.518C59.9241 65.6126 58.6432 64.3834 58.6432 62.8537V61.324C58.6432 59.7943 59.9241 58.5651 61.518 58.5651H63.1119C64.7059 58.5651 65.9867 59.7943 65.9867 61.324V62.8537Z" fill="#21438F"/>
</svg>