<svg width="212" height="50" viewBox="0 0 212 50" fill="none" xmlns="http://www.w3.org/2000/svg">
<g clipPath="url(#clip0_507_3225)">
<path d="M78.1929 28.9121C78.2128 28.6824 78.2694 28.466 78.3593 28.2662C78.4492 28.0664 78.5657 27.89 78.7122 27.7402C78.8587 27.5903 79.0319 27.4705 79.2349 27.3873C79.438 27.3007 79.6644 27.2607 79.9141 27.2607C80.1838 27.2607 80.4268 27.304 80.6399 27.3939C80.853 27.4805 81.0361 27.607 81.1859 27.7735C81.3358 27.9399 81.4523 28.1397 81.5322 28.3761C81.6121 28.6125 81.652 28.8755 81.652 29.1651V29.3682C81.652 29.4248 81.6321 29.4714 81.5921 29.5114C81.5522 29.5513 81.5055 29.5713 81.4489 29.5713H78.8621V29.6179C78.872 29.9575 78.9753 30.2205 79.175 30.4036C79.3714 30.5868 79.6211 30.6766 79.9141 30.6766C80.1905 30.6766 80.3969 30.6367 80.5334 30.5601C80.6699 30.4835 80.7831 30.397 80.8663 30.3004C80.9063 30.2605 80.9429 30.2338 80.9729 30.2172C81.0028 30.2039 81.0494 30.1939 81.1094 30.1939H81.3358C81.3924 30.1939 81.4423 30.2139 81.4856 30.2538C81.5322 30.2938 81.5488 30.3404 81.5388 30.397C81.5222 30.4869 81.4822 30.5868 81.4123 30.6933C81.3424 30.7998 81.2392 30.903 81.1094 30.9929C80.9762 31.0862 80.8097 31.1627 80.6133 31.226C80.4135 31.2892 80.1838 31.3192 79.9175 31.3192C79.6678 31.3192 79.4414 31.2759 79.2416 31.186C79.0418 31.0995 78.8654 30.9796 78.7189 30.8265C78.5724 30.6733 78.4525 30.4935 78.3627 30.2838C78.2728 30.0774 78.2162 29.8476 78.1962 29.6046C78.1695 29.3749 78.1695 29.1418 78.1962 28.9121H78.1929ZM78.8621 28.9354H80.9762V28.9121C80.9762 28.6058 80.8796 28.3628 80.6865 28.1796C80.4934 27.9965 80.2371 27.9066 79.9141 27.9066C79.7676 27.9066 79.6345 27.9299 79.5079 27.9766C79.3814 28.0232 79.2716 28.0931 79.1783 28.1796C79.0818 28.2662 79.0085 28.3727 78.9519 28.4993C78.8953 28.6258 78.8654 28.7623 78.8621 28.9121V28.9354Z" fill="white"/>
<path d="M135.494 0H0V50H135.494V0Z" fill="#263238"/>
<path d="M211.177 0H135.494V50H211.177V0Z" fill="#1E88E5"/>
<path d="M107.821 2.08423C108.13 2.08423 108.397 2.19743 108.623 2.42049C108.849 2.64689 108.959 2.91323 108.959 3.22286V6.51891C108.959 6.82854 108.846 7.09821 108.623 7.32128C108.397 7.54767 108.13 7.65754 107.821 7.65754H104.188C103.879 7.65754 103.609 7.54434 103.386 7.32128C103.16 7.09488 103.05 6.82854 103.05 6.51891V3.22286C103.05 2.91323 103.163 2.64689 103.386 2.42049C103.612 2.1941 103.879 2.08423 104.188 2.08423H107.821Z" fill="white"/>
<path d="M176.631 2.08423C176.941 2.08423 177.207 2.19743 177.434 2.42049C177.66 2.64689 177.77 2.91323 177.77 3.22286V6.51891C177.77 6.82854 177.657 7.09821 177.434 7.32128C177.207 7.54767 176.941 7.65754 176.631 7.65754H172.999C172.689 7.65754 172.42 7.54434 172.197 7.32128C171.97 7.09488 171.86 6.82854 171.86 6.51891V3.22286C171.86 2.91323 171.974 2.64689 172.197 2.42049C172.423 2.1941 172.689 2.08423 172.999 2.08423H176.631Z" fill="white"/>
<path d="M166.8 2.08423C167.109 2.08423 167.376 2.19743 167.602 2.42049C167.829 2.64689 167.939 2.91323 167.939 3.22286V6.51891C167.939 6.82854 167.825 7.09821 167.602 7.32128C167.376 7.54767 167.109 7.65754 166.8 7.65754H163.168C162.858 7.65754 162.588 7.54434 162.365 7.32128C162.139 7.09488 162.029 6.82854 162.029 6.51891V3.22286C162.029 2.91323 162.142 2.64689 162.365 2.42049C162.592 2.1941 162.858 2.08423 163.168 2.08423H166.8Z" fill="white"/>
<path d="M156.972 2.08423C157.281 2.08423 157.548 2.19743 157.774 2.42049C158 2.64689 158.11 2.91323 158.11 3.22286V6.51891C158.11 6.82854 157.997 7.09821 157.774 7.32128C157.548 7.54767 157.281 7.65754 156.972 7.65754H153.339C153.03 7.65754 152.76 7.54434 152.537 7.32128C152.311 7.09488 152.201 6.82854 152.201 6.51891V3.22286C152.201 2.91323 152.314 2.64689 152.537 2.42049C152.763 2.1941 153.03 2.08423 153.339 2.08423H156.972Z" fill="white"/>
<path d="M147.14 2.08423C147.45 2.08423 147.716 2.19743 147.942 2.42049C148.169 2.64689 148.279 2.91323 148.279 3.22286V6.51891C148.279 6.82854 148.166 7.09821 147.942 7.32128C147.716 7.54767 147.45 7.65754 147.14 7.65754H143.508C143.198 7.65754 142.928 7.54434 142.705 7.32128C142.479 7.09488 142.369 6.82854 142.369 6.51891V3.22286C142.369 2.91323 142.482 2.64689 142.705 2.42049C142.932 2.1941 143.198 2.08423 143.508 2.08423H147.14Z" fill="white"/>
<path d="M137.312 2.08423C137.622 2.08423 137.888 2.19743 138.114 2.42049C138.341 2.64689 138.451 2.91323 138.451 3.22286V6.51891C138.451 6.82854 138.337 7.09821 138.114 7.32128C137.888 7.54767 137.622 7.65754 137.312 7.65754H133.68C133.37 7.65754 133.1 7.54434 132.877 7.32128C132.651 7.09488 132.541 6.82854 132.541 6.51891V3.22286C132.541 2.91323 132.654 2.64689 132.877 2.42049C133.104 2.1941 133.37 2.08423 133.68 2.08423H137.312Z" fill="white"/>
<path d="M127.48 2.08423C127.79 2.08423 128.056 2.19743 128.283 2.42049C128.509 2.64689 128.619 2.91323 128.619 3.22286V6.51891C128.619 6.82854 128.506 7.09821 128.283 7.32128C128.056 7.54767 127.79 7.65754 127.48 7.65754H123.848C123.538 7.65754 123.269 7.54434 123.046 7.32128C122.819 7.09488 122.709 6.82854 122.709 6.51891V3.22286C122.709 2.91323 122.823 2.64689 123.046 2.42049C123.272 2.1941 123.538 2.08423 123.848 2.08423H127.48Z" fill="white"/>
<path d="M117.649 2.08423C117.958 2.08423 118.225 2.19743 118.451 2.42049C118.678 2.64689 118.787 2.91323 118.787 3.22286V6.51891C118.787 6.82854 118.674 7.09821 118.451 7.32128C118.225 7.54767 117.958 7.65754 117.649 7.65754H114.016C113.707 7.65754 113.437 7.54434 113.214 7.32128C112.988 7.09488 112.878 6.82854 112.878 6.51891V3.22286C112.878 2.91323 112.991 2.64689 113.214 2.42049C113.441 2.1941 113.707 2.08423 114.016 2.08423H117.649Z" fill="white"/>
<path d="M29.1783 2.08423C29.4879 2.08423 29.7543 2.19743 29.9807 2.42049C30.2071 2.64689 30.3169 2.91323 30.3169 3.22286V6.51891C30.3169 6.82854 30.2037 7.09821 29.9807 7.32128C29.7543 7.54767 29.4879 7.65754 29.1783 7.65754H25.546C25.2364 7.65754 24.9667 7.54434 24.7436 7.32128C24.5172 7.09488 24.4073 6.82854 24.4073 6.51891V3.22286C24.4073 2.91323 24.5205 2.64689 24.7436 2.42049C24.97 2.1941 25.2364 2.08423 25.546 2.08423H29.1783Z" fill="white"/>
<path d="M97.9891 2.08423C98.2987 2.08423 98.5651 2.19743 98.7915 2.42049C99.0179 2.64689 99.1277 2.91323 99.1277 3.22286V6.51891C99.1277 6.82854 99.0145 7.09821 98.7915 7.32128C98.5651 7.54767 98.2987 7.65754 97.9891 7.65754H94.3568C94.0471 7.65754 93.7775 7.54434 93.5544 7.32128C93.328 7.09488 93.2181 6.82854 93.2181 6.51891V3.22286C93.2181 2.91323 93.3313 2.64689 93.5544 2.42049C93.7808 2.1941 94.0471 2.08423 94.3568 2.08423H97.9891Z" fill="white"/>
<path d="M88.1609 2.08423C88.4705 2.08423 88.7369 2.19743 88.9633 2.42049C89.1897 2.64689 89.2995 2.91323 89.2995 3.22286V6.51891C89.2995 6.82854 89.1863 7.09821 88.9633 7.32128C88.7369 7.54767 88.4705 7.65754 88.1609 7.65754H84.5286C84.219 7.65754 83.9493 7.54434 83.7262 7.32128C83.4998 7.09488 83.39 6.82854 83.39 6.51891V3.22286C83.39 2.91323 83.5031 2.64689 83.7262 2.42049C83.9526 2.1941 84.219 2.08423 84.5286 2.08423H88.1609Z" fill="white"/>
<path d="M78.3294 2.08423C78.639 2.08423 78.9053 2.19743 79.1317 2.42049C79.3581 2.64689 79.468 2.91323 79.468 3.22286V6.51891C79.468 6.82854 79.3548 7.09821 79.1317 7.32128C78.9053 7.54767 78.639 7.65754 78.3294 7.65754H74.697C74.3874 7.65754 74.1177 7.54434 73.8947 7.32128C73.6683 7.09488 73.5584 6.82854 73.5584 6.51891V3.22286C73.5584 2.91323 73.6716 2.64689 73.8947 2.42049C74.1211 2.1941 74.3874 2.08423 74.697 2.08423H78.3294Z" fill="white"/>
<path d="M68.4978 2.08423C68.8074 2.08423 69.0738 2.19743 69.3002 2.42049C69.5266 2.64689 69.6364 2.91323 69.6364 3.22286V6.51891C69.6364 6.82854 69.5232 7.09821 69.3002 7.32128C69.0738 7.54767 68.8074 7.65754 68.4978 7.65754H64.8655C64.5559 7.65754 64.2862 7.54434 64.0631 7.32128C63.8367 7.09488 63.7269 6.82854 63.7269 6.51891V3.22286C63.7269 2.91323 63.8401 2.64689 64.0631 2.42049C64.2895 2.1941 64.5559 2.08423 64.8655 2.08423H68.4978Z" fill="white"/>
<path d="M58.6696 2.08423C58.9793 2.08423 59.2456 2.19743 59.472 2.42049C59.6984 2.64689 59.8083 2.91323 59.8083 3.22286V6.51891C59.8083 6.82854 59.6951 7.09821 59.472 7.32128C59.2456 7.54767 58.9793 7.65754 58.6696 7.65754H55.0373C54.7277 7.65754 54.458 7.54434 54.2349 7.32128C54.0085 7.09488 53.8987 6.82854 53.8987 6.51891V3.22286C53.8987 2.91323 54.0119 2.64689 54.2349 2.42049C54.4613 2.1941 54.7277 2.08423 55.0373 2.08423H58.6696Z" fill="white"/>
<path d="M48.8381 2.08423C49.1477 2.08423 49.4141 2.19743 49.6405 2.42049C49.8668 2.64689 49.9767 2.91323 49.9767 3.22286V6.51891C49.9767 6.82854 49.8635 7.09821 49.6405 7.32128C49.4141 7.54767 49.1477 7.65754 48.8381 7.65754H45.2058C44.8961 7.65754 44.6265 7.54434 44.4034 7.32128C44.177 7.09488 44.0671 6.82854 44.0671 6.51891V3.22286C44.0671 2.91323 44.1803 2.64689 44.4034 2.42049C44.6298 2.1941 44.8961 2.08423 45.2058 2.08423H48.8381Z" fill="white"/>
<path d="M39.0098 2.08423C39.3195 2.08423 39.5858 2.19743 39.8122 2.42049C40.0386 2.64689 40.1485 2.91323 40.1485 3.22286V6.51891C40.1485 6.82854 40.0353 7.09821 39.8122 7.32128C39.5858 7.54767 39.3195 7.65754 39.0098 7.65754H35.3775C35.0679 7.65754 34.7982 7.54434 34.5752 7.32128C34.3488 7.09488 34.2389 6.82854 34.2389 6.51891V3.22286C34.2389 2.91323 34.3521 2.64689 34.5752 2.42049C34.8016 2.1941 35.0679 2.08423 35.3775 2.08423H39.0098Z" fill="white"/>
<path d="M19.3468 2.08423C19.6564 2.08423 19.9228 2.19743 20.1492 2.42049C20.3756 2.64689 20.4854 2.91323 20.4854 3.22286V6.51891C20.4854 6.82854 20.3722 7.09821 20.1492 7.32128C19.9228 7.54767 19.6564 7.65754 19.3468 7.65754H15.7145C15.4049 7.65754 15.1352 7.54434 14.9121 7.32128C14.6857 7.09488 14.5759 6.82854 14.5759 6.51891V3.22286C14.5759 2.91323 14.6891 2.64689 14.9121 2.42049C15.1385 2.1941 15.4049 2.08423 15.7145 2.08423H19.3468Z" fill="white"/>
<path d="M9.51856 2.08423C9.82819 2.08423 10.0945 2.19743 10.3209 2.42049C10.5473 2.64689 10.6572 2.91323 10.6572 3.22286V6.51891C10.6572 6.82854 10.544 7.09821 10.3209 7.32128C10.0945 7.54767 9.82819 7.65754 9.51856 7.65754H5.88625C5.57662 7.65754 5.30695 7.54434 5.08388 7.32128C4.85749 7.09488 4.74762 6.82854 4.74762 6.51891V3.22286C4.74762 2.91323 4.86082 2.64689 5.08388 2.42049C5.31028 2.1941 5.57662 2.08423 5.88625 2.08423H9.51856Z" fill="white"/>
<path d="M206.123 2.08423C206.432 2.08423 206.699 2.19743 206.925 2.42049C207.151 2.64689 207.261 2.91323 207.261 3.22286V6.51891C207.261 6.82854 207.148 7.09821 206.925 7.32128C206.699 7.54767 206.432 7.65754 206.123 7.65754H202.49C202.181 7.65754 201.911 7.54434 201.688 7.32128C201.462 7.09488 201.352 6.82854 201.352 6.51891V3.22286C201.352 2.91323 201.465 2.64689 201.688 2.42049C201.914 2.1941 202.181 2.08423 202.49 2.08423H206.123Z" fill="white"/>
<path d="M196.291 2.08423C196.601 2.08423 196.867 2.19743 197.094 2.42049C197.32 2.64689 197.43 2.91323 197.43 3.22286V6.51891C197.43 6.82854 197.317 7.09821 197.094 7.32128C196.867 7.54767 196.601 7.65754 196.291 7.65754H192.659C192.349 7.65754 192.08 7.54434 191.856 7.32128C191.63 7.09488 191.52 6.82854 191.52 6.51891V3.22286C191.52 2.91323 191.633 2.64689 191.856 2.42049C192.083 2.1941 192.349 2.08423 192.659 2.08423H196.291Z" fill="white"/>
<path d="M186.463 2.08423C186.773 2.08423 187.039 2.19743 187.265 2.42049C187.492 2.64689 187.602 2.91323 187.602 3.22286V6.51891C187.602 6.82854 187.488 7.09821 187.265 7.32128C187.039 7.54767 186.773 7.65754 186.463 7.65754H182.831C182.521 7.65754 182.251 7.54434 182.028 7.32128C181.802 7.09488 181.692 6.82854 181.692 6.51891V3.22286C181.692 2.91323 181.805 2.64689 182.028 2.42049C182.255 2.1941 182.521 2.08423 182.831 2.08423H186.463Z" fill="white"/>
<path d="M206.123 42.4158C206.432 42.4158 206.699 42.529 206.925 42.752C207.151 42.9784 207.261 43.2448 207.261 43.5544V46.8505C207.261 47.1601 207.148 47.4298 206.925 47.6528C206.699 47.8792 206.432 47.9891 206.123 47.9891H202.49C202.181 47.9891 201.911 47.8759 201.688 47.6528C201.462 47.4264 201.352 47.1601 201.352 46.8505V43.5544C201.352 43.2448 201.465 42.9784 201.688 42.752C201.914 42.5256 202.181 42.4158 202.49 42.4158H206.123Z" fill="white"/>
<path d="M196.291 42.4158C196.601 42.4158 196.867 42.529 197.094 42.752C197.32 42.9784 197.43 43.2448 197.43 43.5544V46.8505C197.43 47.1601 197.317 47.4298 197.094 47.6528C196.867 47.8792 196.601 47.9891 196.291 47.9891H192.659C192.349 47.9891 192.08 47.8759 191.856 47.6528C191.63 47.4264 191.52 47.1601 191.52 46.8505V43.5544C191.52 43.2448 191.633 42.9784 191.856 42.752C192.083 42.5256 192.349 42.4158 192.659 42.4158H196.291Z" fill="white"/>
<path d="M159.455 31.4557C159.752 31.5423 160.058 31.6555 160.368 31.7953C160.737 31.9651 161.083 32.1648 161.41 32.3912C161.736 32.6176 161.926 32.8573 161.982 33.1137C161.36 35.0414 159.991 36.6694 157.881 38.0012C155.77 39.3329 153.509 40.0254 151.102 40.082H150.762C149.94 40.082 149.118 39.9988 148.299 39.8257C147.476 39.6559 146.697 39.3862 145.962 39.0166C144.403 38.1943 143.285 37.1455 142.606 35.8737C141.926 34.5986 141.587 33.1969 141.587 31.6654C141.587 30.9297 141.657 30.1639 141.8 29.3715C141.94 28.5792 142.139 27.8001 142.396 27.0343C142.735 25.9856 143.155 24.9602 143.651 23.9547C144.147 22.9492 144.706 21.9804 145.329 21.0449C145.555 20.7319 145.782 20.4156 146.008 20.0893C146.235 19.7631 146.474 19.4301 146.731 19.0905C148.485 16.8532 150.603 14.799 153.083 12.9279C155.56 11.0568 158.147 10.108 160.837 10.0813C162.765 10.0547 164.273 10.5475 165.362 11.5696C166.45 12.5883 167.013 13.9201 167.04 15.5648V15.8611C167.01 15.9177 166.996 15.9743 166.996 16.0309V16.2007C166.966 16.4271 166.94 16.6468 166.913 16.8599C166.883 17.073 166.827 17.2927 166.743 17.5191C166.29 19.2204 165.342 20.8617 163.897 22.4465C162.452 24.0346 160.924 25.3497 159.309 26.3984C158.686 26.768 158.077 27.1009 157.481 27.3972C156.885 27.6935 156.319 27.9266 155.78 28.0997C155.41 28.2129 155.101 28.2995 154.844 28.3561C154.588 28.4127 154.378 28.4393 154.208 28.4393C153.925 28.4393 153.736 28.3761 153.636 28.2495C153.536 28.123 153.486 27.9466 153.486 27.7202C153.486 27.5803 153.506 27.4072 153.549 27.2108C153.592 27.0144 153.626 26.8013 153.656 26.5749C153.825 25.6959 154.052 25.0734 154.335 24.7038C154.618 24.3376 155.001 24.0246 155.483 23.7683C155.68 23.6551 155.893 23.5352 156.119 23.4054C156.346 23.2788 156.602 23.129 156.885 22.9592C156.912 22.9326 156.948 22.9093 156.992 22.896C157.035 22.8827 157.068 22.8593 157.098 22.8327C158.4 22.0104 159.575 21.1181 160.624 20.1559C161.673 19.1937 162.422 17.9186 162.875 16.3305C162.901 16.244 162.925 16.1607 162.938 16.0742C162.951 15.9876 162.958 15.9044 162.958 15.8178C162.958 15.3084 162.738 14.8689 162.299 14.4994C161.859 14.1298 161.257 13.9467 160.494 13.9467C160.011 13.9467 159.465 14.0266 158.859 14.1798C158.25 14.3362 157.591 14.6126 156.885 15.0088C155.527 15.7179 154.265 16.6368 153.103 17.7721C151.941 18.9041 150.906 20.0794 150 21.2979C149.208 22.4032 148.512 23.4719 147.919 24.5074C147.323 25.5428 146.87 26.4251 146.561 27.1642C146.361 27.6469 146.191 28.1563 146.051 28.6923C145.908 29.2317 145.825 29.7677 145.795 30.3071C145.765 30.4203 145.752 30.5335 145.752 30.6467V30.9863C145.752 32.2048 146.041 33.3101 146.624 34.299C147.203 35.2911 148.232 35.9137 149.704 36.17C149.93 36.2 150.157 36.2266 150.383 36.2533C150.609 36.2832 150.822 36.2966 151.019 36.2966C152.407 36.2966 153.652 35.9703 154.758 35.3177C155.863 34.6652 156.769 33.9427 157.478 33.1503C157.791 32.8374 158.057 32.5277 158.287 32.2148C158.513 31.9018 158.696 31.6055 158.839 31.3225C158.953 31.3225 159.159 31.3658 159.455 31.449V31.4557Z" fill="white"/>
<path d="M172.513 24.9234C171.581 26.9177 170.838 28.5291 170.279 29.751C169.8 30.8164 169.347 31.8185 168.924 32.764C168.498 33.7096 168.231 34.3388 168.125 34.6584C168.098 34.6851 168.085 34.7117 168.085 34.7383C168.085 34.7916 168.078 34.8316 168.065 34.8582C168.052 34.8848 168.045 34.9248 168.045 34.978C168.045 35.058 168.058 35.1245 168.085 35.1778C168.112 35.2311 168.178 35.2577 168.285 35.2577C168.418 35.2577 168.578 35.2178 168.764 35.1379C168.951 35.058 169.204 34.9248 169.523 34.7383C170.376 34.179 170.998 33.7462 171.398 33.4432C171.797 33.1369 172.143 32.8639 172.436 32.6242L172.516 32.5443C172.543 32.5177 172.556 32.491 172.556 32.4644C172.583 32.4644 172.603 32.4577 172.616 32.4444L172.676 32.3845C172.729 32.3579 172.756 32.3312 172.756 32.3046C172.809 32.278 172.856 32.2447 172.896 32.2047C172.936 32.1648 172.982 32.1315 173.036 32.1048C173.169 31.9983 173.295 31.965 173.415 32.0049C173.535 32.0449 173.595 32.2247 173.595 32.5443V32.6841C173.595 32.7507 173.608 32.824 173.635 32.9039V33.7029C173.635 33.8095 173.622 33.9027 173.595 33.9826C173.568 34.2489 173.515 34.502 173.435 34.7417C173.355 34.9814 173.209 35.1945 172.996 35.3809C172.516 35.7804 172.03 36.1466 171.541 36.4796C171.048 36.8125 170.549 37.1255 170.046 37.4185C169.62 37.6582 169.2 37.8779 168.791 38.0777C168.378 38.2774 167.972 38.4572 167.572 38.617C167.386 38.6969 167.113 38.7702 166.753 38.8368C166.394 38.9033 166.027 38.9499 165.655 38.9766H165.455C165.135 38.9766 164.836 38.9499 164.556 38.8967C164.276 38.8434 164.043 38.7369 163.857 38.5771C163.697 38.4439 163.584 38.2841 163.517 38.0976C163.451 37.9112 163.417 37.7248 163.417 37.5383C163.417 37.2187 163.484 36.8658 163.617 36.4796C163.75 36.0934 163.897 35.7005 164.056 35.301V35.261C164.163 35.048 164.256 34.8349 164.336 34.6218C164.416 34.4087 164.483 34.209 164.536 34.0225L164.496 33.9826C164.309 34.1157 164.163 34.2223 164.056 34.3022V34.3421C164.003 34.3688 163.95 34.4021 163.897 34.442C163.843 34.482 163.803 34.5153 163.777 34.5419C163.724 34.5952 163.657 34.6684 163.577 34.7616C163.497 34.8549 163.391 34.9414 163.257 35.0213C163.231 35.048 163.204 35.0813 163.178 35.1212C163.151 35.1612 163.124 35.1945 163.098 35.2211C162.964 35.3276 162.838 35.4142 162.718 35.4808C162.598 35.5474 162.498 35.5807 162.418 35.5807C162.365 35.5807 162.325 35.4342 162.299 35.1412C162.272 34.8482 162.259 34.5153 162.259 34.1424V34.0225C162.259 33.6496 162.272 33.31 162.299 33.0037C162.325 32.6974 162.365 32.5177 162.418 32.4644C162.525 32.3579 162.698 32.1847 162.938 31.945C163.178 31.7053 163.444 31.4523 163.737 31.1859C164.003 30.9462 164.25 30.7132 164.476 30.4868C164.702 30.2604 164.882 30.0806 165.015 29.9474L165.595 29.3681C165.848 29.1151 166.121 28.8554 166.414 28.589L166.494 28.5091C166.52 28.4825 166.547 28.4559 166.573 28.4292C166.866 28.1096 167.133 27.8166 167.372 27.5503C167.612 27.2839 167.785 27.0709 167.892 26.9111C167.918 26.8844 167.945 26.8445 167.972 26.7912C167.998 26.7379 168.025 26.6847 168.052 26.6314C168.105 26.5515 168.158 26.4516 168.211 26.3318C168.265 26.2119 168.318 26.0987 168.371 25.9922C168.478 25.7258 168.611 25.3662 168.771 24.9135H172.52L172.513 24.9234ZM170.778 21.9703C170.499 21.6241 170.332 21.2379 170.279 20.8117V20.612C170.279 20.5853 170.292 20.5454 170.319 20.4921V20.3323C170.399 19.773 170.659 19.2736 171.098 18.8374C171.537 18.4013 172.007 18.1383 172.513 18.0583H172.873C173.459 18.085 173.905 18.2914 174.208 18.6776C174.514 19.0638 174.667 19.5233 174.667 20.0526V20.2923C174.667 20.3722 174.654 20.4521 174.627 20.532C174.6 20.612 174.58 20.6919 174.567 20.7718C174.554 20.8517 174.521 20.9316 174.467 21.0115C174.307 21.3844 174.048 21.7306 173.688 22.0502C173.329 22.3698 172.856 22.5296 172.273 22.5296H172.034C171.474 22.503 171.055 22.3166 170.778 21.9703Z" fill="white"/>
<path d="M184.642 35.4176H184.722C184.935 35.4442 185.374 35.2445 186.037 34.8183C186.703 34.3922 187.405 33.8894 188.151 33.3035C188.364 33.1437 188.57 32.9839 188.77 32.8241C188.97 32.6642 189.163 32.4911 189.349 32.3047C189.376 32.278 189.416 32.2448 189.469 32.2048C189.523 32.1648 189.563 32.1316 189.589 32.1049C189.829 31.8918 190.009 31.9251 190.129 32.2048C190.248 32.4845 190.308 32.8507 190.308 33.3035V33.743C190.282 33.956 190.248 34.1558 190.208 34.3422C190.168 34.5287 190.122 34.6885 190.069 34.8217C189.962 35.088 189.749 35.361 189.429 35.6407C189.11 35.9203 188.737 36.1933 188.311 36.4597C188.098 36.6195 187.885 36.766 187.671 36.8992C187.458 37.0323 187.232 37.1655 186.992 37.2987C186.753 37.4319 186.52 37.5717 186.293 37.7182C186.067 37.8647 185.847 38.0045 185.634 38.1377C185.288 38.3508 184.928 38.5305 184.555 38.677C184.182 38.8235 183.809 38.9234 183.437 38.9767C183.303 39.0033 183.177 39.0233 183.057 39.0366C182.937 39.0499 182.811 39.0566 182.677 39.0566C182.544 39.0566 182.418 39.0499 182.298 39.0366C182.178 39.0233 182.065 39.0033 181.958 38.9767C181.905 38.9767 181.845 38.97 181.779 38.9567C181.712 38.9434 181.652 38.9234 181.599 38.8968C181.412 38.8701 181.266 38.7103 181.159 38.4173C181.053 38.1244 181 37.7914 181 37.4185V37.0989C180.893 37.2055 180.78 37.3187 180.66 37.4385C180.54 37.5584 180.414 37.6716 180.28 37.7781C179.907 38.0977 179.441 38.3841 178.885 38.6371C178.326 38.8901 177.557 39.0299 176.571 39.0566H176.412C175.533 39.0566 174.73 38.7703 173.998 38.1976C173.265 37.625 172.809 36.7427 172.623 35.5441C172.57 35.1712 172.53 34.8183 172.503 34.4887C172.476 34.1558 172.463 33.8562 172.463 33.5898C172.463 32.9239 172.523 32.3713 172.643 31.9351C172.763 31.4957 172.903 31.0762 173.062 30.6766C173.142 30.5168 173.222 30.357 173.302 30.1972C173.382 30.0374 173.462 29.8643 173.542 29.6778C173.675 29.3849 173.895 29.0719 174.201 28.739C174.507 28.406 174.874 28.0664 175.3 27.7202C176.179 27.0277 177.241 26.3785 178.493 25.7659C179.741 25.1533 181.046 24.7537 182.401 24.5706C182.614 24.544 182.834 24.524 183.06 24.5107C183.287 24.4974 183.506 24.4907 183.72 24.4907H184.718C184.825 24.4907 184.925 24.4974 185.018 24.5107C185.111 24.524 185.211 24.5307 185.318 24.5307C185.77 24.5307 186.183 24.5507 186.553 24.5906C186.926 24.6306 187.152 24.6905 187.232 24.7704C187.259 24.8237 187.292 24.9435 187.332 25.13C187.372 25.3164 187.405 25.5162 187.432 25.7292C187.432 25.889 187.438 26.0489 187.452 26.2087C187.465 26.3685 187.472 26.4883 187.472 26.5682V26.788C187.472 26.8546 187.485 26.9145 187.512 26.9678V27.3673C187.512 27.5271 187.498 27.6536 187.472 27.7468C187.445 27.84 187.365 27.8733 187.232 27.8467C187.179 27.8467 187.079 27.8134 186.932 27.7468C186.786 27.6802 186.593 27.607 186.353 27.5271C186.113 27.4205 185.827 27.334 185.494 27.2674C185.161 27.2008 184.795 27.1675 184.395 27.1675H184.196C183.77 27.1675 183.303 27.2208 182.801 27.3273C182.295 27.4339 181.789 27.5937 181.286 27.8067C180.167 28.2329 179.132 28.8522 178.173 29.6612C177.214 30.4735 176.645 31.3691 176.458 32.3546C176.432 32.6742 176.405 32.9672 176.378 33.2336C176.352 33.4999 176.338 33.7396 176.338 33.9527C176.312 34.6452 176.398 35.1246 176.598 35.3876C176.798 35.654 177.044 35.7872 177.337 35.7872C177.444 35.7872 177.557 35.7739 177.677 35.7472C177.797 35.7206 177.91 35.6939 178.016 35.6673C178.15 35.614 178.283 35.5541 178.416 35.4875C178.549 35.4209 178.669 35.3477 178.775 35.2678C178.855 35.2145 178.935 35.1613 179.015 35.108C179.095 35.0547 179.175 35.0014 179.255 34.9482C179.734 34.6019 180.18 34.2091 180.59 33.7696C181.003 33.3301 181.409 32.8307 181.805 32.2747C182.098 31.8486 182.398 31.3825 182.704 30.8797C183.01 30.3737 183.337 29.8177 183.683 29.2051C183.71 29.2051 183.736 29.2117 183.763 29.225C183.789 29.2384 183.816 29.2583 183.843 29.285C183.949 29.3116 184.076 29.3449 184.222 29.3849C184.369 29.4248 184.522 29.4448 184.682 29.4448C184.735 29.4714 184.802 29.4847 184.882 29.4847H187.076C186.463 30.8664 185.897 32.0716 185.381 33.0937C184.862 34.1192 184.589 34.815 184.562 35.1879V35.2878C184.562 35.3277 184.575 35.361 184.602 35.3876L184.642 35.4276V35.4176Z" fill="white"/>
<path d="M198.425 23.5684H198.565C199.84 23.5417 200.819 23.8747 201.498 24.5672C202.177 25.2597 202.607 26.0288 202.793 26.8811C202.847 27.0409 202.88 27.2007 202.893 27.3605C202.907 27.5203 202.913 27.6801 202.913 27.8399C202.913 28.2927 202.84 28.7055 202.693 29.0751C202.547 29.448 202.341 29.741 202.074 29.954C202.181 30.1938 202.254 30.4135 202.294 30.6133C202.334 30.813 202.354 31.0061 202.354 31.1926C202.354 31.4589 202.314 31.7053 202.234 31.9317C202.154 32.1581 202.061 32.3911 201.954 32.6308C201.928 32.6841 201.901 32.7374 201.874 32.7906C201.848 32.8439 201.821 32.8972 201.795 32.9504C201.848 32.9771 201.894 32.9971 201.934 33.0104C201.974 33.0237 202.021 33.0304 202.074 33.0304C202.127 33.057 202.174 33.0703 202.214 33.0703H202.354C202.727 33.0703 203.093 32.9771 203.453 32.7906C203.812 32.6042 204.192 32.3512 204.591 32.0316C204.671 31.925 204.738 32.0049 204.791 32.2713C204.844 32.5376 204.871 32.8572 204.871 33.2301V33.7095C204.844 34.0824 204.798 34.422 204.731 34.7283C204.664 35.0346 204.578 35.2277 204.471 35.3076C204.258 35.5207 203.965 35.7071 203.592 35.867C203.22 36.0268 202.82 36.1466 202.397 36.2265C202.291 36.2265 202.191 36.2332 202.098 36.2465C202.004 36.2598 201.904 36.2665 201.798 36.2665C201.585 36.2665 201.378 36.2465 201.179 36.2065C200.979 36.1666 200.812 36.0933 200.679 35.9868C199.827 37.0522 198.858 37.8479 197.766 38.3806C196.674 38.9133 195.479 39.163 194.177 39.1397C193.937 39.1397 193.691 39.1264 193.438 39.0997C193.185 39.0731 192.925 39.0198 192.659 38.9399C191.833 38.7801 191.084 38.3273 190.405 37.5849C189.726 36.8391 189.386 35.524 189.386 33.6363C189.386 33.3966 189.393 33.1502 189.406 32.8972C189.419 32.6441 189.439 32.3845 189.466 32.1181C189.519 31.6653 189.619 31.1792 189.766 30.6632C189.912 30.1438 190.092 29.6211 190.305 29.0884C190.918 27.76 191.886 26.5282 193.218 25.3995C194.547 24.2709 196.265 23.6649 198.365 23.585H198.425V23.5684ZM197.666 34.0624C197.626 33.9559 197.58 33.8361 197.526 33.7029C197.446 33.5431 197.38 33.3566 197.327 33.1436C197.273 32.9305 197.247 32.7041 197.247 32.4644C197.247 32.3312 197.253 32.2047 197.267 32.0848C197.28 31.965 197.3 31.8385 197.327 31.7053C197.406 31.3324 197.54 31.0128 197.726 30.7464C197.913 30.4801 198.099 30.2404 198.285 30.0273C198.472 29.8408 198.652 29.681 198.825 29.5479C198.998 29.4147 199.138 29.2815 199.244 29.1483C199.271 29.0951 199.291 29.0418 199.304 28.9885C199.318 28.9353 199.324 28.882 199.324 28.8287C199.298 28.3493 199.138 27.9498 198.845 27.6302C198.552 27.3105 198.152 27.1507 197.65 27.1507C197.223 27.1507 196.731 27.3105 196.175 27.6302C195.619 27.9498 195.043 28.4825 194.46 29.2249C194.194 29.5712 193.954 30.004 193.741 30.52C193.528 31.0394 193.368 31.5788 193.261 32.1348C193.235 32.3478 193.208 32.5543 193.182 32.754C193.155 32.9538 193.142 33.1602 193.142 33.3733C193.142 33.7994 193.195 34.1923 193.301 34.5519C193.408 34.9114 193.594 35.1978 193.861 35.4108C193.887 35.4108 193.914 35.4241 193.941 35.4508C193.967 35.4774 193.994 35.4907 194.021 35.4907C194.154 35.5706 194.327 35.6372 194.54 35.6905C194.753 35.7438 194.979 35.7704 195.219 35.7704C195.406 35.7704 195.599 35.7571 195.798 35.7304C195.998 35.7038 196.191 35.6505 196.378 35.5706C196.617 35.4641 196.857 35.3109 197.097 35.1112C197.337 34.9114 197.563 34.6517 197.776 34.3321C197.749 34.2522 197.716 34.159 197.676 34.0525L197.666 34.0624Z" fill="white"/>
<path d="M186.463 42.4158C186.773 42.4158 187.039 42.529 187.265 42.752C187.492 42.9784 187.602 43.2448 187.602 43.5544V46.8505C187.602 47.1601 187.488 47.4298 187.265 47.6528C187.039 47.8792 186.773 47.9891 186.463 47.9891H182.831C182.521 47.9891 182.251 47.8759 182.028 47.6528C181.802 47.4264 181.692 47.1601 181.692 46.8505V43.5544C181.692 43.2448 181.805 42.9784 182.028 42.752C182.255 42.5256 182.521 42.4158 182.831 42.4158H186.463Z" fill="white"/>
<path d="M107.821 42.4158C108.13 42.4158 108.397 42.529 108.623 42.752C108.849 42.9784 108.959 43.2448 108.959 43.5544V46.8505C108.959 47.1601 108.846 47.4298 108.623 47.6528C108.397 47.8792 108.13 47.9891 107.821 47.9891H104.188C103.879 47.9891 103.609 47.8759 103.386 47.6528C103.16 47.4264 103.05 47.1601 103.05 46.8505V43.5544C103.05 43.2448 103.163 42.9784 103.386 42.752C103.612 42.5256 103.879 42.4158 104.188 42.4158H107.821Z" fill="white"/>
<path d="M176.631 42.4158C176.941 42.4158 177.207 42.529 177.434 42.752C177.66 42.9784 177.77 43.2448 177.77 43.5544V46.8505C177.77 47.1601 177.657 47.4298 177.434 47.6528C177.207 47.8792 176.941 47.9891 176.631 47.9891H172.999C172.689 47.9891 172.42 47.8759 172.197 47.6528C171.97 47.4264 171.86 47.1601 171.86 46.8505V43.5544C171.86 43.2448 171.974 42.9784 172.197 42.752C172.423 42.5256 172.689 42.4158 172.999 42.4158H176.631Z" fill="white"/>
<path d="M166.8 42.4158C167.109 42.4158 167.376 42.529 167.602 42.752C167.829 42.9784 167.938 43.2448 167.938 43.5544V46.8505C167.938 47.1601 167.825 47.4298 167.602 47.6528C167.376 47.8792 167.109 47.9891 166.8 47.9891H163.167C162.858 47.9891 162.588 47.8759 162.365 47.6528C162.139 47.4264 162.029 47.1601 162.029 46.8505V43.5544C162.029 43.2448 162.142 42.9784 162.365 42.752C162.592 42.5256 162.858 42.4158 163.167 42.4158H166.8Z" fill="white"/>
<path d="M156.972 42.4158C157.281 42.4158 157.548 42.529 157.774 42.752C158 42.9784 158.11 43.2448 158.11 43.5544V46.8505C158.11 47.1601 157.997 47.4298 157.774 47.6528C157.548 47.8792 157.281 47.9891 156.972 47.9891H153.339C153.03 47.9891 152.76 47.8759 152.537 47.6528C152.311 47.4264 152.201 47.1601 152.201 46.8505V43.5544C152.201 43.2448 152.314 42.9784 152.537 42.752C152.763 42.5256 153.03 42.4158 153.339 42.4158H156.972Z" fill="white"/>
<path d="M147.14 42.4158C147.45 42.4158 147.716 42.529 147.942 42.752C148.169 42.9784 148.279 43.2448 148.279 43.5544V46.8505C148.279 47.1601 148.166 47.4298 147.942 47.6528C147.716 47.8792 147.45 47.9891 147.14 47.9891H143.508C143.198 47.9891 142.928 47.8759 142.705 47.6528C142.479 47.4264 142.369 47.1601 142.369 46.8505V43.5544C142.369 43.2448 142.482 42.9784 142.705 42.752C142.932 42.5256 143.198 42.4158 143.508 42.4158H147.14Z" fill="white"/>
<path d="M137.312 42.4158C137.622 42.4158 137.888 42.529 138.114 42.752C138.341 42.9784 138.451 43.2448 138.451 43.5544V46.8505C138.451 47.1601 138.337 47.4298 138.114 47.6528C137.888 47.8792 137.622 47.9891 137.312 47.9891H133.68C133.37 47.9891 133.1 47.8759 132.877 47.6528C132.651 47.4264 132.541 47.1601 132.541 46.8505V43.5544C132.541 43.2448 132.654 42.9784 132.877 42.752C133.104 42.5256 133.37 42.4158 133.68 42.4158H137.312Z" fill="white"/>
<path d="M127.48 42.4158C127.79 42.4158 128.056 42.529 128.283 42.752C128.509 42.9784 128.619 43.2448 128.619 43.5544V46.8505C128.619 47.1601 128.506 47.4298 128.283 47.6528C128.056 47.8792 127.79 47.9891 127.48 47.9891H123.848C123.538 47.9891 123.269 47.8759 123.046 47.6528C122.819 47.4264 122.709 47.1601 122.709 46.8505V43.5544C122.709 43.2448 122.823 42.9784 123.046 42.752C123.272 42.5256 123.538 42.4158 123.848 42.4158H127.48Z" fill="white"/>
<path d="M117.649 42.4158C117.958 42.4158 118.225 42.529 118.451 42.752C118.678 42.9784 118.787 43.2448 118.787 43.5544V46.8505C118.787 47.1601 118.674 47.4298 118.451 47.6528C118.225 47.8792 117.958 47.9891 117.649 47.9891H114.016C113.707 47.9891 113.437 47.8759 113.214 47.6528C112.988 47.4264 112.878 47.1601 112.878 46.8505V43.5544C112.878 43.2448 112.991 42.9784 113.214 42.752C113.441 42.5256 113.707 42.4158 114.016 42.4158H117.649Z" fill="white"/>
<path d="M29.1783 42.4158C29.4879 42.4158 29.7543 42.529 29.9807 42.752C30.2071 42.9784 30.3169 43.2448 30.3169 43.5544V46.8505C30.3169 47.1601 30.2037 47.4298 29.9807 47.6528C29.7543 47.8792 29.4879 47.9891 29.1783 47.9891H25.546C25.2364 47.9891 24.9667 47.8759 24.7436 47.6528C24.5172 47.4264 24.4073 47.1601 24.4073 46.8505V43.5544C24.4073 43.2448 24.5205 42.9784 24.7436 42.752C24.97 42.5256 25.2364 42.4158 25.546 42.4158H29.1783Z" fill="white"/>
<path d="M97.9891 42.4158C98.2987 42.4158 98.5651 42.529 98.7915 42.752C99.0179 42.9784 99.1277 43.2448 99.1277 43.5544V46.8505C99.1277 47.1601 99.0145 47.4298 98.7915 47.6528C98.5651 47.8792 98.2987 47.9891 97.9891 47.9891H94.3568C94.0471 47.9891 93.7775 47.8759 93.5544 47.6528C93.328 47.4264 93.2181 47.1601 93.2181 46.8505V43.5544C93.2181 43.2448 93.3313 42.9784 93.5544 42.752C93.7808 42.5256 94.0471 42.4158 94.3568 42.4158H97.9891Z" fill="white"/>
<path d="M88.1608 42.4158C88.4705 42.4158 88.7368 42.529 88.9632 42.752C89.1896 42.9784 89.2995 43.2448 89.2995 43.5544V46.8505C89.2995 47.1601 89.1863 47.4298 88.9632 47.6528C88.7368 47.8792 88.4705 47.9891 88.1608 47.9891H84.5285C84.2189 47.9891 83.9492 47.8759 83.7262 47.6528C83.4998 47.4264 83.3899 47.1601 83.3899 46.8505V43.5544C83.3899 43.2448 83.5031 42.9784 83.7262 42.752C83.9525 42.5256 84.2189 42.4158 84.5285 42.4158H88.1608Z" fill="white"/>
<path d="M78.3294 42.4158C78.639 42.4158 78.9053 42.529 79.1317 42.752C79.3581 42.9784 79.468 43.2448 79.468 43.5544V46.8505C79.468 47.1601 79.3548 47.4298 79.1317 47.6528C78.9053 47.8792 78.639 47.9891 78.3294 47.9891H74.697C74.3874 47.9891 74.1177 47.8759 73.8947 47.6528C73.6683 47.4264 73.5584 47.1601 73.5584 46.8505V43.5544C73.5584 43.2448 73.6716 42.9784 73.8947 42.752C74.1211 42.5256 74.3874 42.4158 74.697 42.4158H78.3294Z" fill="white"/>
<path d="M68.4978 42.4158C68.8074 42.4158 69.0738 42.529 69.3002 42.752C69.5266 42.9784 69.6364 43.2448 69.6364 43.5544V46.8505C69.6364 47.1601 69.5232 47.4298 69.3002 47.6528C69.0738 47.8792 68.8074 47.9891 68.4978 47.9891H64.8655C64.5559 47.9891 64.2862 47.8759 64.0631 47.6528C63.8367 47.4264 63.7269 47.1601 63.7269 46.8505V43.5544C63.7269 43.2448 63.8401 42.9784 64.0631 42.752C64.2895 42.5256 64.5559 42.4158 64.8655 42.4158H68.4978Z" fill="white"/>
<path d="M58.6696 42.4158C58.9792 42.4158 59.2455 42.529 59.4719 42.752C59.6983 42.9784 59.8082 43.2448 59.8082 43.5544V46.8505C59.8082 47.1601 59.695 47.4298 59.4719 47.6528C59.2455 47.8792 58.9792 47.9891 58.6696 47.9891H55.0373C54.7276 47.9891 54.4579 47.8759 54.2349 47.6528C54.0085 47.4264 53.8986 47.1601 53.8986 46.8505V43.5544C53.8986 43.2448 54.0118 42.9784 54.2349 42.752C54.4613 42.5256 54.7276 42.4158 55.0373 42.4158H58.6696Z" fill="white"/>
<path d="M48.838 42.4158C49.1476 42.4158 49.414 42.529 49.6404 42.752C49.8668 42.9784 49.9767 43.2448 49.9767 43.5544V46.8505C49.9767 47.1601 49.8635 47.4298 49.6404 47.6528C49.414 47.8792 49.1476 47.9891 48.838 47.9891H45.2057C44.8961 47.9891 44.6264 47.8759 44.4033 47.6528C44.1769 47.4264 44.0671 47.1601 44.0671 46.8505V43.5544C44.0671 43.2448 44.1803 42.9784 44.4033 42.752C44.6297 42.5256 44.8961 42.4158 45.2057 42.4158H48.838Z" fill="white"/>
<path d="M39.0098 42.4158C39.3195 42.4158 39.5858 42.529 39.8122 42.752C40.0386 42.9784 40.1485 43.2448 40.1485 43.5544V46.8505C40.1485 47.1601 40.0353 47.4298 39.8122 47.6528C39.5858 47.8792 39.3195 47.9891 39.0098 47.9891H35.3775C35.0679 47.9891 34.7982 47.8759 34.5752 47.6528C34.3488 47.4264 34.2389 47.1601 34.2389 46.8505V43.5544C34.2389 43.2448 34.3521 42.9784 34.5752 42.752C34.8016 42.5256 35.0679 42.4158 35.3775 42.4158H39.0098Z" fill="white"/>
<path d="M19.3467 42.4158C19.6564 42.4158 19.9227 42.529 20.1491 42.752C20.3755 42.9784 20.4854 43.2448 20.4854 43.5544V46.8505C20.4854 47.1601 20.3722 47.4298 20.1491 47.6528C19.9227 47.8792 19.6564 47.9891 19.3467 47.9891H15.7144C15.4048 47.9891 15.1351 47.8759 14.9121 47.6528C14.6857 47.4264 14.5758 47.1601 14.5758 46.8505V43.5544C14.5758 43.2448 14.689 42.9784 14.9121 42.752C15.1385 42.5256 15.4048 42.4158 15.7144 42.4158H19.3467Z" fill="white"/>
<path d="M9.51856 42.4158C9.82819 42.4158 10.0945 42.529 10.3209 42.752C10.5473 42.9784 10.6572 43.2448 10.6572 43.5544V46.8505C10.6572 47.1601 10.544 47.4298 10.3209 47.6528C10.0945 47.8792 9.82819 47.9891 9.51856 47.9891H5.88625C5.57662 47.9891 5.30695 47.8759 5.08388 47.6528C4.85749 47.4264 4.74762 47.1601 4.74762 46.8505V43.5544C4.74762 43.2448 4.86082 42.9784 5.08388 42.752C5.31028 42.5256 5.57662 42.4158 5.88625 42.4158H9.51856Z" fill="white"/>
<path d="M42.9119 25.3829L50.9389 11.2399C51.0521 11.0967 51.2419 10.8704 51.5082 10.5541C51.7746 10.2411 52.1907 10.0813 52.7534 10.0813H55.6266C55.9362 10.0813 56.2026 10.1945 56.429 10.4242C56.6554 10.6539 56.7686 10.9236 56.7686 11.2399V38.9267C56.7686 39.243 56.6554 39.5127 56.429 39.7424C56.2026 39.9721 55.9362 40.0853 55.6266 40.0853H52.204C51.8944 40.0853 51.6247 39.9721 51.4017 39.7424C51.1753 39.5127 51.0621 39.243 51.0621 38.9267V22.1701L45.5687 31.8119C45.4288 32.0416 45.2291 32.278 44.976 32.5177C44.723 32.7608 44.3967 32.8806 44.0039 32.8806H41.8065C41.4103 32.8806 41.0874 32.7608 40.8344 32.5177C40.5813 32.2747 40.3849 32.0383 40.2417 31.8119L34.7483 22.1701V38.9267C34.7483 39.243 34.6351 39.5127 34.4087 39.7424C34.1823 39.9721 33.916 40.0853 33.6064 40.0853H30.1838C29.8742 40.0853 29.6045 39.9721 29.3814 39.7424C29.155 39.5127 29.0452 39.243 29.0452 38.9267V11.2399C29.0452 10.9269 29.1584 10.6539 29.3814 10.4242C29.6078 10.1945 29.8742 10.0813 30.1838 10.0813H33.057C33.6197 10.0813 34.0358 10.2378 34.3022 10.5541C34.5685 10.8704 34.7583 11.0967 34.8715 11.2399L42.8985 25.3829H42.9119Z" fill="white"/>
<path d="M57.8672 28.6758C57.8672 27.0976 58.107 25.6128 58.5864 24.2178C59.0658 22.8228 59.755 21.6109 60.6572 20.5855C61.5595 19.5567 62.6482 18.7477 63.9333 18.155C65.2151 17.5624 66.6434 17.2661 68.2215 17.2661C69.7996 17.2661 71.2279 17.5558 72.5097 18.1317C73.7915 18.711 74.8835 19.4835 75.7857 20.4556C76.688 21.4278 77.3838 22.5697 77.8766 23.8782C78.3693 25.1866 78.6157 26.5616 78.6157 27.9966V29.8976C78.6157 30.2073 78.5025 30.4769 78.2761 30.7C78.0497 30.9264 77.7833 31.0363 77.4737 31.0363H63.3607C63.3607 31.6855 63.4938 32.2548 63.7635 32.7475C64.0299 33.2403 64.3894 33.6564 64.8422 33.9927C65.2917 34.329 65.8144 34.5853 66.407 34.7518C66.9996 34.9216 67.6022 35.0048 68.2248 35.0048C69.1271 35.0048 69.8595 34.9149 70.4222 34.7285C70.9848 34.5454 71.451 34.3123 71.8172 34.0327C72.1268 33.8063 72.3798 33.6531 72.5763 33.5666C72.7727 33.4833 73.0424 33.44 73.3786 33.44H76.7579C77.0675 33.44 77.3405 33.5532 77.5803 33.7763C77.82 34.0027 77.9265 34.269 77.8965 34.5787C77.8666 34.9749 77.6502 35.4809 77.2407 36.1002C76.8312 36.7194 76.2186 37.3254 75.4029 37.918C74.5839 38.5106 73.5784 39.0167 72.3832 39.4395C71.1846 39.8623 69.7996 40.0721 68.2215 40.0721C66.6434 40.0721 65.2151 39.7991 63.9333 39.2497C62.6515 38.7004 61.5595 37.918 60.6572 36.9059C59.755 35.8904 59.0658 34.6885 58.5864 33.2935C58.107 31.8986 57.8672 30.3571 57.8672 28.6658V28.6758ZM68.2182 22.3367C67.4025 22.3367 66.7033 22.4566 66.1273 22.6963C65.548 22.936 65.0653 23.2456 64.6691 23.6251C64.2729 24.0047 63.9733 24.4275 63.7602 24.8936C63.5504 25.3597 63.4139 25.8025 63.3573 26.2254H72.9059C72.8493 25.8025 72.7427 25.3597 72.5896 24.8936C72.4331 24.4275 72.1801 24.008 71.8305 23.6251C71.4776 23.2456 71.0148 22.936 70.4355 22.6963C69.8562 22.4566 69.1171 22.3367 68.2182 22.3367Z" fill="white"/>
<path d="M89.2396 17.1595C90.1119 17.1595 90.8943 17.2427 91.5835 17.4125C92.2727 17.5823 92.8786 17.792 93.4013 18.0451C93.9207 18.2981 94.3668 18.5744 94.733 18.8674C95.0993 19.1637 95.3956 19.4367 95.622 19.6931V11.2199C95.622 10.9103 95.7352 10.644 95.9616 10.4176C96.188 10.1912 96.4543 10.0813 96.7639 10.0813H99.9767C100.286 10.0813 100.553 10.1945 100.779 10.4176C101.006 10.644 101.119 10.9103 101.119 11.2199V38.9433C101.119 39.253 101.006 39.5226 100.779 39.7457C100.553 39.9721 100.286 40.082 99.9767 40.082H96.7639C96.4543 40.082 96.1846 39.9688 95.9616 39.7457C95.7352 39.5193 95.622 39.253 95.622 38.9433V37.4418C95.3956 37.6948 95.0993 37.9712 94.733 38.2641C94.3668 38.5605 93.924 38.8335 93.4013 39.0898C92.8786 39.3429 92.2727 39.5559 91.5835 39.7224C90.8943 39.8922 90.1119 39.9754 89.2396 39.9754C87.8313 39.9754 86.5562 39.7024 85.4142 39.1531C84.2723 38.6037 83.3001 37.8713 82.4977 36.9557C81.6953 36.0402 81.0628 34.9848 80.5967 33.7862C80.1306 32.5876 79.8709 31.3425 79.8143 30.0473C79.7843 29.6245 79.771 29.1318 79.771 28.5691C79.771 28.0065 79.7843 27.5137 79.8143 27.0909C79.8709 25.7958 80.1306 24.5506 80.5967 23.352C81.0628 22.1535 81.6953 21.0981 82.4977 20.1825C83.3001 19.2669 84.2723 18.5345 85.4142 17.9851C86.5562 17.4358 87.828 17.1595 89.2396 17.1595ZM85.311 27.3839C85.2278 28.1729 85.2278 28.962 85.311 29.751C85.4808 31.5822 86.0435 32.8973 87.0023 33.703C87.9612 34.5053 89.1298 34.9082 90.5081 34.9082C91.8865 34.9082 93.0484 34.4987 93.9939 33.683C94.9361 32.8673 95.4788 31.6987 95.622 30.1772C95.6786 29.7544 95.7052 29.2183 95.7052 28.5724C95.7052 27.9266 95.6752 27.3905 95.622 26.9677C95.4821 25.5028 94.9395 24.3475 93.9939 23.5019C93.0484 22.6562 91.8865 22.2334 90.5081 22.2334C89.1298 22.2334 87.9578 22.6362 87.0023 23.4386C86.0435 24.241 85.4808 25.5594 85.311 27.3905V27.3839Z" fill="white"/>
<path d="M107.894 38.9433C107.894 39.253 107.781 39.5226 107.554 39.7457C107.328 39.9721 107.062 40.082 106.752 40.082H103.542C103.233 40.082 102.963 39.9688 102.74 39.7457C102.514 39.5193 102.4 39.253 102.4 38.9433V19.2536C102.4 18.944 102.514 18.6776 102.74 18.4513C102.966 18.2249 103.233 18.115 103.542 18.115H106.752C107.062 18.115 107.328 18.2282 107.554 18.4513C107.781 18.6776 107.894 18.944 107.894 19.2536V38.9433Z" fill="white"/>
<path d="M110.767 23.0691C110.88 22.4799 111.14 21.8506 111.549 21.1781C111.959 20.5056 112.535 19.873 113.281 19.287C114.026 18.6977 114.942 18.215 116.027 17.8354C117.113 17.4559 118.371 17.2661 119.81 17.2661C121.248 17.2661 122.543 17.4559 123.698 17.8354C124.854 18.215 125.846 18.7676 126.678 19.4968C127.507 20.2259 128.15 21.1448 128.599 22.2501C129.048 23.3588 129.275 24.6273 129.275 26.0556V38.9468C129.275 39.2564 129.162 39.5227 128.939 39.7458C128.712 39.9689 128.446 40.0821 128.136 40.0821H124.923C124.614 40.0821 124.344 39.9689 124.121 39.7458C123.895 39.5227 123.785 39.2564 123.785 38.9468V37.0324C123.192 37.8448 122.34 38.5406 121.228 39.1132C120.116 39.6892 118.701 39.9755 116.983 39.9755C115.771 39.9755 114.686 39.8124 113.73 39.4928C112.771 39.1698 111.969 38.7137 111.323 38.1277C110.674 37.5385 110.174 36.8459 109.822 36.0469C109.469 35.2479 109.292 34.3723 109.292 33.4167C109.292 31.4824 109.981 29.9675 111.363 28.8755C112.741 27.7835 114.589 27.041 116.9 26.6482L123.788 25.4696C123.788 24.321 123.409 23.5086 122.646 23.0292C121.887 22.5531 120.942 22.3134 119.816 22.3134C119.11 22.3134 118.561 22.4133 118.168 22.6064C117.772 22.8028 117.392 23.0692 117.026 23.4054C116.773 23.6285 116.54 23.785 116.33 23.8682C116.121 23.9514 115.888 23.9947 115.635 23.9947H111.706C111.423 23.9947 111.183 23.9115 110.987 23.7417C110.79 23.5719 110.72 23.3488 110.777 23.0691H110.767ZM117.822 34.9283C118.781 34.9283 119.633 34.7951 120.379 34.5287C121.125 34.2624 121.751 33.9061 122.26 33.4567C122.766 33.0072 123.149 32.5045 123.402 31.9418C123.655 31.3825 123.781 30.8065 123.781 30.2172V29.7977L118.035 30.8065C116.88 31.003 116.051 31.2893 115.541 31.6688C115.032 32.0484 114.782 32.5578 114.782 33.2037C114.782 33.7929 115.085 34.2258 115.691 34.5088C116.297 34.7884 117.006 34.9283 117.825 34.9283H117.822Z" fill="white"/>
<path d="M4.74432 28.6758C4.74432 27.0976 4.98404 25.6128 5.46346 24.2178C5.94289 22.8228 6.63206 21.6109 7.53431 20.5855C8.43656 19.5567 9.52525 18.7477 10.8104 18.155C12.0922 17.5624 13.5205 17.2661 15.0986 17.2661C16.6767 17.2661 18.105 17.5558 19.3868 18.1317C20.6685 18.711 21.7606 19.4835 22.6628 20.4556C23.5651 21.4278 24.2609 22.5697 24.7536 23.8782C25.2464 25.1866 25.4928 26.5616 25.4928 27.9966V29.8976C25.4928 30.2073 25.3796 30.4769 25.1532 30.7C24.9268 30.9264 24.6604 31.0363 24.3508 31.0363H10.2377C10.2377 31.6855 10.3709 32.2548 10.6406 32.7475C10.9069 33.2403 11.2665 33.6564 11.7193 33.9927C12.1687 34.329 12.6915 34.5853 13.2841 34.7518C13.8767 34.9216 14.4793 35.0048 15.1019 35.0048C16.0041 35.0048 16.7366 34.9149 17.2993 34.7285C17.8619 34.5454 18.328 34.3123 18.6943 34.0327C19.0039 33.8063 19.2569 33.6531 19.4533 33.5666C19.6498 33.4833 19.9194 33.44 20.2557 33.44H23.635C23.9446 33.44 24.2176 33.5532 24.4573 33.7763C24.697 34.0027 24.8036 34.269 24.7736 34.5787C24.7437 34.9749 24.5273 35.4809 24.1177 36.1002C23.7082 36.7194 23.0956 37.3254 22.2799 37.918C21.4609 38.5106 20.4555 39.0167 19.2602 39.4395C18.0617 39.8623 16.6767 40.0721 15.0986 40.0721C13.5205 40.0721 12.0922 39.7991 10.8104 39.2497C9.52858 38.7004 8.43656 37.918 7.53431 36.9059C6.63206 35.8904 5.94289 34.6885 5.46346 33.2935C4.98404 31.8986 4.74432 30.3571 4.74432 28.6658V28.6758ZM15.0952 22.3367C14.2795 22.3367 13.5804 22.4566 13.0044 22.6963C12.4251 22.936 11.9424 23.2456 11.5462 23.6251C11.15 24.0047 10.8503 24.4275 10.6373 24.8936C10.4242 25.3597 10.291 25.8025 10.2344 26.2254H19.7829C19.7263 25.8025 19.6198 25.3597 19.4667 24.8936C19.3102 24.4275 19.0571 24.008 18.7076 23.6251C18.3547 23.2456 17.8919 22.936 17.3126 22.6963C16.7333 22.4566 15.9942 22.3367 15.0952 22.3367Z" fill="white"/>
<path d="M106.713 9.98804C107.028 9.98804 107.299 10.1025 107.528 10.3315C107.756 10.5605 107.871 10.8324 107.871 11.1472V14.4887C107.871 14.8036 107.756 15.0755 107.528 15.3045C107.299 15.5334 107.028 15.6479 106.713 15.6479H103.035C102.721 15.6479 102.449 15.5334 102.221 15.3045C101.992 15.0755 101.878 14.8036 101.878 14.4887V11.1472C101.878 10.8324 101.992 10.5605 102.221 10.3315C102.449 10.1025 102.721 9.98804 103.035 9.98804H106.713Z" fill="white"/>
</g>
<defs>
<clipPath id="clip0_507_3225">
<rect width="211.177" height="50" fill="white"/>
</clipPath>
</defs>
</svg>
