<svg xmlns="http://www.w3.org/2000/svg" width="200" height="100" viewBox="0 0 200 100" fill="none">
  <path d="M38.3191 52.8568L37.4759 52.6336L37.3306 52.3266L38.3772 52.5778L38.3191 52.8568Z" fill="#EF4136"/>
  <path d="M38.9588 52.7456L40.1217 53.0525L40.0636 53.3036L38.9006 53.0246L38.9588 52.7456Z" fill="#EF4136"/>
  <path d="M41.4888 53.7779C41.4888 53.8895 41.4597 54.0011 41.3725 54.0848L41.1689 54.029L41.0817 53.9732L41.1108 53.9174C41.1398 53.8616 41.1689 53.8337 41.1689 53.7779C41.1689 53.6942 41.1108 53.5826 40.9944 53.5547L40.8781 53.5268L40.6455 53.471L40.7327 53.192L41.0817 53.2757C41.0817 53.2757 41.0817 53.2757 41.1108 53.2757C41.3143 53.3594 41.4888 53.5547 41.4888 53.7779Z" fill="#EF4136"/>
  <path d="M35.0036 61.2018L35.2072 61.3692L34.4512 62.29L34.2186 62.0947L35.0036 61.2018Z" fill="#EF4136"/>
  <path d="M36.138 59.8342L36.3706 60.0295L35.8763 60.5876L35.5856 60.9224L35.3821 60.755L35.6728 60.3922L36.138 59.8342Z" fill="#EF4136"/>
  <path d="M39.5695 55.7873L39.8021 55.9547L39.395 56.4291L39.017 56.8477L38.7844 56.6802L39.1624 56.2338L39.5695 55.7873Z" fill="#EF4136"/>
  <path d="M40.6996 54.4096L39.9323 55.3214L40.1584 55.4967L40.9258 54.585L40.6996 54.4096Z" fill="#EF4136"/>
  <path d="M41.4889 53.7779C41.4889 53.8895 41.4598 54.0012 41.3726 54.0849C41.3726 54.0849 41.3726 54.0849 41.3726 54.1128L41.3144 54.1407L41.1691 54.0291L41.0818 53.9733L41.1109 53.9174C41.14 53.8616 41.1691 53.8337 41.1691 53.7779C41.1691 53.6942 41.1109 53.5826 40.9946 53.5547L40.8783 53.5268L41.0818 53.2756C41.3144 53.3593 41.4889 53.5547 41.4889 53.7779Z" fill="#EF4136"/>
  <path d="M38.4937 40.884C38.4937 41.2469 38.3773 41.5818 38.2028 41.8888C37.8829 42.419 37.3013 42.7818 36.6325 42.8376C36.5743 42.8376 36.4871 42.8376 36.4289 42.8376C36.3417 42.8376 36.2544 42.8376 36.1672 42.8097C36.0799 42.8097 35.9636 42.7818 35.8764 42.7539C35.7309 42.726 35.5855 42.6702 35.4692 42.5865C34.8004 42.2516 34.3641 41.6097 34.3641 40.8282C34.3641 39.7956 35.1784 38.9584 36.2253 38.8746C36.2835 38.8746 36.3707 38.8746 36.4289 38.8746C36.7779 38.8746 37.0978 38.9584 37.3886 39.0979C38.0284 39.4049 38.4646 40.0468 38.4937 40.7445C38.4937 40.8282 38.4937 40.8561 38.4937 40.884Z" fill="#EF4136"/>
  <path d="M36.3705 60.0297L35.9053 60.5878C35.8181 60.532 35.7599 60.4762 35.6727 60.4204L36.1379 59.8623L36.3705 60.0297Z" fill="#EF4136"/>
  <path d="M39.0173 56.848L38.7847 56.6806L39.1627 56.2342C39.2499 56.29 39.308 56.3458 39.3953 56.4016L39.0173 56.848Z" fill="#EF4136"/>
  <path d="M36.0794 43.5076L35.9631 43.9541L35.8759 44.5401L35.5851 44.4843L35.7014 43.8983L35.7887 43.4518L36.0794 43.5076Z" fill="#EF4136"/>
  <path d="M35.4401 46.5774L35.2365 47.582L35.0912 47.5541L34.9458 47.5262L35.0912 46.8286L35.1493 46.5216L35.3528 46.5495L35.4401 46.5774Z" fill="#EF4136"/>
  <path d="M35.76 45.0427L35.5565 46.0472L35.382 46.0193L35.2657 45.9914L35.3239 45.7123L35.4693 44.9869L35.76 45.0427Z" fill="#EF4136"/>
  <path d="M37.3305 52.327L37.4759 52.6619L38.3192 52.8852L38.4065 52.6061L37.3305 52.327ZM38.959 52.7457L38.8718 53.0247L40.035 53.3317L40.1222 53.0527L38.959 52.7457ZM41.0819 53.2759L40.7038 53.1922L40.6166 53.4713L40.8493 53.5271L40.9656 53.555C41.0819 53.5829 41.1401 53.6946 41.1401 53.7783C41.1401 53.8341 41.111 53.8899 41.0819 53.9178L41.0528 53.9736L41.1401 54.0295L41.2855 54.1411L41.3145 54.0853C41.3145 54.0853 41.3145 54.0853 41.3145 54.0574C41.4018 53.9736 41.4309 53.862 41.4309 53.7504C41.489 53.555 41.3145 53.3597 41.0819 53.2759ZM40.7038 54.4202L39.9477 55.3133L40.1804 55.4807L40.9365 54.5876L40.7038 54.4202ZM39.5697 55.7877L39.1916 56.2622L38.8136 56.7087L39.0462 56.8762L39.4243 56.4296L39.8023 55.9552L39.5697 55.7877ZM36.1382 59.8345L35.6729 60.3927L35.3821 60.7276L35.6147 60.895L35.9055 60.5601L36.3708 60.002L36.1382 59.8345ZM35.004 61.202L34.2479 62.0951L34.4806 62.2626L35.2367 61.3695L35.004 61.202Z" fill="#EF4136"/>
  <path d="M52.627 56.9877V58.2995C52.627 60.6159 50.6494 62.5137 48.2066 62.5137H34.8293L36.2834 60.8113C36.6615 61.0066 37.0977 61.0904 37.5339 61.0904C39.0752 61.0904 40.3257 59.8903 40.3257 58.4111C40.3257 57.7692 40.093 57.1831 39.715 56.7366L41.8379 54.2247L52.627 56.9877Z" fill="#BEBEC0"/>
  <path d="M35.3529 60.0855L33.3172 62.5135H29.4203C26.9775 62.5135 25 60.6157 25 58.2714V54.392L34.7713 57.9923C34.7422 58.1318 34.7422 58.2714 34.7422 58.4109C34.7422 59.0528 34.9748 59.6389 35.3529 60.0855Z" fill="#A8A9AC"/>
  <path d="M40.5874 53.8897L38.7844 56.0108C38.4063 55.8154 37.9701 55.7317 37.5339 55.7317C36.5451 55.7317 35.7018 56.2061 35.2074 56.9318L25 53.192V46.1589L34.6549 46.8008L34.3641 48.2242L31.2815 51.0709L29.8856 52.3547L31.7468 52.7454L31.834 52.7733C32.2993 52.8571 32.7355 52.9129 33.1427 52.9129C33.4626 52.9129 33.7534 52.885 33.986 52.8292C34.4513 53.1641 35.1493 53.3873 36.0217 53.5548L36.1089 53.5827L37.9992 53.8897L37.6502 53.1641L40.5874 53.8897Z" fill="#D2D3D4"/>
  <path d="M52.627 45.3495V55.8154L37.0977 51.8244L35.5273 48.4474L36.4289 43.982H36.4579C37.7666 43.982 38.9007 43.2284 39.3951 42.1679L42.7685 42.9773L45.3858 45.8798L46.6363 47.2752L47.1597 45.4891L47.1888 45.4053C47.3051 44.9309 47.3924 44.4843 47.3924 44.0936L52.627 45.3495Z" fill="#A8A9AC"/>
  <path d="M52.627 40.2422V44.1774L47.5959 42.9773C47.8577 42.5586 48.0612 42.0563 48.2066 41.4423L48.2357 41.3585L48.6428 39.5724L42.594 41.8051L39.6568 41.1074C39.6568 41.0515 39.6568 40.9678 39.6568 40.912C39.6568 39.6003 38.8134 38.4839 37.592 38.0374L38.0283 36H48.2066C50.6494 36 52.627 37.8978 52.627 40.2422Z" fill="#BEBEC0"/>
  <path d="M36.8359 36L36.487 37.7862H36.4579C34.6839 37.7862 33.2299 39.1816 33.2299 40.8841C33.2299 42.1958 34.0732 43.3122 35.2656 43.7587L34.8875 45.6844L25 45.0146V40.2422C25 37.8978 26.9775 36 29.4203 36H36.8359Z" fill="#BEBEC0"/>
  <path d="M47.2471 41.1353C47.2471 41.1353 47.0144 42.1958 46.5491 42.7261C46.4328 42.8935 46.2874 43.0052 46.1129 43.0331C46.3165 43.2005 46.3747 43.5075 46.3747 43.8425C46.3747 44.4844 46.1711 45.2379 46.1711 45.2379L44.5135 43.3959L43.6702 42.447L44.3681 42.1958L47.2471 41.1353Z" fill="url(#paint0_linear_17_1707)"/>
  <path d="M36.3126 52.6058C36.3126 52.6058 34.9458 52.3826 34.4223 51.8802C34.3642 51.8244 34.306 51.7686 34.2769 51.6848C34.2769 51.6569 34.2478 51.629 34.2478 51.6011C34.2188 51.629 34.2188 51.629 34.1897 51.6569C34.1606 51.6848 34.1024 51.7127 34.0734 51.7406C33.8116 51.8802 33.4336 51.9081 33.0555 51.9081C32.532 51.9081 31.9795 51.7965 31.9795 51.7965L34.0152 49.9265L34.7422 49.2567L35.1494 50.1498L35.7892 51.4895L36.0218 51.9918L36.1672 52.3267L36.3126 52.6058Z" fill="url(#paint1_linear_17_1707)"/>
  <path d="M114.715 48.6149L117.623 43.1168H115.849L113.872 46.8287L113.174 48.1404V45.4332V43.1168H111.574V55.3968H113.174V51.5174V49.0614L113.813 50.3452L116.256 55.3968H118.03L114.715 48.6149Z" fill="#EF4136"/>
  <path d="M73.2452 53.9176V43.1168H71.6458V53.9176V55.3968H73.2452H77.8401V53.9176H73.2452Z" fill="#EF4136"/>
  <path d="M65.8297 44.5959V43.1168H61.2058H59.6063V44.5959V50.0103V51.4895V55.3968H61.2058V51.4895H64.6665V50.0103H61.2058V44.5959H65.8297Z" fill="#EF4136"/>
  <path d="M88.6 43.1168C85.0521 43.1168 82.2022 45.8519 82.2022 49.2568C82.2022 52.6338 85.0521 55.3968 88.6 55.3968C92.1479 55.3968 94.9978 52.6338 94.9978 49.2568C94.9978 45.8519 92.1479 43.1168 88.6 43.1168ZM88.6 53.8618C85.9536 53.8618 83.8016 51.7965 83.8016 49.2568C83.8016 46.717 85.9536 44.6518 88.6 44.6518C91.2464 44.6518 93.3984 46.717 93.3984 49.2568C93.3984 51.7965 91.2464 53.8618 88.6 53.8618Z" fill="#EF4136"/>
  <path d="M105.758 44.6518V43.1168C102.239 43.1168 99.3599 45.8519 99.3599 49.2568C99.3599 52.6338 102.239 55.3968 105.758 55.3968V53.8618C103.111 53.8618 100.959 51.7965 100.959 49.2568C100.959 46.717 103.111 44.6518 105.758 44.6518Z" fill="#EF4136"/>
  <path d="M130.244 43.1168H123.846V44.5959H126.231V55.3968H127.83V44.5959H130.244V43.1168Z" fill="#EF4136"/>
  <path d="M141.004 43.1168C137.456 43.1168 134.606 45.8519 134.606 49.2568C134.606 52.6338 137.456 55.3968 141.004 55.3968C144.552 55.3968 147.402 52.6338 147.402 49.2568C147.402 45.8519 144.523 43.1168 141.004 43.1168ZM141.004 53.8618C138.358 53.8618 136.206 51.7965 136.206 49.2568C136.206 46.717 138.358 44.6518 141.004 44.6518C143.65 44.6518 145.802 46.717 145.802 49.2568C145.802 51.7965 143.65 53.8618 141.004 53.8618Z" fill="#EF4136"/>
  <path d="M172.877 50.9034C173.168 50.7359 173.429 50.5406 173.662 50.3173C173.691 50.2894 173.691 50.2894 173.72 50.2615C174.505 49.5079 175 48.4474 175 47.3031C175 46.2705 174.622 45.3216 173.953 44.5959C173.866 44.5122 173.807 44.4285 173.72 44.3448C172.935 43.5912 171.83 43.1168 170.638 43.1168H170.201H168.602V43.5912V44.5959V45.4332V49.173V50.0103V50.2894V50.9871V51.4616V51.936V55.3688H170.201V51.4616C170.987 51.4616 171.685 51.7686 172.208 52.243C172.731 52.7454 173.022 53.4152 173.022 54.1687C173.022 54.5874 172.906 55.006 172.731 55.3688H174.389C174.505 54.9781 174.564 54.5874 174.564 54.1687C174.564 53.0245 174.069 51.9639 173.284 51.2104C173.168 51.1267 173.022 50.9871 172.877 50.9034ZM170.23 44.6238C170.376 44.5959 170.521 44.5959 170.667 44.5959C171.452 44.5959 172.15 44.9029 172.673 45.3774C173.197 45.8798 173.488 46.5496 173.488 47.3031C173.488 48.0567 173.168 48.7265 172.673 49.2288C172.15 49.7312 171.452 50.0103 170.667 50.0103C170.521 50.0103 170.376 50.0103 170.23 49.9824V44.6238Z" fill="#EF4136"/>
  <path d="M161.216 43.1168V47.359V50.7918C161.216 52.4942 159.791 53.8618 158.017 53.8618C156.243 53.8618 154.818 52.4942 154.818 50.7918V47.359V43.1168H153.218V50.7918C153.218 52.1593 153.829 53.3873 154.818 54.2246C155.661 54.9502 156.795 55.3968 158.017 55.3968C159.238 55.3968 160.372 54.9502 161.216 54.2246C162.204 53.3873 162.815 52.1593 162.815 50.7918V43.1168H161.216Z" fill="#EF4136"/>
  <path d="M38.9297 57.6574C38.7262 57.3225 38.4063 57.0713 38.0282 56.9596C37.8828 56.9038 37.7084 56.8759 37.5339 56.8759C37.0686 56.8759 36.6324 57.0713 36.3416 57.3783C36.0799 57.6574 35.9344 58.0202 35.9344 58.4109C35.9344 58.69 36.0217 58.9412 36.138 59.1644C36.3416 59.4993 36.6615 59.7505 37.0395 59.8621C37.1849 59.918 37.3594 59.9459 37.5339 59.9459C38.4063 59.9459 39.1333 59.2481 39.1333 58.4109C39.1333 58.1318 39.0461 57.8806 38.9297 57.6574ZM37.5339 59.4993C37.4176 59.4993 37.3012 59.4714 37.1849 59.4435C36.9232 59.3598 36.6905 59.1923 36.5451 58.9412C36.4579 58.7737 36.3997 58.6062 36.3997 58.4109C36.3997 58.1318 36.5161 57.8806 36.6905 57.6853C36.8941 57.462 37.1849 57.3225 37.5339 57.3225C37.6502 57.3225 37.7665 57.3504 37.8828 57.3783C38.1446 57.462 38.3772 57.6294 38.5226 57.8806C38.6099 58.0481 38.668 58.2155 38.668 58.4109C38.668 58.997 38.1446 59.4993 37.5339 59.4993Z" fill="#EF4136"/>
  <path d="M52.627 56.9877V58.2995C52.627 60.6159 50.6494 62.5137 48.2066 62.5137H34.8293L36.2834 60.8113C36.6615 61.0066 37.0977 61.0904 37.5339 61.0904C39.0752 61.0904 40.3257 59.8903 40.3257 58.4111C40.3257 57.7692 40.093 57.1831 39.715 56.7366L41.8379 54.2247L52.627 56.9877Z" fill="#73C382"/>
  <path d="M41.6344 58.7739C41.9834 59.1925 42.0997 58.9413 43.7282 59.8344C44.7461 60.4205 44.5716 60.7554 45.415 61.202C46.9272 62.0113 49.4863 62.0113 50.6787 60.5321C51.2312 59.8344 51.6674 58.6343 51.173 58.132C50.2715 57.211 47.1889 59.4716 45.9384 58.3831C45.2114 57.7412 45.8221 56.5691 45.0951 56.1783C44.3971 55.8155 43.292 56.5411 42.0125 57.3505C41.14 57.9366 41.5762 58.6901 41.6344 58.7739Z" fill="#00AEEF"/>
  <defs>
    <linearGradient id="paint0_linear_17_1707" x1="46.0925" y1="43.0333" x2="43.6713" y2="42.4" gradientUnits="userSpaceOnUse">
      <stop stop-color="#00A79D"/>
      <stop offset="1" stop-color="#00635D"/>
    </linearGradient>
    <linearGradient id="paint1_linear_17_1707" x1="34.1888" y1="52.0114" x2="34.6458" y2="49.2313" gradientUnits="userSpaceOnUse">
      <stop stop-color="#00A79D"/>
      <stop offset="1" stop-color="#00635D"/>
    </linearGradient>
  </defs>
</svg>