<svg xmlns="http://www.w3.org/2000/svg" width="200" height="100" viewBox="0 0 200 100" fill="none">
  <path d="M175 30H25V69.4563H175V30Z" fill="#263238"/>
  <path d="M175 30H138.732V69.4563H175V30Z" fill="#1E88E5"/>
  <path d="M137.746 56.5581C137.993 56.5581 138.212 56.6369 138.403 56.8208C138.595 57.0047 138.677 57.2148 138.677 57.4512V60.7348C138.677 60.9713 138.595 61.1814 138.403 61.3653C138.212 61.5492 137.993 61.628 137.746 61.628H134.516C134.27 61.628 134.051 61.5492 133.859 61.3653C133.668 61.1814 133.586 60.9713 133.586 60.7348V57.4775C133.586 57.2411 133.668 57.0309 133.859 56.8471C134.051 56.6632 134.27 56.5844 134.516 56.5844H137.746V56.5581Z" fill="white"/>
  <path d="M60.2828 50.0171L66.8796 38.879C66.9617 38.7739 67.1259 38.59 67.3449 38.3273C67.5639 38.0909 67.9197 37.9595 68.3577 37.9595H70.7117C70.958 37.9595 71.177 38.0383 71.3686 38.2222C71.5602 38.4061 71.6423 38.6163 71.6423 38.8527V60.7086C71.6423 60.945 71.5602 61.1814 71.3686 61.3391C71.177 61.5229 70.958 61.6017 70.7117 61.6017H67.8923C67.646 61.6017 67.427 61.5229 67.2354 61.3391C67.0438 61.1552 66.9617 60.945 66.9617 60.7086V47.4952L62.4453 55.1133C62.3358 55.2972 62.1715 55.481 61.9526 55.6649C61.7336 55.8488 61.4872 55.9539 61.1588 55.9539H59.3522C59.0237 55.9539 58.75 55.8488 58.5584 55.6649C58.3394 55.481 58.1752 55.2972 58.0657 55.1133L53.5493 47.4952V60.7086C53.5493 60.945 53.4672 61.1814 53.2756 61.3391C53.084 61.5229 52.865 61.6017 52.6186 61.6017H49.8267C49.5803 61.6017 49.3613 61.5229 49.1697 61.3391C48.9781 61.1552 48.896 60.945 48.896 60.7086V38.879C48.896 38.6425 48.9781 38.4061 49.1697 38.2485C49.3613 38.0646 49.5803 37.9858 49.8267 37.9858H52.1807C52.646 37.9858 52.9745 38.1171 53.1934 38.3536C53.4124 38.59 53.5766 38.7739 53.6588 38.9052L60.2828 50.0171Z" fill="white"/>
  <path d="M72.573 52.6177C72.573 51.3831 72.7646 50.201 73.1752 49.0977C73.5584 47.9944 74.1332 47.0487 74.8723 46.2344C75.6113 45.42 76.5146 44.7896 77.5548 44.3167C78.5949 43.8439 79.7719 43.6075 81.0858 43.6075C82.3723 43.6075 83.5493 43.8439 84.6168 44.2905C85.6569 44.737 86.5602 45.3675 87.2993 46.1293C88.0383 46.8911 88.6132 47.7842 89.0237 48.835C89.4343 49.8595 89.6259 50.9628 89.6259 52.0924V53.5897C89.6259 53.8261 89.5438 54.0363 89.3522 54.2201C89.1606 54.404 88.9416 54.4828 88.6953 54.4828H77.0894C77.0894 54.9819 77.1989 55.4548 77.4179 55.8225C77.6369 56.2166 77.938 56.5318 78.2938 56.7945C78.677 57.0572 79.0876 57.2673 79.5803 57.3987C80.073 57.53 80.5657 57.6088 81.0858 57.6088C81.8248 57.6088 82.427 57.53 82.8923 57.3987C83.3577 57.2673 83.7409 57.0835 84.042 56.847C84.2883 56.6632 84.5073 56.5581 84.6715 56.4793C84.8358 56.4005 85.0548 56.3742 85.3285 56.3742H88.1205C88.3668 56.3742 88.6132 56.453 88.8048 56.6369C88.9964 56.8208 89.0785 57.0309 89.0785 57.2673C89.0511 57.5826 88.8869 57.9766 88.531 58.4757C88.2026 58.9748 87.6825 59.4477 87.0256 59.9205C86.3413 60.3933 85.5201 60.7874 84.5347 61.1289C83.5493 61.4704 82.3996 61.628 81.1131 61.628C79.8267 61.628 78.6496 61.4178 77.5821 60.9713C76.5146 60.551 75.6387 59.9205 74.8996 59.1324C74.1606 58.3444 73.5858 57.3724 73.2026 56.2691C72.7646 55.1658 72.573 53.9575 72.573 52.6177ZM81.0858 47.6266C80.4015 47.6266 79.854 47.7317 79.3613 47.9156C78.896 48.0995 78.4854 48.3359 78.1569 48.6511C77.8285 48.9401 77.5821 49.2816 77.4179 49.6493C77.2537 50.0171 77.1442 50.3586 77.0894 50.7001H84.9453C84.8905 50.3586 84.8084 50.0171 84.6715 49.6493C84.5347 49.2816 84.3431 48.9401 84.042 48.6511C83.7409 48.3622 83.3577 48.0995 82.8923 47.9156C82.427 47.7317 81.8248 47.6266 81.0858 47.6266Z" fill="white"/>
  <path d="M98.3577 43.5286C99.0694 43.5286 99.7263 43.6074 100.274 43.7387C100.849 43.8701 101.341 44.0277 101.779 44.2378C102.217 44.448 102.573 44.6582 102.874 44.8946C103.175 45.131 103.422 45.3412 103.613 45.5513V38.8527C103.613 38.6163 103.695 38.4061 103.887 38.2222C104.079 38.0383 104.297 37.9595 104.544 37.9595H107.172C107.418 37.9595 107.637 38.0383 107.829 38.2222C108.02 38.4061 108.102 38.6163 108.102 38.8527V60.7348C108.102 60.9713 108.02 61.1814 107.829 61.3653C107.637 61.5492 107.418 61.628 107.172 61.628H104.544C104.297 61.628 104.079 61.5492 103.887 61.3653C103.695 61.1814 103.613 60.9713 103.613 60.7348V59.5527C103.422 59.7629 103.175 59.973 102.874 60.2095C102.573 60.4459 102.217 60.656 101.779 60.8662C101.341 61.0763 100.849 61.234 100.274 61.3653C99.6989 61.4966 99.0694 61.5754 98.3577 61.5754C97.2081 61.5754 96.1406 61.3653 95.2099 60.9187C94.2792 60.4984 93.4854 59.9205 92.8011 59.185C92.1442 58.4757 91.6241 57.6351 91.2409 56.6894C90.8577 55.7437 90.6387 54.7718 90.6114 53.7473C90.584 53.4058 90.584 53.038 90.584 52.5914C90.584 52.1448 90.584 51.7508 90.6114 51.4356C90.6661 50.4111 90.8851 49.4391 91.2409 48.4934C91.6241 47.5478 92.1442 46.7071 92.8011 45.9979C93.4581 45.2886 94.2519 44.7107 95.2099 44.2641C96.1679 43.765 97.2081 43.5286 98.3577 43.5286ZM95.1278 51.6195C95.0457 52.2499 95.0457 52.8541 95.1278 53.4846C95.2646 54.9294 95.73 55.9801 96.5238 56.6106C97.3176 57.2411 98.2756 57.5563 99.3978 57.5563C100.52 57.5563 101.478 57.241 102.272 56.5843C103.038 55.9276 103.504 55.0082 103.613 53.8261C103.668 53.4846 103.695 53.0643 103.695 52.5652C103.695 52.066 103.668 51.6195 103.613 51.3042C103.504 50.1484 103.038 49.229 102.272 48.5722C101.506 47.9155 100.547 47.574 99.3978 47.574C98.2756 47.574 97.2902 47.8893 96.5238 48.5197C95.73 49.1239 95.2646 50.1747 95.1278 51.6195Z" fill="white"/>
  <path d="M112.947 37.9595C113.193 37.9595 113.412 38.0383 113.604 38.2222C113.796 38.4061 113.878 38.6163 113.878 38.8527V41.4533C113.878 41.6898 113.796 41.8999 113.604 42.0838C113.412 42.2677 113.193 42.3465 112.947 42.3465H109.963C109.717 42.3465 109.498 42.2677 109.306 42.0838C109.115 41.8999 109.033 41.6898 109.033 41.4533V38.8527C109.033 38.6163 109.115 38.4061 109.306 38.2222C109.498 38.0383 109.717 37.9595 109.963 37.9595H112.947Z" fill="white"/>
  <path d="M113.631 31.655C113.878 31.655 114.097 31.7338 114.288 31.9177C114.48 32.1015 114.562 32.3117 114.562 32.5481V35.1488C114.562 35.3852 114.48 35.5954 114.288 35.7792C114.097 35.9631 113.878 36.0419 113.631 36.0419H110.648C110.401 36.0419 110.182 35.9631 109.991 35.7792C109.799 35.5954 109.717 35.3852 109.717 35.1488V32.5481C109.717 32.3117 109.799 32.1015 109.991 31.9177C110.182 31.7338 110.401 31.655 110.648 31.655H113.631Z" fill="white"/>
  <path d="M170.21 31.655C170.456 31.655 170.675 31.7338 170.867 31.9177C171.058 32.1015 171.141 32.3117 171.141 32.5481V35.1488C171.141 35.3852 171.058 35.5954 170.867 35.7792C170.675 35.9631 170.456 36.0419 170.21 36.0419H167.226C166.98 36.0419 166.761 35.9631 166.569 35.7792C166.378 35.5954 166.296 35.3852 166.296 35.1488V32.5481C166.296 32.3117 166.378 32.1015 166.569 31.9177C166.761 31.7338 166.98 31.655 167.226 31.655H170.21Z" fill="white"/>
  <path d="M162.135 31.655C162.381 31.655 162.6 31.7338 162.792 31.9177C162.983 32.1015 163.066 32.3117 163.066 32.5481V35.1488C163.066 35.3852 162.983 35.5954 162.792 35.7792C162.6 35.9631 162.381 36.0419 162.135 36.0419H159.151C158.905 36.0419 158.686 35.9631 158.494 35.7792C158.303 35.5954 158.221 35.3852 158.221 35.1488V32.5481C158.221 32.3117 158.303 32.1015 158.494 31.9177C158.686 31.7338 158.905 31.655 159.151 31.655H162.135Z" fill="white"/>
  <path d="M154.06 31.655C154.307 31.655 154.525 31.7338 154.717 31.9177C154.909 32.1015 154.991 32.3117 154.991 32.5481V35.1488C154.991 35.3852 154.909 35.5954 154.717 35.7792C154.525 35.9631 154.307 36.0419 154.06 36.0419H151.077C150.83 36.0419 150.611 35.9631 150.42 35.7792C150.228 35.5954 150.146 35.3852 150.146 35.1488V32.5481C150.146 32.3117 150.228 32.1015 150.42 31.9177C150.611 31.7338 150.83 31.655 151.077 31.655H154.06Z" fill="white"/>
  <path d="M145.985 31.655C146.232 31.655 146.451 31.7338 146.642 31.9177C146.834 32.1015 146.916 32.3117 146.916 32.5481V35.1488C146.916 35.3852 146.834 35.5954 146.642 35.7792C146.451 35.9631 146.232 36.0419 145.985 36.0419H142.974C142.728 36.0419 142.509 35.9631 142.317 35.7792C142.126 35.5954 142.044 35.3852 142.044 35.1488V32.5481C142.044 32.3117 142.126 32.1015 142.317 31.9177C142.509 31.7338 142.728 31.655 142.974 31.655H145.985Z" fill="white"/>
  <path d="M137.883 31.655C138.13 31.655 138.348 31.7338 138.54 31.9177C138.732 32.1015 138.814 32.3117 138.814 32.5481V35.1488C138.814 35.3852 138.732 35.5954 138.54 35.7792C138.348 35.9631 138.13 36.0419 137.883 36.0419H134.9C134.653 36.0419 134.434 35.9631 134.243 35.7792C134.051 35.5954 133.969 35.3852 133.969 35.1488V32.5481C133.969 32.3117 134.051 32.1015 134.243 31.9177C134.434 31.7338 134.653 31.655 134.9 31.655H137.883Z" fill="white"/>
  <path d="M129.808 31.655C130.055 31.655 130.274 31.7338 130.465 31.9177C130.657 32.1015 130.739 32.3117 130.739 32.5481V35.1488C130.739 35.3852 130.657 35.5954 130.465 35.7792C130.274 35.9631 130.055 36.0419 129.808 36.0419H126.825C126.578 36.0419 126.359 35.9631 126.168 35.7792C125.976 35.5954 125.894 35.3852 125.894 35.1488V32.5481C125.894 32.3117 125.976 32.1015 126.168 31.9177C126.359 31.7338 126.578 31.655 126.825 31.655H129.808Z" fill="white"/>
  <path d="M121.734 31.655C121.98 31.655 122.199 31.7338 122.391 31.9177C122.582 32.1015 122.664 32.3117 122.664 32.5481V35.1488C122.664 35.3852 122.582 35.5954 122.391 35.7792C122.199 35.9631 121.98 36.0419 121.734 36.0419H118.75C118.504 36.0419 118.285 35.9631 118.093 35.7792C117.902 35.5954 117.819 35.3852 117.819 35.1488V32.5481C117.819 32.3117 117.902 32.1015 118.093 31.9177C118.285 31.7338 118.504 31.655 118.75 31.655H121.734Z" fill="white"/>
  <path d="M48.9781 31.655C49.2245 31.655 49.4435 31.7338 49.6351 31.9177C49.8267 32.1015 49.9088 32.3117 49.9088 32.5481V35.1488C49.9088 35.3852 49.8267 35.5954 49.6351 35.7792C49.4435 35.9631 49.2245 36.0419 48.9781 36.0419H45.9946C45.7482 36.0419 45.5292 35.9631 45.3376 35.7792C45.146 35.5954 45.0639 35.3852 45.0639 35.1488V32.5481C45.0639 32.3117 45.146 32.1015 45.3376 31.9177C45.5292 31.7338 45.7482 31.655 45.9946 31.655H48.9781Z" fill="white"/>
  <path d="M105.556 31.655C105.803 31.655 106.022 31.7338 106.213 31.9177C106.405 32.1015 106.487 32.3117 106.487 32.5481V35.1488C106.487 35.3852 106.405 35.5954 106.213 35.7792C106.022 35.9631 105.803 36.0419 105.556 36.0419H102.573C102.327 36.0419 102.108 35.9631 101.916 35.7792C101.724 35.5954 101.642 35.3852 101.642 35.1488V32.5481C101.642 32.3117 101.724 32.1015 101.916 31.9177C102.108 31.7338 102.327 31.655 102.573 31.655H105.556Z" fill="white"/>
  <path d="M97.4817 31.655C97.728 31.655 97.947 31.7338 98.1386 31.9177C98.3302 32.1015 98.4123 32.3117 98.4123 32.5481V35.1488C98.4123 35.3852 98.3302 35.5954 98.1386 35.7792C97.947 35.9631 97.728 36.0419 97.4817 36.0419H94.4981C94.2517 36.0419 94.0328 35.9631 93.8412 35.7792C93.6496 35.5954 93.5674 35.3852 93.5674 35.1488V32.5481C93.5674 32.3117 93.6496 32.1015 93.8412 31.9177C94.0328 31.7338 94.2517 31.655 94.4981 31.655H97.4817Z" fill="white"/>
  <path d="M89.4069 31.655C89.6533 31.655 89.8722 31.7338 90.0638 31.9177C90.2555 32.1015 90.3376 32.3117 90.3376 32.5481V35.1488C90.3376 35.3852 90.2555 35.5954 90.0638 35.7792C89.8722 35.9631 89.6533 36.0419 89.4069 36.0419H86.4233C86.177 36.0419 85.958 35.9631 85.7664 35.7792C85.5748 35.5954 85.4927 35.3852 85.4927 35.1488V32.5481C85.4927 32.3117 85.5748 32.1015 85.7664 31.9177C85.958 31.7338 86.177 31.655 86.4233 31.655H89.4069Z" fill="white"/>
  <path d="M81.3047 31.655C81.551 31.655 81.77 31.7338 81.9616 31.9177C82.1532 32.1015 82.2353 32.3117 82.2353 32.5481V35.1488C82.2353 35.3852 82.1532 35.5954 81.9616 35.7792C81.77 35.9631 81.551 36.0419 81.3047 36.0419H78.3211C78.0748 36.0419 77.8558 35.9631 77.6642 35.7792C77.4726 35.5954 77.3904 35.3852 77.3904 35.1488V32.5481C77.3904 32.3117 77.4726 32.1015 77.6642 31.9177C77.8558 31.7338 78.0748 31.655 78.3211 31.655H81.3047Z" fill="white"/>
  <path d="M73.2299 31.655C73.4763 31.655 73.6952 31.7338 73.8868 31.9177C74.0785 32.1015 74.1606 32.3117 74.1606 32.5481V35.1488C74.1606 35.3852 74.0785 35.5954 73.8868 35.7792C73.6952 35.9631 73.4763 36.0419 73.2299 36.0419H70.2463C70 36.0419 69.781 35.9631 69.5894 35.7792C69.3978 35.5954 69.3157 35.3852 69.3157 35.1488V32.5481C69.3157 32.3117 69.3978 32.1015 69.5894 31.9177C69.781 31.7338 70 31.655 70.2463 31.655H73.2299Z" fill="white"/>
  <path d="M65.1551 31.655C65.4015 31.655 65.6205 31.7338 65.8121 31.9177C66.0037 32.1015 66.0858 32.3117 66.0858 32.5481V35.1488C66.0858 35.3852 66.0037 35.5954 65.8121 35.7792C65.6205 35.9631 65.4015 36.0419 65.1551 36.0419H62.1716C61.9252 36.0419 61.7062 35.9631 61.5146 35.7792C61.323 35.5954 61.2409 35.3852 61.2409 35.1488V32.5481C61.2409 32.3117 61.323 32.1015 61.5146 31.9177C61.7062 31.7338 61.9252 31.655 62.1716 31.655H65.1551Z" fill="white"/>
  <path d="M57.0802 31.655C57.3265 31.655 57.5455 31.7338 57.7371 31.9177C57.9287 32.1015 58.0108 32.3117 58.0108 32.5481V35.1488C58.0108 35.3852 57.9287 35.5954 57.7371 35.7792C57.5455 35.9631 57.3265 36.0419 57.0802 36.0419H54.0966C53.8503 36.0419 53.6313 35.9631 53.4397 35.7792C53.2481 35.5954 53.166 35.3852 53.166 35.1488V32.5481C53.166 32.3117 53.2481 32.1015 53.4397 31.9177C53.6313 31.7338 53.8503 31.655 54.0966 31.655H57.0802Z" fill="white"/>
  <path d="M40.9032 31.655C41.1495 31.655 41.3685 31.7338 41.5601 31.9177C41.7517 32.1015 41.8338 32.3117 41.8338 32.5481V35.1488C41.8338 35.3852 41.7517 35.5954 41.5601 35.7792C41.3685 35.9631 41.1495 36.0419 40.9032 36.0419H37.9196C37.6733 36.0419 37.4543 35.9631 37.2627 35.7792C37.0711 35.5954 36.989 35.3852 36.989 35.1488V32.5481C36.989 32.3117 37.0711 32.1015 37.2627 31.9177C37.4543 31.7338 37.6733 31.655 37.9196 31.655H40.9032Z" fill="white"/>
  <path d="M32.8285 31.655C33.0748 31.655 33.2938 31.7338 33.4854 31.9177C33.677 32.1015 33.7591 32.3117 33.7591 32.5481V35.1488C33.7591 35.3852 33.677 35.5954 33.4854 35.7792C33.2938 35.9631 33.0748 36.0419 32.8285 36.0419H29.8449C29.5986 36.0419 29.3796 35.9631 29.188 35.7792C28.9964 35.5954 28.9142 35.3852 28.9142 35.1488V32.5481C28.9142 32.3117 28.9964 32.1015 29.188 31.9177C29.3796 31.7338 29.5986 31.655 29.8449 31.655H32.8285Z" fill="white"/>
  <path d="M113.631 63.4668C113.878 63.4668 114.097 63.5456 114.288 63.7295C114.48 63.9134 114.562 64.1235 114.562 64.3599V66.9606C114.562 67.197 114.48 67.4071 114.288 67.591C114.097 67.7749 113.878 67.8537 113.631 67.8537H110.648C110.401 67.8537 110.182 67.7749 109.991 67.591C109.799 67.4071 109.717 67.197 109.717 66.9606V64.3599C109.717 64.1235 109.799 63.9134 109.991 63.7295C110.182 63.5456 110.401 63.4668 110.648 63.4668H113.631Z" fill="white"/>
  <path d="M170.21 63.4668C170.456 63.4668 170.675 63.5456 170.867 63.7295C171.058 63.9134 171.141 64.1235 171.141 64.3599V66.9606C171.141 67.197 171.058 67.4071 170.867 67.591C170.675 67.7749 170.456 67.8537 170.21 67.8537H167.226C166.98 67.8537 166.761 67.7749 166.569 67.591C166.378 67.4071 166.296 67.197 166.296 66.9606V64.3599C166.296 64.1235 166.378 63.9134 166.569 63.7295C166.761 63.5456 166.98 63.4668 167.226 63.4668H170.21Z" fill="white"/>
  <path d="M162.135 63.4668C162.381 63.4668 162.6 63.5456 162.792 63.7295C162.983 63.9134 163.066 64.1235 163.066 64.3599V66.9606C163.066 67.197 162.983 67.4071 162.792 67.591C162.6 67.7749 162.381 67.8537 162.135 67.8537H159.151C158.905 67.8537 158.686 67.7749 158.494 67.591C158.303 67.4071 158.221 67.197 158.221 66.9606V64.3599C158.221 64.1235 158.303 63.9134 158.494 63.7295C158.686 63.5456 158.905 63.4668 159.151 63.4668H162.135Z" fill="white"/>
  <path d="M154.06 63.4668C154.307 63.4668 154.525 63.5456 154.717 63.7295C154.909 63.9134 154.991 64.1235 154.991 64.3599V66.9606C154.991 67.197 154.909 67.4071 154.717 67.591C154.525 67.7749 154.307 67.8537 154.06 67.8537H151.077C150.83 67.8537 150.611 67.7749 150.42 67.591C150.228 67.4071 150.146 67.197 150.146 66.9606V64.3599C150.146 64.1235 150.228 63.9134 150.42 63.7295C150.611 63.5456 150.83 63.4668 151.077 63.4668H154.06Z" fill="white"/>
  <path d="M145.985 63.4668C146.232 63.4668 146.451 63.5456 146.642 63.7295C146.834 63.9134 146.916 64.1235 146.916 64.3599V66.9606C146.916 67.197 146.834 67.4071 146.642 67.591C146.451 67.7749 146.232 67.8537 145.985 67.8537H142.974C142.728 67.8537 142.509 67.7749 142.317 67.591C142.126 67.4071 142.044 67.197 142.044 66.9606V64.3599C142.044 64.1235 142.126 63.9134 142.317 63.7295C142.509 63.5456 142.728 63.4668 142.974 63.4668H145.985Z" fill="white"/>
  <path d="M137.883 63.4668C138.13 63.4668 138.348 63.5456 138.54 63.7295C138.732 63.9134 138.814 64.1235 138.814 64.3599V66.9606C138.814 67.197 138.732 67.4071 138.54 67.591C138.348 67.7749 138.13 67.8537 137.883 67.8537H134.9C134.653 67.8537 134.434 67.7749 134.243 67.591C134.051 67.4071 133.969 67.197 133.969 66.9606V64.3599C133.969 64.1235 134.051 63.9134 134.243 63.7295C134.434 63.5456 134.653 63.4668 134.9 63.4668H137.883Z" fill="white"/>
  <path d="M129.808 63.4668C130.055 63.4668 130.274 63.5456 130.465 63.7295C130.657 63.9134 130.739 64.1235 130.739 64.3599V66.9606C130.739 67.197 130.657 67.4071 130.465 67.591C130.274 67.7749 130.055 67.8537 129.808 67.8537H126.825C126.578 67.8537 126.359 67.7749 126.168 67.591C125.976 67.4071 125.894 67.197 125.894 66.9606V64.3599C125.894 64.1235 125.976 63.9134 126.168 63.7295C126.359 63.5456 126.578 63.4668 126.825 63.4668H129.808Z" fill="white"/>
  <path d="M121.734 63.4668C121.98 63.4668 122.199 63.5456 122.391 63.7295C122.582 63.9134 122.664 64.1235 122.664 64.3599V66.9606C122.664 67.197 122.582 67.4071 122.391 67.591C122.199 67.7749 121.98 67.8537 121.734 67.8537H118.75C118.504 67.8537 118.285 67.7749 118.093 67.591C117.902 67.4071 117.819 67.197 117.819 66.9606V64.3599C117.819 64.1235 117.902 63.9134 118.093 63.7295C118.285 63.5456 118.504 63.4668 118.75 63.4668H121.734Z" fill="white"/>
  <path d="M48.9781 63.4668C49.2245 63.4668 49.4435 63.5456 49.6351 63.7295C49.8267 63.9134 49.9088 64.1235 49.9088 64.3599V66.9606C49.9088 67.197 49.8267 67.4071 49.6351 67.591C49.4435 67.7749 49.2245 67.8537 48.9781 67.8537H45.9946C45.7482 67.8537 45.5292 67.7749 45.3376 67.591C45.146 67.4071 45.0639 67.197 45.0639 66.9606V64.3599C45.0639 64.1235 45.146 63.9134 45.3376 63.7295C45.5292 63.5456 45.7482 63.4668 45.9946 63.4668H48.9781Z" fill="white"/>
  <path d="M105.556 63.4668C105.803 63.4668 106.022 63.5456 106.213 63.7295C106.405 63.9134 106.487 64.1235 106.487 64.3599V66.9606C106.487 67.197 106.405 67.4071 106.213 67.591C106.022 67.7749 105.803 67.8537 105.556 67.8537H102.573C102.327 67.8537 102.108 67.7749 101.916 67.591C101.724 67.4071 101.642 67.197 101.642 66.9606V64.3599C101.642 64.1235 101.724 63.9134 101.916 63.7295C102.108 63.5456 102.327 63.4668 102.573 63.4668H105.556Z" fill="white"/>
  <path d="M97.4817 63.4668C97.728 63.4668 97.947 63.5456 98.1386 63.7295C98.3302 63.9134 98.4123 64.1235 98.4123 64.3599V66.9606C98.4123 67.197 98.3302 67.4071 98.1386 67.591C97.947 67.7749 97.728 67.8537 97.4817 67.8537H94.4981C94.2517 67.8537 94.0328 67.7749 93.8412 67.591C93.6496 67.4071 93.5674 67.197 93.5674 66.9606V64.3599C93.5674 64.1235 93.6496 63.9134 93.8412 63.7295C94.0328 63.5456 94.2517 63.4668 94.4981 63.4668H97.4817Z" fill="white"/>
  <path d="M89.4069 63.4668C89.6533 63.4668 89.8722 63.5456 90.0638 63.7295C90.2555 63.9134 90.3376 64.1235 90.3376 64.3599V66.9606C90.3376 67.197 90.2555 67.4071 90.0638 67.591C89.8722 67.7749 89.6533 67.8537 89.4069 67.8537H86.4233C86.177 67.8537 85.958 67.7749 85.7664 67.591C85.5748 67.4071 85.4927 67.197 85.4927 66.9606V64.3599C85.4927 64.1235 85.5748 63.9134 85.7664 63.7295C85.958 63.5456 86.177 63.4668 86.4233 63.4668H89.4069Z" fill="white"/>
  <path d="M81.3047 63.4668C81.551 63.4668 81.77 63.5456 81.9616 63.7295C82.1532 63.9134 82.2353 64.1235 82.2353 64.3599V66.9606C82.2353 67.197 82.1532 67.4071 81.9616 67.591C81.77 67.7749 81.551 67.8537 81.3047 67.8537H78.3211C78.0748 67.8537 77.8558 67.7749 77.6642 67.591C77.4726 67.4071 77.3904 67.197 77.3904 66.9606V64.3599C77.3904 64.1235 77.4726 63.9134 77.6642 63.7295C77.8558 63.5456 78.0748 63.4668 78.3211 63.4668H81.3047Z" fill="white"/>
  <path d="M73.2299 63.4668C73.4763 63.4668 73.6952 63.5456 73.8868 63.7295C74.0785 63.9134 74.1606 64.1235 74.1606 64.3599V66.9606C74.1606 67.197 74.0785 67.4071 73.8868 67.591C73.6952 67.7749 73.4763 67.8537 73.2299 67.8537H70.2463C70 67.8537 69.781 67.7749 69.5894 67.591C69.3978 67.4071 69.3157 67.197 69.3157 66.9606V64.3599C69.3157 64.1235 69.3978 63.9134 69.5894 63.7295C69.781 63.5456 70 63.4668 70.2463 63.4668H73.2299Z" fill="white"/>
  <path d="M65.1551 63.4668C65.4015 63.4668 65.6205 63.5456 65.8121 63.7295C66.0037 63.9134 66.0858 64.1235 66.0858 64.3599V66.9606C66.0858 67.197 66.0037 67.4071 65.8121 67.591C65.6205 67.7749 65.4015 67.8537 65.1551 67.8537H62.1716C61.9252 67.8537 61.7062 67.7749 61.5146 67.591C61.323 67.4071 61.2409 67.197 61.2409 66.9606V64.3599C61.2409 64.1235 61.323 63.9134 61.5146 63.7295C61.7062 63.5456 61.9252 63.4668 62.1716 63.4668H65.1551Z" fill="white"/>
  <path d="M57.0802 63.4668C57.3265 63.4668 57.5455 63.5456 57.7371 63.7295C57.9287 63.9134 58.0108 64.1235 58.0108 64.3599V66.9606C58.0108 67.197 57.9287 67.4071 57.7371 67.591C57.5455 67.7749 57.3265 67.8537 57.0802 67.8537H54.0966C53.8503 67.8537 53.6313 67.7749 53.4397 67.591C53.2481 67.4071 53.166 67.197 53.166 66.9606V64.3599C53.166 64.1235 53.2481 63.9134 53.4397 63.7295C53.6313 63.5456 53.8503 63.4668 54.0966 63.4668H57.0802Z" fill="white"/>
  <path d="M40.9032 63.4668C41.1495 63.4668 41.3685 63.5456 41.5601 63.7295C41.7517 63.9134 41.8338 64.1235 41.8338 64.3599V66.9606C41.8338 67.197 41.7517 67.4071 41.5601 67.591C41.3685 67.7749 41.1495 67.8537 40.9032 67.8537H37.9196C37.6733 67.8537 37.4543 67.7749 37.2627 67.591C37.0711 67.4071 36.989 67.197 36.989 66.9606V64.3599C36.989 64.1235 37.0711 63.9134 37.2627 63.7295C37.4543 63.5456 37.6733 63.4668 37.9196 63.4668H40.9032Z" fill="white"/>
  <path d="M32.8285 63.4668C33.0748 63.4668 33.2938 63.5456 33.4854 63.7295C33.677 63.9134 33.7591 64.1235 33.7591 64.3599V66.9606C33.7591 67.197 33.677 67.4071 33.4854 67.591C33.2938 67.7749 33.0748 67.8537 32.8285 67.8537H29.8449C29.5986 67.8537 29.3796 67.7749 29.188 67.591C28.9964 67.4071 28.9142 67.197 28.9142 66.9606V64.3599C28.9142 64.1235 28.9964 63.9134 29.188 63.7295C29.3796 63.5456 29.5986 63.4668 29.8449 63.4668H32.8285Z" fill="white"/>
  <path d="M113.713 60.7348C113.713 60.9713 113.631 61.1814 113.44 61.3653C113.248 61.5492 113.029 61.628 112.783 61.628H110.128C109.881 61.628 109.662 61.5492 109.471 61.3653C109.279 61.1814 109.197 60.9713 109.197 60.7348V45.1836C109.197 44.9471 109.279 44.737 109.471 44.5531C109.662 44.3692 109.881 44.2904 110.128 44.2904H112.755C113.002 44.2904 113.221 44.3692 113.412 44.5531C113.604 44.737 113.686 44.9471 113.686 45.1836V60.7348H113.713Z" fill="white"/>
  <path d="M116.068 48.2046C116.15 47.7317 116.369 47.2326 116.697 46.7072C117.026 46.1818 117.518 45.6827 118.12 45.2099C118.723 44.737 119.489 44.3693 120.365 44.0541C121.268 43.7651 122.281 43.6075 123.485 43.6075C124.662 43.6075 125.73 43.7651 126.688 44.0541C127.646 44.343 128.467 44.7896 129.124 45.3675C129.808 45.9454 130.328 46.6547 130.712 47.5478C131.095 48.4147 131.259 49.4129 131.259 50.5425V60.7348C131.259 60.9713 131.177 61.1814 130.985 61.3653C130.794 61.5492 130.575 61.628 130.328 61.628H127.701C127.454 61.628 127.235 61.5492 127.044 61.3653C126.852 61.1814 126.77 60.9713 126.77 60.7348V59.2375C126.277 59.868 125.593 60.4196 124.662 60.8925C123.759 61.339 122.582 61.5754 121.159 61.5754C120.173 61.5754 119.27 61.4441 118.476 61.1814C117.682 60.9187 117.026 60.5772 116.505 60.1044C115.985 59.6315 115.575 59.0799 115.274 58.4494C114.973 57.819 114.836 57.136 114.836 56.3742C114.836 54.8506 115.411 53.6422 116.533 52.8016C117.655 51.9347 119.188 51.3568 121.077 51.0416L126.743 50.1222C126.743 49.2028 126.442 48.5723 125.812 48.2046C125.182 47.8368 124.416 47.6529 123.485 47.6529C122.911 47.6529 122.445 47.7317 122.144 47.8893C121.816 48.0469 121.515 48.2571 121.213 48.5198C120.995 48.7037 120.803 48.8087 120.639 48.8875C120.474 48.9664 120.283 48.9926 120.064 48.9926H116.834C116.615 48.9926 116.396 48.9138 116.232 48.7825C116.067 48.5986 116.013 48.4147 116.068 48.2046ZM121.87 57.5563C122.664 57.5563 123.349 57.4512 123.978 57.2411C124.58 57.0309 125.1 56.742 125.511 56.4005C125.922 56.059 126.25 55.6387 126.442 55.2184C126.661 54.7718 126.743 54.3252 126.743 53.8524V53.5109L122.007 54.2989C121.049 54.4566 120.365 54.693 119.954 54.9819C119.544 55.2709 119.325 55.6912 119.325 56.1903C119.325 56.6632 119.571 57.0047 120.064 57.2148C120.611 57.4512 121.186 57.5563 121.87 57.5563Z" fill="white"/>
  <path d="M28.8868 52.6177C28.8868 51.3831 29.0784 50.201 29.489 49.0977C29.8722 47.9944 30.447 47.0487 31.186 46.2344C31.9251 45.42 32.8284 44.7896 33.8685 44.3167C34.9087 43.8439 36.0857 43.6075 37.3996 43.6075C38.686 43.6075 39.8631 43.8439 40.9306 44.2905C41.9707 44.737 42.874 45.3675 43.6131 46.1293C44.3521 46.8911 44.9269 47.7842 45.3375 48.835C45.7481 49.8595 45.9397 50.9628 45.9397 52.0924V53.5897C45.9397 53.8261 45.8576 54.0363 45.666 54.2201C45.4744 54.404 45.2554 54.4828 45.009 54.4828H33.4032C33.4032 54.9819 33.5127 55.4548 33.7317 55.8225C33.9506 56.2166 34.2517 56.5318 34.6076 56.7945C34.9908 57.0572 35.4014 57.2673 35.8941 57.3987C36.3868 57.53 36.8795 57.6088 37.3996 57.6088C38.1386 57.6088 38.7408 57.53 39.2061 57.3987C39.6714 57.2673 40.0547 57.0835 40.3558 56.847C40.6021 56.6632 40.8211 56.5581 40.9853 56.4793C41.1496 56.4005 41.3685 56.3742 41.6423 56.3742H44.4342C44.6806 56.3742 44.9269 56.453 45.1185 56.6369C45.3101 56.8208 45.3923 57.0309 45.3923 57.2673C45.3649 57.5826 45.2006 57.9766 44.8448 58.4757C44.5163 58.9748 43.9963 59.4477 43.3393 59.9205C42.655 60.3933 41.8339 60.7874 40.8485 61.1289C39.8631 61.4704 38.7134 61.628 37.4269 61.628C36.1404 61.628 34.9634 61.4178 33.8959 60.9713C32.8284 60.551 31.9525 59.9205 31.2134 59.1324C30.4744 58.3444 29.8996 57.3724 29.5163 56.2691C29.1058 55.1658 28.8868 53.9575 28.8868 52.6177ZM37.3996 47.6266C36.7152 47.6266 36.1678 47.7317 35.6751 47.9156C35.2098 48.0995 34.7992 48.3359 34.4707 48.6511C34.1423 48.9401 33.8959 49.2816 33.7317 49.6493C33.5674 50.0171 33.4579 50.3586 33.4032 50.7001H41.259C41.2043 50.3586 41.1222 50.0171 40.9853 49.6493C40.8485 49.2816 40.6569 48.9401 40.3558 48.6511C40.0547 48.3622 39.6714 48.0995 39.2061 47.9156C38.7682 47.7317 38.1386 47.6266 37.3996 47.6266Z" fill="white"/>
  <path d="M164.161 60.8136L155.949 39.1416C155.675 38.4324 154.964 37.9595 154.197 37.9595H151.46C150.666 37.9595 149.954 38.4324 149.708 39.1416L141.496 60.8136C141.36 61.2077 141.661 61.628 142.071 61.628H144.808C145.602 61.628 146.314 61.1551 146.56 60.4459L152.829 43.9489L159.097 60.4459C159.371 61.1551 160.082 61.628 160.849 61.628H163.586C163.996 61.628 164.298 61.2077 164.161 60.8136Z" fill="white"/>
  <path d="M169.197 61.628H166.761C166.405 61.628 166.131 61.3653 166.131 61.0238V39.9035C166.131 38.9053 166.98 38.1172 167.993 38.1172H170.429C170.785 38.1172 171.058 38.3799 171.058 38.7214V59.8417C171.058 60.8137 170.237 61.628 169.197 61.628Z" fill="white"/>
</svg>