<svg xmlns="http://www.w3.org/2000/svg" width="32" height="32" viewBox="0 0 32 32" fill="none">
<path opacity="0.4" d="M21.5866 2.66669H10.4133C5.55996 2.66669 2.66663 5.56002 2.66663 10.4134V21.5734C2.66663 26.44 5.55996 29.3334 10.4133 29.3334H21.5733C26.4266 29.3334 29.32 26.44 29.32 21.5867V10.4134C29.3333 5.56002 26.44 2.66669 21.5866 2.66669Z" fill="#3871DF"/>
<path d="M22.6667 11H9.33337C8.78671 11 8.33337 10.5467 8.33337 10C8.33337 9.45333 8.78671 9 9.33337 9H22.6667C23.2134 9 23.6667 9.45333 23.6667 10C23.6667 10.5467 23.2134 11 22.6667 11Z" fill="#3871DF"/>
<path d="M22.6667 17H9.33337C8.78671 17 8.33337 16.5467 8.33337 16C8.33337 15.4533 8.78671 15 9.33337 15H22.6667C23.2134 15 23.6667 15.4533 23.6667 16C23.6667 16.5467 23.2134 17 22.6667 17Z" fill="#3871DF"/>
<path d="M22.6667 23H9.33337C8.78671 23 8.33337 22.5467 8.33337 22C8.33337 21.4533 8.78671 21 9.33337 21H22.6667C23.2134 21 23.6667 21.4533 23.6667 22C23.6667 22.5467 23.2134 23 22.6667 23Z" fill="#3871DF"/>
</svg>