<svg width="24" height="25" viewBox="0 0 24 25" fill="none" xmlns="http://www.w3.org/2000/svg">
<g clipPath="url(#clip0_2644_1767)">
<path d="M24 12.8408C24 6.2134 18.6274 0.84082 12 0.84082C5.37258 0.84082 0 6.2134 0 12.8408C0 18.8303 4.3882 23.7948 10.125 24.695V16.3096H7.07812V12.8408H10.125V10.1971C10.125 7.18957 11.9166 5.52832 14.6576 5.52832C15.9701 5.52832 17.3438 5.7627 17.3438 5.7627V8.71582H15.8306C14.34 8.71582 13.875 9.6409 13.875 10.5908V12.8408H17.2031L16.6711 16.3096H13.875V24.695C19.6118 23.7948 24 18.8303 24 12.8408Z" fill="#3D3D3D"/>
</g>
<defs>
<clipPath id="clip0_2644_1767">
<rect width="24" height="24" fill="white" transform="translate(0 0.84082)"/>
</clipPath>
</defs>
</svg>
