<svg width="104" height="25" viewBox="0 0 104 25" fill="none" xmlns="http://www.w3.org/2000/svg">
<g clipPath="url(#clip0_2644_1766)">
<g clipPath="url(#clip1_2644_1766)">
<path d="M24 12.8408C24 6.2134 18.6274 0.84082 12 0.84082C5.37258 0.84082 0 6.2134 0 12.8408C0 18.8303 4.3882 23.7948 10.125 24.695V16.3096H7.07812V12.8408H10.125V10.1971C10.125 7.18957 11.9166 5.52832 14.6576 5.52832C15.9701 5.52832 17.3438 5.7627 17.3438 5.7627V8.71582H15.8306C14.34 8.71582 13.875 9.6409 13.875 10.5908V12.8408H17.2031L16.6711 16.3096H13.875V24.695C19.6118 23.7948 24 18.8303 24 12.8408Z" fill="#3D3D3D"/>
</g>
<path d="M37.1172 6.96582V18.3408H35.1562V6.96582H37.1172ZM41.7578 11.9424V13.4971H36.6172V11.9424H41.7578ZM42.4062 6.96582V8.52832H36.6172V6.96582H42.4062ZM48.2812 16.6455V12.6143C48.2812 12.3122 48.2266 12.0518 48.1172 11.833C48.0078 11.6143 47.8411 11.445 47.6172 11.3252C47.3984 11.2054 47.1224 11.1455 46.7891 11.1455C46.4818 11.1455 46.2161 11.1976 45.9922 11.3018C45.7682 11.4059 45.5938 11.5465 45.4688 11.7236C45.3438 11.9007 45.2812 12.1012 45.2812 12.3252H43.4062C43.4062 11.9919 43.487 11.6689 43.6484 11.3564C43.8099 11.0439 44.0443 10.7653 44.3516 10.5205C44.6589 10.2757 45.026 10.083 45.4531 9.94238C45.8802 9.80176 46.3594 9.73145 46.8906 9.73145C47.526 9.73145 48.0885 9.83822 48.5781 10.0518C49.0729 10.2653 49.4609 10.5882 49.7422 11.0205C50.0286 11.4476 50.1719 11.984 50.1719 12.6299V16.3877C50.1719 16.7731 50.1979 17.1195 50.25 17.4268C50.3073 17.7288 50.388 17.9919 50.4922 18.2158V18.3408H48.5625C48.474 18.1377 48.4036 17.8799 48.3516 17.5674C48.3047 17.2497 48.2812 16.9424 48.2812 16.6455ZM48.5547 13.2002L48.5703 14.3643H47.2188C46.8698 14.3643 46.5625 14.3981 46.2969 14.4658C46.0312 14.5283 45.8099 14.6221 45.6328 14.7471C45.4557 14.8721 45.3229 15.0231 45.2344 15.2002C45.1458 15.3773 45.1016 15.5778 45.1016 15.8018C45.1016 16.0257 45.1536 16.2314 45.2578 16.4189C45.362 16.6012 45.513 16.7445 45.7109 16.8486C45.9141 16.9528 46.1589 17.0049 46.4453 17.0049C46.8307 17.0049 47.1667 16.9268 47.4531 16.7705C47.7448 16.609 47.974 16.4137 48.1406 16.1846C48.3073 15.9502 48.3958 15.7288 48.4062 15.5205L49.0156 16.3564C48.9531 16.57 48.8464 16.7992 48.6953 17.0439C48.5443 17.2887 48.3464 17.5231 48.1016 17.7471C47.862 17.9658 47.5729 18.1455 47.2344 18.2861C46.901 18.4268 46.5156 18.4971 46.0781 18.4971C45.526 18.4971 45.0339 18.3877 44.6016 18.1689C44.1693 17.945 43.8307 17.6455 43.5859 17.2705C43.3411 16.8903 43.2188 16.4606 43.2188 15.9814C43.2188 15.5335 43.3021 15.1377 43.4688 14.7939C43.6406 14.445 43.8906 14.1533 44.2188 13.9189C44.5521 13.6846 44.9583 13.5075 45.4375 13.3877C45.9167 13.2627 46.4635 13.2002 47.0781 13.2002H48.5547ZM55.5938 16.9971C55.901 16.9971 56.1771 16.9372 56.4219 16.8174C56.6719 16.6924 56.8724 16.5205 57.0234 16.3018C57.1797 16.083 57.2656 15.8304 57.2812 15.5439H59.0547C59.0443 16.0908 58.8828 16.5882 58.5703 17.0361C58.2578 17.484 57.8438 17.8408 57.3281 18.1064C56.8125 18.3669 56.2422 18.4971 55.6172 18.4971C54.9714 18.4971 54.4089 18.3877 53.9297 18.1689C53.4505 17.945 53.0521 17.6377 52.7344 17.2471C52.4167 16.8564 52.1771 16.4059 52.0156 15.8955C51.8594 15.3851 51.7812 14.8382 51.7812 14.2549V13.9814C51.7812 13.3981 51.8594 12.8512 52.0156 12.3408C52.1771 11.8252 52.4167 11.3721 52.7344 10.9814C53.0521 10.5908 53.4505 10.2861 53.9297 10.0674C54.4089 9.84342 54.9688 9.73145 55.6094 9.73145C56.2865 9.73145 56.8802 9.86686 57.3906 10.1377C57.901 10.4033 58.3021 10.7757 58.5938 11.2549C58.8906 11.7288 59.0443 12.2809 59.0547 12.9111H57.2812C57.2656 12.5986 57.1875 12.3174 57.0469 12.0674C56.9115 11.8122 56.7188 11.609 56.4688 11.458C56.224 11.307 55.9297 11.2314 55.5859 11.2314C55.2057 11.2314 54.8906 11.3096 54.6406 11.4658C54.3906 11.6169 54.1953 11.8252 54.0547 12.0908C53.9141 12.3512 53.8125 12.6455 53.75 12.9736C53.6927 13.2965 53.6641 13.6325 53.6641 13.9814V14.2549C53.6641 14.6038 53.6927 14.9424 53.75 15.2705C53.8073 15.5986 53.9062 15.8929 54.0469 16.1533C54.1927 16.4085 54.3906 16.6143 54.6406 16.7705C54.8906 16.9215 55.2083 16.9971 55.5938 16.9971ZM64.2266 18.4971C63.6016 18.4971 63.0365 18.3955 62.5312 18.1924C62.0312 17.984 61.6042 17.695 61.25 17.3252C60.901 16.9554 60.6328 16.5205 60.4453 16.0205C60.2578 15.5205 60.1641 14.9814 60.1641 14.4033V14.0908C60.1641 13.4294 60.2604 12.8304 60.4531 12.2939C60.6458 11.7575 60.9141 11.2992 61.2578 10.9189C61.6016 10.5335 62.0078 10.2393 62.4766 10.0361C62.9453 9.83301 63.4531 9.73145 64 9.73145C64.6042 9.73145 65.1328 9.83301 65.5859 10.0361C66.0391 10.2393 66.4141 10.5257 66.7109 10.8955C67.013 11.2601 67.237 11.695 67.3828 12.2002C67.5339 12.7054 67.6094 13.2627 67.6094 13.8721V14.6768H61.0781V13.3252H65.75V13.1768C65.7396 12.8382 65.6719 12.5205 65.5469 12.2236C65.4271 11.9268 65.2422 11.6872 64.9922 11.5049C64.7422 11.3226 64.4089 11.2314 63.9922 11.2314C63.6797 11.2314 63.401 11.2992 63.1562 11.4346C62.9167 11.5648 62.7161 11.7549 62.5547 12.0049C62.3932 12.2549 62.2682 12.557 62.1797 12.9111C62.0964 13.2601 62.0547 13.6533 62.0547 14.0908V14.4033C62.0547 14.7731 62.1042 15.1169 62.2031 15.4346C62.3073 15.7471 62.4583 16.0205 62.6562 16.2549C62.8542 16.4893 63.0938 16.6742 63.375 16.8096C63.6562 16.9398 63.9766 17.0049 64.3359 17.0049C64.7891 17.0049 65.1927 16.9137 65.5469 16.7314C65.901 16.5492 66.2083 16.2913 66.4688 15.958L67.4609 16.9189C67.2786 17.1846 67.0417 17.4398 66.75 17.6846C66.4583 17.9242 66.1016 18.1195 65.6797 18.2705C65.263 18.4215 64.7786 18.4971 64.2266 18.4971ZM69.0859 6.34082H70.9688V16.5361L70.7891 18.3408H69.0859V6.34082ZM76.4844 14.0361V14.2002C76.4844 14.8252 76.4141 15.4007 76.2734 15.9268C76.138 16.4476 75.9297 16.9007 75.6484 17.2861C75.3724 17.6715 75.0286 17.971 74.6172 18.1846C74.2109 18.3929 73.7396 18.4971 73.2031 18.4971C72.6771 18.4971 72.2188 18.3981 71.8281 18.2002C71.4375 18.0023 71.1094 17.721 70.8438 17.3564C70.5833 16.9919 70.3724 16.557 70.2109 16.0518C70.0495 15.5465 69.9349 14.9893 69.8672 14.3799V13.8564C69.9349 13.2419 70.0495 12.6846 70.2109 12.1846C70.3724 11.6794 70.5833 11.2445 70.8438 10.8799C71.1094 10.5101 71.4349 10.2262 71.8203 10.0283C72.2109 9.8304 72.6667 9.73145 73.1875 9.73145C73.7292 9.73145 74.2057 9.83561 74.6172 10.0439C75.0339 10.2523 75.3802 10.5492 75.6562 10.9346C75.9323 11.3148 76.138 11.7679 76.2734 12.2939C76.4141 12.82 76.4844 13.4007 76.4844 14.0361ZM74.6016 14.2002V14.0361C74.6016 13.6559 74.5703 13.2992 74.5078 12.9658C74.4453 12.6273 74.3411 12.3304 74.1953 12.0752C74.0547 11.82 73.862 11.6195 73.6172 11.4736C73.3776 11.3226 73.0781 11.2471 72.7188 11.2471C72.3854 11.2471 72.099 11.3044 71.8594 11.4189C71.6198 11.5335 71.4193 11.6898 71.2578 11.8877C71.0964 12.0856 70.9688 12.3148 70.875 12.5752C70.7865 12.8356 70.7266 13.1169 70.6953 13.4189V14.833C70.7422 15.2236 70.8411 15.583 70.9922 15.9111C71.1484 16.234 71.3672 16.4945 71.6484 16.6924C71.9297 16.8851 72.2917 16.9814 72.7344 16.9814C73.0833 16.9814 73.3776 16.9111 73.6172 16.7705C73.8568 16.6299 74.0469 16.4346 74.1875 16.1846C74.3333 15.9294 74.4375 15.6325 74.5 15.2939C74.5677 14.9554 74.6016 14.5908 74.6016 14.2002ZM77.7188 14.208V14.0283C77.7188 13.4189 77.8073 12.8538 77.9844 12.333C78.1615 11.807 78.4167 11.3512 78.75 10.9658C79.0885 10.5752 79.5 10.2731 79.9844 10.0596C80.474 9.84082 81.026 9.73145 81.6406 9.73145C82.2604 9.73145 82.8125 9.84082 83.2969 10.0596C83.7865 10.2731 84.2005 10.5752 84.5391 10.9658C84.8776 11.3512 85.1354 11.807 85.3125 12.333C85.4896 12.8538 85.5781 13.4189 85.5781 14.0283V14.208C85.5781 14.8174 85.4896 15.3825 85.3125 15.9033C85.1354 16.4242 84.8776 16.8799 84.5391 17.2705C84.2005 17.6559 83.7891 17.958 83.3047 18.1768C82.8203 18.3903 82.2708 18.4971 81.6562 18.4971C81.0365 18.4971 80.4818 18.3903 79.9922 18.1768C79.5078 17.958 79.0964 17.6559 78.7578 17.2705C78.4193 16.8799 78.1615 16.4242 77.9844 15.9033C77.8073 15.3825 77.7188 14.8174 77.7188 14.208ZM79.6016 14.0283V14.208C79.6016 14.5882 79.6406 14.9476 79.7188 15.2861C79.7969 15.6247 79.9193 15.9215 80.0859 16.1768C80.2526 16.432 80.4661 16.6325 80.7266 16.7783C80.987 16.9242 81.2969 16.9971 81.6562 16.9971C82.0052 16.9971 82.3073 16.9242 82.5625 16.7783C82.8229 16.6325 83.0365 16.432 83.2031 16.1768C83.3698 15.9215 83.4922 15.6247 83.5703 15.2861C83.6536 14.9476 83.6953 14.5882 83.6953 14.208V14.0283C83.6953 13.6533 83.6536 13.2992 83.5703 12.9658C83.4922 12.6273 83.3672 12.3278 83.1953 12.0674C83.0286 11.807 82.8151 11.6038 82.5547 11.458C82.2995 11.307 81.9948 11.2314 81.6406 11.2314C81.2865 11.2314 80.9792 11.307 80.7188 11.458C80.4635 11.6038 80.2526 11.807 80.0859 12.0674C79.9193 12.3278 79.7969 12.6273 79.7188 12.9658C79.6406 13.2992 79.6016 13.6533 79.6016 14.0283ZM86.7969 14.208V14.0283C86.7969 13.4189 86.8854 12.8538 87.0625 12.333C87.2396 11.807 87.4948 11.3512 87.8281 10.9658C88.1667 10.5752 88.5781 10.2731 89.0625 10.0596C89.5521 9.84082 90.1042 9.73145 90.7188 9.73145C91.3385 9.73145 91.8906 9.84082 92.375 10.0596C92.8646 10.2731 93.2786 10.5752 93.6172 10.9658C93.9557 11.3512 94.2135 11.807 94.3906 12.333C94.5677 12.8538 94.6562 13.4189 94.6562 14.0283V14.208C94.6562 14.8174 94.5677 15.3825 94.3906 15.9033C94.2135 16.4242 93.9557 16.8799 93.6172 17.2705C93.2786 17.6559 92.8672 17.958 92.3828 18.1768C91.8984 18.3903 91.349 18.4971 90.7344 18.4971C90.1146 18.4971 89.5599 18.3903 89.0703 18.1768C88.5859 17.958 88.1745 17.6559 87.8359 17.2705C87.4974 16.8799 87.2396 16.4242 87.0625 15.9033C86.8854 15.3825 86.7969 14.8174 86.7969 14.208ZM88.6797 14.0283V14.208C88.6797 14.5882 88.7188 14.9476 88.7969 15.2861C88.875 15.6247 88.9974 15.9215 89.1641 16.1768C89.3307 16.432 89.5443 16.6325 89.8047 16.7783C90.0651 16.9242 90.375 16.9971 90.7344 16.9971C91.0833 16.9971 91.3854 16.9242 91.6406 16.7783C91.901 16.6325 92.1146 16.432 92.2812 16.1768C92.4479 15.9215 92.5703 15.6247 92.6484 15.2861C92.7318 14.9476 92.7734 14.5882 92.7734 14.208V14.0283C92.7734 13.6533 92.7318 13.2992 92.6484 12.9658C92.5703 12.6273 92.4453 12.3278 92.2734 12.0674C92.1068 11.807 91.8932 11.6038 91.6328 11.458C91.3776 11.307 91.0729 11.2314 90.7188 11.2314C90.3646 11.2314 90.0573 11.307 89.7969 11.458C89.5417 11.6038 89.3307 11.807 89.1641 12.0674C88.9974 12.3278 88.875 12.6273 88.7969 12.9658C88.7188 13.2992 88.6797 13.6533 88.6797 14.0283ZM98.1328 6.34082V18.3408H96.2422V6.34082H98.1328ZM103.383 9.8877L99.7031 13.9658L97.6875 16.0283L97.1953 14.4346L98.7188 12.5518L101.109 9.8877H103.383ZM101.516 18.3408L98.7734 14.3721L99.9609 13.0518L103.695 18.3408H101.516Z" fill="#3D3D3D"/>
</g>
<defs>
<clipPath id="clip0_2644_1766">
<rect width="104" height="24" fill="white" transform="translate(0 0.84082)"/>
</clipPath>
<clipPath id="clip1_2644_1766">
<rect width="24" height="24" fill="white" transform="translate(0 0.84082)"/>
</clipPath>
</defs>
</svg>
