<svg width="24" height="25" viewBox="0 0 24 25" fill="none" xmlns="http://www.w3.org/2000/svg">
<path d="M22.2234 0.84082H1.77187C0.792187 0.84082 0 1.61426 0 2.57051V23.1064C0 24.0627 0.792187 24.8408 1.77187 24.8408H22.2234C23.2031 24.8408 24 24.0627 24 23.1111V2.57051C24 1.61426 23.2031 0.84082 22.2234 0.84082ZM7.12031 21.2924H3.55781V9.83613H7.12031V21.2924ZM5.33906 8.2752C4.19531 8.2752 3.27188 7.35176 3.27188 6.2127C3.27188 5.07363 4.19531 4.1502 5.33906 4.1502C6.47813 4.1502 7.40156 5.07363 7.40156 6.2127C7.40156 7.34707 6.47813 8.2752 5.33906 8.2752ZM20.4516 21.2924H16.8937V15.7236C16.8937 14.3971 16.8703 12.6861 15.0422 12.6861C13.1906 12.6861 12.9094 14.1346 12.9094 15.6299V21.2924H9.35625V9.83613H12.7687V11.4018H12.8156C13.2891 10.5018 14.4516 9.5502 16.1813 9.5502C19.7859 9.5502 20.4516 11.9221 20.4516 15.0064V21.2924Z" fill="#3D3D3D"/>
</svg>
