<svg width="95" height="25" viewBox="0 0 95 25" fill="none" xmlns="http://www.w3.org/2000/svg">
<g clip-path="url(#clip0_2644_1769)">
<g clip-path="url(#clip1_2644_1769)">
<path d="M22.2234 0.84082H1.77187C0.792187 0.84082 0 1.61426 0 2.57051V23.1064C0 24.0627 0.792187 24.8408 1.77187 24.8408H22.2234C23.2031 24.8408 24 24.0627 24 23.1111V2.57051C24 1.61426 23.2031 0.84082 22.2234 0.84082ZM7.12031 21.2924H3.55781V9.83613H7.12031V21.2924ZM5.33906 8.2752C4.19531 8.2752 3.27188 7.35176 3.27188 6.2127C3.27188 5.07363 4.19531 4.1502 5.33906 4.1502C6.47813 4.1502 7.40156 5.07363 7.40156 6.2127C7.40156 7.34707 6.47813 8.2752 5.33906 8.2752ZM20.4516 21.2924H16.8937V15.7236C16.8937 14.3971 16.8703 12.6861 15.0422 12.6861C13.1906 12.6861 12.9094 14.1346 12.9094 15.6299V21.2924H9.35625V9.83613H12.7687V11.4018H12.8156C13.2891 10.5018 14.4516 9.5502 16.1813 9.5502C19.7859 9.5502 20.4516 11.9221 20.4516 15.0064V21.2924Z" fill="#3D3D3D"/>
</g>
<path d="M42.2812 16.7861V18.3408H36.5703V16.7861H42.2812ZM37.1172 6.96582V18.3408H35.1562V6.96582H37.1172ZM45.625 9.8877V18.3408H43.7344V9.8877H45.625ZM43.6094 7.66895C43.6094 7.38249 43.7031 7.14551 43.8906 6.95801C44.0833 6.7653 44.349 6.66895 44.6875 6.66895C45.0208 6.66895 45.2839 6.7653 45.4766 6.95801C45.6693 7.14551 45.7656 7.38249 45.7656 7.66895C45.7656 7.9502 45.6693 8.18457 45.4766 8.37207C45.2839 8.55957 45.0208 8.65332 44.6875 8.65332C44.349 8.65332 44.0833 8.55957 43.8906 8.37207C43.7031 8.18457 43.6094 7.9502 43.6094 7.66895ZM49.5547 11.6924V18.3408H47.6719V9.8877H49.4453L49.5547 11.6924ZM49.2188 13.8018L48.6094 13.7939C48.6146 13.195 48.6979 12.6455 48.8594 12.1455C49.026 11.6455 49.2552 11.2158 49.5469 10.8564C49.8438 10.4971 50.1979 10.221 50.6094 10.0283C51.0208 9.8304 51.4792 9.73145 51.9844 9.73145C52.3906 9.73145 52.7578 9.78874 53.0859 9.90332C53.4193 10.0127 53.7031 10.1924 53.9375 10.4424C54.1771 10.6924 54.3594 11.0179 54.4844 11.4189C54.6094 11.8148 54.6719 12.3018 54.6719 12.8799V18.3408H52.7812V12.8721C52.7812 12.4658 52.7214 12.1455 52.6016 11.9111C52.487 11.6715 52.3177 11.5023 52.0938 11.4033C51.875 11.2992 51.6016 11.2471 51.2734 11.2471C50.9505 11.2471 50.6615 11.3148 50.4062 11.4502C50.151 11.5856 49.9349 11.7705 49.7578 12.0049C49.5859 12.2393 49.4531 12.5101 49.3594 12.8174C49.2656 13.1247 49.2188 13.4528 49.2188 13.8018ZM58.4922 6.34082V18.3408H56.6016V6.34082H58.4922ZM63.7422 9.8877L60.0625 13.9658L58.0469 16.0283L57.5547 14.4346L59.0781 12.5518L61.4688 9.8877H63.7422ZM61.875 18.3408L59.1328 14.3721L60.3203 13.0518L64.0547 18.3408H61.875ZM68.5078 18.4971C67.8828 18.4971 67.3177 18.3955 66.8125 18.1924C66.3125 17.984 65.8854 17.695 65.5312 17.3252C65.1823 16.9554 64.9141 16.5205 64.7266 16.0205C64.5391 15.5205 64.4453 14.9814 64.4453 14.4033V14.0908C64.4453 13.4294 64.5417 12.8304 64.7344 12.2939C64.9271 11.7575 65.1953 11.2992 65.5391 10.9189C65.8828 10.5335 66.2891 10.2393 66.7578 10.0361C67.2266 9.83301 67.7344 9.73145 68.2812 9.73145C68.8854 9.73145 69.4141 9.83301 69.8672 10.0361C70.3203 10.2393 70.6953 10.5257 70.9922 10.8955C71.2943 11.2601 71.5182 11.695 71.6641 12.2002C71.8151 12.7054 71.8906 13.2627 71.8906 13.8721V14.6768H65.3594V13.3252H70.0312V13.1768C70.0208 12.8382 69.9531 12.5205 69.8281 12.2236C69.7083 11.9268 69.5234 11.6872 69.2734 11.5049C69.0234 11.3226 68.6901 11.2314 68.2734 11.2314C67.9609 11.2314 67.6823 11.2992 67.4375 11.4346C67.1979 11.5648 66.9974 11.7549 66.8359 12.0049C66.6745 12.2549 66.5495 12.557 66.4609 12.9111C66.3776 13.2601 66.3359 13.6533 66.3359 14.0908V14.4033C66.3359 14.7731 66.3854 15.1169 66.4844 15.4346C66.5885 15.7471 66.7396 16.0205 66.9375 16.2549C67.1354 16.4893 67.375 16.6742 67.6562 16.8096C67.9375 16.9398 68.2578 17.0049 68.6172 17.0049C69.0703 17.0049 69.474 16.9137 69.8281 16.7314C70.1823 16.5492 70.4896 16.2913 70.75 15.958L71.7422 16.9189C71.5599 17.1846 71.3229 17.4398 71.0312 17.6846C70.7396 17.9242 70.3828 18.1195 69.9609 18.2705C69.5443 18.4215 69.0599 18.4971 68.5078 18.4971ZM78.5156 16.5908V6.34082H80.4062V18.3408H78.6953L78.5156 16.5908ZM73.0156 14.208V14.0439C73.0156 13.4033 73.0911 12.82 73.2422 12.2939C73.3932 11.7627 73.612 11.307 73.8984 10.9268C74.1849 10.5413 74.5339 10.2471 74.9453 10.0439C75.3568 9.83561 75.8203 9.73145 76.3359 9.73145C76.8464 9.73145 77.2943 9.8304 77.6797 10.0283C78.0651 10.2262 78.3932 10.5101 78.6641 10.8799C78.9349 11.2445 79.151 11.682 79.3125 12.1924C79.474 12.6976 79.5885 13.2601 79.6562 13.8799V14.4033C79.5885 15.0075 79.474 15.5596 79.3125 16.0596C79.151 16.5596 78.9349 16.9919 78.6641 17.3564C78.3932 17.721 78.0625 18.0023 77.6719 18.2002C77.2865 18.3981 76.8359 18.4971 76.3203 18.4971C75.8099 18.4971 75.349 18.3903 74.9375 18.1768C74.5312 17.9632 74.1849 17.6637 73.8984 17.2783C73.612 16.8929 73.3932 16.4398 73.2422 15.9189C73.0911 15.3929 73.0156 14.8226 73.0156 14.208ZM74.8984 14.0439V14.208C74.8984 14.5934 74.9323 14.9528 75 15.2861C75.0729 15.6195 75.1849 15.9137 75.3359 16.1689C75.487 16.4189 75.6823 16.6169 75.9219 16.7627C76.1667 16.9033 76.4583 16.9736 76.7969 16.9736C77.224 16.9736 77.5755 16.8799 77.8516 16.6924C78.1276 16.5049 78.3438 16.2523 78.5 15.9346C78.6615 15.6117 78.7708 15.2523 78.8281 14.8564V13.4424C78.7969 13.1351 78.7318 12.8486 78.6328 12.583C78.5391 12.3174 78.4115 12.0856 78.25 11.8877C78.0885 11.6846 77.888 11.5283 77.6484 11.4189C77.4141 11.3044 77.1354 11.2471 76.8125 11.2471C76.4688 11.2471 76.1771 11.32 75.9375 11.4658C75.6979 11.6117 75.5 11.8122 75.3438 12.0674C75.1927 12.3226 75.0807 12.6195 75.0078 12.958C74.9349 13.2965 74.8984 13.6585 74.8984 14.0439ZM84.6562 6.96582V18.3408H82.6953V6.96582H84.6562ZM88.7734 11.6924V18.3408H86.8906V9.8877H88.6641L88.7734 11.6924ZM88.4375 13.8018L87.8281 13.7939C87.8333 13.195 87.9167 12.6455 88.0781 12.1455C88.2448 11.6455 88.474 11.2158 88.7656 10.8564C89.0625 10.4971 89.4167 10.221 89.8281 10.0283C90.2396 9.8304 90.6979 9.73145 91.2031 9.73145C91.6094 9.73145 91.9766 9.78874 92.3047 9.90332C92.638 10.0127 92.9219 10.1924 93.1562 10.4424C93.3958 10.6924 93.5781 11.0179 93.7031 11.4189C93.8281 11.8148 93.8906 12.3018 93.8906 12.8799V18.3408H92V12.8721C92 12.4658 91.9401 12.1455 91.8203 11.9111C91.7057 11.6715 91.5365 11.5023 91.3125 11.4033C91.0938 11.2992 90.8203 11.2471 90.4922 11.2471C90.1693 11.2471 89.8802 11.3148 89.625 11.4502C89.3698 11.5856 89.1536 11.7705 88.9766 12.0049C88.8047 12.2393 88.6719 12.5101 88.5781 12.8174C88.4844 13.1247 88.4375 13.4528 88.4375 13.8018Z" fill="#3D3D3D"/>
</g>
<defs>
<clipPath id="clip0_2644_1769">
<rect width="95" height="24" fill="white" transform="translate(0 0.84082)"/>
</clipPath>
<clipPath id="clip1_2644_1769">
<rect width="24" height="24" fill="white" transform="translate(0 0.84082)"/>
</clipPath>
</defs>
</svg>
