<svg width="107" height="25" viewBox="0 0 107 25" fill="none" xmlns="http://www.w3.org/2000/svg">
<path d="M105.696 13.7146H33.486V13.489H105.696V13.7146Z" fill="#1C4791"/>
<path d="M105.696 18.9799H33.486V18.7498H105.696V18.9799Z" fill="#1C4791"/>
<path fill-rule="evenodd" clip-rule="evenodd" d="M105.019 16.9452L104.952 17.816H102.401V17.6671C102.442 17.6581 102.5 17.6581 102.563 17.6491C102.635 17.64 102.684 17.631 102.711 17.6175C102.751 17.5994 102.791 17.5769 102.809 17.5453C102.832 17.5137 102.841 17.4641 102.841 17.4144V15.2984C102.841 15.2487 102.832 15.2081 102.818 15.1766C102.8 15.145 102.76 15.1089 102.711 15.0863C102.679 15.0683 102.63 15.0547 102.563 15.0367C102.496 15.0186 102.446 15.0141 102.401 15.0141V14.8652H103.782V15.0141C103.733 15.0141 103.683 15.0231 103.612 15.0322C103.544 15.0502 103.495 15.0547 103.464 15.0728C103.414 15.0908 103.383 15.1134 103.356 15.154C103.338 15.1946 103.334 15.2352 103.334 15.2848V17.2701C103.334 17.3513 103.334 17.428 103.352 17.4776C103.361 17.5272 103.383 17.5678 103.419 17.5949C103.45 17.6175 103.509 17.6355 103.576 17.6445C103.647 17.6536 103.746 17.6626 103.872 17.6626C103.93 17.6626 103.988 17.6626 104.051 17.6536C104.109 17.6536 104.167 17.6445 104.221 17.6355C104.279 17.6265 104.329 17.6175 104.369 17.6039C104.418 17.5859 104.45 17.5724 104.468 17.5453C104.535 17.4866 104.607 17.3874 104.687 17.2655C104.768 17.1347 104.835 17.0264 104.858 16.9542H105.019V16.9452Z" fill="#25408E"/>
<path fill-rule="evenodd" clip-rule="evenodd" d="M93.3209 15.0097C93.2805 15.0097 93.2133 15.0188 93.1237 15.0413C93.034 15.0639 92.9758 15.0819 92.9354 15.109C92.8772 15.1406 92.8458 15.2083 92.8189 15.3075C92.801 15.4068 92.7965 15.5286 92.7965 15.6865V17.8432H92.5903L90.6182 15.4293V16.9543C90.6182 17.1258 90.6272 17.2611 90.6496 17.3424C90.672 17.4326 90.7169 17.5003 90.7572 17.5409C90.7975 17.5725 90.8737 17.5995 90.9768 17.6221C91.0933 17.6537 91.165 17.6627 91.1964 17.6717V17.8206H89.8563V17.6717C89.8966 17.6627 89.9728 17.6537 90.067 17.6311C90.1656 17.6086 90.2238 17.5815 90.2462 17.5634C90.3045 17.5228 90.3359 17.4642 90.3628 17.383C90.3807 17.3108 90.3941 17.1754 90.3941 16.9814V15.5196C90.3941 15.4519 90.3762 15.3977 90.3538 15.3301C90.3314 15.2624 90.2955 15.2128 90.2552 15.1812C90.1969 15.1316 90.1252 15.0909 90.0356 15.0594C89.937 15.0278 89.8653 15.0097 89.807 15.0097V14.8608H90.7303L92.5724 17.1168V15.7091C92.5724 15.5376 92.5545 15.4023 92.5321 15.312C92.5097 15.2218 92.4738 15.1541 92.4245 15.1225C92.3842 15.1 92.308 15.0729 92.2138 15.0503C92.1242 15.0278 92.048 15.0097 91.9942 15.0097V14.8608H93.3209V15.0097Z" fill="#25408E"/>
<path fill-rule="evenodd" clip-rule="evenodd" d="M80.7802 17.816H79.3057V17.6671C79.355 17.6581 79.4132 17.6581 79.4849 17.6491C79.5656 17.64 79.6239 17.631 79.6553 17.6265C79.7046 17.6084 79.7359 17.5859 79.7628 17.5543C79.7852 17.5227 79.7942 17.4821 79.7942 17.4235V15.2893C79.7942 15.2397 79.7852 15.1991 79.7718 15.1675C79.7539 15.1359 79.7135 15.1089 79.6553 15.0863C79.606 15.0683 79.5477 15.0547 79.476 15.0367C79.4087 15.0186 79.355 15.0141 79.3057 15.0141V14.8652H80.7802V15.0141C80.7309 15.0141 80.6726 15.0231 80.6099 15.0322C80.5427 15.0412 80.4889 15.0502 80.4396 15.0638C80.3813 15.0818 80.341 15.1044 80.3231 15.145C80.3007 15.1766 80.2917 15.2262 80.2917 15.2668V17.4009C80.2917 17.4505 80.3096 17.4911 80.3231 17.5227C80.3455 17.5543 80.3903 17.5904 80.4396 17.6039C80.471 17.622 80.5203 17.6265 80.5965 17.6445C80.6682 17.6536 80.7354 17.6626 80.7847 17.6716V17.816H80.7802Z" fill="#25408E"/>
<path fill-rule="evenodd" clip-rule="evenodd" d="M76.2848 15.6685H76.1189C76.11 15.6098 76.0876 15.5512 76.0472 15.488C76.0158 15.4203 75.9755 15.3571 75.9262 15.2895C75.8859 15.2218 75.8366 15.1722 75.7783 15.1225C75.72 15.0729 75.6707 15.0503 75.6214 15.0413C75.5721 15.0323 75.5139 15.0323 75.4422 15.0233C75.3704 15.0233 75.3032 15.0233 75.236 15.0233H75.106V17.3785C75.106 17.4281 75.115 17.4687 75.1374 17.5093C75.1598 17.5409 75.1956 17.577 75.2539 17.5905C75.2763 17.6086 75.3346 17.6131 75.4242 17.6311C75.5139 17.6492 75.5811 17.6537 75.6304 17.6627V17.8116H74.0931V17.6627C74.1334 17.6537 74.2006 17.6447 74.2903 17.6447C74.3799 17.6266 74.4382 17.6221 74.4696 17.6131C74.5278 17.5905 74.5592 17.5634 74.5861 17.5319C74.6085 17.5003 74.6175 17.4597 74.6175 17.401V15.0233H74.4875C74.4382 15.0233 74.3799 15.0233 74.3082 15.0233C74.241 15.0233 74.1782 15.0323 74.111 15.0413C74.0527 15.0413 74.0034 15.0729 73.9497 15.1225C73.9004 15.1722 73.851 15.2308 73.8017 15.2895C73.7524 15.3571 73.7121 15.4203 73.6807 15.488C73.6494 15.5602 73.6225 15.6188 73.609 15.6685H73.4521V14.8608H76.2893V15.6685H76.2848Z" fill="#25408E"/>
<path fill-rule="evenodd" clip-rule="evenodd" d="M65.0752 15.0097C65.0259 15.0097 64.9587 15.0188 64.869 15.0413C64.7884 15.0639 64.7211 15.0819 64.6808 15.109C64.6225 15.1406 64.5912 15.2083 64.5643 15.3075C64.5463 15.4068 64.5418 15.5286 64.5418 15.6865V17.8432H64.3357L62.3636 15.4293V16.9543C62.3636 17.1258 62.3726 17.2611 62.395 17.3424C62.4174 17.4326 62.4622 17.5003 62.5115 17.5409C62.5429 17.5725 62.6191 17.5995 62.7222 17.6221C62.8387 17.6537 62.9104 17.6627 62.9418 17.6717V17.8206H61.6106V17.6717C61.651 17.6627 61.7182 17.6537 61.8168 17.6311C61.9154 17.6086 61.9781 17.5815 62.005 17.5634C62.0543 17.5228 62.0947 17.4642 62.1126 17.383C62.135 17.3108 62.144 17.1754 62.144 16.9814V15.5196C62.144 15.4519 62.126 15.3977 62.1036 15.3301C62.0812 15.2624 62.0454 15.2128 62.005 15.1812C61.9468 15.1316 61.8751 15.0909 61.7854 15.0594C61.6868 15.0278 61.6151 15.0097 61.5568 15.0097V14.8608H62.4891L64.3222 17.1168V15.7091C64.3222 15.5376 64.3043 15.4023 64.2819 15.312C64.2595 15.2218 64.2236 15.1541 64.1743 15.1225C64.134 15.1 64.0578 15.0729 63.9682 15.0503C63.8695 15.0278 63.7978 15.0097 63.7396 15.0097V14.8608H65.0707V15.0097H65.0752Z" fill="#25408E"/>
<path fill-rule="evenodd" clip-rule="evenodd" d="M52.6376 16.9544L52.5704 17.8206H49.8633V17.6717C49.9126 17.6627 49.9709 17.6537 50.0515 17.6447C50.1232 17.6356 50.1725 17.6266 50.1994 17.6221C50.2487 17.5995 50.2801 17.5725 50.298 17.5409C50.3204 17.5093 50.3294 17.4687 50.3294 17.4191V15.294C50.3294 15.2534 50.3205 15.2128 50.307 15.1722C50.2891 15.1406 50.2487 15.1135 50.1994 15.091C50.1591 15.0729 50.1008 15.0594 50.0336 15.0413C49.9619 15.0233 49.9036 15.0188 49.8633 15.0188V14.8699H52.3911V15.5873H52.2208C52.1894 15.479 52.1222 15.3662 52.0147 15.2489C51.916 15.127 51.8174 15.0594 51.7278 15.0503C51.6785 15.0413 51.6202 15.0413 51.5575 15.0323C51.4902 15.0323 51.4185 15.0323 51.3289 15.0323H50.8224V16.2099H51.19C51.3065 16.2099 51.3961 16.2009 51.4454 16.1783C51.5037 16.1603 51.553 16.1287 51.5933 16.0791C51.6247 16.0384 51.6516 15.9888 51.674 15.9166C51.6964 15.8489 51.7144 15.7858 51.7233 15.7271H51.8936V16.8867H51.7233C51.7144 16.819 51.7009 16.7468 51.674 16.6746C51.6516 16.6024 51.6158 16.5438 51.5933 16.5077C51.544 16.458 51.4858 16.4174 51.432 16.3994C51.3737 16.3813 51.293 16.3768 51.1944 16.3768H50.8269V17.2657C50.8269 17.3469 50.8359 17.4236 50.8448 17.4732C50.8628 17.5228 50.8852 17.5635 50.9255 17.5905C50.9659 17.6131 51.0241 17.6311 51.0914 17.6402C51.1631 17.6492 51.2617 17.6582 51.3872 17.6582C51.4365 17.6582 51.5037 17.6582 51.5844 17.6582C51.674 17.6582 51.7412 17.6492 51.795 17.6492C51.8533 17.6402 51.9116 17.6311 51.9743 17.6176C52.0415 17.5995 52.0819 17.586 52.1043 17.5589C52.176 17.4913 52.2522 17.3875 52.3239 17.2612C52.4046 17.1213 52.4539 17.022 52.4718 16.9634H52.6376V16.9544Z" fill="#25408E"/>
<path fill-rule="evenodd" clip-rule="evenodd" d="M46.9858 15.6685H46.82C46.811 15.6098 46.7886 15.5512 46.7483 15.488C46.7169 15.4203 46.6766 15.3571 46.6273 15.2895C46.5869 15.2218 46.5376 15.1722 46.4794 15.1225C46.4211 15.0729 46.3718 15.0503 46.3225 15.0413C46.2732 15.0323 46.2149 15.0323 46.1432 15.0233C46.0715 15.0233 46.0043 15.0233 45.937 15.0233H45.8071V17.3785C45.8071 17.4281 45.816 17.4687 45.8384 17.5093C45.8608 17.5409 45.8967 17.577 45.955 17.5905C45.9774 17.6086 46.0356 17.6131 46.1253 17.6311C46.2149 17.6492 46.2822 17.6537 46.3315 17.6627V17.8116H44.7941V17.6627C44.8345 17.6537 44.9017 17.6447 44.9913 17.6447C45.081 17.6266 45.1392 17.6221 45.1706 17.6131C45.2289 17.5905 45.2603 17.5634 45.2871 17.5319C45.3096 17.5003 45.3185 17.4597 45.3185 17.401V15.0233H45.1885C45.1392 15.0233 45.081 15.0233 45.0093 15.0233C44.942 15.0233 44.8793 15.0323 44.8121 15.0413C44.7538 15.0413 44.7045 15.0729 44.6507 15.1225C44.6014 15.1722 44.5521 15.2308 44.5028 15.2895C44.4535 15.3571 44.4132 15.4203 44.3818 15.488C44.3504 15.5602 44.3235 15.6188 44.3101 15.6685H44.1532V14.8608H46.9903V15.6685H46.9858Z" fill="#25408E"/>
<path fill-rule="evenodd" clip-rule="evenodd" d="M41.3743 15.0097C41.334 15.0097 41.2668 15.0188 41.1771 15.0413C41.0875 15.0639 41.0292 15.0819 40.9889 15.109C40.9306 15.1406 40.8992 15.2083 40.8724 15.3075C40.8544 15.4068 40.8499 15.5286 40.8499 15.6865V17.8432H40.6438L38.6717 15.4293V16.9543C38.6717 17.1258 38.6807 17.2611 38.7031 17.3424C38.7255 17.4326 38.7703 17.5003 38.8196 17.5409C38.851 17.5725 38.9272 17.5995 39.0303 17.6221C39.1468 17.6537 39.2185 17.6627 39.2499 17.6717V17.8206H37.9187V17.6717C37.959 17.6627 38.0263 17.6537 38.1249 17.6311C38.2235 17.6086 38.2818 17.5815 38.3131 17.5634C38.3624 17.5228 38.4028 17.4642 38.4207 17.383C38.4386 17.3108 38.4521 17.1754 38.4521 16.9814V15.5196C38.4521 15.4519 38.4341 15.3977 38.4117 15.3301C38.3893 15.2624 38.3535 15.2128 38.3131 15.1812C38.2549 15.1316 38.1832 15.0909 38.0935 15.0594C37.9949 15.0278 37.9232 15.0097 37.8649 15.0097V14.8608H38.7972L40.6303 17.1168V15.7091C40.6303 15.5376 40.6124 15.4023 40.59 15.312C40.5631 15.2218 40.5317 15.1541 40.4824 15.1225C40.4421 15.1 40.3659 15.0729 40.2718 15.0503C40.1821 15.0278 40.1104 15.0097 40.0522 15.0097V14.8608H41.3788V15.0097H41.3743Z" fill="#25408E"/>
<path fill-rule="evenodd" clip-rule="evenodd" d="M34.8216 17.816H33.3515V17.6671C33.4008 17.6581 33.4591 17.6581 33.5308 17.6491C33.6115 17.64 33.6697 17.631 33.7011 17.6265C33.7504 17.6084 33.7818 17.5859 33.8087 17.5543C33.8311 17.5227 33.84 17.4821 33.84 17.4235V15.2893C33.84 15.2397 33.8311 15.1991 33.8176 15.1675C33.7997 15.1359 33.7594 15.1089 33.7011 15.0863C33.6518 15.0683 33.5935 15.0547 33.5218 15.0367C33.4546 15.0186 33.4008 15.0141 33.3515 15.0141V14.8652H34.8216V15.0141C34.7723 15.0141 34.714 15.0231 34.6513 15.0322C34.5841 15.0412 34.5303 15.0502 34.481 15.0638C34.4227 15.0818 34.3824 15.1044 34.3644 15.145C34.342 15.1766 34.3331 15.2262 34.3331 15.2668V17.4009C34.3331 17.4505 34.351 17.4911 34.3644 17.5227C34.3869 17.5543 34.4317 17.5904 34.481 17.6039C34.5124 17.622 34.5616 17.6265 34.6378 17.6445C34.7095 17.6536 34.7768 17.6626 34.8261 17.6716V17.816H34.8216Z" fill="#25408E"/>
<path fill-rule="evenodd" clip-rule="evenodd" d="M86.5485 15.2803C86.6964 15.4202 86.804 15.5871 86.8847 15.7766C86.9654 15.9661 87.0057 16.1782 87.0057 16.4173C87.0057 16.6474 86.9654 16.864 86.8847 17.058C86.804 17.2475 86.6875 17.4054 86.5396 17.5362C86.4006 17.6671 86.2303 17.7754 86.0421 17.8476C85.8538 17.9152 85.6566 17.9558 85.446 17.9558V17.7664C85.6118 17.7664 85.7552 17.7348 85.8897 17.6671C86.0196 17.5949 86.1272 17.4956 86.2079 17.3693C86.2975 17.252 86.3558 17.1076 86.3961 16.9497C86.4365 16.7873 86.4544 16.6113 86.4544 16.4128C86.4544 16.2052 86.4365 16.0157 86.3872 15.8533C86.3468 15.6819 86.2796 15.542 86.1989 15.4157C86.1183 15.2984 86.0107 15.2081 85.8807 15.145C85.7597 15.0773 85.6118 15.0457 85.446 15.0457V14.8562C85.6566 14.8562 85.8628 14.8878 86.051 14.9645C86.2438 15.0412 86.4096 15.1495 86.5485 15.2803ZM85.4415 17.9558C85.2129 17.9558 84.9978 17.9152 84.814 17.8385C84.6168 17.7573 84.4554 17.649 84.3165 17.5182C84.1776 17.3783 84.07 17.2204 83.9983 17.0309C83.9176 16.8414 83.8773 16.6294 83.8773 16.4128C83.8773 16.1737 83.9176 15.9616 83.9983 15.7721C84.0789 15.5826 84.1955 15.4202 84.3434 15.2758C84.4913 15.145 84.6526 15.0367 84.8498 14.9645C85.0381 14.8923 85.2353 14.8562 85.446 14.8562V15.0457C85.2577 15.0457 85.1008 15.0773 84.9709 15.154C84.8499 15.2352 84.7423 15.3345 84.6616 15.4653C84.5899 15.5871 84.5316 15.727 84.4913 15.8939C84.451 16.0564 84.433 16.2323 84.433 16.4128C84.433 16.6113 84.4554 16.7918 84.4913 16.9542C84.5316 17.1121 84.5989 17.261 84.6795 17.3738C84.7692 17.4956 84.8678 17.5859 84.9978 17.6626C85.1188 17.7303 85.2667 17.7618 85.446 17.7618V17.9558H85.4415Z" fill="#25408E"/>
<path fill-rule="evenodd" clip-rule="evenodd" d="M58.8183 17.816H57.9443C57.7471 17.5362 57.5768 17.3061 57.4109 17.0986C57.3123 16.9678 57.2048 16.8369 57.0927 16.7016V16.2729C57.2093 16.2413 57.3123 16.1917 57.402 16.106C57.5409 15.9842 57.6126 15.8172 57.6126 15.6052C57.6126 15.4337 57.5544 15.2848 57.4423 15.1856C57.3527 15.1044 57.2361 15.0547 57.0927 15.0277V14.8562H57.151C57.2899 14.8562 57.4199 14.8742 57.5454 14.8968C57.6619 14.9194 57.774 14.9645 57.8726 15.0186C57.9622 15.0683 58.0429 15.1404 58.0922 15.2307C58.1505 15.3209 58.1818 15.4292 58.1818 15.5601C58.1818 15.6683 58.1639 15.7721 58.1236 15.8578C58.0833 15.9481 58.025 16.0203 57.9533 16.0879C57.886 16.1466 57.8054 16.2052 57.7068 16.2459C57.6082 16.2865 57.5006 16.3271 57.3885 16.3541C57.5454 16.5527 57.6844 16.7151 57.7874 16.8504C57.895 16.9813 58.025 17.1392 58.1818 17.3197C58.2491 17.4009 58.3029 17.4686 58.3611 17.5092C58.4194 17.5408 58.4687 17.5769 58.527 17.5994C58.5673 17.622 58.6166 17.631 58.6749 17.649C58.7331 17.6581 58.7824 17.6581 58.8228 17.6671V17.816H58.8183ZM57.0927 16.7061C57.0255 16.6339 56.9717 16.5572 56.9045 16.485H56.5683V17.4144C56.5683 17.4641 56.5773 17.5047 56.5907 17.5362C56.6087 17.5769 56.649 17.6039 56.7073 17.6175C56.7297 17.6355 56.779 17.64 56.8462 17.649C56.9179 17.6581 56.9762 17.6581 57.0255 17.6671V17.816H55.6451V17.6671C55.6854 17.6581 55.7347 17.6581 55.8109 17.649C55.8781 17.64 55.9274 17.631 55.9498 17.6175C55.9991 17.5994 56.0305 17.5769 56.0574 17.5453C56.0753 17.5137 56.0798 17.4641 56.0798 17.4144V15.2803C56.0798 15.2307 56.0798 15.1901 56.0619 15.1495C56.0439 15.1089 56.0036 15.0818 55.9453 15.0683C55.914 15.0502 55.8647 15.0457 55.7974 15.0277C55.7392 15.0186 55.6809 15.0096 55.6406 15.0096V14.8607H57.0883V15.0322C57.0479 15.0322 57.0076 15.0231 56.9583 15.0231H56.5639V16.3H56.8642C56.9448 16.3 57.021 16.291 57.0838 16.2774V16.7061H57.0927Z" fill="#25408E"/>
<path fill-rule="evenodd" clip-rule="evenodd" d="M71.1483 17.8611H69.7903V17.7122C69.9113 17.7032 70.0099 17.6897 70.0861 17.6716C70.1668 17.6445 70.2071 17.622 70.2071 17.5904C70.2071 17.5814 70.2071 17.5678 70.1982 17.5498C70.1982 17.5227 70.1892 17.5092 70.1892 17.5002L69.9203 16.8414H69.3466V16.661H69.8306L69.3466 15.524V14.9871C69.3645 14.9464 69.378 14.9058 69.3959 14.8652H69.5841L70.6643 17.4099C70.6867 17.4686 70.7136 17.5092 70.745 17.5408C70.7763 17.5724 70.8122 17.6084 70.866 17.64C70.8974 17.6581 70.9467 17.6716 71.0049 17.6897C71.0632 17.7077 71.1035 17.7077 71.1439 17.7122V17.8611H71.1483ZM69.3466 16.8369H68.7729C68.7325 16.9362 68.7012 17.0174 68.6653 17.0941C68.6429 17.1663 68.616 17.234 68.5936 17.2926C68.5757 17.3513 68.5622 17.4009 68.5533 17.4325C68.5443 17.4731 68.5443 17.5002 68.5443 17.5227C68.5443 17.5814 68.5936 17.622 68.6922 17.6536C68.7818 17.6851 68.8984 17.7032 69.0104 17.7122V17.8611H67.7913V17.7122C67.8227 17.7032 67.872 17.6942 67.9392 17.6897C67.9975 17.6716 68.0468 17.6581 68.0871 17.631C68.1454 17.5994 68.1947 17.5588 68.2261 17.5137C68.2574 17.4731 68.2933 17.4144 68.3247 17.3422C68.486 16.9813 68.6698 16.5662 68.8715 16.097C69.0418 15.6864 69.1987 15.3164 69.3466 14.9871V15.524L69.3376 15.5059L68.8536 16.661H69.3466V16.8369Z" fill="#25408E"/>
<path fill-rule="evenodd" clip-rule="evenodd" d="M99.4568 17.8611H98.0987V17.7122C98.2197 17.7032 98.3183 17.6897 98.4035 17.6716C98.4752 17.6445 98.52 17.622 98.52 17.5904C98.52 17.5814 98.52 17.5678 98.5111 17.5498C98.5111 17.5227 98.511 17.5092 98.5021 17.5002L98.2332 16.8414H97.6595V16.661H98.1525L97.6595 15.524V14.9871C97.6774 14.9464 97.6909 14.9058 97.7088 14.8652H97.897L98.9862 17.4099C99.0041 17.4686 99.0265 17.5092 99.0579 17.5408C99.0893 17.5724 99.1296 17.6084 99.1789 17.64C99.2102 17.6581 99.2595 17.6716 99.3178 17.6897C99.3761 17.7077 99.4164 17.7077 99.4568 17.7122V17.8611ZM97.655 16.8369H97.0813C97.041 16.9362 97.0096 17.0174 96.9737 17.0941C96.9513 17.1663 96.9244 17.234 96.902 17.2926C96.8841 17.3513 96.8706 17.4009 96.8617 17.4325C96.8527 17.4731 96.8527 17.5002 96.8527 17.5227C96.8527 17.5814 96.902 17.622 97.0006 17.6536C97.0903 17.6851 97.2068 17.7032 97.3278 17.7122V17.8611H96.0997V17.7122C96.1311 17.7032 96.1894 17.6942 96.2476 17.6897C96.3059 17.6716 96.3552 17.6581 96.3956 17.631C96.4538 17.5994 96.5031 17.5588 96.5345 17.5137C96.5659 17.4731 96.6017 17.4144 96.6331 17.3422C96.7989 16.9813 96.9782 16.5662 97.1799 16.097C97.3502 15.6864 97.5071 15.3164 97.655 14.9871V15.524L97.646 15.5059L97.162 16.661H97.655V16.8369Z" fill="#25408E"/>
<path fill-rule="evenodd" clip-rule="evenodd" d="M69.9292 11.3278H71.09L71.1393 10.9172L71.3993 9.17113H69.1807L68.8356 11.3278H69.9292ZM71.4665 8.74251L71.5248 8.39058H69.3152L69.2569 8.74251H71.4665ZM71.5875 7.96196L71.964 5.4669H74.0078L73.6313 7.96196H75.8499C75.9889 6.86557 76.1771 5.47592 76.1771 5.47592L78.3106 5.4669L78.5392 7.96196H80.5695L80.4619 3.69825L78.212 3.6802L76.5357 3.69825L76.7463 1.71303L74.5636 1.69047L74.2678 3.69825H72.2867C72.6229 2.31311 72.7349 2.40334 73.9451 2.66052L74.2543 0.973083C71.5786 0.494826 70.5656 1.29343 70.0905 3.69825H69.1L68.8221 5.4669H69.7768V5.47592H69.7678L69.369 7.96196H71.5875ZM73.5776 8.39058L73.5193 8.74251H75.7424C75.7603 8.63422 75.7737 8.5124 75.7917 8.39058H73.5776ZM73.4521 9.17113L73.4028 9.53208C73.4028 9.53208 73.2235 11.0481 74.3619 11.3098C75.5048 11.5669 77.2887 11.3323 77.2887 11.3323L77.6159 9.59525L76.1906 9.71256C76.1906 9.71256 75.6572 9.71256 75.6976 9.17113H73.4521ZM78.575 8.39058L78.6064 8.74251H82.1382L82.2951 8.39058H80.6905L80.583 8.64776V8.39058H78.575ZM78.6467 9.17113L78.8439 11.3278L81.0356 11.3368L81.9589 9.17113H78.6467ZM82.4744 7.96196L83.0884 6.52718L83.178 7.96196H84.805L84.5764 3.69825H82.5819L80.8653 7.96196H82.4744ZM83.2094 8.39058L83.2273 8.74251H86.8085L86.9564 8.39058H84.9529L84.8364 8.68836L84.8185 8.39058H83.2094ZM83.2587 9.17113L83.3977 11.3278H85.7193L86.6292 9.17113H83.2587ZM87.1357 7.96196L88.9285 3.69825H86.6785L85.1098 7.96196H87.1357Z" fill="#25408E"/>
<path fill-rule="evenodd" clip-rule="evenodd" d="M89.3857 3.89215L89.1257 5.87737C89.7487 5.46679 92.6755 4.55088 92.5679 6.46842C91.8418 6.44586 91.1202 6.4594 90.3986 6.62634C89.5739 6.82486 88.812 7.11362 88.4265 7.95282H91.1247C91.1247 7.9438 91.6715 7.9438 91.909 7.87161C92.2766 7.7543 92.3169 7.63248 92.4334 7.72272L92.4648 7.95282H94.4772C94.6072 7.19483 94.7148 6.52708 94.773 5.77811C94.773 5.76908 94.773 5.76006 94.782 5.76006V5.27729C94.5534 3.08001 91.1202 3.71167 89.3857 3.89215ZM88.1173 8.3995C88.05 8.50778 88.0007 8.62058 87.9694 8.73789H90.1879C90.2462 8.6296 90.3269 8.51681 90.4255 8.3995H88.1173ZM92.3617 8.3995C92.3707 8.49876 92.3528 8.61156 92.3303 8.73789H94.3517C94.3697 8.62058 94.3831 8.50778 94.41 8.3995H92.3617ZM87.8976 9.17103C87.8394 9.82976 87.9559 10.5201 88.3862 10.9803C89.1616 11.8014 90.5958 11.9909 91.9763 10.4795L91.8777 11.3277H94.0201C94.0783 10.6509 94.159 9.85232 94.2576 9.17103H92.2228C91.9942 9.65831 91.5863 9.93804 91.0306 9.93804C90.5331 9.92902 90.1297 9.64928 90.1162 9.17103H87.8976Z" fill="#25408E"/>
<path fill-rule="evenodd" clip-rule="evenodd" d="M96.167 3.69824H98.278L98.1884 5.03375C98.9593 4.15394 99.7257 3.90579 100.774 3.86518L100.398 5.95868C99.1475 5.75114 98.036 5.60676 97.8701 6.55876L97.6326 7.95744L95.5216 7.96646L96.167 3.69824ZM97.5743 8.39058L97.534 8.73799H95.414L95.4633 8.38606L97.5743 8.39058ZM97.4936 9.17113L97.2158 11.3278H95.033L95.3423 9.17113H97.4936Z" fill="#25408E"/>
<path fill-rule="evenodd" clip-rule="evenodd" d="M57.8053 6.604L58.0922 6.13477H60.8173C60.9562 6.28366 61.0727 6.44157 61.1669 6.604H57.8053ZM61.4627 7.57405V7.99365C61.2744 10.3488 58.0205 12.9161 53.8657 10.6692L55.3806 8.99077C58.6838 11.3054 60.1001 7.69587 58.1953 7.60563C57.3527 7.53344 56.6893 7.33492 56.2008 7.02811H61.3641C61.4134 7.2131 61.4447 7.39358 61.4627 7.57405Z" fill="#25408E"/>
<path fill-rule="evenodd" clip-rule="evenodd" d="M65.8147 3.54924C63.0089 3.61692 61.8302 5.87736 61.7092 7.96184H63.8023C64.0084 6.72559 64.3894 5.2457 65.5278 5.18705C66.5901 5.12839 66.599 6.36464 66.3391 7.95282H68.5487C68.598 7.62345 68.6384 7.30311 68.6473 6.98277V6.35562C68.5711 4.78549 67.8674 3.49961 65.8147 3.54924ZM61.6823 8.39047C61.6823 8.49875 61.6599 8.63862 61.6643 8.74239L63.735 8.73337C63.7261 8.62508 63.7574 8.49424 63.7574 8.38596H61.6823V8.39047ZM66.245 8.39047C66.2226 8.49875 66.1464 8.63862 66.106 8.74239H68.3067C68.347 8.63411 68.3784 8.49424 68.4143 8.38144L66.245 8.39047ZM61.6599 9.17102C61.9557 12.6136 67.1145 12.0767 68.1364 9.17102H65.985C65.5995 10.1185 63.9726 10.4885 63.7171 9.17102H61.6599Z" fill="#25408E"/>
<path fill-rule="evenodd" clip-rule="evenodd" d="M103.652 7.96192H106.753C106.892 7.43403 106.964 6.9648 107 6.5452V5.77818C106.843 4.03209 105.575 3.59444 104.311 3.63956C104.082 3.64858 103.863 3.66212 103.656 3.69821V5.1781C104.293 4.97056 104.916 5.18713 104.974 5.90902C104.992 6.08047 104.983 6.30607 104.992 6.55873H103.661V7.96192H103.652ZM100.062 7.96192H103.652V6.56324H102.321C102.478 6.18425 102.679 5.83232 102.966 5.58417C103.177 5.39467 103.414 5.26383 103.652 5.18261V3.69821C101.285 4.02758 100.389 5.77818 100.062 7.96192Z" fill="#25408E"/>
<path fill-rule="evenodd" clip-rule="evenodd" d="M102.218 8.38159L102.213 8.73352H99.9856V8.38159H102.218Z" fill="#25408E"/>
<path fill-rule="evenodd" clip-rule="evenodd" d="M102.325 9.17114C102.446 10.1683 105.239 10.2675 106.153 9.17114H106.372L106.153 10.9172C104.539 11.973 100.322 12.2843 100.017 9.17114H102.325Z" fill="#25408E"/>
<path fill-rule="evenodd" clip-rule="evenodd" d="M40.9306 0.995605H43.082L42.7861 2.75072H40.6348L40.9306 0.995605Z" fill="#F89C1C"/>
<path fill-rule="evenodd" clip-rule="evenodd" d="M32.0472 1.4061H34.4944L35.2698 7.96184H33.0871L32.0472 1.4061ZM35.4177 7.96184L38.3041 1.38354L40.6348 1.4061L37.5825 7.96184H35.4177ZM37.3808 8.39046L37.215 8.74239H33.2081L33.1498 8.39046H37.3808ZM37.0223 9.17102L36.0228 11.3141L33.6159 11.3367L33.2708 9.17102H37.0223Z" fill="#F89C1C"/>
<path fill-rule="evenodd" clip-rule="evenodd" d="M40.4645 3.66211L39.8684 7.96191H41.9704L42.5845 3.6982L40.4645 3.66211ZM39.8101 8.39054L39.7608 8.74246H41.8629L41.9122 8.39054H39.8101ZM39.7025 9.17109L39.3978 11.3593L41.4819 11.3684L41.7912 9.17109H39.7025Z" fill="#F89C1C"/>
<path fill-rule="evenodd" clip-rule="evenodd" d="M51.1003 1.72192L50.2756 7.96183H52.2701C52.418 6.83386 52.5973 5.46677 52.5973 5.46677H54.3497L54.6052 3.68007H52.9469L53.1261 1.72192H51.1003ZM50.2128 8.39045L50.1635 8.74238H52.167C52.1849 8.62507 52.1984 8.51227 52.2163 8.39045H50.2128ZM50.1098 9.17101L50.0694 9.45074C50.0694 9.45074 49.8991 10.9397 51.0017 11.1878C52.1043 11.445 53.4085 11.3187 53.4085 11.3187L53.5699 9.6628C53.1934 9.69438 52.0415 10.0147 52.1042 9.31539C52.1132 9.27478 52.1132 9.22515 52.1222 9.16649H50.1098V9.17101Z" fill="#F89C1C"/>
<path fill-rule="evenodd" clip-rule="evenodd" d="M60.4901 3.46805L62.0274 1.93853C59.4772 0.968477 56.416 0.381936 55.1476 3.85607C54.9862 4.53736 54.9772 5.17353 55.1386 5.71044H60.275C59.7999 5.42168 59.1769 5.20963 58.3925 5.11939C56.0395 4.74039 57.3617 1.71293 60.4901 3.46805ZM55.3179 6.13456C55.4075 6.30601 55.5241 6.46392 55.654 6.60379H57.8054L58.0922 6.13456H55.3179Z" fill="#F89C1C"/>
<path fill-rule="evenodd" clip-rule="evenodd" d="M46.3045 7.96187L49.4061 7.97089C49.545 7.43398 49.6257 6.96475 49.6615 6.54515V5.77813C49.5047 4.03204 48.2318 3.60341 46.9634 3.63951C46.7348 3.64853 46.5196 3.66207 46.309 3.69816V5.18707C46.9454 4.97953 47.5684 5.1961 47.6357 5.91348C47.6536 6.08494 47.6446 6.31053 47.6446 6.56319H46.3135V7.96187H46.3045ZM42.7144 7.96187H46.3045V6.56319L44.9778 6.57222C45.1347 6.1842 45.3364 5.8413 45.6232 5.58412C45.8294 5.39462 46.0714 5.26378 46.3 5.18707V3.69816C43.9515 4.03204 43.0416 5.77813 42.7144 7.96187Z" fill="#F89C1C"/>
<path d="M44.8703 8.38159H42.6472V8.74254H44.8703V8.38159Z" fill="#F89C1C"/>
<path fill-rule="evenodd" clip-rule="evenodd" d="M44.9868 9.17113C45.1034 10.1683 47.9001 10.2675 48.8145 9.16211H49.0251L48.8145 10.9262C47.2009 11.982 42.9744 12.2843 42.6696 9.17113H44.9868Z" fill="#F89C1C"/>
<path fill-rule="evenodd" clip-rule="evenodd" d="M33.2171 23.8392L33.4546 22.445L32.5493 20.2342H32.9706L33.4053 21.2855C33.4815 21.475 33.5756 21.7231 33.6832 22.0209C33.7818 21.7998 33.9163 21.5562 34.0866 21.29L34.7768 20.2297H35.2474L33.8446 22.4766L33.616 23.8347H33.2171V23.8392ZM34.5437 22.8511C34.5437 22.3818 34.6468 21.9893 34.8575 21.6599C35.0681 21.3351 35.3505 21.1727 35.7046 21.1727C35.9466 21.1727 36.1528 21.2674 36.3141 21.4569C36.4755 21.6464 36.5562 21.9216 36.5562 22.2736C36.5562 22.5984 36.5024 22.8872 36.3948 23.1398C36.2873 23.3925 36.1438 23.582 35.969 23.7083C35.7942 23.8347 35.6105 23.9023 35.4177 23.9023C35.1668 23.9023 34.9606 23.8076 34.7947 23.6226C34.6289 23.4286 34.5437 23.1714 34.5437 22.8511ZM34.9068 22.806C34.9068 23.0496 34.9561 23.2391 35.0547 23.3654C35.1533 23.4918 35.2743 23.5549 35.4222 23.5549C35.5343 23.5549 35.6508 23.5098 35.7673 23.4151C35.8839 23.3203 35.9825 23.1669 36.0721 22.9458C36.1618 22.7247 36.2021 22.5037 36.2021 22.2736C36.2021 22.0299 36.1528 21.8404 36.0542 21.7096C35.9556 21.5787 35.8346 21.5156 35.6956 21.5156C35.5701 21.5156 35.4536 21.5607 35.3326 21.6554C35.2161 21.7457 35.113 21.9036 35.0323 22.1202C34.9516 22.3367 34.9068 22.5668 34.9068 22.806ZM38.21 23.3699C37.9546 23.7219 37.6946 23.9023 37.4257 23.9023C37.2733 23.9023 37.1433 23.8482 37.0357 23.7354C36.9327 23.6226 36.8789 23.4782 36.8789 23.3068C36.8789 23.194 36.9013 23.0045 36.9461 22.7428L37.2016 21.2358H37.5646L37.2823 22.9052C37.2599 23.0451 37.2464 23.1489 37.2464 23.2256C37.2464 23.3293 37.2688 23.4105 37.3226 23.4602C37.3719 23.5143 37.4436 23.5369 37.5377 23.5369C37.6632 23.5369 37.7887 23.4872 37.9187 23.3835C38.0442 23.2797 38.1383 23.1534 38.2011 22.9955C38.2593 22.8375 38.3131 22.6255 38.3624 22.3593L38.5552 21.2313H38.9182L38.4745 23.8392H38.1383L38.21 23.3699ZM39.0437 23.8392L39.4874 21.2313H39.8056L39.716 21.7637C39.9311 21.3667 40.1418 21.1727 40.3569 21.1727C40.4286 21.1727 40.5183 21.2042 40.6258 21.2674L40.4779 21.6825C40.4107 21.6284 40.348 21.5968 40.2762 21.5968C40.1463 21.5968 40.0163 21.687 39.8818 21.8585C39.7474 22.0344 39.6443 22.3457 39.5681 22.7924L39.3888 23.8392H39.0437ZM43.8798 22.5713L44.2697 22.639C44.1487 23.0586 43.9694 23.3744 43.7274 23.5865C43.4898 23.7986 43.2254 23.9023 42.943 23.9023C42.5979 23.9023 42.3156 23.7715 42.1004 23.5098C41.8853 23.2481 41.7777 22.8646 41.7777 22.3548C41.7777 21.7592 41.9122 21.2584 42.1811 20.8478C42.4724 20.4011 42.8489 20.1755 43.3106 20.1755C43.6064 20.1755 43.8529 20.2748 44.0546 20.4733C44.2563 20.6718 44.3683 20.9516 44.3997 21.308L44.0322 21.3486C43.956 20.8298 43.7184 20.5726 43.324 20.5726C42.9789 20.5726 42.701 20.7485 42.4859 21.105C42.2707 21.4614 42.1632 21.881 42.1632 22.3638C42.1632 22.7383 42.2394 23.0225 42.3918 23.212C42.5441 23.406 42.7369 23.5008 42.9655 23.5008C43.1627 23.5008 43.3375 23.4286 43.4898 23.2842C43.6781 23.1128 43.8036 22.8736 43.8798 22.5713ZM44.57 22.8511C44.57 22.3818 44.6731 21.9893 44.8838 21.6599C45.0944 21.3351 45.3768 21.1727 45.7309 21.1727C45.9729 21.1727 46.1791 21.2674 46.3404 21.4569C46.5018 21.6464 46.5824 21.9216 46.5824 22.2736C46.5824 22.5984 46.5287 22.8872 46.4211 23.1398C46.3135 23.3925 46.1701 23.582 45.9953 23.7083C45.8205 23.8347 45.6367 23.9023 45.444 23.9023C45.193 23.9023 44.9868 23.8076 44.821 23.6226C44.6507 23.4286 44.57 23.1714 44.57 22.8511ZM44.9331 22.806C44.9331 23.0496 44.9824 23.2391 45.081 23.3654C45.1796 23.4918 45.3006 23.5549 45.4485 23.5549C45.5605 23.5549 45.6771 23.5098 45.7936 23.4151C45.9101 23.3203 46.0087 23.1669 46.0984 22.9458C46.188 22.7247 46.2284 22.5037 46.2284 22.2736C46.2284 22.0299 46.1791 21.8404 46.0805 21.7096C45.9818 21.5787 45.8608 21.5156 45.7219 21.5156C45.5964 21.5156 45.4754 21.5607 45.3589 21.6554C45.2423 21.7457 45.1392 21.9036 45.0586 22.1202C44.9734 22.3367 44.9331 22.5668 44.9331 22.806ZM46.7572 23.8392L47.3713 20.2342H47.7343L47.1203 23.8392H46.7572ZM47.6671 23.8392L48.2811 20.2342H48.6442L48.0301 23.8392H47.6671ZM50.0426 23.5143C49.9081 23.6542 49.7871 23.7534 49.6661 23.8121C49.545 23.8708 49.4285 23.8978 49.3075 23.8978C49.1193 23.8978 48.9624 23.8301 48.8369 23.6903C48.7114 23.5549 48.6486 23.3699 48.6486 23.1353C48.6486 22.9639 48.6845 22.8195 48.7562 22.6977C48.8279 22.5758 48.9265 22.4811 49.0565 22.4134C49.1282 22.3773 49.2089 22.3503 49.2985 22.3277C49.3927 22.3051 49.4957 22.2961 49.6123 22.2961C49.7064 22.2961 49.7826 22.2916 49.8498 22.2871C49.9126 22.2826 49.9753 22.269 50.0336 22.26C50.1053 22.251 50.1725 22.2284 50.2263 22.2014C50.2577 22.0795 50.2711 21.9758 50.2711 21.8946C50.2711 21.7863 50.2308 21.7005 50.1501 21.6329C50.0695 21.5652 49.9574 21.5291 49.8095 21.5291C49.5092 21.5291 49.312 21.687 49.2223 22.0074L48.8593 21.9713C49.0162 21.4389 49.3389 21.1681 49.8319 21.1681C50.0739 21.1681 50.2711 21.2313 50.4146 21.3622C50.558 21.493 50.6297 21.6554 50.6297 21.8449C50.6297 21.9893 50.6118 22.1517 50.5804 22.3277L50.4639 22.9774C50.428 23.1895 50.4101 23.3564 50.4101 23.4782C50.4101 23.5233 50.4146 23.573 50.4191 23.6361C50.428 23.6948 50.437 23.7625 50.4504 23.8347H50.0874C50.0739 23.776 50.065 23.7309 50.056 23.6948C50.047 23.6361 50.0426 23.5775 50.0426 23.5143ZM50.177 22.5172C50.0919 22.5578 49.9395 22.5894 49.7243 22.6119C49.5092 22.6345 49.3568 22.6661 49.2761 22.7022C49.1955 22.7383 49.1282 22.7924 49.0834 22.8691C49.0386 22.9458 49.0162 23.0315 49.0162 23.1218C49.0162 23.2526 49.052 23.3564 49.1282 23.4376C49.1999 23.5143 49.2985 23.5549 49.4196 23.5549C49.5361 23.5549 49.6481 23.5188 49.7512 23.4466C49.8588 23.3744 49.9439 23.2707 50.0157 23.1353C50.0829 23 50.1367 22.7924 50.177 22.5172ZM50.8897 23.8392L51.5037 20.2342H51.8667L51.6471 21.5201C51.7637 21.3892 51.8667 21.299 51.9609 21.2448C52.055 21.1907 52.1491 21.1681 52.2477 21.1681C52.4449 21.1681 52.6108 21.2584 52.7452 21.4343C52.8797 21.6148 52.9514 21.881 52.9514 22.2329C52.9514 22.3999 52.9379 22.5533 52.9111 22.6977C52.8842 22.842 52.8438 22.9819 52.7856 23.1218C52.678 23.3835 52.548 23.5775 52.3867 23.7038C52.2253 23.8301 52.0684 23.8978 51.9116 23.8978C51.6202 23.8978 51.4141 23.7128 51.293 23.3429L51.2079 23.8347H50.8897V23.8392ZM51.4275 22.7699L51.423 22.8646C51.423 23.0857 51.4678 23.2526 51.553 23.3654C51.6426 23.4782 51.7502 23.5369 51.8802 23.5369C51.9833 23.5369 52.0864 23.4918 52.185 23.4105C52.2836 23.3248 52.3777 23.1669 52.4584 22.9323C52.539 22.7022 52.5839 22.4721 52.5839 22.2465C52.5839 22.0119 52.539 21.8314 52.4539 21.7096C52.3687 21.5877 52.2567 21.5246 52.1267 21.5246C52.0102 21.5246 51.8936 21.5832 51.7861 21.696C51.6785 21.8088 51.5844 22.0028 51.5037 22.2736C51.4768 22.3683 51.4589 22.4585 51.441 22.5443C51.432 22.63 51.4275 22.7022 51.4275 22.7699ZM53.2338 22.8511C53.2338 22.3818 53.3368 21.9893 53.5475 21.6599C53.7581 21.3351 54.0405 21.1727 54.3946 21.1727C54.6366 21.1727 54.8428 21.2674 55.0041 21.4569C55.1655 21.6464 55.2507 21.9216 55.2507 22.2736C55.2507 22.5984 55.1969 22.8872 55.0893 23.1398C54.9817 23.3925 54.8383 23.582 54.6635 23.7083C54.4887 23.8347 54.305 23.9023 54.1122 23.9023C53.8612 23.9023 53.6551 23.8076 53.4892 23.6226C53.3144 23.4286 53.2338 23.1714 53.2338 22.8511ZM53.5968 22.806C53.5968 23.0496 53.6461 23.2391 53.7447 23.3654C53.8433 23.4918 53.9643 23.5549 54.1122 23.5549C54.2243 23.5549 54.3408 23.5098 54.4573 23.4151C54.5739 23.3203 54.6725 23.1669 54.7621 22.9458C54.8518 22.7247 54.8921 22.5037 54.8921 22.2736C54.8921 22.0299 54.8428 21.8404 54.7442 21.7096C54.6456 21.5787 54.5246 21.5156 54.3856 21.5156C54.2601 21.5156 54.1391 21.5607 54.0226 21.6554C53.9061 21.7457 53.803 21.9036 53.7223 22.1202C53.6371 22.3367 53.5968 22.5668 53.5968 22.806ZM55.4479 23.8392L55.8916 21.2313H56.2098L56.1202 21.7637C56.3353 21.3667 56.546 21.1727 56.7611 21.1727C56.8328 21.1727 56.9225 21.2042 57.03 21.2674L56.8821 21.6825C56.8149 21.6284 56.7521 21.5968 56.6804 21.5968C56.5505 21.5968 56.4205 21.687 56.286 21.8585C56.1515 22.0344 56.0485 22.3457 55.9723 22.7924L55.793 23.8392H55.4479ZM58.2491 23.5143C58.1147 23.6542 57.9937 23.7534 57.8726 23.8121C57.7516 23.8708 57.6351 23.8978 57.5141 23.8978C57.3258 23.8978 57.169 23.8301 57.0435 23.6903C56.918 23.5549 56.8552 23.3699 56.8552 23.1353C56.8552 22.9639 56.8911 22.8195 56.9628 22.6977C57.0345 22.5758 57.1331 22.4811 57.2631 22.4134C57.3348 22.3773 57.4155 22.3503 57.5096 22.3277C57.6037 22.3051 57.7068 22.2961 57.8233 22.2961C57.9175 22.2961 57.9937 22.2916 58.0609 22.2871C58.1236 22.2826 58.1864 22.269 58.2446 22.26C58.3164 22.251 58.3836 22.2284 58.4374 22.2014C58.4687 22.0795 58.4822 21.9758 58.4822 21.8946C58.4822 21.7863 58.4419 21.7005 58.3612 21.6329C58.2805 21.5652 58.1685 21.5291 58.0205 21.5291C57.7203 21.5291 57.523 21.687 57.4334 22.0074L57.0659 21.9713C57.2227 21.4389 57.5455 21.1681 58.0385 21.1681C58.285 21.1681 58.4777 21.2313 58.6211 21.3622C58.7646 21.493 58.8363 21.6554 58.8363 21.8449C58.8363 21.9893 58.8183 22.1517 58.787 22.3277L58.6704 22.9774C58.6346 23.1895 58.6166 23.3564 58.6166 23.4782C58.6166 23.5233 58.6211 23.573 58.6256 23.6361C58.6346 23.6948 58.6436 23.7625 58.657 23.8347H58.2939C58.2805 23.776 58.2715 23.7309 58.2626 23.6948C58.2536 23.6361 58.2491 23.5775 58.2491 23.5143ZM58.3836 22.5172C58.2984 22.5578 58.146 22.5894 57.9309 22.6119C57.7158 22.6345 57.5634 22.6661 57.4827 22.7022C57.402 22.7383 57.3348 22.7924 57.29 22.8691C57.2452 22.9458 57.2227 23.0315 57.2227 23.1218C57.2227 23.2526 57.2586 23.3564 57.3348 23.4376C57.4065 23.5143 57.5051 23.5549 57.6261 23.5549C57.7427 23.5549 57.8547 23.5188 57.9578 23.4466C58.0654 23.3744 58.1505 23.2707 58.2222 23.1353C58.285 23 58.3433 22.7924 58.3836 22.5172ZM59.9433 23.4782L59.8806 23.8437C59.7954 23.8708 59.7103 23.8843 59.6296 23.8843C59.4951 23.8843 59.3876 23.8482 59.3069 23.776C59.2307 23.7038 59.1903 23.6091 59.1903 23.4872C59.1903 23.4286 59.2083 23.2977 59.2441 23.0902L59.4996 21.5742H59.2128L59.271 21.2313H59.5579L59.6699 20.5906L60.0868 20.2838L59.9254 21.2313H60.275L60.2167 21.5742H59.8626L59.6161 23.018C59.5848 23.212 59.5713 23.3203 59.5713 23.3429C59.5713 23.4015 59.5848 23.4421 59.6117 23.4692C59.6385 23.4963 59.6789 23.5098 59.7327 23.5098C59.8044 23.5098 59.8761 23.4963 59.9433 23.4782ZM60.7501 20.7395L60.8353 20.2342H61.1983L61.1131 20.7395H60.7501ZM60.2212 23.8392L60.6649 21.2313H61.028L60.5843 23.8392H60.2212ZM61.6824 23.8392L61.3328 21.2313H61.6824L61.8661 22.6706C61.884 22.833 61.9109 23.0902 61.9378 23.4376C61.9737 23.3429 62.014 23.2436 62.0544 23.1353C62.0992 23.027 62.1485 22.9187 62.2067 22.8014L62.9149 21.2313H63.3004L62.0857 23.8392H61.6824ZM64.757 22.9503L65.1111 22.9955C65.0528 23.2526 64.9184 23.4737 64.7032 23.6587C64.524 23.8166 64.3267 23.8978 64.1116 23.8978C63.9592 23.8978 63.8203 23.8572 63.6903 23.7715C63.5603 23.6858 63.4617 23.5594 63.3855 23.3925C63.3093 23.221 63.2735 23.0225 63.2735 22.7924C63.2735 22.639 63.2869 22.4901 63.3138 22.3503C63.3407 22.2104 63.3855 22.0705 63.4438 21.9352C63.5558 21.669 63.6993 21.475 63.8651 21.3531C64.0309 21.2313 64.2102 21.1681 64.4074 21.1681C64.6494 21.1681 64.8511 21.2629 65.008 21.4479C65.1649 21.6374 65.2411 21.9036 65.2411 22.2465C65.2411 22.3863 65.2321 22.5172 65.2142 22.639H63.6455L63.6365 22.7789C63.6365 23.027 63.6813 23.212 63.7755 23.3384C63.8696 23.4647 63.9816 23.5279 64.1116 23.5279C64.2326 23.5279 64.3536 23.4782 64.4746 23.379C64.5957 23.2887 64.6898 23.1443 64.757 22.9503ZM63.7037 22.3051H64.896V22.2149C64.896 21.9803 64.8511 21.8088 64.7615 21.6915C64.6719 21.5742 64.5553 21.5156 64.4119 21.5156C64.2595 21.5156 64.1206 21.5787 63.9906 21.7141C63.8651 21.8449 63.771 22.0434 63.7037 22.3051ZM66.6619 23.8392L67.2759 20.2342H68.1634C68.365 20.2342 68.5174 20.2522 68.616 20.2793C68.7684 20.3244 68.9029 20.4056 69.0239 20.5275C69.1449 20.6493 69.239 20.8072 69.3018 21.0102C69.3332 21.114 69.36 21.2223 69.3735 21.3351C69.3869 21.4479 69.3959 21.5742 69.3959 21.7051C69.3959 22.0525 69.3421 22.3683 69.239 22.6525C69.1315 22.9368 69.0015 23.1714 68.8446 23.3519C68.6877 23.5369 68.504 23.6677 68.2933 23.7444C68.132 23.8031 67.9392 23.8301 67.7196 23.8301H66.6619V23.8392ZM67.1235 23.4331H67.5897C67.8093 23.4331 67.993 23.4105 68.1454 23.3609C68.2978 23.3158 68.4323 23.2256 68.5533 23.0902C68.6743 22.9548 68.7774 22.7653 68.867 22.5172C68.9567 22.269 69.0015 21.9938 69.0015 21.6825C69.0015 21.4118 68.9611 21.1952 68.885 21.0328C68.8088 20.8704 68.7012 20.7621 68.5667 20.7034C68.4681 20.6628 68.3157 20.6403 68.114 20.6403H67.5941L67.1235 23.4331ZM71.1394 22.9503L71.4935 22.9955C71.4352 23.2526 71.3008 23.4737 71.0856 23.6587C70.9063 23.8166 70.7091 23.8978 70.494 23.8978C70.3416 23.8978 70.2027 23.8572 70.0727 23.7715C69.9427 23.6858 69.8441 23.5594 69.7679 23.3925C69.6917 23.221 69.6559 23.0225 69.6559 22.7924C69.6559 22.639 69.6693 22.4901 69.6962 22.3503C69.7231 22.2104 69.7679 22.0705 69.8262 21.9352C69.9382 21.669 70.0817 21.475 70.2475 21.3531C70.4133 21.2313 70.5926 21.1681 70.7898 21.1681C71.0318 21.1681 71.2335 21.2629 71.3904 21.4479C71.5473 21.6374 71.6235 21.9036 71.6235 22.2465C71.6235 22.3863 71.6145 22.5172 71.5966 22.639H70.0279L70.0189 22.7789C70.0189 23.027 70.0637 23.212 70.1578 23.3384C70.252 23.4647 70.364 23.5279 70.494 23.5279C70.615 23.5279 70.736 23.4782 70.857 23.379C70.9736 23.2887 71.0677 23.1443 71.1394 22.9503ZM70.0861 22.3051H71.2783V22.2149C71.2783 21.9803 71.2335 21.8088 71.1394 21.6915C71.0498 21.5742 70.9332 21.5156 70.7898 21.5156C70.6374 21.5156 70.4985 21.5787 70.3685 21.7141C70.243 21.8449 70.1489 22.0434 70.0861 22.3051ZM72.3944 23.8392L72.0448 21.2313H72.3944L72.5781 22.6706C72.5961 22.833 72.623 23.0902 72.6498 23.4376C72.6857 23.3429 72.726 23.2436 72.7664 23.1353C72.8112 23.027 72.8605 22.9187 72.9188 22.8014L73.6269 21.2313H74.0124L72.7978 23.8392H72.3944ZM75.469 22.9503L75.8231 22.9955C75.7649 23.2526 75.6304 23.4737 75.4153 23.6587C75.236 23.8166 75.0388 23.8978 74.8236 23.8978C74.6712 23.8978 74.5323 23.8572 74.4023 23.7715C74.2723 23.6858 74.1737 23.5594 74.0975 23.3925C74.0213 23.221 73.9855 23.0225 73.9855 22.7924C73.9855 22.639 73.9989 22.4901 74.0258 22.3503C74.0527 22.2104 74.0975 22.0705 74.1558 21.9352C74.2679 21.669 74.4113 21.475 74.5771 21.3531C74.743 21.2313 74.9222 21.1681 75.1194 21.1681C75.3615 21.1681 75.5632 21.2629 75.72 21.4479C75.8769 21.6374 75.9531 21.9036 75.9531 22.2465C75.9531 22.3863 75.9441 22.5172 75.9262 22.639H74.3575L74.3485 22.7789C74.3485 23.027 74.3933 23.212 74.4875 23.3384C74.5816 23.4647 74.6936 23.5279 74.8236 23.5279C74.9446 23.5279 75.0657 23.4782 75.1867 23.379C75.3077 23.2887 75.4018 23.1443 75.469 22.9503ZM74.4158 22.3051H75.608V22.2149C75.608 21.9803 75.5632 21.8088 75.469 21.6915C75.3794 21.5742 75.2629 21.5156 75.1194 21.5156C74.967 21.5156 74.8281 21.5787 74.6981 21.7141C74.5771 21.8449 74.4785 22.0434 74.4158 22.3051ZM76.1593 23.8392L76.7733 20.2342H77.1363L76.5223 23.8392H76.1593ZM77.1632 22.8511C77.1632 22.3818 77.2663 21.9893 77.477 21.6599C77.6876 21.3351 77.97 21.1727 78.3241 21.1727C78.5706 21.1727 78.7723 21.2674 78.9336 21.4569C79.095 21.6464 79.1757 21.9216 79.1757 22.2736C79.1757 22.5984 79.1219 22.8872 79.0143 23.1398C78.9067 23.3925 78.7633 23.582 78.5885 23.7083C78.4137 23.8347 78.23 23.9023 78.0372 23.9023C77.7862 23.9023 77.5801 23.8076 77.4142 23.6226C77.2439 23.4286 77.1632 23.1714 77.1632 22.8511ZM77.5263 22.806C77.5263 23.0496 77.5756 23.2391 77.6742 23.3654C77.7728 23.4918 77.8938 23.5549 78.0417 23.5549C78.1538 23.5549 78.2703 23.5098 78.3868 23.4151C78.5034 23.3203 78.602 23.1669 78.6916 22.9458C78.7812 22.7247 78.8216 22.5037 78.8216 22.2736C78.8216 22.0299 78.7723 21.8404 78.6737 21.7096C78.5751 21.5787 78.4541 21.5156 78.3151 21.5156C78.1896 21.5156 78.0686 21.5607 77.9521 21.6554C77.8355 21.7457 77.7324 21.9036 77.6518 22.1202C77.5666 22.3367 77.5263 22.5668 77.5263 22.806ZM79.2026 24.8408L79.8166 21.2313H80.1527L80.09 21.5923C80.2155 21.4298 80.3275 21.3215 80.4261 21.2584C80.5247 21.1997 80.6278 21.1681 80.7354 21.1681C80.9326 21.1681 81.0985 21.2584 81.2329 21.4343C81.3719 21.6103 81.4391 21.872 81.4391 22.2194C81.4391 22.5488 81.3853 22.842 81.2777 23.1082C81.1702 23.3744 81.0223 23.5775 80.8385 23.7264C80.6996 23.8392 80.5516 23.8978 80.3993 23.8978C80.1438 23.8978 79.9466 23.7399 79.8076 23.4196L79.5656 24.8363H79.2026V24.8408ZM79.9152 22.8601C79.9152 23.0767 79.96 23.2436 80.0497 23.3609C80.1393 23.4782 80.2513 23.5369 80.3813 23.5369C80.4889 23.5369 80.5785 23.5008 80.6592 23.4331C80.7713 23.3338 80.8654 23.1669 80.9505 22.9323C81.0357 22.6977 81.076 22.4631 81.076 22.2239C81.076 22.0028 81.0312 21.8314 80.9416 21.7141C80.8519 21.5923 80.7444 21.5336 80.6189 21.5336C80.5158 21.5336 80.4127 21.5787 80.3096 21.669C80.2065 21.7592 80.1169 21.9216 80.0317 22.1517C79.9555 22.3773 79.9152 22.6165 79.9152 22.8601ZM81.6542 23.8392L82.0979 21.2313H82.461L82.3893 21.6599C82.5282 21.4704 82.6492 21.3396 82.7568 21.2719C82.8644 21.2042 82.9764 21.1727 83.0929 21.1727C83.2229 21.1727 83.3305 21.2133 83.4201 21.299C83.5098 21.3847 83.568 21.502 83.5994 21.6645C83.707 21.502 83.819 21.3847 83.94 21.299C84.0611 21.2178 84.1866 21.1727 84.3165 21.1727C84.4824 21.1727 84.6124 21.2223 84.7065 21.3216C84.8006 21.4208 84.8499 21.5652 84.8499 21.7547C84.8499 21.8449 84.832 21.9803 84.8006 22.1562L84.5137 23.8392H84.1507L84.4465 22.1156C84.4689 21.9758 84.4824 21.872 84.4824 21.8088C84.4824 21.7231 84.46 21.6509 84.4151 21.6058C84.3703 21.5607 84.3076 21.5336 84.2314 21.5336C84.1283 21.5336 84.0252 21.5697 83.9132 21.6464C83.8011 21.7231 83.7159 21.8224 83.6487 21.9532C83.586 22.0795 83.5277 22.2871 83.4739 22.5758L83.2588 23.8437H82.8957L83.196 22.0795C83.2184 21.9532 83.2274 21.8675 83.2274 21.8224C83.2274 21.7366 83.205 21.6645 83.1602 21.6148C83.1154 21.5652 83.0571 21.5381 82.9943 21.5381C82.833 21.5381 82.6806 21.6193 82.5372 21.7818C82.3938 21.9442 82.2907 22.2194 82.2234 22.6074L82.0128 23.8392H81.6542ZM86.6382 22.9503L86.9923 22.9955C86.934 23.2526 86.7996 23.4737 86.5844 23.6587C86.4052 23.8166 86.208 23.8978 85.9928 23.8978C85.8404 23.8978 85.7015 23.8572 85.5715 23.7715C85.4415 23.6858 85.3429 23.5594 85.2667 23.3925C85.1905 23.221 85.1547 23.0225 85.1547 22.7924C85.1547 22.639 85.1681 22.4901 85.195 22.3503C85.2219 22.2104 85.2667 22.0705 85.325 21.9352C85.437 21.669 85.5805 21.475 85.7463 21.3531C85.9121 21.2313 86.0914 21.1681 86.2886 21.1681C86.5307 21.1681 86.7323 21.2629 86.8892 21.4479C87.0461 21.6374 87.1223 21.9036 87.1223 22.2465C87.1223 22.3863 87.1133 22.5172 87.0954 22.639H85.5267L85.5177 22.7789C85.5177 23.027 85.5625 23.212 85.6567 23.3384C85.7508 23.4647 85.8628 23.5279 85.9928 23.5279C86.1138 23.5279 86.2348 23.4782 86.3559 23.379C86.4724 23.2887 86.5665 23.1443 86.6382 22.9503ZM85.5849 22.3051H86.7772V22.2149C86.7772 21.9803 86.7323 21.8088 86.6382 21.6915C86.5486 21.5742 86.4321 21.5156 86.2886 21.5156C86.1362 21.5156 85.9973 21.5787 85.8673 21.7141C85.7463 21.8449 85.6477 22.0434 85.5849 22.3051ZM87.3554 23.8392L87.7991 21.2313H88.1263L88.0501 21.687C88.198 21.4975 88.3369 21.3622 88.4669 21.29C88.5924 21.2133 88.7179 21.1772 88.8344 21.1772C89.0002 21.1772 89.1302 21.2313 89.2333 21.3441C89.3364 21.4569 89.3857 21.6148 89.3857 21.8179C89.3857 21.9126 89.3678 22.0615 89.3319 22.2645L89.063 23.8437H88.7L88.9823 22.1878C89.0092 22.0209 89.0227 21.8991 89.0227 21.8269C89.0227 21.7366 88.9958 21.669 88.9465 21.6148C88.8972 21.5607 88.8299 21.5381 88.7403 21.5381C88.561 21.5381 88.3997 21.6193 88.2518 21.7818C88.1038 21.9442 87.9963 22.2239 87.9246 22.63L87.7184 23.8437H87.3554V23.8392ZM90.4838 23.4782L90.421 23.8437C90.3314 23.8708 90.2507 23.8843 90.1701 23.8843C90.0356 23.8843 89.928 23.8482 89.8474 23.776C89.7712 23.7038 89.7308 23.6091 89.7308 23.4872C89.7308 23.4286 89.7487 23.2977 89.7846 23.0902L90.0401 21.5742H89.7532L89.8115 21.2313H90.0983L90.2104 20.5906L90.6272 20.2838L90.4659 21.2313H90.8199L90.7617 21.5742H90.4076L90.1611 23.018C90.1297 23.212 90.1163 23.3203 90.1163 23.3429C90.1163 23.4015 90.1297 23.4421 90.1566 23.4692C90.1835 23.4963 90.2238 23.5098 90.2776 23.5098C90.3448 23.5098 90.4166 23.4963 90.4838 23.4782ZM91.9584 23.8392L92.5724 20.2342H93.8005C94.0111 20.2342 94.1635 20.2658 94.2711 20.3199C94.3742 20.3786 94.4638 20.4778 94.54 20.6222C94.6117 20.7666 94.6476 20.929 94.6476 21.1185C94.6476 21.3622 94.5893 21.5923 94.4728 21.8088C94.3562 22.0254 94.2039 22.1743 94.0156 22.2555C93.8274 22.3367 93.5988 22.3728 93.3344 22.3728H92.5993L92.3528 23.8347H91.9584V23.8392ZM92.671 21.9713H93.3164C93.554 21.9713 93.7288 21.9442 93.8453 21.8855C93.9618 21.8269 94.056 21.7276 94.1366 21.5923C94.1725 21.5246 94.2039 21.4524 94.2263 21.3757C94.2487 21.299 94.2577 21.2178 94.2577 21.1411C94.2577 21.0147 94.2397 20.9155 94.1994 20.8388C94.159 20.7666 94.1053 20.7124 94.0336 20.6764C93.9618 20.6448 93.8363 20.6312 93.6571 20.6312H92.9041L92.671 21.9713ZM96.0863 23.5143C95.9519 23.6542 95.8308 23.7534 95.7098 23.8121C95.5888 23.8708 95.4723 23.8978 95.3513 23.8978C95.163 23.8978 95.0062 23.8301 94.8807 23.6903C94.7552 23.5549 94.6924 23.3699 94.6924 23.1353C94.6924 22.9639 94.7283 22.8195 94.8 22.6977C94.8717 22.5758 94.9703 22.4811 95.1003 22.4134C95.172 22.3773 95.2527 22.3503 95.3468 22.3277C95.4409 22.3051 95.544 22.2961 95.6605 22.2961C95.7546 22.2961 95.8308 22.2916 95.8981 22.2871C95.9608 22.2826 96.0236 22.269 96.0818 22.26C96.1535 22.251 96.2208 22.2284 96.2746 22.2014C96.3059 22.0795 96.3194 21.9758 96.3194 21.8946C96.3194 21.7863 96.279 21.7005 96.1984 21.6329C96.1177 21.5652 96.0056 21.5291 95.8577 21.5291C95.5574 21.5291 95.3602 21.687 95.2751 22.0074L94.9031 21.9713C95.0599 21.4389 95.3826 21.1681 95.8757 21.1681C96.1222 21.1681 96.3149 21.2313 96.4583 21.3622C96.6017 21.493 96.6735 21.6554 96.6735 21.8449C96.6735 21.9893 96.6555 22.1517 96.6241 22.3277L96.5076 22.9774C96.4718 23.1895 96.4538 23.3564 96.4538 23.4782C96.4538 23.5233 96.4583 23.573 96.4628 23.6361C96.4673 23.6948 96.4807 23.7625 96.4942 23.8347H96.1311C96.1177 23.776 96.1087 23.7309 96.0998 23.6948C96.0908 23.6361 96.0863 23.5775 96.0863 23.5143ZM96.2208 22.5172C96.1356 22.5578 95.9832 22.5894 95.7681 22.6119C95.553 22.6345 95.4006 22.6661 95.3199 22.7022C95.2392 22.7383 95.172 22.7924 95.1272 22.8691C95.0823 22.9458 95.0599 23.0315 95.0599 23.1218C95.0599 23.2526 95.0958 23.3564 95.172 23.4376C95.2437 23.5143 95.3423 23.5549 95.4633 23.5549C95.5798 23.5549 95.6919 23.5188 95.795 23.4466C95.9025 23.3744 95.9877 23.2707 96.0594 23.1353C96.1222 23 96.1804 22.7924 96.2208 22.5172ZM96.9334 23.8392L97.3771 21.2313H97.6954L97.6057 21.7637C97.8208 21.3667 98.0315 21.1727 98.2466 21.1727C98.3183 21.1727 98.408 21.2042 98.5156 21.2674L98.3677 21.6825C98.3049 21.6284 98.2377 21.5968 98.166 21.5968C98.036 21.5968 97.906 21.687 97.7715 21.8585C97.6371 22.0344 97.534 22.3457 97.4578 22.7924L97.2785 23.8392H96.9334ZM99.143 23.4782L99.0803 23.8437C98.9907 23.8708 98.91 23.8843 98.8293 23.8843C98.6904 23.8843 98.5828 23.8482 98.5066 23.776C98.4304 23.7038 98.3901 23.6091 98.3901 23.4872C98.3901 23.4286 98.408 23.2977 98.4438 23.0902L98.6993 21.5742H98.4125L98.4707 21.2313H98.7576L98.8652 20.5906L99.282 20.2838L99.1206 21.2313H99.4747L99.4165 21.5742H99.0624L98.8159 23.018C98.7845 23.212 98.771 23.3203 98.771 23.3429C98.771 23.4015 98.7845 23.4421 98.8114 23.4692C98.8383 23.4963 98.8786 23.5098 98.9324 23.5098C99.0041 23.5098 99.0758 23.4963 99.143 23.4782ZM99.4389 23.8392L99.8826 21.2313H100.21L100.134 21.687C100.281 21.4975 100.42 21.3622 100.55 21.29C100.676 21.2133 100.801 21.1772 100.913 21.1772C101.079 21.1772 101.209 21.2313 101.312 21.3441C101.415 21.4569 101.465 21.6148 101.465 21.8179C101.465 21.9126 101.447 22.0615 101.411 22.2645L101.142 23.8437H100.779L101.061 22.1878C101.088 22.0209 101.102 21.8991 101.102 21.8269C101.102 21.7366 101.075 21.669 101.025 21.6148C100.976 21.5607 100.909 21.5381 100.819 21.5381C100.64 21.5381 100.479 21.6193 100.331 21.7818C100.183 21.9442 100.075 22.2239 100.004 22.63L99.7974 23.8437H99.4389V23.8392ZM103.28 22.9503L103.634 22.9955C103.576 23.2526 103.441 23.4737 103.226 23.6587C103.047 23.8166 102.85 23.8978 102.635 23.8978C102.482 23.8978 102.343 23.8572 102.213 23.7715C102.083 23.6858 101.985 23.5594 101.908 23.3925C101.832 23.221 101.796 23.0225 101.796 22.7924C101.796 22.639 101.81 22.4901 101.837 22.3503C101.864 22.2104 101.908 22.0705 101.967 21.9352C102.079 21.669 102.222 21.475 102.388 21.3531C102.554 21.2313 102.733 21.1681 102.93 21.1681C103.177 21.1681 103.374 21.2629 103.531 21.4479C103.688 21.6374 103.764 21.9036 103.764 22.2465C103.764 22.3863 103.755 22.5172 103.737 22.639H102.168L102.159 22.7789C102.159 23.027 102.204 23.212 102.298 23.3384C102.393 23.4647 102.505 23.5279 102.635 23.5279C102.756 23.5279 102.877 23.4782 102.998 23.379C103.114 23.2887 103.208 23.1443 103.28 22.9503ZM102.227 22.3051H103.419V22.2149C103.419 21.9803 103.374 21.8088 103.284 21.6915C103.195 21.5742 103.078 21.5156 102.935 21.5156C102.782 21.5156 102.643 21.5787 102.514 21.7141C102.384 21.8449 102.289 22.0434 102.227 22.3051ZM103.997 23.8392L104.441 21.2313H104.759L104.669 21.7637C104.885 21.3667 105.095 21.1727 105.31 21.1727C105.382 21.1727 105.472 21.2042 105.579 21.2674L105.431 21.6825C105.364 21.6284 105.301 21.5968 105.23 21.5968C105.1 21.5968 104.97 21.687 104.835 21.8585C104.701 22.0344 104.598 22.3457 104.521 22.7924L104.342 23.8392H103.997Z" fill="#194799"/>
<path d="M17.2342 1.11743H12.0844V6.37826H17.2342V1.11743Z" fill="#F89C20"/>
<path d="M23.2938 1.11743H18.144V6.37826H23.2938V1.11743Z" fill="#F89C20"/>
<path d="M29.2011 1.11743H24.0513V6.37826H29.2011V1.11743Z" fill="#21438E"/>
<path d="M17.2342 17.0308C17.2342 17.7978 16.6246 18.425 15.8716 18.425H13.5231C12.7701 18.425 12.1605 17.8023 12.1605 17.0308V14.6305C12.1605 13.8635 12.7701 13.2363 13.5231 13.2363H15.8716C16.6246 13.2363 17.2342 13.859 17.2342 14.6305V17.0308Z" fill="#21438E"/>
<path d="M23.2939 17.0308C23.2939 17.7978 22.6574 18.425 21.8686 18.425H19.4169C18.6326 18.425 17.9916 17.8023 17.9916 17.0308V14.6305C17.9916 13.8635 18.6281 13.2363 19.4169 13.2363H21.8686C22.6529 13.2363 23.2939 13.859 23.2939 14.6305V17.0308Z" fill="#21438E"/>
<path d="M29.2774 17.0308C29.2774 17.7978 28.6678 18.425 27.9148 18.425H25.5663C24.8133 18.425 24.2037 17.8023 24.2037 17.0308V14.6305C24.2037 13.8635 24.8133 13.2363 25.5663 13.2363H27.9148C28.6678 13.2363 29.2774 13.859 29.2774 14.6305V17.0308Z" fill="#21438E"/>
<path d="M11.2149 17.0308C11.2149 17.7978 10.6053 18.425 9.85234 18.425H7.50377C6.75079 18.425 6.14124 17.8023 6.14124 17.0308V14.6305C6.14124 13.8635 6.75079 13.2363 7.50377 13.2363H9.85234C10.6053 13.2363 11.2149 13.859 11.2149 14.6305V17.0308Z" fill="#F89C20"/>
<path d="M5.26716 17.0308C5.26716 17.7978 4.65762 18.425 3.90464 18.425H1.55606C0.803085 18.425 0.193542 17.8023 0.193542 17.0308V14.6305C0.193542 13.8635 0.803085 13.2363 1.55606 13.2363H3.90464C4.65762 13.2363 5.26716 13.859 5.26716 14.6305V17.0308Z" fill="#F89C20"/>
<path d="M11.403 11.8692C11.403 12.1851 11.1476 12.4422 10.8338 12.4422H6.6297C6.31596 12.4422 6.06049 12.1851 6.06049 11.8692V7.7544C6.06049 7.43857 6.31596 7.1814 6.6297 7.1814H10.8338C11.1476 7.1814 11.403 7.43857 11.403 7.7544V11.8692Z" fill="#F89C20"/>
<path d="M17.3103 11.8692C17.3103 12.1851 17.0549 12.4422 16.7411 12.4422H12.537C12.2232 12.4422 11.9678 12.1851 11.9678 11.8692V7.7544C11.9678 7.43857 12.2232 7.1814 12.537 7.1814H16.7411C17.0549 7.1814 17.3103 7.43857 17.3103 7.7544V11.8692Z" fill="#F89C20"/>
<path d="M23.3297 11.8692C23.3297 12.1851 23.0742 12.4422 22.7605 12.4422H18.5563C18.2426 12.4422 17.9871 12.1851 17.9871 11.8692V7.7544C17.9871 7.43857 18.2426 7.1814 18.5563 7.1814H22.7605C23.0742 7.1814 23.3297 7.43857 23.3297 7.7544V11.8692Z" fill="#21438E"/>
<path d="M29.3536 11.8692C29.3536 12.1851 29.0981 12.4422 28.7843 12.4422H24.5802C24.2665 12.4422 24.011 12.1851 24.011 11.8692V7.7544C24.011 7.43857 24.2665 7.1814 24.5802 7.1814H28.7843C29.0981 7.1814 29.3536 7.43857 29.3536 7.7544V11.8692Z" fill="#21438E"/>
<path d="M11.291 22.3908C11.291 23.5278 10.3767 24.4482 9.24721 24.4482H8.11326C6.98379 24.4482 6.06946 23.5278 6.06946 22.3908V21.2493C6.06946 20.1123 6.98379 19.1919 8.11326 19.1919H9.24721C10.3767 19.1919 11.291 20.1123 11.291 21.2493V22.3908Z" fill="#21438E"/>
<path d="M5.38372 22.3908C5.38372 23.5278 4.46939 24.4482 3.33992 24.4482H2.20597C1.0765 24.4482 0.16217 23.5278 0.16217 22.3908V21.2493C0.16217 20.1123 1.0765 19.1919 2.20597 19.1919H3.33992C4.46939 19.1919 5.38372 20.1123 5.38372 21.2493V22.3908Z" fill="#F89C20"/>
<path d="M17.3104 22.3908C17.3104 23.5278 16.396 24.4482 15.2666 24.4482H14.1326C13.0031 24.4482 12.0888 23.5278 12.0888 22.3908V21.2493C12.0888 20.1123 13.0031 19.1919 14.1326 19.1919H15.2666C16.396 19.1919 17.3104 20.1123 17.3104 21.2493V22.3908Z" fill="#21438E"/>
<path d="M23.2176 22.3908C23.2176 23.5278 22.3033 24.4482 21.1738 24.4482H20.0399C18.9104 24.4482 17.9961 23.5278 17.9961 22.3908V21.2493C17.9961 20.1123 18.9104 19.1919 20.0399 19.1919H21.1738C22.3033 19.1919 23.2176 20.1123 23.2176 21.2493V22.3908Z" fill="#21438E"/>
<path d="M29.3536 22.3908C29.3536 23.5278 28.4392 24.4482 27.3098 24.4482H26.1758C25.0464 24.4482 24.132 23.5278 24.132 22.3908V21.2493C24.132 20.1123 25.0464 19.1919 26.1758 19.1919H27.3098C28.4392 19.1919 29.3536 20.1123 29.3536 21.2493V22.3908Z" fill="#21438E"/>
</svg>
