<svg width="24" height="25" viewBox="0 0 24 25" fill="none" xmlns="http://www.w3.org/2000/svg">
<path d="M23.7609 8.04087C23.7609 8.04087 23.5266 6.38618 22.8047 5.65962C21.8906 4.70337 20.8688 4.69868 20.4 4.64243C17.0438 4.39868 12.0047 4.39868 12.0047 4.39868H11.9953C11.9953 4.39868 6.95625 4.39868 3.6 4.64243C3.13125 4.69868 2.10938 4.70337 1.19531 5.65962C0.473438 6.38618 0.24375 8.04087 0.24375 8.04087C0.24375 8.04087 0 9.98618 0 11.9268V13.7456C0 15.6862 0.239062 17.6315 0.239062 17.6315C0.239062 17.6315 0.473437 19.2862 1.19062 20.0127C2.10469 20.969 3.30469 20.9362 3.83906 21.0393C5.76094 21.2221 12 21.2784 12 21.2784C12 21.2784 17.0438 21.269 20.4 21.0299C20.8688 20.9737 21.8906 20.969 22.8047 20.0127C23.5266 19.2862 23.7609 17.6315 23.7609 17.6315C23.7609 17.6315 24 15.6909 24 13.7456V11.9268C24 9.98618 23.7609 8.04087 23.7609 8.04087ZM9.52031 15.9534V9.20806L16.0031 12.5924L9.52031 15.9534Z" fill="#3D3D3D"/>
</svg>
