<svg width="94" height="25" viewBox="0 0 94 25" fill="none" xmlns="http://www.w3.org/2000/svg">
<g clip-path="url(#clip0_2644_1763)">
<path d="M23.7609 8.04087C23.7609 8.04087 23.5266 6.38618 22.8047 5.65962C21.8906 4.70337 20.8688 4.69868 20.4 4.64243C17.0438 4.39868 12.0047 4.39868 12.0047 4.39868H11.9953C11.9953 4.39868 6.95625 4.39868 3.6 4.64243C3.13125 4.69868 2.10938 4.70337 1.19531 5.65962C0.473438 6.38618 0.24375 8.04087 0.24375 8.04087C0.24375 8.04087 0 9.98618 0 11.9268V13.7456C0 15.6862 0.239062 17.6315 0.239062 17.6315C0.239062 17.6315 0.473437 19.2862 1.19062 20.0127C2.10469 20.969 3.30469 20.9362 3.83906 21.0393C5.76094 21.2221 12 21.2784 12 21.2784C12 21.2784 17.0438 21.269 20.4 21.0299C20.8688 20.9737 21.8906 20.969 22.8047 20.0127C23.5266 19.2862 23.7609 17.6315 23.7609 17.6315C23.7609 17.6315 24 15.6909 24 13.7456V11.9268C24 9.98618 23.7609 8.04087 23.7609 8.04087ZM9.52031 15.9534V9.20806L16.0031 12.5924L9.52031 15.9534Z" fill="#3D3D3D"/>
<path d="M36.2422 6.96582L38.8828 12.3955L41.5234 6.96582H43.6953L39.8672 14.1533V18.3408H37.8906V14.1533L34.0625 6.96582H36.2422ZM43.875 14.208V14.0283C43.875 13.4189 43.9635 12.8538 44.1406 12.333C44.3177 11.807 44.5729 11.3512 44.9062 10.9658C45.2448 10.5752 45.6562 10.2731 46.1406 10.0596C46.6302 9.84082 47.1823 9.73145 47.7969 9.73145C48.4167 9.73145 48.9688 9.84082 49.4531 10.0596C49.9427 10.2731 50.3568 10.5752 50.6953 10.9658C51.0339 11.3512 51.2917 11.807 51.4688 12.333C51.6458 12.8538 51.7344 13.4189 51.7344 14.0283V14.208C51.7344 14.8174 51.6458 15.3825 51.4688 15.9033C51.2917 16.4242 51.0339 16.8799 50.6953 17.2705C50.3568 17.6559 49.9453 17.958 49.4609 18.1768C48.9766 18.3903 48.4271 18.4971 47.8125 18.4971C47.1927 18.4971 46.638 18.3903 46.1484 18.1768C45.6641 17.958 45.2526 17.6559 44.9141 17.2705C44.5755 16.8799 44.3177 16.4242 44.1406 15.9033C43.9635 15.3825 43.875 14.8174 43.875 14.208ZM45.7578 14.0283V14.208C45.7578 14.5882 45.7969 14.9476 45.875 15.2861C45.9531 15.6247 46.0755 15.9215 46.2422 16.1768C46.4089 16.432 46.6224 16.6325 46.8828 16.7783C47.1432 16.9242 47.4531 16.9971 47.8125 16.9971C48.1615 16.9971 48.4635 16.9242 48.7188 16.7783C48.9792 16.6325 49.1927 16.432 49.3594 16.1768C49.526 15.9215 49.6484 15.6247 49.7266 15.2861C49.8099 14.9476 49.8516 14.5882 49.8516 14.208V14.0283C49.8516 13.6533 49.8099 13.2992 49.7266 12.9658C49.6484 12.6273 49.5234 12.3278 49.3516 12.0674C49.1849 11.807 48.9714 11.6038 48.7109 11.458C48.4557 11.307 48.151 11.2314 47.7969 11.2314C47.4427 11.2314 47.1354 11.307 46.875 11.458C46.6198 11.6038 46.4089 11.807 46.2422 12.0674C46.0755 12.3278 45.9531 12.6273 45.875 12.9658C45.7969 13.2992 45.7578 13.6533 45.7578 14.0283ZM58.3984 16.3486V9.8877H60.2891V18.3408H58.5078L58.3984 16.3486ZM58.6641 14.5908L59.2969 14.5752C59.2969 15.1429 59.2344 15.6663 59.1094 16.1455C58.9844 16.6195 58.7917 17.0335 58.5312 17.3877C58.2708 17.7367 57.9375 18.0101 57.5312 18.208C57.125 18.4007 56.638 18.4971 56.0703 18.4971C55.6589 18.4971 55.2812 18.4372 54.9375 18.3174C54.5938 18.1976 54.2969 18.0127 54.0469 17.7627C53.8021 17.5127 53.612 17.1872 53.4766 16.7861C53.3411 16.3851 53.2734 15.9059 53.2734 15.3486V9.8877H55.1562V15.3643C55.1562 15.6715 55.1927 15.9294 55.2656 16.1377C55.3385 16.3408 55.4375 16.5049 55.5625 16.6299C55.6875 16.7549 55.8333 16.8434 56 16.8955C56.1667 16.9476 56.3438 16.9736 56.5312 16.9736C57.0677 16.9736 57.4896 16.8695 57.7969 16.6611C58.1094 16.4476 58.3307 16.1611 58.4609 15.8018C58.5964 15.4424 58.6641 15.0387 58.6641 14.5908ZM66.0938 9.8877V11.2627H61.3281V9.8877H66.0938ZM62.7031 7.81738H64.5859V16.0049C64.5859 16.2653 64.6224 16.4658 64.6953 16.6064C64.7734 16.7419 64.8802 16.833 65.0156 16.8799C65.151 16.9268 65.3099 16.9502 65.4922 16.9502C65.6224 16.9502 65.7474 16.9424 65.8672 16.9268C65.987 16.9111 66.0833 16.8955 66.1562 16.8799L66.1641 18.3174C66.0078 18.3643 65.8255 18.4059 65.6172 18.4424C65.4141 18.4788 65.1797 18.4971 64.9141 18.4971C64.4818 18.4971 64.099 18.4215 63.7656 18.2705C63.4323 18.1143 63.1719 17.8617 62.9844 17.5127C62.7969 17.1637 62.7031 16.7002 62.7031 16.1221V7.81738ZM72.6328 16.3486V9.8877H74.5234V18.3408H72.7422L72.6328 16.3486ZM72.8984 14.5908L73.5312 14.5752C73.5312 15.1429 73.4688 15.6663 73.3438 16.1455C73.2188 16.6195 73.026 17.0335 72.7656 17.3877C72.5052 17.7367 72.1719 18.0101 71.7656 18.208C71.3594 18.4007 70.8724 18.4971 70.3047 18.4971C69.8932 18.4971 69.5156 18.4372 69.1719 18.3174C68.8281 18.1976 68.5312 18.0127 68.2812 17.7627C68.0365 17.5127 67.8464 17.1872 67.7109 16.7861C67.5755 16.3851 67.5078 15.9059 67.5078 15.3486V9.8877H69.3906V15.3643C69.3906 15.6715 69.4271 15.9294 69.5 16.1377C69.5729 16.3408 69.6719 16.5049 69.7969 16.6299C69.9219 16.7549 70.0677 16.8434 70.2344 16.8955C70.401 16.9476 70.5781 16.9736 70.7656 16.9736C71.3021 16.9736 71.724 16.8695 72.0312 16.6611C72.3438 16.4476 72.5651 16.1611 72.6953 15.8018C72.8307 15.4424 72.8984 15.0387 72.8984 14.5908ZM76.4609 6.34082H78.3438V16.5361L78.1641 18.3408H76.4609V6.34082ZM83.8594 14.0361V14.2002C83.8594 14.8252 83.7891 15.4007 83.6484 15.9268C83.513 16.4476 83.3047 16.9007 83.0234 17.2861C82.7474 17.6715 82.4036 17.971 81.9922 18.1846C81.5859 18.3929 81.1146 18.4971 80.5781 18.4971C80.0521 18.4971 79.5938 18.3981 79.2031 18.2002C78.8125 18.0023 78.4844 17.721 78.2188 17.3564C77.9583 16.9919 77.7474 16.557 77.5859 16.0518C77.4245 15.5465 77.3099 14.9893 77.2422 14.3799V13.8564C77.3099 13.2419 77.4245 12.6846 77.5859 12.1846C77.7474 11.6794 77.9583 11.2445 78.2188 10.8799C78.4844 10.5101 78.8099 10.2262 79.1953 10.0283C79.5859 9.8304 80.0417 9.73145 80.5625 9.73145C81.1042 9.73145 81.5807 9.83561 81.9922 10.0439C82.4089 10.2523 82.7552 10.5492 83.0312 10.9346C83.3073 11.3148 83.513 11.7679 83.6484 12.2939C83.7891 12.82 83.8594 13.4007 83.8594 14.0361ZM81.9766 14.2002V14.0361C81.9766 13.6559 81.9453 13.2992 81.8828 12.9658C81.8203 12.6273 81.7161 12.3304 81.5703 12.0752C81.4297 11.82 81.237 11.6195 80.9922 11.4736C80.7526 11.3226 80.4531 11.2471 80.0938 11.2471C79.7604 11.2471 79.474 11.3044 79.2344 11.4189C78.9948 11.5335 78.7943 11.6898 78.6328 11.8877C78.4714 12.0856 78.3438 12.3148 78.25 12.5752C78.1615 12.8356 78.1016 13.1169 78.0703 13.4189V14.833C78.1172 15.2236 78.2161 15.583 78.3672 15.9111C78.5234 16.234 78.7422 16.4945 79.0234 16.6924C79.3047 16.8851 79.6667 16.9814 80.1094 16.9814C80.4583 16.9814 80.7526 16.9111 80.9922 16.7705C81.2318 16.6299 81.4219 16.4346 81.5625 16.1846C81.7083 15.9294 81.8125 15.6325 81.875 15.2939C81.9427 14.9554 81.9766 14.5908 81.9766 14.2002ZM89.1797 18.4971C88.5547 18.4971 87.9896 18.3955 87.4844 18.1924C86.9844 17.984 86.5573 17.695 86.2031 17.3252C85.8542 16.9554 85.5859 16.5205 85.3984 16.0205C85.2109 15.5205 85.1172 14.9814 85.1172 14.4033V14.0908C85.1172 13.4294 85.2135 12.8304 85.4062 12.2939C85.599 11.7575 85.8672 11.2992 86.2109 10.9189C86.5547 10.5335 86.9609 10.2393 87.4297 10.0361C87.8984 9.83301 88.4062 9.73145 88.9531 9.73145C89.5573 9.73145 90.0859 9.83301 90.5391 10.0361C90.9922 10.2393 91.3672 10.5257 91.6641 10.8955C91.9661 11.2601 92.1901 11.695 92.3359 12.2002C92.487 12.7054 92.5625 13.2627 92.5625 13.8721V14.6768H86.0312V13.3252H90.7031V13.1768C90.6927 12.8382 90.625 12.5205 90.5 12.2236C90.3802 11.9268 90.1953 11.6872 89.9453 11.5049C89.6953 11.3226 89.362 11.2314 88.9453 11.2314C88.6328 11.2314 88.3542 11.2992 88.1094 11.4346C87.8698 11.5648 87.6693 11.7549 87.5078 12.0049C87.3464 12.2549 87.2214 12.557 87.1328 12.9111C87.0495 13.2601 87.0078 13.6533 87.0078 14.0908V14.4033C87.0078 14.7731 87.0573 15.1169 87.1562 15.4346C87.2604 15.7471 87.4115 16.0205 87.6094 16.2549C87.8073 16.4893 88.0469 16.6742 88.3281 16.8096C88.6094 16.9398 88.9297 17.0049 89.2891 17.0049C89.7422 17.0049 90.1458 16.9137 90.5 16.7314C90.8542 16.5492 91.1615 16.2913 91.4219 15.958L92.4141 16.9189C92.2318 17.1846 91.9948 17.4398 91.7031 17.6846C91.4115 17.9242 91.0547 18.1195 90.6328 18.2705C90.2161 18.4215 89.7318 18.4971 89.1797 18.4971Z" fill="#3D3D3D"/>
</g>
<defs>
<clipPath id="clip0_2644_1763">
<rect width="94" height="24" fill="white" transform="translate(0 0.84082)"/>
</clipPath>
</defs>
</svg>
